<svg xmlns="http://www.w3.org/2000/svg" xmlns:xlink="http://www.w3.org/1999/xlink" width="40" height="28" viewBox="0 0 33 23"><g fill="#fff" transform="translate(-930 -5181)"><use xlink:href="#A" x="955.314" y="5190.88"/><use xlink:href="#B" x="930" y="5181.15"/><use xlink:href="#C" x="959.966" y="5200.13"/><use xlink:href="#D" x="932.067" y="5200.73"/><use xlink:href="#E" x="942.405" y="5185.29"/><use xlink:href="#F" x="940.337" y="5201.1"/><use xlink:href="#F" x="951.708" y="5201.1"/></g><defs><path id="A" d="M3.8.535C2.678.006.572 0 .483 0 .216 0 0 .204 0 .455S.216.9.483.9c.543 0 2.12.08 2.885.44.07.033.143.048.216.048.177 0 .348-.092.433-.252.12-.225.023-.498-.216-.61z"/><path id="B" d="M31.525 16.746l-1.996-.537c-.086-.023-.146-.098-.146-.183V15.4a3.6 3.6 0 0 0 .462-.356c.702-.642 1.088-1.5 1.088-2.422v-.866l.193-.363c.212-.4.324-.846.324-1.29V7.754c0-.25-.216-.455-.483-.455h-4.652c-1.692 0-3.068 1.296-3.068 2.888v.027a2.3 2.3 0 0 0 .269 1.074l.248.466v.743c0 1.178.617 2.235 1.55 2.87v.658c0 .102 0 .143-.4.25l-.974.262-2.818-.964a.44.44 0 0 0-.132-.349l-.9-.89V12.84l.28-.23c1.136-1.002 1.787-2.418 1.787-3.883V7.533a5 5 0 0 0 .517-2.212V.455c0-.25-.216-.455-.483-.455h-7.236c-2.546 0-4.618 1.95-4.618 4.348v.973c0 .766.174 1.51.517 2.212V8.56c0 1.702.803 3.234 2.067 4.245v1.53l-.9.89a.44.44 0 0 0-.132.349l-2.974 1.018a2.59 2.59 0 0 0-.598.295l-.467-.22c1.4-.57 1.83-1.37 1.852-1.41a.43.43 0 0 0 0-.407c-.35-.656-.39-1.86-.425-2.825l-.042-.896C9.07 8.945 7.308 7.3 5.135 7.3s-3.935 1.646-4.1 3.83l-.042.896c-.034.966-.076 2.17-.425 2.825a.43.43 0 0 0 0 .407c.02.04.46.84 1.854 1.4l-1.297.61C.43 17.604 0 18.26 0 19v3.362c0 .25.216.455.483.455s.483-.204.483-.455V19c0-.383.226-.728.6-.9l1.615-.76.562.503a2.1 2.1 0 0 0 1.401.527 2.1 2.1 0 0 0 1.401-.527l.562-.503.527.248c-.248.373-.39.81-.39 1.27v3.503c0 .252.216.455.483.455s.483-.204.483-.455V18.85c0-.624.42-1.188 1.043-1.4l3.136-1.074 1.305 1.844c.167.236.434.387.734.415.033.003.067.005.1.005a1.03 1.03 0 0 0 .706-.276l.796-.75v4.74c0 .252.216.455.483.455s.483-.204.483-.455v-4.74l.796.75a1.03 1.03 0 0 0 .706.276l.1-.005c.3-.028.567-.18.734-.415l1.306-1.843 3.136 1.073c.624.213 1.043.777 1.043 1.4v3.503c0 .252.216.455.483.455s.483-.204.483-.455V18.85c0-.633-.267-1.226-.715-1.665l.12-.032c.12-.032.285-.077.45-.153l1.234 1.162v4.19c0 .252.216.455.483.455s.483-.204.483-.455v-4.19l1.226-1.154c.065.03.134.058.206.077l1.997.537c.456.122.774.52.774.966v3.765c0 .252.216.455.483.455s.483-.204.483-.455v-3.765c0-.85-.607-1.608-1.475-1.842zM3.1 15.942c-.904-.306-1.358-.714-1.55-.937a4.78 4.78 0 0 0 .276-1.09c.267.602.713 1.116 1.276 1.482v.545zm.85.83l.45.402c.412.37 1.058.37 1.47 0l.45-.402a.9.9 0 0 1-.118-.445v-.484c-.338.1-.696.152-1.067.152a3.78 3.78 0 0 1-1.067-.153v.485a.9.9 0 0 1-.118.445zm1.185-1.687c-1.443 0-2.618-1.106-2.618-2.464 0-.252-.216-.455-.483-.455a.53.53 0 0 0-.079.006l.004-.117.04-.862c.062-.818.41-1.57.977-2.122.574-.555 1.34-.86 2.16-.86s1.585.306 2.16.86c.568.55.916 1.304.977 2.122l.04.862.003.08c-.526-.763-1.338-1.325-2.388-1.642-.97-.293-1.803-.275-1.84-.274a.5.5 0 0 0-.335.139l-.872.852c-.185.18-.18.47.012.643s.498.17.684-.012l.726-.71c.625.03 2.636.25 3.418 1.87-.197 1.195-1.287 2.082-2.586 2.082zm2.034.316v.543c.903-.306 1.36-.718 1.552-.94-.132-.324-.217-.695-.275-1.087-.267.606-.714 1.12-1.276 1.483zm4.652-6.84v-1.13c0-.07-.016-.136-.048-.198-.31-.606-.47-1.25-.47-1.912v-.974C11.304 2.452 12.942.9 14.956.9h6.753v4.41c0 .663-.158 1.306-.47 1.912-.032.062-.048.13-.048.198v1.296c0 1.232-.526 2.375-1.482 3.22l-.37.296-.008.005c-.895.64-1.992.95-3.137.88-2.452-.15-4.373-2.156-4.373-4.568zm2.695 9.167c.016.001.024-.006.027-.01l1.2-1.14-2.28-1.468-.484.48 1.503 2.123c.003.004.01.013.025.014zm2-1.765l-2.618-1.685v-.85a5.69 5.69 0 0 0 2.242.609l.38.012a5.88 5.88 0 0 0 2.613-.603v.832l-2.618 1.685zm2 1.766c.016-.001.022-.01.025-.014l1.503-2.123-.484-.478-2.28 1.468 1.2 1.14c.003.003.01.01.027.01zm8.85-.398l-1.097-1.033c.02-.082.03-.17.03-.27v-.192a3.57 3.57 0 0 0 .957.159l.11.001c.367 0 .725-.052 1.066-.15v.183c0 .09.012.18.035.265l-1.102 1.038zm-.08-2.245a2.69 2.69 0 0 0 1.904-.695c.513-.468.795-1.096.795-1.77v-.973c0-.07.017-.14.05-.204l.244-.46c.145-.274.222-.58.222-.885v-1.9h-4.168c-1.158 0-2.1.887-2.1 1.978v.027c0 .23.058.46.167.667l.3.563c.034.063.05.133.05.204v.85c0 1.386 1.138 2.546 2.537 2.586z" fill-rule="evenodd"/><path id="C" d="M.483 0C.216 0 0 .204 0 .455v2.92c0 .25.216.455.483.455s.483-.204.483-.455V.455C.967.204.75 0 .483 0z"/><path id="D" d="M.483 0C.216 0 0 .204 0 .455v2.318c0 .25.216.455.483.455s.483-.204.483-.455V.455C.967.204.75 0 .483 0z"/><path id="E" d="M8.06 1.35C6.233-.37 2.408-.04.848.18.357.25 0 .642 0 1.11V2.16c0 .25.216.455.483.455s.483-.204.483-.455V1.11c0-.015.01-.03.025-.03.623-.088 1.86-.225 3.14-.144 1.507.094 2.6.45 3.245 1.06.19.178.495.178.684 0s.19-.466 0-.644z"/><path id="F" d="M.483 0C.216 0 0 .204 0 .455v1.946c0 .25.216.455.483.455s.483-.204.483-.455V.455C.967.204.75 0 .483 0z"/></defs></svg>