<svg xmlns="http://www.w3.org/2000/svg" xmlns:xlink="http://www.w3.org/1999/xlink" width="318" height="271"><g fill="#fff" transform="translate(-625 -5353)" opacity=".1"><use xlink:href="#A" x="626" y="5354.57"/><use xlink:href="#A" x="787.799" y="5354.57"/><use xlink:href="#B" x="638.244" y="5423.36"/><use xlink:href="#B" x="800.044" y="5423.36"/><use xlink:href="#C" x="649.614" y="5423.36"/><use xlink:href="#C" x="811.413" y="5423.36"/><use xlink:href="#D" x="660.984" y="5385.6"/><use xlink:href="#D" x="822.783" y="5385.6"/><use xlink:href="#E" x="673.228" y="5428.76"/><use xlink:href="#E" x="835.027" y="5428.76"/><use xlink:href="#F" x="683.723" y="5412.57"/><use xlink:href="#F" x="845.522" y="5412.57"/><use xlink:href="#G" x="694.218" y="5358.62"/><use xlink:href="#G" x="856.018" y="5358.62"/><use xlink:href="#G" x="704.713" y="5439.55"/><use xlink:href="#G" x="866.513" y="5439.55"/><use xlink:href="#G" x="715.208" y="5385.6"/><use xlink:href="#G" x="877.008" y="5385.6"/><use xlink:href="#H" x="725.703" y="5423.36"/><use xlink:href="#H" x="887.503" y="5423.36"/><use xlink:href="#I" x="736.198" y="5405.83"/><use xlink:href="#I" x="897.998" y="5405.83"/><use xlink:href="#J" x="747.568" y="5372.1"/><use xlink:href="#K" x="908.493" y="5370.76"/><use xlink:href="#L" x="757.189" y="5395.04"/><use xlink:href="#L" x="918.988" y="5395.04"/><use xlink:href="#G" x="767.684" y="5428.76"/><use xlink:href="#G" x="929.483" y="5428.76"/><use xlink:href="#G" x="778.179" y="5370.76"/><use xlink:href="#G" x="939.978" y="5370.76"/></g><defs><path id="A" d="M-.25 220.528v2h4v-2h-4zM3.75.57v-2h-4v2h4zm0 219.957V.57h-4v219.957h4z"/><path id="B" d="M-1.125 151.74v2h4v-2h-4zm4-150.445v-2h-4v2h4zm0 150.445V1.294h-4V151.74h4z"/><path id="C" d="M-1.125 129.512v2h4v-2h-4zm4-128.218v-2h-4v2h4zm0 128.218V1.294h-4v128.218h4z"/><path id="D" d="M-1.125 134.908v2h4v-2h-4zm4-133.566v-2h-4v2h4zm0 133.566V1.342h-4v133.566h4z"/><path id="E" d="M-1.125 192.92v2h4v-2h-4zm4-191.578v-2h-4v2h4zm0 191.578V1.342h-4V192.92h4z"/><path id="F" d="M-1.125 147.467v2h4v-2h-4zM2.875 0v-2h-4v2h4zm0 147.467V0h-4v147.467h4z"/><path id="G" d="M-1.125 164.586v2h4v-2h-4zm4-163.243v-2h-4v2h4zm0 163.243V1.343h-4v163.243h4z"/><path id="H" d="M-1.125 87.672v2h4v-2h-4zm4-87.67v-2h-4v2h4zm0 87.672V0h-4v87.672h4z"/><path id="I" d="M-1.125 183.7v2h4v-2h-4zm4-182.367v-2h-4v2h4zm0 182.367V1.343h-4V183.7h4z"/><path id="J" d="M-2 100.144v2h4v-2h-4zM2 0v-2h-4v2h4zm0 100.144V0h-4v100.144h4z"/><path id="K" d="M-1.125 101.487v2h4v-2h-4zm4-100.144v-2h-4v2h4zm0 100.144V1.343h-4v100.144h4z"/><path id="L" d="M-1.125 152.5v2h4v-2h-4zm4-151.167v-2h-4v2h4zm0 151.167V1.343h-4V152.5h4z"/></defs></svg>