<svg width="318" height="271" viewBox="0 0 318 271" version="1.1" xmlns="http://www.w3.org/2000/svg" xmlns:xlink="http://www.w3.org/1999/xlink">
<title>Group 28 Copy</title>
<desc>Created using Figma</desc>
<g id="Canvas" transform="translate(-625 -5353)">
<g id="Group 28 Copy" opacity="0.09">
<g id="Line">
<use xlink:href="#path0_stroke" transform="translate(626 5354.57)" fill="#FFFFFF"/>
</g>
<g id="Line Copy 22">
<use xlink:href="#path0_stroke" transform="translate(787.799 5354.57)" fill="#FFFFFF"/>
</g>
<g id="Line Copy 8">
<use xlink:href="#path1_stroke" transform="translate(638.244 5423.36)" fill="#FFFFFF"/>
</g>
<g id="Line Copy 23">
<use xlink:href="#path1_stroke" transform="translate(800.044 5423.36)" fill="#FFFFFF"/>
</g>
<g id="Line Copy 9">
<use xlink:href="#path2_stroke" transform="translate(649.614 5423.36)" fill="#FFFFFF"/>
</g>
<g id="Line Copy 24">
<use xlink:href="#path2_stroke" transform="translate(811.413 5423.36)" fill="#FFFFFF"/>
</g>
<g id="Line Copy 10">
<use xlink:href="#path3_stroke" transform="translate(660.984 5385.6)" fill="#FFFFFF"/>
</g>
<g id="Line Copy 25">
<use xlink:href="#path3_stroke" transform="translate(822.783 5385.6)" fill="#FFFFFF"/>
</g>
<g id="Line Copy 11">
<use xlink:href="#path4_stroke" transform="translate(673.228 5428.76)" fill="#FFFFFF"/>
</g>
<g id="Line Copy 26">
<use xlink:href="#path4_stroke" transform="translate(835.027 5428.76)" fill="#FFFFFF"/>
</g>
<g id="Line Copy 12">
<use xlink:href="#path5_stroke" transform="translate(683.723 5412.57)" fill="#FFFFFF"/>
</g>
<g id="Line Copy 27">
<use xlink:href="#path5_stroke" transform="translate(845.522 5412.57)" fill="#FFFFFF"/>
</g>
<g id="Line Copy 13">
<use xlink:href="#path6_stroke" transform="translate(694.218 5358.62)" fill="#FFFFFF"/>
</g>
<g id="Line Copy 28">
<use xlink:href="#path6_stroke" transform="translate(856.018 5358.62)" fill="#FFFFFF"/>
</g>
<g id="Line Copy 14">
<use xlink:href="#path6_stroke" transform="translate(704.713 5439.55)" fill="#FFFFFF"/>
</g>
<g id="Line Copy 29">
<use xlink:href="#path6_stroke" transform="translate(866.513 5439.55)" fill="#FFFFFF"/>
</g>
<g id="Line Copy 15">
<use xlink:href="#path6_stroke" transform="translate(715.208 5385.6)" fill="#FFFFFF"/>
</g>
<g id="Line Copy 30">
<use xlink:href="#path6_stroke" transform="translate(877.008 5385.6)" fill="#FFFFFF"/>
</g>
<g id="Line Copy 16">
<use xlink:href="#path7_stroke" transform="translate(725.703 5423.36)" fill="#FFFFFF"/>
</g>
<g id="Line Copy 31">
<use xlink:href="#path7_stroke" transform="translate(887.503 5423.36)" fill="#FFFFFF"/>
</g>
<g id="Line Copy 17">
<use xlink:href="#path8_stroke" transform="translate(736.198 5405.83)" fill="#FFFFFF"/>
</g>
<g id="Line Copy 32">
<use xlink:href="#path8_stroke" transform="translate(897.998 5405.83)" fill="#FFFFFF"/>
</g>
<g id="Line Copy 18">
<use xlink:href="#path9_stroke" transform="translate(747.568 5372.1)" fill="#FFFFFF"/>
</g>
<g id="Line Copy 33">
<use xlink:href="#path10_stroke" transform="translate(908.493 5370.76)" fill="#FFFFFF"/>
</g>
<g id="Line Copy 19">
<use xlink:href="#path11_stroke" transform="translate(757.189 5395.04)" fill="#FFFFFF"/>
</g>
<g id="Line Copy 34">
<use xlink:href="#path11_stroke" transform="translate(918.988 5395.04)" fill="#FFFFFF"/>
</g>
<g id="Line Copy 20">
<use xlink:href="#path6_stroke" transform="translate(767.684 5428.76)" fill="#FFFFFF"/>
</g>
<g id="Line Copy 35">
<use xlink:href="#path6_stroke" transform="translate(929.483 5428.76)" fill="#FFFFFF"/>
</g>
<g id="Line Copy 21">
<use xlink:href="#path6_stroke" transform="translate(778.179 5370.76)" fill="#FFFFFF"/>
</g>
<g id="Line Copy 36">
<use xlink:href="#path6_stroke" transform="translate(939.978 5370.76)" fill="#FFFFFF"/>
</g>
</g>
</g>
<defs>
<path id="path0_stroke" d="M -0.250817 220.528L -0.250817 222.528L 3.74918 222.528L 3.74918 220.528L -0.250817 220.528ZM 3.74918 0.570986L 3.74918 -1.42901L -0.250817 -1.42901L -0.250817 0.570986L 3.74918 0.570986ZM 3.74918 220.528L 3.74918 0.570986L -0.250817 0.570986L -0.250817 220.528L 3.74918 220.528Z"/>
<path id="path1_stroke" d="M -1.12541 151.739L -1.12541 153.739L 2.87459 153.739L 2.87459 151.739L -1.12541 151.739ZM 2.87459 1.29437L 2.87459 -0.705633L -1.12541 -0.705633L -1.12541 1.29437L 2.87459 1.29437ZM 2.87459 151.739L 2.87459 1.29437L -1.12541 1.29437L -1.12541 151.739L 2.87459 151.739Z"/>
<path id="path2_stroke" d="M -1.12541 129.512L -1.12541 131.512L 2.87459 131.512L 2.87459 129.512L -1.12541 129.512ZM 2.87459 1.29437L 2.87459 -0.705633L -1.12541 -0.705633L -1.12541 1.29437L 2.87459 1.29437ZM 2.87459 129.512L 2.87459 1.29437L -1.12541 1.29437L -1.12541 129.512L 2.87459 129.512Z"/>
<path id="path3_stroke" d="M -1.12541 134.908L -1.12541 136.908L 2.87459 136.908L 2.87459 134.908L -1.12541 134.908ZM 2.87459 1.34198L 2.87459 -0.658018L -1.12541 -0.658018L -1.12541 1.34198L 2.87459 1.34198ZM 2.87459 134.908L 2.87459 1.34198L -1.12541 1.34198L -1.12541 134.908L 2.87459 134.908Z"/>
<path id="path4_stroke" d="M -1.12541 192.92L -1.12541 194.92L 2.87459 194.92L 2.87459 192.92L -1.12541 192.92ZM 2.87459 1.34198L 2.87459 -0.658018L -1.12541 -0.658018L -1.12541 1.34198L 2.87459 1.34198ZM 2.87459 192.92L 2.87459 1.34198L -1.12541 1.34198L -1.12541 192.92L 2.87459 192.92Z"/>
<path id="path5_stroke" d="M -1.12541 147.467L -1.12541 149.467L 2.87459 149.467L 2.87459 147.467L -1.12541 147.467ZM 2.87459 0L 2.87459 -2L -1.12541 -2L -1.12541 0L 2.87459 0ZM 2.87459 147.467L 2.87459 0L -1.12541 0L -1.12541 147.467L 2.87459 147.467Z"/>
<path id="path6_stroke" d="M -1.12541 164.586L -1.12541 166.586L 2.87459 166.586L 2.87459 164.586L -1.12541 164.586ZM 2.87459 1.34322L 2.87459 -0.656779L -1.12541 -0.656779L -1.12541 1.34322L 2.87459 1.34322ZM 2.87459 164.586L 2.87459 1.34322L -1.12541 1.34322L -1.12541 164.586L 2.87459 164.586Z"/>
<path id="path7_stroke" d="M -1.12541 87.6715L -1.12541 89.6715L 2.87459 89.6715L 2.87459 87.6715L -1.12541 87.6715ZM 2.87459 0L 2.87459 -2L -1.12541 -2L -1.12541 0L 2.87459 0ZM 2.87459 87.6715L 2.87459 0L -1.12541 0L -1.12541 87.6715L 2.87459 87.6715Z"/>
<path id="path8_stroke" d="M -1.12541 183.71L -1.12541 185.71L 2.87459 185.71L 2.87459 183.71L -1.12541 183.71ZM 2.87459 1.34322L 2.87459 -0.656779L -1.12541 -0.656779L -1.12541 1.34322L 2.87459 1.34322ZM 2.87459 183.71L 2.87459 1.34322L -1.12541 1.34322L -1.12541 183.71L 2.87459 183.71Z"/>
<path id="path9_stroke" d="M -2 100.144L -2 102.144L 2 102.144L 2 100.144L -2 100.144ZM 2 0L 2 -2L -2 -2L -2 0L 2 0ZM 2 100.144L 2 0L -2 0L -2 100.144L 2 100.144Z"/>
<path id="path10_stroke" d="M -1.12541 101.487L -1.12541 103.487L 2.87459 103.487L 2.87459 101.487L -1.12541 101.487ZM 2.87459 1.34322L 2.87459 -0.656779L -1.12541 -0.656779L -1.12541 1.34322L 2.87459 1.34322ZM 2.87459 101.487L 2.87459 1.34322L -1.12541 1.34322L -1.12541 101.487L 2.87459 101.487Z"/>
<path id="path11_stroke" d="M -1.12541 152.51L -1.12541 154.51L 2.87459 154.51L 2.87459 152.51L -1.12541 152.51ZM 2.87459 1.34322L 2.87459 -0.656779L -1.12541 -0.656779L -1.12541 1.34322L 2.87459 1.34322ZM 2.87459 152.51L 2.87459 1.34322L -1.12541 1.34322L -1.12541 152.51L 2.87459 152.51Z"/>
</defs>
</svg>
