<svg xmlns="http://www.w3.org/2000/svg" xmlns:xlink="http://www.w3.org/1999/xlink" width="32" height="37" viewBox="0 0 25 29"><g fill="#fff" transform="translate(-657 -5173)"><use xlink:href="#A" x="657.024" y="5173"/><use xlink:href="#B" x="659.772" y="5180.08"/><use xlink:href="#C" x="668.058" y="5184.24"/><use xlink:href="#D" x="669.104" y="5195.76"/><use xlink:href="#E" x="669.104" y="5181.25"/><use xlink:href="#F" x="663.346" y="5193.86"/><use xlink:href="#G" x="673.768" y="5183.6"/><use xlink:href="#H" x="660.96" y="5189.27"/><use xlink:href="#I" x="675.7" y="5189.27"/><use xlink:href="#J" x="663.346" y="5183.6"/><use xlink:href="#K" x="673.767" y="5193.86"/></g><defs><path id="A" d="M15.054 4.64v-1.52h.268c.22 0 .4-.176.4-.394v-.883C15.722.828 14.88 0 13.847 0h-2.734C10.08 0 9.24.828 9.24 1.845v.883c0 .218.18.394.4.394h.27v1.52a12.52 12.52 0 0 0-4.96 2.233L4.03 5.97c-.322-.316-.845-.316-1.167 0L1.73 7.086a.8.8 0 0 0 0 1.148l.903.89C.984 11.205 0 13.822 0 16.66c0 6.773 5.6 12.283 12.48 12.283s12.48-5.5 12.48-12.283c0-5.905-4.256-10.85-9.907-12.02zM10.04 1.845c0-.583.482-1.058 1.075-1.058h2.734c.592 0 1.075.475 1.075 1.058v.49H10.04v-.49zm4.215 1.305h-3.546V4.5a12.79 12.79 0 0 1 1.773-.124c.602 0 1.194.043 1.773.125V3.15zM2.296 7.678c-.007-.027-.002-.032 0-.034L3.43 6.528c.01-.01.026-.01.035 0l.858.844a12.47 12.47 0 0 0-1.175 1.143l-.85-.838zM.8 16.66C.8 23 6.04 28.156 12.48 28.156S24.16 23 24.16 16.66 18.92 5.165 12.48 5.165.8 10.32.8 16.66z" fill-rule="evenodd"/><path id="B" d="M0 9.578C0 4.297 4.366 0 9.732 0s9.732 4.297 9.732 9.578-4.366 9.578-9.732 9.578S0 14.86 0 9.578zm.8 0c0 4.847 4.007 8.79 8.932 8.79s8.932-3.944 8.932-8.79S14.658.787 9.732.787.8 4.73.8 9.578z" fill-rule="evenodd"/><path id="C" d="M1.838.315C1.8.13 1.636 0 1.446 0s-.354.13-.392.315L0 5.423c0 .785.65 1.423 1.446 1.423s1.446-.638 1.446-1.423c0-.183-1.054-5.108-1.054-5.108zm-.392 2.042l.35 1.686A1.48 1.48 0 0 0 1.446 4a1.48 1.48 0 0 0-.351.042l.35-1.686zM.8 5.423c0 .35.3.636.646.636s.646-.285.646-.636-.3-.636-.646-.636S.8 5.073.8 5.423z" fill-rule="evenodd"/><path id="D" d="M.4 0C.18 0 0 .176 0 .394v1.524c0 .217.18.394.4.394s.4-.176.4-.394V.394C.8.176.62 0 .4 0z"/><path id="E" d="M.4 2.312c.22 0 .4-.176.4-.394V.394C.8.176.62 0 .4 0S0 .176 0 .394v1.524c0 .217.18.394.4.394z"/><path id="F" d="M1.212.115L.117 1.193a.39.39 0 0 0 0 .557c.078.077.18.115.283.115s.205-.038.283-.115L1.778.672a.39.39 0 0 0 0-.557c-.156-.154-.4-.154-.566 0z"/><path id="G" d="M.4 1.865c.106 0 .208-.042.283-.115L1.778.672a.39.39 0 0 0 0-.557c-.156-.154-.4-.154-.566 0L.13 1.182A.39.39 0 0 0 0 1.472c0 .217.18.394.4.394z"/><path id="H" d="M1.95 0H.4C.18 0 0 .176 0 .394s.18.394.4.394h1.55c.22 0 .4-.176.4-.394S2.17 0 1.95 0z"/><path id="I" d="M1.948 0H.4C.18 0 0 .176 0 .394s.18.394.4.394h1.548c.22 0 .4-.176.4-.394S2.17 0 1.948 0z"/><path id="J" d="M1.212 1.75c.075.074.177.115.283.115.22 0 .4-.176.4-.394a.39.39 0 0 0-.124-.284L.683.115c-.156-.154-.41-.154-.566 0a.39.39 0 0 0 0 .557L1.212 1.75z"/><path id="K" d="M.683.115c-.156-.154-.4-.154-.566 0a.39.39 0 0 0 0 .557L1.212 1.75c.078.077.18.115.283.115s.205-.038.283-.115a.39.39 0 0 0 0-.557L.683.115z"/></defs></svg>