<svg width="236" height="104" viewBox="0 0 236 104" version="1.1" xmlns="http://www.w3.org/2000/svg" xmlns:xlink="http://www.w3.org/1999/xlink">
<title>Group 39</title>
<desc>Created using Figma</desc>
<g id="Canvas" transform="translate(81 883)">
<g id="Group 39">
<g id="Rectangle 9">
<use xlink:href="#path0_fill" transform="translate(-81 -883)" fill="url(#paint0_linear)"/>
</g>
<g id="39">
<use xlink:href="#path1_fill" transform="translate(-58 -873)" fill="#FFFFFF"/>
</g>
<g id="&#208;&#178;&#208;&#176;&#209;&#128;&#208;&#184;&#208;&#176;&#208;&#189;&#209;&#130;&#208;&#190;&#208;&#178; &#209;&#128;&#208;&#176;&#208;&#183;&#208;&#178;&#208;&#184;&#209;&#130;&#208;&#184;&#209;&#143; &#209;&#129;">
<use xlink:href="#path2_fill" transform="translate(33 -863)" fill="#FFFFFF"/>
</g>
</g>
</g>
<defs>
<linearGradient id="paint0_linear" x1="0" y1="0" x2="1" y2="0" gradientUnits="userSpaceOnUse" gradientTransform="matrix(236 0 0 104 0 52)">
<stop offset="0" stop-color="#95D8A0"/>
<stop offset="1" stop-color="#C3DE8E"/>
</linearGradient>
<path id="path0_fill" fill-rule="evenodd" d="M 0 19C 0 8.50659 8.50659 0 19 0L 217 0C 227.493 0 236 8.50659 236 19L 236 85C 236 95.4934 227.493 104 217 104L 19 104C 8.50659 104 0 95.4934 0 85L 0 19Z"/>
<path id="path1_fill" d="M 13.7812 38.2422L 18.668 38.2422C 21.7383 38.1953 24.1523 37.3867 25.9102 35.8164C 27.668 34.2461 28.5469 32.125 28.5469 29.4531C 28.5469 23.4531 25.5586 20.4531 19.582 20.4531C 16.7695 20.4531 14.5195 21.2617 12.832 22.8789C 11.168 24.4727 10.3359 26.5937 10.3359 29.2422L 3.83203 29.2422C 3.83203 25.1875 5.30859 21.8242 8.26172 19.1523C 11.2383 16.457 15.0117 15.1094 19.582 15.1094C 24.4102 15.1094 28.1953 16.3867 30.9375 18.9414C 33.6797 21.4961 35.0508 25.0469 35.0508 29.5938C 35.0508 31.8203 34.3242 33.9766 32.8711 36.0625C 31.4414 38.1484 29.4844 39.707 27 40.7383C 29.8125 41.6289 31.9805 43.1055 33.5039 45.168C 35.0508 47.2305 35.8242 49.75 35.8242 52.7266C 35.8242 57.3203 34.3242 60.9648 31.3242 63.6602C 28.3242 66.3555 24.4219 67.7031 19.6172 67.7031C 14.8125 67.7031 10.8984 66.4023 7.875 63.8008C 4.875 61.1992 3.375 57.7656 3.375 53.5L 9.91406 53.5C 9.91406 56.1953 10.793 58.3516 12.5508 59.9688C 14.3086 61.5859 16.6641 62.3945 19.6172 62.3945C 22.7578 62.3945 25.1602 61.5742 26.8242 59.9336C 28.4883 58.293 29.3203 55.9375 29.3203 52.8672C 29.3203 49.8906 28.4062 47.6055 26.5781 46.0117C 24.75 44.418 22.1133 43.5977 18.668 43.5508L 13.7812 43.5508L 13.7812 38.2422ZM 69.6797 44.5C 68.3203 46.1172 66.6914 47.418 64.793 48.4023C 62.918 49.3867 60.8555 49.8789 58.6055 49.8789C 55.6523 49.8789 53.0742 49.1523 50.8711 47.6992C 48.6914 46.2461 47.0039 44.207 45.8086 41.582C 44.6133 38.9336 44.0156 36.0156 44.0156 32.8281C 44.0156 29.4062 44.6602 26.3242 45.9492 23.582C 47.2617 20.8398 49.1133 18.7422 51.5039 17.2891C 53.8945 15.8359 56.6836 15.1094 59.8711 15.1094C 64.9336 15.1094 68.918 17.0078 71.8242 20.8047C 74.7539 24.5781 76.2188 29.7344 76.2188 36.2734L 76.2188 38.1719C 76.2188 48.1328 74.25 55.4102 70.3125 60.0039C 66.375 64.5742 60.4336 66.918 52.4883 67.0352L 51.2227 67.0352L 51.2227 61.5508L 52.5938 61.5508C 57.9609 61.457 62.0859 60.0625 64.9688 57.3672C 67.8516 54.6484 69.4219 50.3594 69.6797 44.5ZM 59.6602 44.5C 61.8398 44.5 63.8438 43.832 65.6719 42.4961C 67.5234 41.1602 68.8711 39.5078 69.7148 37.5391L 69.7148 34.9375C 69.7148 30.6719 68.7891 27.2031 66.9375 24.5312C 65.0859 21.8594 62.7422 20.5234 59.9062 20.5234C 57.0469 20.5234 54.75 21.625 53.0156 23.8281C 51.2812 26.0078 50.4141 28.8906 50.4141 32.4766C 50.4141 35.9687 51.2461 38.8516 52.9102 41.125C 54.5977 43.375 56.8477 44.5 59.6602 44.5Z"/>
<path id="path2_fill" d="M 1.37988 17L 1.37988 7.49023L 5.08887 7.49023C 6.35449 7.49023 7.32422 7.71289 7.99805 8.1582C 8.67773 8.59766 9.01758 9.24512 9.01758 10.1006C 9.01758 10.54 8.88574 10.9385 8.62207 11.2959C 8.3584 11.6475 7.96875 11.917 7.45312 12.1045C 8.02734 12.2393 8.4873 12.5029 8.83301 12.8955C 9.18457 13.2881 9.36035 13.7568 9.36035 14.3018C 9.36035 15.1748 9.03809 15.8428 8.39355 16.3057C 7.75488 16.7686 6.84961 17 5.67773 17L 1.37988 17ZM 3.00586 12.8252L 3.00586 15.6904L 5.69531 15.6904C 6.375 15.6904 6.88184 15.5645 7.21582 15.3125C 7.55566 15.0605 7.72559 14.7061 7.72559 14.249C 7.72559 13.2998 7.02832 12.8252 5.63379 12.8252L 3.00586 12.8252ZM 3.00586 11.5244L 5.10645 11.5244C 6.62988 11.5244 7.3916 11.0791 7.3916 10.1885C 7.3916 9.29785 6.6709 8.83789 5.22949 8.80859L 3.00586 8.80859L 3.00586 11.5244ZM 17.3848 17C 17.291 16.8125 17.2148 16.4785 17.1562 15.998C 16.4004 16.7832 15.498 17.1758 14.4492 17.1758C 13.5117 17.1758 12.7412 16.9121 12.1377 16.3848C 11.54 15.8516 11.2412 15.1777 11.2412 14.3633C 11.2412 13.373 11.6162 12.6055 12.3662 12.0605C 13.1221 11.5098 14.1826 11.2344 15.5479 11.2344L 17.1299 11.2344L 17.1299 10.4873C 17.1299 9.91895 16.96 9.46777 16.6201 9.13379C 16.2803 8.79395 15.7793 8.62402 15.1172 8.62402C 14.5371 8.62402 14.0508 8.77051 13.6582 9.06348C 13.2656 9.35645 13.0693 9.71094 13.0693 10.127L 11.4346 10.127C 11.4346 9.65234 11.6016 9.19531 11.9355 8.75586C 12.2754 8.31055 12.7324 7.95898 13.3066 7.70117C 13.8867 7.44336 14.5225 7.31445 15.2139 7.31445C 16.3096 7.31445 17.168 7.58984 17.7891 8.14062C 18.4102 8.68555 18.7324 9.43848 18.7559 10.3994L 18.7559 14.7764C 18.7559 15.6494 18.8672 16.3438 19.0898 16.8594L 19.0898 17L 17.3848 17ZM 14.6865 15.7607C 15.1963 15.7607 15.6797 15.6289 16.1367 15.3652C 16.5938 15.1016 16.9248 14.7588 17.1299 14.3369L 17.1299 12.3857L 15.8555 12.3857C 13.8633 12.3857 12.8672 12.9688 12.8672 14.1348C 12.8672 14.6445 13.0371 15.043 13.377 15.3301C 13.7168 15.6172 14.1533 15.7607 14.6865 15.7607ZM 29.3379 12.3506C 29.3379 13.7979 29.0068 14.9639 28.3447 15.8486C 27.6826 16.7334 26.7861 17.1758 25.6553 17.1758C 24.501 17.1758 23.5928 16.8096 22.9307 16.0771L 22.9307 20.6562L 21.3047 20.6562L 21.3047 7.49023L 22.79 7.49023L 22.8691 8.54492C 23.5313 7.72461 24.4512 7.31445 25.6289 7.31445C 26.7715 7.31445 27.6738 7.74512 28.3359 8.60645C 29.0039 9.46777 29.3379 10.666 29.3379 12.2012L 29.3379 12.3506ZM 27.7119 12.166C 27.7119 11.0938 27.4834 10.2471 27.0264 9.62598C 26.5693 9.00488 25.9424 8.69434 25.1455 8.69434C 24.1611 8.69434 23.4229 9.13086 22.9307 10.0039L 22.9307 14.5479C 23.417 15.415 24.1611 15.8486 25.1631 15.8486C 25.9424 15.8486 26.5605 15.541 27.0176 14.9258C 27.4805 14.3047 27.7119 13.3848 27.7119 12.166ZM 37.5645 7.49023L 39.1904 7.49023L 39.1904 17L 37.5645 17L 37.5645 10.0654L 33.1787 17L 31.5527 17L 31.5527 7.49023L 33.1787 7.49023L 33.1787 14.4336L 37.5645 7.49023ZM 47.6719 17C 47.5781 16.8125 47.502 16.4785 47.4434 15.998C 46.6875 16.7832 45.7852 17.1758 44.7363 17.1758C 43.7988 17.1758 43.0283 16.9121 42.4248 16.3848C 41.8271 15.8516 41.5283 15.1777 41.5283 14.3633C 41.5283 13.373 41.9033 12.6055 42.6533 12.0605C 43.4092 11.5098 44.4697 11.2344 45.835 11.2344L 47.417 11.2344L 47.417 10.4873C 47.417 9.91895 47.2471 9.46777 46.9072 9.13379C 46.5674 8.79395 46.0664 8.62402 45.4043 8.62402C 44.8242 8.62402 44.3379 8.77051 43.9453 9.06348C 43.5527 9.35645 43.3564 9.71094 43.3564 10.127L 41.7217 10.127C 41.7217 9.65234 41.8887 9.19531 42.2227 8.75586C 42.5625 8.31055 43.0195 7.95898 43.5938 7.70117C 44.1738 7.44336 44.8096 7.31445 45.501 7.31445C 46.5967 7.31445 47.4551 7.58984 48.0762 8.14062C 48.6973 8.68555 49.0195 9.43848 49.043 10.3994L 49.043 14.7764C 49.043 15.6494 49.1543 16.3438 49.377 16.8594L 49.377 17L 47.6719 17ZM 44.9736 15.7607C 45.4834 15.7607 45.9668 15.6289 46.4238 15.3652C 46.8809 15.1016 47.2119 14.7588 47.417 14.3369L 47.417 12.3857L 46.1426 12.3857C 44.1504 12.3857 43.1543 12.9688 43.1543 14.1348C 43.1543 14.6445 43.3242 15.043 43.6641 15.3301C 44.0039 15.6172 44.4404 15.7607 44.9736 15.7607ZM 59.3613 17L 57.7354 17L 57.7354 12.9395L 53.3672 12.9395L 53.3672 17L 51.7324 17L 51.7324 7.49023L 53.3672 7.49023L 53.3672 11.6123L 57.7354 11.6123L 57.7354 7.49023L 59.3613 7.49023L 59.3613 17ZM 69.0469 8.80859L 65.8564 8.80859L 65.8564 17L 64.2305 17L 64.2305 8.80859L 61.1016 8.80859L 61.1016 7.49023L 69.0469 7.49023L 69.0469 8.80859ZM 69.8291 12.1572C 69.8291 11.2256 70.0107 10.3877 70.374 9.64355C 70.7432 8.89941 71.2529 8.3252 71.9033 7.9209C 72.5596 7.5166 73.3066 7.31445 74.1445 7.31445C 75.4395 7.31445 76.4854 7.7627 77.2822 8.65918C 78.085 9.55566 78.4863 10.748 78.4863 12.2363L 78.4863 12.3506C 78.4863 13.2764 78.3076 14.1084 77.9502 14.8467C 77.5986 15.5791 77.0918 16.1504 76.4297 16.5605C 75.7734 16.9707 75.0176 17.1758 74.1621 17.1758C 72.873 17.1758 71.8271 16.7275 71.0244 15.8311C 70.2275 14.9346 69.8291 13.748 69.8291 12.2715L 69.8291 12.1572ZM 71.4639 12.3506C 71.4639 13.4053 71.707 14.252 72.1934 14.8906C 72.6855 15.5293 73.3418 15.8486 74.1621 15.8486C 74.9883 15.8486 75.6445 15.5264 76.1309 14.8818C 76.6172 14.2314 76.8604 13.3232 76.8604 12.1572C 76.8604 11.1143 76.6113 10.2705 76.1133 9.62598C 75.6211 8.97559 74.9648 8.65039 74.1445 8.65039C 73.3418 8.65039 72.6943 8.96973 72.2021 9.6084C 71.71 10.2471 71.4639 11.1611 71.4639 12.3506ZM 80.6748 17L 80.6748 7.49023L 84.3838 7.49023C 85.6494 7.49023 86.6191 7.71289 87.293 8.1582C 87.9727 8.59766 88.3125 9.24512 88.3125 10.1006C 88.3125 10.54 88.1807 10.9385 87.917 11.2959C 87.6533 11.6475 87.2637 11.917 86.748 12.1045C 87.3223 12.2393 87.7822 12.5029 88.1279 12.8955C 88.4795 13.2881 88.6553 13.7568 88.6553 14.3018C 88.6553 15.1748 88.333 15.8428 87.6885 16.3057C 87.0498 16.7686 86.1445 17 84.9727 17L 80.6748 17ZM 82.3008 12.8252L 82.3008 15.6904L 84.9902 15.6904C 85.6699 15.6904 86.1768 15.5645 86.5107 15.3125C 86.8506 15.0605 87.0205 14.7061 87.0205 14.249C 87.0205 13.2998 86.3232 12.8252 84.9287 12.8252L 82.3008 12.8252ZM 82.3008 11.5244L 84.4014 11.5244C 85.9248 11.5244 86.6865 11.0791 86.6865 10.1885C 86.6865 9.29785 85.9658 8.83789 84.5244 8.80859L 82.3008 8.80859L 82.3008 11.5244ZM 9.26367 34.3506C 9.26367 35.7979 8.93262 36.9639 8.27051 37.8486C 7.6084 38.7334 6.71191 39.1758 5.58105 39.1758C 4.42676 39.1758 3.51855 38.8096 2.85645 38.0771L 2.85645 42.6562L 1.23047 42.6562L 1.23047 29.4902L 2.71582 29.4902L 2.79492 30.5449C 3.45703 29.7246 4.37695 29.3145 5.55469 29.3145C 6.69727 29.3145 7.59961 29.7451 8.26172 30.6064C 8.92969 31.4678 9.26367 32.666 9.26367 34.2012L 9.26367 34.3506ZM 7.6377 34.166C 7.6377 33.0938 7.40918 32.2471 6.95215 31.626C 6.49512 31.0049 5.86816 30.6943 5.07129 30.6943C 4.08691 30.6943 3.34863 31.1309 2.85645 32.0039L 2.85645 36.5479C 3.34277 37.415 4.08691 37.8486 5.08887 37.8486C 5.86816 37.8486 6.48633 37.541 6.94336 36.9258C 7.40625 36.3047 7.6377 35.3848 7.6377 34.166ZM 17.209 39C 17.1152 38.8125 17.0391 38.4785 16.9805 37.998C 16.2246 38.7832 15.3223 39.1758 14.2734 39.1758C 13.3359 39.1758 12.5654 38.9121 11.9619 38.3848C 11.3643 37.8516 11.0654 37.1777 11.0654 36.3633C 11.0654 35.373 11.4404 34.6055 12.1904 34.0605C 12.9463 33.5098 14.0068 33.2344 15.3721 33.2344L 16.9541 33.2344L 16.9541 32.4873C 16.9541 31.9189 16.7842 31.4678 16.4443 31.1338C 16.1045 30.7939 15.6035 30.624 14.9414 30.624C 14.3613 30.624 13.875 30.7705 13.4824 31.0635C 13.0898 31.3564 12.8936 31.7109 12.8936 32.127L 11.2588 32.127C 11.2588 31.6523 11.4258 31.1953 11.7598 30.7559C 12.0996 30.3105 12.5566 29.959 13.1309 29.7012C 13.7109 29.4434 14.3467 29.3145 15.0381 29.3145C 16.1338 29.3145 16.9922 29.5898 17.6133 30.1406C 18.2344 30.6855 18.5566 31.4385 18.5801 32.3994L 18.5801 36.7764C 18.5801 37.6494 18.6914 38.3438 18.9141 38.8594L 18.9141 39L 17.209 39ZM 14.5107 37.7607C 15.0205 37.7607 15.5039 37.6289 15.9609 37.3652C 16.418 37.1016 16.749 36.7588 16.9541 36.3369L 16.9541 34.3857L 15.6797 34.3857C 13.6875 34.3857 12.6914 34.9688 12.6914 36.1348C 12.6914 36.6445 12.8613 37.043 13.2012 37.3301C 13.541 37.6172 13.9775 37.7607 14.5107 37.7607ZM 26.3584 32.0918C 26.3584 31.6465 26.1885 31.2949 25.8486 31.0371C 25.5088 30.7734 25.043 30.6416 24.4512 30.6416C 23.877 30.6416 23.3965 30.791 23.0098 31.0898C 22.6289 31.3887 22.4385 31.7402 22.4385 32.1445L 20.8213 32.1445C 20.8213 31.3184 21.167 30.6416 21.8584 30.1143C 22.5498 29.5869 23.4141 29.3232 24.4512 29.3232C 25.5645 29.3232 26.4316 29.5635 27.0527 30.0439C 27.6738 30.5186 27.9844 31.1982 27.9844 32.083C 27.9844 32.5107 27.8555 32.9033 27.5977 33.2607C 27.3398 33.6182 26.9736 33.9023 26.499 34.1133C 27.6064 34.4883 28.1602 35.2266 28.1602 36.3281C 28.1602 37.2012 27.8232 37.8926 27.1494 38.4023C 26.4756 38.9121 25.5762 39.167 24.4512 39.167C 23.3555 39.167 22.4502 38.9004 21.7354 38.3672C 21.0264 37.8281 20.6719 37.1016 20.6719 36.1875L 22.2891 36.1875C 22.2891 36.6504 22.4941 37.0488 22.9043 37.3828C 23.3203 37.7109 23.8359 37.875 24.4512 37.875C 25.0723 37.875 25.5732 37.7314 25.9541 37.4443C 26.335 37.1572 26.5254 36.7852 26.5254 36.3281C 26.5254 35.7949 26.3643 35.4141 26.042 35.1855C 25.7256 34.9512 25.2305 34.834 24.5566 34.834L 22.9307 34.834L 22.9307 33.4629L 24.6973 33.4629C 25.8047 33.4336 26.3584 32.9766 26.3584 32.0918ZM 30.4189 39L 30.4189 29.4902L 34.1279 29.4902C 35.3936 29.4902 36.3633 29.7129 37.0371 30.1582C 37.7168 30.5977 38.0566 31.2451 38.0566 32.1006C 38.0566 32.54 37.9248 32.9385 37.6611 33.2959C 37.3975 33.6475 37.0078 33.917 36.4922 34.1045C 37.0664 34.2393 37.5264 34.5029 37.8721 34.8955C 38.2236 35.2881 38.3994 35.7568 38.3994 36.3018C 38.3994 37.1748 38.0771 37.8428 37.4326 38.3057C 36.7939 38.7686 35.8887 39 34.7168 39L 30.4189 39ZM 32.0449 34.8252L 32.0449 37.6904L 34.7344 37.6904C 35.4141 37.6904 35.9209 37.5645 36.2549 37.3125C 36.5947 37.0605 36.7646 36.7061 36.7646 36.249C 36.7646 35.2998 36.0674 34.8252 34.6729 34.8252L 32.0449 34.8252ZM 32.0449 33.5244L 34.1455 33.5244C 35.6689 33.5244 36.4307 33.0791 36.4307 32.1885C 36.4307 31.2979 35.71 30.8379 34.2686 30.8086L 32.0449 30.8086L 32.0449 33.5244ZM 46.7051 29.4902L 48.3311 29.4902L 48.3311 39L 46.7051 39L 46.7051 32.0654L 42.3193 39L 40.6934 39L 40.6934 29.4902L 42.3193 29.4902L 42.3193 36.4336L 46.7051 29.4902ZM 58.0078 30.8086L 54.8174 30.8086L 54.8174 39L 53.1914 39L 53.1914 30.8086L 50.0625 30.8086L 50.0625 29.4902L 58.0078 29.4902L 58.0078 30.8086ZM 65.7422 29.4902L 67.3682 29.4902L 67.3682 39L 65.7422 39L 65.7422 32.0654L 61.3564 39L 59.7305 39L 59.7305 29.4902L 61.3564 29.4902L 61.3564 36.4336L 65.7422 29.4902ZM 77.2471 29.4902L 77.2471 39L 75.6123 39L 75.6123 35.2998L 73.1602 35.2998L 70.9189 39L 69.1611 39L 71.5518 35.0537C 70.9424 34.8311 70.4736 34.4883 70.1455 34.0254C 69.8232 33.5566 69.6621 33.0117 69.6621 32.3906C 69.6621 31.5234 69.9873 30.8262 70.6377 30.2988C 71.2881 29.7656 72.1582 29.4961 73.248 29.4902L 77.2471 29.4902ZM 71.2969 32.4082C 71.2969 32.8711 71.4551 33.2461 71.7715 33.5332C 72.0879 33.8145 72.5068 33.958 73.0283 33.9639L 75.6123 33.9639L 75.6123 30.8086L 73.2744 30.8086C 72.6709 30.8086 72.1904 30.958 71.833 31.2568C 71.4756 31.5498 71.2969 31.9336 71.2969 32.4082ZM 5.04492 59.8486C 5.625 59.8486 6.13184 59.6729 6.56543 59.3213C 6.99902 58.9697 7.23926 58.5303 7.28613 58.0029L 8.82422 58.0029C 8.79492 58.5479 8.60742 59.0664 8.26172 59.5586C 7.91602 60.0508 7.45312 60.4434 6.87305 60.7363C 6.29883 61.0293 5.68945 61.1758 5.04492 61.1758C 3.75 61.1758 2.71875 60.7451 1.95117 59.8838C 1.18945 59.0166 0.808594 57.833 0.808594 56.333L 0.808594 56.0605C 0.808594 55.1348 0.978516 54.3115 1.31836 53.5908C 1.6582 52.8701 2.14453 52.3105 2.77734 51.9121C 3.41602 51.5137 4.16895 51.3145 5.03613 51.3145C 6.10254 51.3145 6.9873 51.6338 7.69043 52.2725C 8.39941 52.9111 8.77734 53.7402 8.82422 54.7598L 7.28613 54.7598C 7.23926 54.1445 7.00488 53.6406 6.58301 53.248C 6.16699 52.8496 5.65137 52.6504 5.03613 52.6504C 4.20996 52.6504 3.56836 52.9492 3.11133 53.5469C 2.66016 54.1387 2.43457 54.9971 2.43457 56.1221L 2.43457 56.4297C 2.43457 57.5254 2.66016 58.3691 3.11133 58.9609C 3.5625 59.5527 4.20703 59.8486 5.04492 59.8486ZM 10.2217 56.1572C 10.2217 55.2256 10.4033 54.3877 10.7666 53.6436C 11.1357 52.8994 11.6455 52.3252 12.2959 51.9209C 12.9521 51.5166 13.6992 51.3145 14.5371 51.3145C 15.832 51.3145 16.8779 51.7627 17.6748 52.6592C 18.4775 53.5557 18.8789 54.748 18.8789 56.2363L 18.8789 56.3506C 18.8789 57.2764 18.7002 58.1084 18.3428 58.8467C 17.9912 59.5791 17.4844 60.1504 16.8223 60.5605C 16.166 60.9707 15.4102 61.1758 14.5547 61.1758C 13.2656 61.1758 12.2197 60.7275 11.417 59.8311C 10.6201 58.9346 10.2217 57.748 10.2217 56.2715L 10.2217 56.1572ZM 11.8564 56.3506C 11.8564 57.4053 12.0996 58.252 12.5859 58.8906C 13.0781 59.5293 13.7344 59.8486 14.5547 59.8486C 15.3809 59.8486 16.0371 59.5264 16.5234 58.8818C 17.0098 58.2314 17.2529 57.3232 17.2529 56.1572C 17.2529 55.1143 17.0039 54.2705 16.5059 53.626C 16.0137 52.9756 15.3574 52.6504 14.5371 52.6504C 13.7344 52.6504 13.0869 52.9697 12.5947 53.6084C 12.1025 54.2471 11.8564 55.1611 11.8564 56.3506ZM 25.0928 52.0352C 26.2881 52.0352 27.2432 52.4365 27.958 53.2393C 28.6787 54.0361 29.0391 55.0879 29.0391 56.3945L 29.0391 56.5439C 29.0391 57.4404 28.8662 58.2432 28.5205 58.9521C 28.1748 59.6553 27.6768 60.2031 27.0264 60.5957C 26.3818 60.9824 25.6377 61.1758 24.7939 61.1758C 23.5166 61.1758 22.4883 60.751 21.709 59.9014C 20.9297 59.0459 20.54 57.9004 20.54 56.4648L 20.54 55.6738C 20.54 53.6758 20.9092 52.0879 21.6475 50.9102C 22.3916 49.7324 23.4873 49.0146 24.9346 48.7568C 25.7549 48.6104 26.3086 48.4316 26.5957 48.2207C 26.8828 48.0098 27.0264 47.7197 27.0264 47.3506L 28.3623 47.3506C 28.3623 48.083 28.1953 48.6543 27.8613 49.0645C 27.5332 49.4746 27.0059 49.7646 26.2793 49.9346L 25.0664 50.207C 24.0996 50.4355 23.373 50.8223 22.8867 51.3672C 22.4063 51.9063 22.0928 52.627 21.9463 53.5293C 22.8076 52.5332 23.8564 52.0352 25.0928 52.0352ZM 24.7764 53.3711C 23.9795 53.3711 23.3467 53.6406 22.8779 54.1797C 22.4092 54.7129 22.1748 55.4541 22.1748 56.4033L 22.1748 56.5439C 22.1748 57.5635 22.4092 58.3721 22.8779 58.9697C 23.3525 59.5615 23.9912 59.8574 24.7939 59.8574C 25.6025 59.8574 26.2412 59.5586 26.71 58.9609C 27.1787 58.3633 27.4131 57.4902 27.4131 56.3418C 27.4131 55.4453 27.1758 54.7275 26.7012 54.1885C 26.2324 53.6436 25.5908 53.3711 24.7764 53.3711ZM 32.6426 54.7686L 35.1123 54.7686C 36.1904 54.7803 37.043 55.0615 37.6699 55.6123C 38.2969 56.1631 38.6104 56.9102 38.6104 57.8535C 38.6104 58.8027 38.2881 59.5645 37.6436 60.1387C 36.999 60.7129 36.1318 61 35.042 61L 31.0166 61L 31.0166 51.4902L 32.6426 51.4902L 32.6426 54.7686ZM 42.0029 61L 40.3682 61L 40.3682 51.4902L 42.0029 51.4902L 42.0029 61ZM 32.6426 56.0957L 32.6426 59.6729L 35.0596 59.6729C 35.6689 59.6729 36.1406 59.5176 36.4746 59.207C 36.8086 58.8906 36.9756 58.46 36.9756 57.915C 36.9756 57.3877 36.8115 56.957 36.4834 56.623C 36.1611 56.2832 35.707 56.1074 35.1211 56.0957L 32.6426 56.0957ZM 51.9082 52.8086L 48.7178 52.8086L 48.7178 61L 47.0918 61L 47.0918 52.8086L 43.9629 52.8086L 43.9629 51.4902L 51.9082 51.4902L 51.9082 52.8086ZM 59.6426 51.4902L 61.2686 51.4902L 61.2686 61L 59.6426 61L 59.6426 54.0654L 55.2568 61L 53.6309 61L 53.6309 51.4902L 55.2568 51.4902L 55.2568 58.4336L 59.6426 51.4902ZM 70.0312 51.4902L 71.6572 51.4902L 71.6572 61L 70.0312 61L 70.0312 54.0654L 65.6455 61L 64.0195 61L 64.0195 51.4902L 65.6455 51.4902L 65.6455 58.4336L 70.0312 51.4902ZM 70.4707 48.0273C 70.4707 48.7363 70.2275 49.3076 69.7412 49.7412C 69.2607 50.1689 68.6279 50.3828 67.8428 50.3828C 67.0576 50.3828 66.4219 50.166 65.9355 49.7324C 65.4492 49.2988 65.2061 48.7305 65.2061 48.0273L 66.5332 48.0273C 66.5332 48.4375 66.6445 48.7598 66.8672 48.9941C 67.0898 49.2227 67.415 49.3369 67.8428 49.3369C 68.2529 49.3369 68.5723 49.2227 68.8008 48.9941C 69.0352 48.7656 69.1523 48.4434 69.1523 48.0273L 70.4707 48.0273Z"/>
</defs>
</svg>
