<svg width="236" height="104" xmlns="http://www.w3.org/2000/svg" xmlns:xlink="http://www.w3.org/1999/xlink"><use xlink:href="#path0_fill" fill="url(#paint0_linear)"/><use xlink:href="#path1_fill" transform="translate(23 10)" fill="#FFF"/><use xlink:href="#path2_fill" transform="translate(114 20)" fill="#FFF"/><defs><linearGradient id="paint0_linear" x2="1" gradientUnits="userSpaceOnUse" gradientTransform="matrix(236 0 0 104 0 52)"><stop offset="0" stop-color="#95D8A0"/><stop offset="1" stop-color="#C3DE8E"/></linearGradient><path id="path0_fill" fill-rule="evenodd" d="M0 19C0 8.507 8.507 0 19 0h198c10.493 0 19 8.507 19 19v66c0 10.493-8.507 19-19 19H19C8.507 104 0 95.493 0 85V19z"/><path id="path1_fill" d="M13.781 38.242h4.887c3.07-.047 5.484-.855 7.242-2.426 1.758-1.57 2.637-3.691 2.637-6.363 0-6-2.988-9-8.965-9-2.813 0-5.063.809-6.75 2.426-1.664 1.594-2.496 3.715-2.496 6.363H3.832c0-4.055 1.477-7.418 4.43-10.09 2.976-2.695 6.75-4.043 11.32-4.043 4.828 0 8.613 1.278 11.355 3.832 2.743 2.555 4.114 6.106 4.114 10.653 0 2.226-.727 4.383-2.18 6.468-1.43 2.086-3.387 3.645-5.871 4.676 2.813.89 4.98 2.367 6.504 4.43 1.547 2.063 2.32 4.582 2.32 7.559 0 4.593-1.5 8.238-4.5 10.933-3 2.696-6.902 4.043-11.707 4.043-4.805 0-8.719-1.3-11.742-3.902-3-2.602-4.5-6.035-4.5-10.301h6.54c0 2.695.878 4.852 2.636 6.469s4.113 2.425 7.066 2.425c3.14 0 5.543-.82 7.207-2.46 1.664-1.641 2.496-3.996 2.496-7.067 0-2.976-.914-5.261-2.742-6.855-1.828-1.594-4.465-2.414-7.91-2.461h-4.887v-5.309zM69.68 44.5a15.845 15.845 0 0 1-4.887 3.902c-1.875.985-3.938 1.477-6.188 1.477-2.953 0-5.53-.727-7.734-2.18-2.18-1.453-3.867-3.492-5.062-6.117-1.196-2.648-1.793-5.566-1.793-8.754 0-3.422.644-6.504 1.933-9.246 1.313-2.742 3.164-4.84 5.555-6.293 2.39-1.453 5.18-2.18 8.367-2.18 5.063 0 9.047 1.899 11.953 5.696 2.93 3.773 4.395 8.93 4.395 15.468v1.899c0 9.96-1.969 17.238-5.906 21.832-3.938 4.57-9.88 6.914-17.825 7.031h-1.265v-5.484h1.37c5.368-.094 9.493-1.489 12.376-4.184 2.883-2.719 4.453-7.008 4.71-12.867zm-10.02 0c2.18 0 4.184-.668 6.012-2.004 1.851-1.336 3.2-2.988 4.043-4.957v-2.602c0-4.265-.926-7.734-2.778-10.406-1.851-2.672-4.195-4.008-7.03-4.008-2.86 0-5.157 1.102-6.891 3.305-1.735 2.18-2.602 5.063-2.602 8.649 0 3.492.832 6.375 2.496 8.648 1.688 2.25 3.938 3.375 6.75 3.375z"/><path id="path2_fill" d="M1.38 17V7.49h3.709c1.265 0 2.235.223 2.909.668.68.44 1.02 1.087 1.02 1.943 0 .439-.132.837-.396 1.195-.264.352-.653.621-1.169.809.574.134 1.034.398 1.38.79.352.393.527.862.527 1.407 0 .873-.322 1.54-.966 2.004-.64.463-1.544.694-2.716.694H1.38zm1.626-4.175v2.865h2.69c.679 0 1.186-.125 1.52-.377.34-.253.51-.607.51-1.064 0-.95-.698-1.424-2.092-1.424H3.006zm0-1.3h2.1c1.524 0 2.286-.446 2.286-1.337 0-.89-.721-1.35-2.163-1.38H3.006v2.716zM17.385 17c-.094-.188-.17-.521-.229-1.002-.756.785-1.658 1.178-2.707 1.178-.937 0-1.708-.264-2.311-.791-.598-.533-.897-1.207-.897-2.022 0-.99.375-1.758 1.125-2.303.756-.55 1.817-.826 3.182-.826h1.582v-.747c0-.568-.17-1.02-.51-1.353-.34-.34-.84-.51-1.503-.51-.58 0-1.066.147-1.459.44-.392.292-.589.647-.589 1.063h-1.634c0-.475.167-.932.5-1.371.34-.445.797-.797 1.372-1.055a4.644 4.644 0 0 1 1.907-.387c1.096 0 1.954.276 2.575.827.621.545.943 1.297.967 2.258v4.377c0 .873.111 1.568.334 2.083V17h-1.705zm-2.699-1.24c.51 0 .994-.131 1.45-.395.458-.263.789-.606.994-1.028v-1.951h-1.274c-1.993 0-2.989.583-2.989 1.749 0 .51.17.908.51 1.195.34.287.776.43 1.31.43zm14.652-3.41c0 1.448-.331 2.614-.993 3.499-.662.884-1.559 1.327-2.69 1.327-1.154 0-2.062-.366-2.724-1.099v4.58h-1.626V7.49h1.485l.08 1.055c.661-.82 1.581-1.23 2.759-1.23 1.142 0 2.045.43 2.707 1.291.668.862 1.002 2.06 1.002 3.595v.15zm-1.626-.184c0-1.072-.229-1.919-.686-2.54-.457-.621-1.084-.932-1.88-.932-.985 0-1.723.437-2.215 1.31v4.544c.486.867 1.23 1.3 2.232 1.3.78 0 1.398-.307 1.855-.922.462-.621.694-1.541.694-2.76zm9.853-4.676h1.625V17h-1.625v-6.935L33.178 17h-1.626V7.49h1.626v6.944l4.386-6.944zM47.672 17c-.094-.188-.17-.521-.229-1.002-.755.785-1.658 1.178-2.707 1.178-.937 0-1.708-.264-2.311-.791-.598-.533-.897-1.207-.897-2.022 0-.99.375-1.758 1.125-2.303.756-.55 1.817-.826 3.182-.826h1.582v-.747c0-.568-.17-1.02-.51-1.353-.34-.34-.84-.51-1.503-.51-.58 0-1.066.147-1.459.44-.392.292-.589.647-.589 1.063h-1.634c0-.475.167-.932.5-1.371.34-.445.797-.797 1.372-1.055a4.643 4.643 0 0 1 1.907-.387c1.096 0 1.954.276 2.575.827.621.545.944 1.297.967 2.258v4.377c0 .873.111 1.568.334 2.083V17h-1.705zm-2.698-1.24c.51 0 .993-.131 1.45-.395.457-.263.788-.606.993-1.028v-1.951h-1.274c-1.993 0-2.989.583-2.989 1.749 0 .51.17.908.51 1.195.34.287.776.43 1.31.43zM59.36 17h-1.626v-4.06h-4.368V17h-1.635V7.49h1.635v4.122h4.368V7.49h1.626V17zm9.686-8.191h-3.19V17H64.23V8.809H61.1V7.49h7.946V8.81zm.782 3.348c0-.931.182-1.77.545-2.513.37-.745.879-1.319 1.53-1.723.656-.404 1.403-.607 2.24-.607 1.295 0 2.341.449 3.138 1.345.803.897 1.204 2.089 1.204 3.577v.115c0 .925-.178 1.757-.536 2.496a4.005 4.005 0 0 1-1.52 1.714c-.657.41-1.412.615-2.268.615-1.289 0-2.335-.448-3.138-1.345-.796-.896-1.195-2.083-1.195-3.56v-.114zm1.635.194c0 1.054.243 1.901.73 2.54.492.638 1.148.958 1.968.958.826 0 1.482-.323 1.969-.967.486-.65.73-1.559.73-2.725 0-1.043-.25-1.886-.748-2.531-.492-.65-1.148-.976-1.969-.976-.802 0-1.45.32-1.942.958-.492.64-.738 1.553-.738 2.743zM80.674 17V7.49h3.71c1.265 0 2.235.223 2.909.668.68.44 1.02 1.087 1.02 1.943 0 .439-.132.837-.396 1.195-.264.352-.653.621-1.169.809.574.134 1.034.398 1.38.79.352.393.527.862.527 1.407 0 .873-.322 1.54-.966 2.004-.64.463-1.544.694-2.716.694h-4.298zm1.627-4.175v2.865h2.69c.679 0 1.186-.125 1.52-.377.34-.253.51-.607.51-1.064 0-.95-.698-1.424-2.092-1.424H82.3zm0-1.3h2.1c1.524 0 2.285-.446 2.285-1.337 0-.89-.72-1.35-2.162-1.38h-2.223v2.716zM9.264 34.35c0 1.447-.331 2.613-.993 3.498-.663.884-1.56 1.327-2.69 1.327-1.154 0-2.062-.366-2.725-1.099v4.58H1.23V29.49h1.486l.079 1.055c.662-.82 1.582-1.23 2.76-1.23 1.142 0 2.045.43 2.707 1.291.668.862 1.002 2.06 1.002 3.595v.15zm-1.626-.185c0-1.072-.229-1.919-.686-2.54-.457-.621-1.084-.932-1.88-.932-.985 0-1.723.437-2.216 1.31v4.544c.487.867 1.23 1.3 2.233 1.3.78 0 1.397-.307 1.854-.922.463-.621.695-1.541.695-2.76zM17.209 39c-.094-.188-.17-.522-.229-1.002-.755.785-1.658 1.178-2.707 1.178-.937 0-1.708-.264-2.311-.791-.598-.533-.897-1.207-.897-2.022 0-.99.375-1.758 1.125-2.303.756-.55 1.817-.826 3.182-.826h1.582v-.747c0-.568-.17-1.02-.51-1.353-.34-.34-.84-.51-1.503-.51-.58 0-1.066.146-1.459.44-.392.292-.588.647-.588 1.063h-1.635c0-.475.167-.932.5-1.371.34-.445.798-.797 1.372-1.055a4.643 4.643 0 0 1 1.907-.387c1.096 0 1.954.276 2.575.827.621.545.944 1.298.967 2.258v4.377c0 .873.111 1.568.334 2.083V39H17.21zm-2.698-1.24c.51 0 .993-.131 1.45-.395.457-.263.788-.606.993-1.028v-1.951H15.68c-1.992 0-2.989.583-2.989 1.749 0 .51.17.908.51 1.195.34.287.776.43 1.31.43zm11.847-5.668c0-.445-.17-.797-.51-1.055-.34-.264-.805-.395-1.397-.395-.574 0-1.055.149-1.441.448-.381.299-.572.65-.572 1.055h-1.617c0-.827.346-1.503 1.037-2.03.692-.528 1.556-.792 2.593-.792 1.113 0 1.98.24 2.602.72.62.476.931 1.155.931 2.04 0 .428-.129.82-.386 1.178-.258.357-.624.641-1.099.852 1.107.375 1.661 1.114 1.661 2.215 0 .873-.337 1.565-1.01 2.074-.674.51-1.574.765-2.699.765-1.096 0-2-.267-2.716-.8-.709-.539-1.063-1.265-1.063-2.18h1.617c0 .463.205.862.615 1.196.416.328.932.492 1.547.492.621 0 1.122-.144 1.503-.43.381-.288.571-.66.571-1.117 0-.533-.16-.914-.483-1.143-.316-.234-.812-.351-1.485-.351H22.93v-1.371h1.766c1.108-.03 1.661-.486 1.661-1.371zM30.418 39v-9.51h3.71c1.266 0 2.235.223 2.91.668.679.44 1.019 1.087 1.019 1.943 0 .439-.132.837-.396 1.195-.264.352-.653.621-1.169.809.574.134 1.034.398 1.38.79.352.393.527.862.527 1.407 0 .873-.322 1.54-.966 2.004-.64.463-1.544.694-2.716.694h-4.298zm1.627-4.175v2.865h2.69c.68 0 1.186-.125 1.52-.377.34-.253.51-.607.51-1.064 0-.95-.698-1.424-2.092-1.424h-2.628zm0-1.3h2.1c1.524 0 2.286-.446 2.286-1.337 0-.89-.721-1.35-2.162-1.38h-2.224v2.716zm14.66-4.035h1.626V39h-1.626v-6.935L42.32 39h-1.626v-9.51h1.626v6.944l4.386-6.944zm11.303 1.319h-3.19V39H53.19v-8.191h-3.129V29.49h7.946v1.319zm7.734-1.319h1.626V39h-1.626v-6.935L61.356 39H59.73v-9.51h1.626v6.944l4.386-6.944zm11.505 0V39h-1.635v-3.7H73.16L70.92 39H69.16l2.39-3.946c-.609-.223-1.077-.566-1.406-1.029-.322-.468-.483-1.013-.483-1.634 0-.868.325-1.565.976-2.092.65-.533 1.52-.803 2.61-.809h4zm-5.95 2.918c0 .463.158.838.475 1.125.316.282.735.425 1.256.43h2.584V30.81h-2.338c-.603 0-1.084.149-1.441.448a1.417 1.417 0 0 0-.536 1.151zM5.045 59.848c.58 0 1.087-.175 1.52-.527.434-.351.674-.79.721-1.318h1.538c-.03.545-.217 1.063-.562 1.556a3.696 3.696 0 0 1-1.389 1.177 3.967 3.967 0 0 1-1.828.44c-1.295 0-2.326-.43-3.094-1.292C1.19 59.017.81 57.833.81 56.333v-.273c0-.925.17-1.748.51-2.47.34-.72.826-1.28 1.458-1.678.639-.398 1.392-.597 2.26-.597 1.066 0 1.95.319 2.653.958.71.638 1.087 1.467 1.134 2.487H7.286c-.047-.615-.281-1.12-.703-1.512-.416-.398-.932-.598-1.547-.598-.826 0-1.468.3-1.925.897-.45.592-.676 1.45-.676 2.575v.308c0 1.095.225 1.94.676 2.53.451.593 1.096.889 1.934.889zm5.177-3.69c0-.932.181-1.77.545-2.514.369-.745.879-1.319 1.529-1.723.656-.404 1.403-.606 2.241-.606 1.295 0 2.34.448 3.138 1.344.802.897 1.204 2.089 1.204 3.577v.115c0 .925-.179 1.757-.536 2.496a4.005 4.005 0 0 1-1.52 1.713c-.657.41-1.413.616-2.268.616-1.29 0-2.335-.449-3.138-1.345-.797-.896-1.195-2.083-1.195-3.56v-.114zm1.634.193c0 1.054.244 1.901.73 2.54.492.638 1.148.958 1.969.958.826 0 1.482-.323 1.968-.967.487-.65.73-1.559.73-2.725 0-1.043-.25-1.886-.747-2.531-.492-.65-1.149-.976-1.969-.976-.803 0-1.45.32-1.942.958-.493.64-.739 1.553-.739 2.743zm13.237-4.316c1.195 0 2.15.402 2.865 1.204.72.797 1.081 1.849 1.081 3.156v.149c0 .896-.173 1.7-.519 2.408a3.867 3.867 0 0 1-1.494 1.644c-.644.386-1.388.58-2.232.58-1.277 0-2.306-.425-3.085-1.275-.78-.855-1.169-2-1.169-3.436v-.791c0-1.998.37-3.586 1.108-4.764.744-1.178 1.84-1.895 3.287-2.153.82-.147 1.374-.325 1.66-.536.288-.211.431-.501.431-.87h1.336c0 .732-.167 1.303-.5 1.714-.329.41-.856.7-1.583.87l-1.213.272c-.966.228-1.693.615-2.18 1.16-.48.54-.793 1.26-.94 2.162.862-.996 1.91-1.494 3.147-1.494zm-.317 1.336c-.796 0-1.43.27-1.898.809-.469.533-.703 1.274-.703 2.223v.14c0 1.02.234 1.83.703 2.427.474.592 1.113.887 1.916.887.808 0 1.447-.298 1.916-.896.469-.598.703-1.47.703-2.62 0-.896-.237-1.614-.712-2.153-.469-.544-1.11-.817-1.925-.817zm7.867 1.398h2.47c1.077.011 1.93.293 2.557.843.627.551.94 1.298.94 2.241 0 .95-.322 1.712-.966 2.286-.645.574-1.512.861-2.602.861h-4.025v-9.51h1.626v3.279zM42.003 61h-1.635v-9.51h1.635V61zm-9.36-4.904v3.577h2.417c.609 0 1.08-.155 1.415-.466.334-.316.5-.747.5-1.292 0-.527-.163-.958-.492-1.292-.322-.34-.776-.516-1.362-.527h-2.478zm19.265-3.287h-3.19V61h-1.626v-8.191h-3.13V51.49h7.946v1.319zm7.735-1.319h1.626V61h-1.626v-6.935L55.257 61H53.63v-9.51h1.626v6.944l4.386-6.944zm10.388 0h1.626V61h-1.626v-6.935L65.645 61H64.02v-9.51h1.626v6.944l4.386-6.944zm.44-3.463c0 .71-.243 1.28-.73 1.714-.48.428-1.113.642-1.898.642-.785 0-1.421-.217-1.907-.65-.487-.434-.73-1.002-.73-1.706h1.327c0 .41.111.733.334.967.223.229.548.343.976.343.41 0 .73-.114.958-.343.234-.228.351-.55.351-.967h1.319z"/></defs></svg>