<svg width="460" height="425" xmlns="http://www.w3.org/2000/svg" xmlns:xlink="http://www.w3.org/1999/xlink"><use xlink:href="#path0_fill" transform="translate(241)" fill="#F6928D"/><use xlink:href="#path1_fill" transform="translate(273 8)" fill="#FFF"/><use xlink:href="#path2_stroke" transform="translate(295.617 168.503)" fill="url(#paint2_linear)"/><use xlink:href="#path3_stroke" transform="matrix(-1 0 0 1 294.079 197.503)" fill="url(#paint3_linear)"/><use xlink:href="#path4_stroke" transform="translate(293 113)" fill="url(#paint4_linear)"/><use xlink:href="#path5_stroke" transform="translate(176 214)" fill="url(#paint5_linear)"/><use xlink:href="#path6_stroke" transform="translate(189 295)" fill="url(#paint6_linear)"/><use xlink:href="#path7_stroke" transform="translate(296 339)" fill="url(#paint7_linear)"/><use xlink:href="#path8_stroke" transform="translate(293 32)" fill="url(#paint8_linear)"/><use xlink:href="#path9_stroke" transform="translate(283 89)" fill="#A79FCA"/><use xlink:href="#path10_fill" transform="translate(148 155)" fill="#353535"/><use xlink:href="#path11_fill" transform="translate(124 313)" fill="#353535"/><g transform="translate(166 191)"><use xlink:href="#path12_fill" fill="#FFF"/><use xlink:href="#path9_stroke" fill="#D9B9E6"/></g><g transform="translate(166 284)"><use xlink:href="#path12_fill" fill="#FFF"/><use xlink:href="#path9_stroke" fill="#FBA18D"/></g><g transform="translate(355 328)"><use xlink:href="#path12_fill" fill="#FFF"/><use xlink:href="#path9_stroke" fill="#E6E6E6"/></g><g transform="translate(61 191)"><use xlink:href="#path12_fill" fill="#FFF"/><use xlink:href="#path9_stroke" fill="#DCA9E3"/></g><use xlink:href="#path9_stroke" transform="translate(354 162)" fill="#F8A5A0"/><use xlink:href="#path13_fill" transform="translate(317 92)" fill="#333"/><use xlink:href="#path14_fill" transform="translate(385 165)" fill="#333"/><use xlink:href="#path15_fill" transform="translate(385 331)" fill="#333"/><use xlink:href="#path16_fill" transform="translate(31 156)" fill="#353535"/><defs><linearGradient id="paint2_linear" x2="1" gradientUnits="userSpaceOnUse" gradientTransform="scale(62.4893 6.1937)"><stop offset="0" stop-color="#C5D0E3"/><stop offset="1" stop-color="#F8A5A0"/></linearGradient><linearGradient id="paint3_linear" x2="1" gradientUnits="userSpaceOnUse" gradientTransform="scale(286.848 5.42025)"><stop offset="0" stop-color="#C5D0E3"/><stop offset=".64" stop-color="#D885DE"/><stop offset="1" stop-color="#D885DE" stop-opacity=".01"/></linearGradient><linearGradient id="paint4_linear" x2="1" gradientUnits="userSpaceOnUse" gradientTransform="matrix(0 -309 3 0 0 309)"><stop offset="0" stop-color="#6DDAE6" stop-opacity=".01"/><stop offset="1" stop-color="#B6B1D3"/></linearGradient><linearGradient id="paint5_linear" x2="1" gradientUnits="userSpaceOnUse" gradientTransform="matrix(0 -71 3 0 0 71)"><stop offset="0" stop-color="#FCB2A0"/><stop offset="1" stop-color="#E0C8EA"/></linearGradient><linearGradient id="paint6_linear" x2="1" gradientUnits="userSpaceOnUse" gradientTransform="matrix(105.845 0 0 2.05525 0 2)"><stop offset="0" stop-color="#FCB2A0"/><stop offset="1" stop-color="#D5EAF1"/></linearGradient><linearGradient id="paint7_linear" x2="1" gradientUnits="userSpaceOnUse" gradientTransform="matrix(57.547 0 0 2.05525 0 2)"><stop offset="0" stop-color="#D5EAF1"/><stop offset="1" stop-color="#E0E0E0"/></linearGradient><linearGradient id="paint8_linear" x2="1" gradientUnits="userSpaceOnUse" gradientTransform="matrix(0 -56 3 0 0 56)"><stop offset="0" stop-color="#B6B1D3"/><stop offset="1" stop-color="#F8A5A0"/></linearGradient><path id="path0_fill" fill-rule="evenodd" d="M0 16.5C0 7.387 7.387 0 16.5 0h74C99.613 0 107 7.387 107 16.5S99.613 33 90.5 33h-74C7.387 33 0 25.613 0 16.5z"/><path id="path1_fill" d="M8.477 9.842c-.123 1.053-.513 1.866-1.17 2.44-.651.57-1.52.855-2.604.855-1.176 0-2.119-.422-2.83-1.265-.706-.843-1.06-1.971-1.06-3.384v-.957c0-.925.165-1.738.493-2.44.332-.702.802-1.24 1.408-1.613.606-.379 1.308-.568 2.105-.568 1.058 0 1.905.296 2.543.889.638.588 1.01 1.403 1.115 2.447h-1.32c-.114-.793-.362-1.367-.745-1.723-.378-.355-.91-.533-1.593-.533-.838 0-1.497.31-1.975.93-.474.62-.711 1.502-.711 2.645v.964c0 1.08.225 1.94.677 2.577.45.639 1.082.957 1.893.957.73 0 1.288-.164 1.675-.492.392-.332.652-.909.78-1.73h1.319zm8.47-5.715h-3.2V13h-1.306V4.127H9.25v-1.08h7.697v1.08zm6.425 6.275h-4.17L18.266 13h-1.354l3.8-9.953h1.15L25.668 13h-1.347l-.95-2.598zM19.6 9.322h3.383l-1.695-4.655L19.6 9.322zm8.722-.218V13H27.01V3.047h3.67c1.09 0 1.942.278 2.557.834.62.556.93 1.292.93 2.208 0 .966-.303 1.711-.91 2.235-.6.52-1.464.78-2.59.78h-2.345zm0-1.074h2.359c.701 0 1.24-.164 1.613-.492.374-.333.56-.811.56-1.435 0-.593-.186-1.067-.56-1.422-.374-.356-.886-.54-1.538-.554H28.32V8.03zm14.397-3.903h-3.2V13h-1.305V4.127H35.02v-1.08h7.698v1.08z"/><path id="path2_stroke" d="M55.462 7.997a2.5 2.5 0 1 0 0-5v5zM2.107-1.345a2.5 2.5 0 0 0-4.214 2.69l4.214-2.69zm53.355 6.842v-2.5H8.436v5H55.46v-2.5zm-47.026-2.5c-1.538 0-3.06-.88-4.372-2.088A12.773 12.773 0 0 1 2.589-.688a10.73 10.73 0 0 1-.485-.661l.002.001v.002L0 0c-2.107 1.345-2.107 1.346-2.106 1.347v.001l.003.003.005.009a5.921 5.921 0 0 0 .06.09 18.027 18.027 0 0 0 .7.955A20.08 20.08 0 0 0 .676 4.589c1.674 1.54 4.37 3.41 7.759 3.41v-5z"/><path id="path3_stroke" d="M290.919 7.997a2.5 2.5 0 0 0 0-5v5zM2.107-1.345a2.5 2.5 0 0 0-4.214 2.69l4.214-2.69zM290.92 5.497c0-2.5-.001-2.5-.003-2.5H8.436v5h282.48c.002 0 .003 0 .003-2.5zM8.436 2.997c-1.538 0-3.06-.88-4.372-2.088A12.773 12.773 0 0 1 2.589-.688a10.73 10.73 0 0 1-.485-.661l.002.001v.002L0 0c-2.107 1.345-2.107 1.346-2.106 1.347v.001l.003.003.005.009a5.921 5.921 0 0 0 .06.09 18.027 18.027 0 0 0 .7.955A20.08 20.08 0 0 0 .676 4.589c1.674 1.54 4.37 3.41 7.759 3.41v-5z"/><path id="path4_stroke" d="M4 .5V-2h-5V.5h5zm-5 308.015v2.5h5v-2.5h-5zM-1 .5v308.015h5V.5h-5z"/><path id="path5_stroke" d="M4 .5V-2h-5V.5h5zm-5 69.871v2.5h5v-2.5h-5zM-1 .5v69.871h5V.5h-5z"/><path id="path6_stroke" d="M102.53 3.5h2.5v-5h-2.5v5zM0-1.5h-2.5v5H0v-5zm102.53 0H0v5h102.53v-5z"/><path id="path7_stroke" d="M55.5 3.5a2.5 2.5 0 0 0 0-5v5zM0-1.5a2.5 2.5 0 0 0 0 5v-5zm55.5 0H0v5h55.5v-5z"/><path id="path8_stroke" d="M4 .5a2.5 2.5 0 0 0-5 0h5zm-5 55a2.5 2.5 0 0 0 5 0h-5zm0-55v55h5V.5h-5z"/><path id="path9_stroke" d="M11.5 24.5c7.18 0 13-5.82 13-13h-3c0 5.523-4.477 10-10 10v3zm13-13c0-7.18-5.82-13-13-13v3c5.523 0 10 4.477 10 10h3zm-13-13c-7.18 0-13 5.82-13 13h3c0-5.523 4.477-10 10-10v-3zm-13 13c0 7.18 5.82 13 13 13v-3c-5.523 0-10-4.477-10-10h-3z"/><path id="path10_fill" d="M7.097 1.758h1.218V11H7.097V3.878L2.545 11H1.32V1.758h1.225V8.88l4.552-7.122zM14.13 6.01a.905.905 0 0 0-.368-.762c-.246-.19-.582-.286-1.01-.286-.414 0-.761.108-1.04.324-.276.216-.413.47-.413.762H10.13c0-.597.25-1.086.749-1.466.5-.381 1.123-.572 1.872-.572.804 0 1.43.174 1.88.52.448.344.672.834.672 1.473 0 .31-.093.593-.28.851-.185.258-.45.463-.793.616.8.27 1.2.804 1.2 1.6 0 .63-.243 1.13-.73 1.497-.487.369-1.136.553-1.949.553-.79 0-1.445-.193-1.961-.578-.512-.39-.768-.914-.768-1.574h1.168c0 .334.148.622.444.863.3.237.673.355 1.117.355.449 0 .81-.103 1.086-.31a.965.965 0 0 0 .413-.807c0-.385-.117-.66-.35-.825-.228-.17-.586-.254-1.072-.254h-1.175v-.99h1.276c.8-.021 1.2-.351 1.2-.99zm6.78 3.434l2.335-5.313h1.466V11h-1.174V6.004L21.315 11h-.812l-2.266-5.104V11h-1.174V4.132h1.523l2.323 5.313zm8.543 1.682c-.93 0-1.688-.305-2.272-.914-.584-.614-.876-1.433-.876-2.457v-.215c0-.682.129-1.29.387-1.822a3.05 3.05 0 0 1 1.092-1.257c.47-.305.977-.457 1.523-.457.893 0 1.587.294 2.082.882.495.588.743 1.43.743 2.527v.488h-4.653c.017.677.214 1.225.59 1.644.381.415.864.623 1.448.623.414 0 .766-.085 1.053-.254.288-.17.54-.394.756-.673l.717.558c-.576.885-1.439 1.327-2.59 1.327zm-.146-6.157c-.474 0-.872.173-1.193.52-.322.343-.52.825-.597 1.447h3.44V6.85c-.033-.597-.194-1.058-.482-1.384-.288-.33-.677-.495-1.168-.495zm9.8 6.03h-1.173V8.067h-3.155V11h-1.18V4.132h1.18v2.977h3.155V4.132h1.174V11zm4.743.127c-.931 0-1.689-.305-2.273-.914-.584-.614-.876-1.433-.876-2.457v-.215c0-.682.13-1.29.387-1.822a3.048 3.048 0 0 1 1.092-1.257c.47-.305.978-.457 1.524-.457.892 0 1.587.294 2.082.882.495.588.742 1.43.742 2.527v.488h-4.652c.016.677.213 1.225.59 1.644.38.415.863.623 1.447.623.415 0 .766-.085 1.054-.254.288-.17.54-.394.755-.673l.718.558c-.576.885-1.44 1.327-2.59 1.327zm-.146-6.157c-.474 0-.872.173-1.194.52-.321.343-.52.825-.596 1.447h3.44V6.85c-.034-.597-.195-1.058-.482-1.384-.288-.33-.678-.495-1.168-.495zm9.8 6.03H52.33V8.067h-3.155V11h-1.18V4.132h1.18v2.977h3.155V4.132h1.174V11zm6.132 0c-.068-.135-.123-.377-.165-.724-.546.567-1.197.851-1.955.851-.677 0-1.233-.19-1.67-.571a1.872 1.872 0 0 1-.647-1.46c0-.715.271-1.27.813-1.663.546-.398 1.312-.597 2.298-.597h1.142v-.54c0-.41-.123-.736-.368-.977-.245-.246-.607-.368-1.086-.368-.418 0-.77.105-1.053.317-.284.212-.425.468-.425.768h-1.181c0-.343.12-.673.362-.99.245-.322.575-.576.99-.762.419-.186.878-.28 1.377-.28.792 0 1.412.2 1.86.598.449.393.681.937.699 1.63v3.162c0 .63.08 1.132.24 1.504V11h-1.23zm-1.949-.895c.369 0 .718-.095 1.048-.286.33-.19.569-.438.717-.742v-1.41h-.92c-1.44 0-2.158.422-2.158 1.264 0 .368.122.656.368.863.245.207.56.311.946.311zM19.316 23.041l.406-.501c.457-.592.717-1.481.78-2.666l.109-2.742h4.424v5.91h.883v2.977h-1.175V24h-4.792v2.019h-1.175l.007-2.977h.533zm1.39 0h3.155v-4.824h-2.114l-.07 1.638c-.072 1.367-.395 2.429-.97 3.186zM31.46 24c-.068-.135-.123-.377-.165-.724-.546.567-1.198.851-1.955.851-.677 0-1.234-.19-1.67-.571a1.872 1.872 0 0 1-.647-1.46c0-.715.27-1.27.813-1.663.545-.398 1.311-.597 2.297-.597h1.143v-.54c0-.41-.123-.736-.368-.977-.246-.246-.608-.368-1.086-.368-.419 0-.77.105-1.053.317-.284.212-.426.468-.426.768h-1.18c0-.343.12-.673.361-.99a2.51 2.51 0 0 1 .99-.762c.42-.186.879-.28 1.378-.28.792 0 1.411.2 1.86.598.448.393.681.937.698 1.63v3.162c0 .63.08 1.132.241 1.504V24H31.46zm-1.949-.895c.368 0 .717-.095 1.048-.286.33-.19.569-.438.717-.742v-1.41h-.92c-1.44 0-2.159.421-2.159 1.264 0 .368.123.656.368.863.246.207.561.311.946.311zm9.782-5.021h-2.304V24h-1.175v-5.916h-2.26v-.952h5.739v.952zM44.573 24c-.068-.135-.123-.377-.165-.724-.546.567-1.197.851-1.955.851-.677 0-1.233-.19-1.67-.571a1.872 1.872 0 0 1-.647-1.46c0-.715.271-1.27.813-1.663.546-.398 1.312-.597 2.298-.597h1.142v-.54c0-.41-.123-.736-.368-.977-.245-.246-.607-.368-1.086-.368-.418 0-.77.105-1.053.317-.284.212-.425.468-.425.768h-1.181c0-.343.12-.673.362-.99.245-.322.575-.576.99-.762.419-.186.878-.28 1.377-.28.792 0 1.412.2 1.86.598.449.393.681.937.698 1.63v3.162c0 .63.08 1.132.242 1.504V24h-1.232zm-1.949-.895c.369 0 .718-.095 1.048-.286.33-.19.569-.438.717-.742v-1.41h-.92c-1.44 0-2.159.421-2.159 1.264 0 .368.123.656.369.863.245.207.56.311.945.311z"/><path id="path11_fill" d="M29.87 6.677c0 .906-.152 1.697-.456 2.374-.305.673-.737 1.187-1.295 1.543-.559.355-1.21.533-1.955.533-.728 0-1.374-.178-1.937-.533-.562-.36-1-.87-1.313-1.53-.31-.664-.468-1.432-.477-2.304v-.667c0-.888.155-1.673.464-2.355.309-.681.745-1.202 1.308-1.561.567-.364 1.214-.546 1.942-.546.74 0 1.392.18 1.955.54.567.355 1.003.873 1.308 1.555.304.677.457 1.466.457 2.367v.584zm-1.212-.596c0-1.096-.22-1.936-.66-2.52-.44-.589-1.056-.883-1.847-.883-.77 0-1.378.294-1.822.883-.44.584-.666 1.396-.68 2.437v.68c0 1.061.223 1.897.667 2.507.449.605 1.065.907 1.848.907.787 0 1.396-.285 1.828-.857.431-.575.653-1.398.666-2.469v-.685zm7.96-.997h-2.304V11H33.14V5.084h-2.26v-.952h5.738v.952zm3.282 2.99h-.857V11h-1.18V4.132h1.18v2.907h.768l2.31-2.907h1.422l-2.716 3.3L43.772 11H42.28L39.9 8.074zM49.022 11c-.068-.135-.123-.377-.166-.724-.546.567-1.197.851-1.955.851-.677 0-1.233-.19-1.67-.571a1.872 1.872 0 0 1-.647-1.46c0-.715.271-1.27.813-1.663.546-.398 1.312-.597 2.298-.597h1.142v-.54c0-.41-.122-.736-.368-.977-.245-.246-.607-.368-1.085-.368-.42 0-.77.105-1.054.317-.283.212-.425.468-.425.768h-1.18c0-.343.12-.673.36-.99.246-.322.576-.576.991-.762.42-.186.878-.28 1.378-.28.791 0 1.41.2 1.86.598.448.393.68.937.698 1.63v3.162c0 .63.08 1.132.24 1.504V11h-1.23zm-1.95-.895c.369 0 .718-.095 1.048-.286.33-.19.57-.438.717-.742v-1.41h-.92c-1.439 0-2.158.422-2.158 1.264 0 .368.123.656.368.863.245.207.56.311.946.311zm8.557-4.094a.905.905 0 0 0-.368-.762c-.245-.19-.582-.286-1.009-.286-.415 0-.762.108-1.041.324-.275.216-.413.47-.413.762H51.63c0-.597.25-1.086.75-1.466.499-.381 1.123-.572 1.872-.572.804 0 1.43.174 1.879.52.448.344.673.834.673 1.473 0 .31-.093.593-.28.851-.186.258-.45.463-.793.616.8.27 1.2.804 1.2 1.6 0 .63-.244 1.13-.73 1.497-.487.369-1.136.553-1.949.553-.791 0-1.445-.193-1.962-.578-.511-.39-.767-.914-.767-1.574h1.167c0 .334.149.622.445.863.3.237.673.355 1.117.355.448 0 .81-.103 1.085-.31a.965.965 0 0 0 .413-.807c0-.385-.116-.66-.35-.825-.228-.17-.585-.254-1.072-.254h-1.174v-.99h1.276c.8-.021 1.2-.351 1.2-.99zm10.493-1.88h1.174V11h-1.174V5.992L62.955 11H61.78V4.132h1.175v5.014l3.167-5.014zm8.69 0V11h-1.18V5.103h-2.337l-.14 2.57c-.075 1.181-.274 2.026-.596 2.534-.317.507-.823.772-1.517.793h-.47V9.965l.337-.025c.38-.042.653-.262.819-.66.165-.398.27-1.134.317-2.21l.127-2.938h4.64zm6.329 0h1.174V11H81.14V5.992L77.973 11H76.8V4.132h1.174v5.014l3.168-5.014zM23.193 24h-1.174v-5.897h-3.162V24h-1.18v-6.868h5.516V24zm4.735.127c-.93 0-1.688-.305-2.272-.914-.584-.614-.876-1.433-.876-2.457v-.215c0-.682.129-1.289.387-1.822a3.05 3.05 0 0 1 1.092-1.257c.47-.305.977-.457 1.523-.457.893 0 1.587.294 2.082.882.495.588.743 1.43.743 2.527v.488h-4.653c.017.677.214 1.225.59 1.644.381.415.864.623 1.448.623.414 0 .766-.085 1.053-.254.288-.17.54-.394.756-.673l.717.558c-.576.885-1.439 1.327-2.59 1.327zm-.146-6.157c-.474 0-.872.173-1.193.52-.322.343-.52.825-.597 1.448h3.44v-.09c-.033-.596-.194-1.057-.482-1.383-.288-.33-.677-.495-1.168-.495zm9.991 2.672c0 1.045-.239 1.887-.717 2.527-.478.639-1.125.958-1.942.958-.834 0-1.49-.264-1.968-.793v3.307h-1.174v-9.51h1.072l.058.763c.478-.593 1.142-.89 1.993-.89.825 0 1.477.312 1.955.934.482.622.723 1.488.723 2.596v.108zM36.6 20.51c0-.775-.165-1.386-.495-1.835-.33-.448-.783-.672-1.358-.672-.711 0-1.245.315-1.6.945v3.282c.351.626.889.94 1.612.94.563 0 1.01-.223 1.34-.667.334-.449.501-1.113.501-1.993zm5.523 3.618c-.931 0-1.689-.305-2.273-.914-.584-.614-.876-1.433-.876-2.457v-.215c0-.682.13-1.289.387-1.822a3.049 3.049 0 0 1 1.092-1.257c.47-.305.978-.457 1.524-.457.892 0 1.587.294 2.082.882.495.588.742 1.43.742 2.527v.488h-4.652c.016.677.213 1.225.59 1.644.38.415.863.623 1.447.623.415 0 .766-.085 1.054-.254.288-.17.54-.394.755-.673l.717.558c-.575.885-1.438 1.327-2.59 1.327zm-.146-6.157c-.474 0-.872.173-1.194.52-.321.343-.52.825-.596 1.448h3.44v-.09c-.034-.596-.195-1.057-.482-1.383-.288-.33-.677-.495-1.168-.495zM46.273 24v-6.868h2.679c.914 0 1.614.16 2.1.482.492.318.737.785.737 1.403 0 .317-.095.605-.286.863-.19.254-.471.449-.844.584.415.098.747.288.997.572.254.283.38.622.38 1.015 0 .63-.232 1.113-.698 1.448-.46.334-1.115.501-1.961.501h-3.104zm1.174-3.015v2.07h1.943c.49 0 .857-.092 1.098-.274.245-.182.368-.438.368-.768 0-.685-.504-1.028-1.51-1.028h-1.899zm0-.94h1.517c1.1 0 1.65-.321 1.65-.964 0-.644-.52-.976-1.56-.997h-1.607v1.961zm5.834.457c0-.672.13-1.278.393-1.815a2.988 2.988 0 0 1 1.105-1.244 3.023 3.023 0 0 1 1.618-.438c.936 0 1.691.324 2.267.971.58.648.87 1.509.87 2.584v.082c0 .669-.13 1.27-.388 1.803-.254.529-.62.941-1.098 1.238-.474.296-1.02.444-1.638.444-.93 0-1.686-.324-2.266-.971-.575-.648-.863-1.505-.863-2.571v-.083zm1.18.14c0 .762.176 1.373.527 1.835.356.46.83.692 1.422.692.597 0 1.07-.233 1.422-.699.351-.47.527-1.125.527-1.968 0-.753-.18-1.362-.54-1.828a1.694 1.694 0 0 0-1.422-.704c-.58 0-1.047.23-1.402.692-.356.46-.534 1.121-.534 1.98zm10.322-1.631a.905.905 0 0 0-.368-.762c-.246-.19-.582-.286-1.01-.286-.414 0-.761.108-1.04.324-.276.216-.413.47-.413.762h-1.168c0-.597.25-1.086.749-1.466.5-.381 1.123-.572 1.872-.572.804 0 1.43.174 1.88.52.448.344.672.834.672 1.473 0 .31-.093.593-.28.851-.186.258-.45.463-.793.616.8.27 1.2.804 1.2 1.6 0 .63-.243 1.13-.73 1.497-.487.368-1.136.553-1.949.553-.791 0-1.445-.193-1.961-.578-.512-.39-.768-.914-.768-1.574h1.168c0 .334.148.622.444.863.3.237.673.355 1.117.355.449 0 .81-.103 1.086-.31a.965.965 0 0 0 .412-.807c0-.385-.116-.66-.349-.825-.228-.17-.586-.254-1.073-.254h-1.174v-.99h1.276c.8-.021 1.2-.351 1.2-.99zM72.793 24h-1.18v-2.488a6.23 6.23 0 0 1-1.587.203c-.86 0-1.515-.22-1.968-.66-.449-.44-.677-1.067-.685-1.88v-2.05h1.174v2.089c.021 1.024.514 1.536 1.479 1.536a6.23 6.23 0 0 0 1.587-.203v-3.415h1.18V24zm6.33-6.868h1.173V24h-1.174v-5.008L75.955 24H74.78v-6.868h1.175v5.014l3.167-5.014zm5.198 3.942h-.857V24h-1.18v-6.868h1.18v2.907h.768l2.31-2.907h1.422l-2.716 3.3L88.193 24H86.7l-2.38-2.926zm-59.966 9.451c.863 0 1.553.29 2.069.87.52.576.78 1.335.78 2.279v.108c0 .647-.124 1.227-.374 1.739-.25.508-.61.904-1.079 1.187-.466.28-1.003.419-1.612.419-.923 0-1.665-.307-2.228-.92-.563-.618-.845-1.446-.845-2.482v-.572c0-1.443.267-2.59.8-3.44.538-.85 1.329-1.37 2.374-1.555.593-.106.993-.235 1.2-.388a.737.737 0 0 0 .311-.628h.965c0 .53-.12.942-.362 1.238-.237.296-.618.506-1.143.628l-.876.197c-.698.165-1.223.444-1.574.838-.347.39-.573.91-.679 1.562.622-.72 1.38-1.08 2.273-1.08zm-.229.965c-.576 0-1.033.195-1.371.584-.339.385-.508.92-.508 1.606v.102c0 .736.17 1.32.508 1.752.343.427.804.64 1.384.64.584 0 1.045-.215 1.384-.647.338-.431.507-1.062.507-1.891 0-.648-.171-1.166-.514-1.555-.338-.394-.802-.59-1.39-.59zm4.088 2.012c0-.672.131-1.278.393-1.815a2.988 2.988 0 0 1 1.105-1.244 3.023 3.023 0 0 1 1.619-.438c.935 0 1.69.324 2.266.971.58.648.87 1.509.87 2.584v.082c0 .669-.13 1.27-.388 1.803-.254.529-.62.941-1.098 1.238-.474.296-1.02.444-1.638.444-.93 0-1.686-.324-2.266-.971-.575-.648-.863-1.505-.863-2.571v-.083zm1.18.14c0 .762.176 1.373.527 1.835.356.46.83.692 1.422.692.597 0 1.07-.233 1.422-.699.351-.47.527-1.125.527-1.968 0-.753-.18-1.362-.54-1.828a1.694 1.694 0 0 0-1.421-.704c-.58 0-1.048.23-1.403.692-.356.46-.534 1.121-.534 1.98zm12.074-3.51V37h-1.18v-5.897H37.95l-.14 2.57c-.076 1.181-.275 2.026-.596 2.533-.318.508-.823.773-1.517.794h-.47v-1.035l.337-.025c.38-.042.653-.262.818-.66.165-.398.271-1.134.318-2.21l.127-2.938h4.64zm3.167 2.367h1.784c.779.009 1.394.212 1.847.61.453.398.68.937.68 1.618 0 .686-.233 1.236-.699 1.65-.465.416-1.092.623-1.879.623h-2.907v-6.868h1.174v2.367zm0 .959v2.584h1.746c.44 0 .78-.113 1.022-.337.241-.228.362-.54.362-.933 0-.38-.119-.692-.356-.933-.233-.246-.56-.372-.984-.381h-1.79zm7.059-3.326v5.91h2.514v-5.91h1.174v5.91h2.507v-5.91h1.18V37h-8.556v-6.868h1.18zm12.08 6.995c-.932 0-1.689-.305-2.273-.914-.584-.614-.876-1.433-.876-2.457v-.215c0-.682.13-1.289.387-1.822a3.05 3.05 0 0 1 1.092-1.257c.47-.305.977-.457 1.523-.457.893 0 1.587.294 2.083.882.495.588.742 1.43.742 2.527v.488H61.8c.017.677.214 1.225.59 1.644.381.415.864.623 1.448.623.415 0 .766-.085 1.054-.254.287-.17.54-.394.755-.673l.717.558c-.575.885-1.439 1.327-2.59 1.327zm-.147-6.157c-.474 0-.871.173-1.193.52-.322.343-.52.825-.597 1.448h3.44v-.09c-.033-.596-.194-1.057-.482-1.383-.287-.33-.677-.495-1.168-.495zM76.653 37h-1.175v-2.933h-3.154V37h-1.18v-6.868h1.18v2.977h3.154v-2.977h1.175V37zm4.741.127c-.93 0-1.688-.305-2.272-.914-.584-.614-.876-1.433-.876-2.457v-.215c0-.682.13-1.289.387-1.822a3.05 3.05 0 0 1 1.092-1.257c.47-.305.978-.457 1.524-.457.892 0 1.586.294 2.082.882.495.588.742 1.43.742 2.527v.488H79.42c.017.677.214 1.225.59 1.644.382.415.864.623 1.448.623.415 0 .766-.085 1.054-.254.287-.17.54-.394.755-.673l.717.558c-.575.885-1.438 1.327-2.59 1.327zm-.145-6.157c-.474 0-.872.173-1.194.52-.321.343-.52.825-.597 1.448h3.44v-.09c-.033-.596-.194-1.057-.481-1.383-.288-.33-.678-.495-1.168-.495zM30.417 50h-1.175v-5.897h-3.16V50H24.9v-6.868h5.517V50zm1.574-3.498c0-.672.13-1.278.393-1.815a2.988 2.988 0 0 1 1.105-1.244 3.023 3.023 0 0 1 1.618-.438c.936 0 1.691.324 2.267.971.58.648.87 1.509.87 2.584v.082c0 .669-.13 1.27-.388 1.803-.254.529-.62.941-1.098 1.238-.474.296-1.02.444-1.638.444-.93 0-1.686-.324-2.266-.971-.575-.648-.863-1.505-.863-2.571v-.083zm1.18.14c0 .762.176 1.373.527 1.835.356.46.83.692 1.422.692.597 0 1.07-.233 1.422-.699.351-.47.527-1.125.527-1.968 0-.753-.18-1.362-.54-1.828a1.694 1.694 0 0 0-1.422-.704c-.58 0-1.047.23-1.402.692-.356.46-.534 1.121-.534 1.98zm6.03 2.4l.407-.502c.457-.592.717-1.481.78-2.666l.109-2.742h4.424v5.91h.882v2.977H44.63V50h-4.793v2.019h-1.174l.007-2.977h.533zm1.39 0h3.156v-4.825h-2.114l-.07 1.638c-.072 1.367-.396 2.429-.971 3.187zm8.818-3.403l1.523-2.507h1.371l-2.247 3.396L52.373 50h-1.358l-1.587-2.57L47.84 50h-1.365l2.317-3.472-2.247-3.396h1.358l1.505 2.507zm3.707.863c0-.672.13-1.278.393-1.815a2.988 2.988 0 0 1 1.105-1.244 3.023 3.023 0 0 1 1.618-.438c.936 0 1.691.324 2.267.971.58.648.87 1.509.87 2.584v.082c0 .669-.13 1.27-.388 1.803-.254.529-.62.941-1.098 1.238-.474.296-1.02.444-1.638.444-.93 0-1.686-.324-2.266-.971-.575-.648-.863-1.505-.863-2.571v-.083zm1.18.14c0 .762.176 1.373.527 1.835.356.46.83.692 1.422.692.597 0 1.07-.233 1.422-.699.351-.47.527-1.125.527-1.968 0-.753-.18-1.362-.54-1.828a1.694 1.694 0 0 0-1.422-.704c-.58 0-1.047.23-1.402.692-.356.46-.534 1.121-.534 1.98zm6.03 2.4l.407-.502c.457-.592.717-1.481.78-2.666l.109-2.742h4.424v5.91h.882v2.977h-1.174V50H60.96v2.019h-1.174l.007-2.977h.533zm1.39 0h3.156v-4.825h-2.114l-.07 1.638c-.072 1.367-.396 2.429-.971 3.187zm10.957-5.91h1.174V50h-1.174v-5.008L69.505 50h-1.174v-6.868h1.174v5.015l3.168-5.015zm8.163.952h-2.304V50h-1.175v-5.916h-2.26v-.952h5.739v.952z"/><path id="path12_fill" fill-rule="evenodd" d="M11.5 23C17.851 23 23 17.851 23 11.5S17.851 0 11.5 0 0 5.149 0 11.5 5.149 23 11.5 23z"/><path id="path13_fill" d="M9.382 14H7.97V4.493H2.71V14H1.304V3.336h8.078V14zm9.046-3.874c0 1.206-.276 2.177-.828 2.915-.552.737-1.299 1.105-2.241 1.105-.962 0-1.719-.305-2.27-.915v3.816h-1.356V6.075h1.238l.066.88c.552-.684 1.318-1.026 2.3-1.026.952 0 1.704.359 2.256 1.076.556.718.835 1.717.835 2.996v.125zm-1.355-.154c0-.894-.19-1.6-.572-2.117-.38-.518-.903-.776-1.567-.776-.82 0-1.435.363-1.846 1.09v3.787c.406.723 1.026 1.085 1.86 1.085.65 0 1.165-.257 1.546-.77.386-.517.579-1.284.579-2.3zm8.21-3.897h1.355V14h-1.355V8.221L21.628 14h-1.355V6.075h1.355v5.786l3.655-5.786zM35.288 14h-1.355v-3.384h-3.64V14h-1.362V6.075h1.362V9.51h3.64V6.075h1.355V14zm8.24-7.925V14h-1.362v-3.084h-2.044L38.254 14H36.79l1.992-3.289c-.508-.185-.899-.47-1.172-.857a2.345 2.345 0 0 1-.403-1.362c0-.722.271-1.304.813-1.743.542-.444 1.267-.669 2.175-.674h3.333zm-4.959 2.432c0 .386.132.698.396.937.263.235.613.354 1.047.36h2.154v-2.63h-1.949c-.503 0-.903.124-1.2.373a1.181 1.181 0 0 0-.448.96zm13.023-1.333h-2.659V14h-1.355V7.174h-2.607V6.075h6.62v1.099zm.652 2.79c0-.776.151-1.474.454-2.094.307-.62.732-1.099 1.274-1.436.547-.337 1.17-.505 1.868-.505 1.079 0 1.95.373 2.615 1.12.669.747 1.003 1.741 1.003 2.981v.096c0 .771-.149 1.464-.447 2.08a3.337 3.337 0 0 1-1.267 1.428c-.547.342-1.177.512-1.89.512-1.074 0-1.945-.373-2.614-1.12-.664-.747-.996-1.736-.996-2.966v-.096zm1.362.162c0 .878.203 1.584.608 2.116.41.532.957.798 1.64.798.689 0 1.236-.268 1.641-.805.405-.542.608-1.299.608-2.27 0-.87-.208-1.573-.623-2.11-.41-.542-.957-.813-1.64-.813-.67 0-1.209.266-1.619.798-.41.533-.615 1.294-.615 2.286z"/><path id="path14_fill" d="M9.44 9.012c0 1.045-.175 1.958-.526 2.74-.352.776-.85 1.37-1.495 1.78-.644.41-1.396.614-2.255.614-.84 0-1.585-.205-2.234-.615-.65-.415-1.155-1.003-1.516-1.765-.357-.767-.54-1.653-.55-2.659v-.769c0-1.025.178-1.93.535-2.717.356-.786.86-1.387 1.509-1.802.654-.42 1.401-.63 2.24-.63.855 0 1.607.208 2.257.623.654.41 1.157 1.008 1.509 1.794.351.782.527 1.692.527 2.732v.674zm-1.398-.688c0-1.265-.254-2.234-.762-2.908-.508-.679-1.218-1.018-2.131-1.018-.889 0-1.59.34-2.102 1.018-.508.674-.77 1.611-.784 2.813v.783c0 1.226.257 2.19.77 2.893.517.699 1.227 1.048 2.13 1.048.909 0 1.612-.33 2.11-.99.498-.663.754-1.613.769-2.848v-.791zm9.185-1.15h-2.66V14h-1.354V7.174h-2.607V6.075h6.62v1.099zm3.786 3.45h-.989V14h-1.362V6.075h1.362V9.43h.887l2.666-3.355h1.64l-3.134 3.809L25.48 14H23.76l-2.747-3.377zM31.538 14c-.078-.156-.142-.435-.19-.835-.63.654-1.382.982-2.256.982-.781 0-1.423-.22-1.926-.66-.498-.444-.747-1.006-.747-1.684 0-.826.312-1.465.937-1.92.63-.458 1.514-.688 2.651-.688h1.319v-.622c0-.474-.142-.85-.425-1.128-.283-.283-.7-.425-1.253-.425-.483 0-.888.122-1.215.366-.328.244-.491.54-.491.886H26.58c0-.395.139-.776.417-1.142a2.894 2.894 0 0 1 1.143-.879 3.87 3.87 0 0 1 1.589-.322c.913 0 1.628.23 2.146.688.518.454.786 1.082.806 1.883v3.647c0 .727.092 1.306.278 1.736V14h-1.42zm-2.248-1.033c.424 0 .827-.11 1.208-.33.38-.219.657-.505.828-.856v-1.626h-1.062c-1.66 0-2.49.486-2.49 1.457 0 .425.141.757.424.996.283.24.647.36 1.092.36zm9.873-4.724c0-.37-.142-.664-.425-.879-.283-.22-.672-.33-1.165-.33-.478 0-.879.125-1.2.374-.318.25-.477.542-.477.88h-1.348c0-.69.288-1.253.865-1.693.576-.44 1.296-.659 2.16-.659.928 0 1.65.2 2.168.6.518.396.777.963.777 1.7 0 .356-.108.683-.323.981-.215.298-.52.535-.915.71.923.313 1.384.928 1.384 1.846 0 .728-.28 1.304-.842 1.729-.562.425-1.311.637-2.249.637-.913 0-1.667-.222-2.263-.666-.59-.45-.886-1.055-.886-1.817h1.348c0 .386.17.718.512.996.347.274.776.41 1.29.41.517 0 .934-.12 1.252-.358.317-.24.476-.55.476-.93 0-.445-.135-.762-.403-.953-.264-.195-.676-.293-1.238-.293h-1.355V9.386h1.472c.923-.025 1.385-.406 1.385-1.143z"/><path id="path15_fill" d="M7.961 3.336h1.407V14H7.96V5.782L2.71 14H1.296V3.336H2.71v8.218l5.251-8.218zm7.412 9.558l.47-.579c.527-.683.827-1.709.9-3.076l.125-3.164h5.105v6.819h1.018v3.435h-1.355V14h-5.53v2.33h-1.355l.007-3.436h.616zm1.604 0h3.64V7.328H18.18l-.08 1.89c-.084 1.576-.457 2.802-1.122 3.676zm14.21-2.768c0 1.206-.276 2.177-.828 2.915-.552.737-1.299 1.105-2.241 1.105-.962 0-1.72-.305-2.27-.915v3.816h-1.356V6.075h1.238l.066.88c.552-.684 1.318-1.026 2.3-1.026.952 0 1.704.359 2.256 1.076.556.718.834 1.717.834 2.996v.125zm-1.356-.154c0-.894-.19-1.6-.57-2.117-.382-.518-.904-.776-1.568-.776-.82 0-1.436.363-1.846 1.09v3.787c.405.723 1.026 1.085 1.86 1.085.65 0 1.165-.257 1.546-.77.386-.517.578-1.284.578-2.3zm5.589 2.043l1.846-5.94h1.45l-3.186 9.148c-.493 1.318-1.277 1.978-2.351 1.978l-.257-.022-.505-.095v-1.1l.366.03c.46 0 .816-.093 1.07-.278.258-.186.47-.525.637-1.018l.3-.806-2.827-7.837h1.48l1.977 5.94zm9.631-4.82h-3.654V14h-1.363V6.075h5.017v1.12zm.674 2.77c0-.777.151-1.475.454-2.095.308-.62.733-1.099 1.275-1.436.547-.337 1.169-.505 1.867-.505 1.08 0 1.951.373 2.615 1.12.669.747 1.004 1.741 1.004 2.981v.096c0 .771-.15 1.464-.447 2.08a3.338 3.338 0 0 1-1.267 1.428c-.547.342-1.177.512-1.89.512-1.074 0-1.946-.373-2.615-1.12-.664-.747-.996-1.736-.996-2.966v-.096zm1.362.16c0 .88.203 1.585.608 2.117.41.532.957.798 1.64.798.69 0 1.236-.268 1.642-.805.405-.542.608-1.299.608-2.27 0-.87-.208-1.573-.623-2.11-.41-.542-.957-.813-1.64-.813-.67 0-1.21.266-1.62.798-.41.533-.615 1.294-.615 2.286zm10.84 4.021c-1.074 0-1.948-.351-2.622-1.054-.674-.708-1.01-1.653-1.01-2.835v-.249c0-.786.148-1.487.446-2.102.303-.62.723-1.103 1.26-1.45a3.169 3.169 0 0 1 1.758-.527c1.03 0 1.83.34 2.402 1.018.571.678.857 1.65.857 2.915v.564H55.65c.02.781.247 1.413.682 1.897.439.478.996.717 1.67.717.478 0 .883-.097 1.215-.292.332-.196.623-.454.872-.777l.828.645c-.664 1.02-1.66 1.53-2.989 1.53zm-.168-7.104c-.547 0-1.006.2-1.377.6-.371.396-.6.953-.689 1.67h3.97V9.21c-.039-.689-.224-1.22-.557-1.597-.332-.38-.78-.571-1.347-.571zm8.613 6.248c0-.235.068-.43.205-.586.142-.157.352-.235.63-.235s.488.078.63.235c.146.156.22.351.22.586a.779.779 0 0 1-.22.564c-.142.15-.352.227-.63.227s-.488-.076-.63-.227a.81.81 0 0 1-.205-.564zm3.2 0c0-.235.07-.43.206-.586.141-.157.351-.235.63-.235.278 0 .488.078.63.235.146.156.22.351.22.586a.779.779 0 0 1-.22.564c-.142.15-.352.227-.63.227-.279 0-.489-.076-.63-.227a.81.81 0 0 1-.205-.564zm3.04 0c0-.235.069-.43.205-.586.142-.157.352-.235.63-.235.279 0 .489.078.63.235.147.156.22.351.22.586a.779.779 0 0 1-.22.564c-.141.15-.351.227-.63.227-.278 0-.488-.076-.63-.227a.81.81 0 0 1-.205-.564z"/><path id="path16_fill" d="M17.538 1.758h1.218V11h-1.218V3.878L12.986 11h-1.225V1.758h1.225V8.88l4.552-7.122zM24.57 6.01a.905.905 0 0 0-.368-.762c-.246-.19-.582-.286-1.01-.286-.414 0-.761.108-1.04.324-.276.216-.413.47-.413.762h-1.168c0-.597.25-1.086.749-1.466.5-.381 1.123-.572 1.872-.572.804 0 1.43.174 1.88.52.448.344.672.834.672 1.473 0 .31-.093.593-.28.851-.185.258-.45.463-.793.616.8.27 1.2.804 1.2 1.6 0 .63-.243 1.13-.73 1.497-.487.369-1.136.553-1.949.553-.791 0-1.445-.193-1.961-.578-.512-.39-.768-.914-.768-1.574h1.168c0 .334.148.622.444.863.3.237.673.355 1.117.355.449 0 .81-.103 1.086-.31a.965.965 0 0 0 .412-.807c0-.385-.116-.66-.349-.825-.228-.17-.586-.254-1.072-.254h-1.175v-.99h1.276c.8-.021 1.2-.351 1.2-.99zm6.78 3.434l2.335-5.313h1.466V11h-1.174V6.004L31.756 11h-.812l-2.266-5.104V11h-1.175V4.132h1.524l2.323 5.313zm8.543 1.682c-.93 0-1.688-.305-2.272-.914-.584-.614-.876-1.433-.876-2.457v-.215c0-.682.129-1.29.387-1.822a3.05 3.05 0 0 1 1.092-1.257c.47-.305.977-.457 1.523-.457.893 0 1.587.294 2.082.882.495.588.743 1.43.743 2.527v.488H37.92c.017.677.214 1.225.59 1.644.381.415.864.623 1.448.623.414 0 .766-.085 1.053-.254.288-.17.54-.394.756-.673l.717.558c-.576.885-1.439 1.327-2.59 1.327zm-.146-6.157c-.474 0-.872.173-1.193.52-.322.343-.52.825-.597 1.447h3.44V6.85c-.033-.597-.194-1.058-.482-1.384-.288-.33-.677-.495-1.168-.495zm9.8 6.03h-1.174V8.067H45.22V11h-1.18V4.132h1.18v2.977h3.154V4.132h1.175V11zm4.742.127c-.93 0-1.688-.305-2.272-.914-.584-.614-.876-1.433-.876-2.457v-.215c0-.682.13-1.29.387-1.822a3.05 3.05 0 0 1 1.092-1.257c.47-.305.978-.457 1.523-.457.893 0 1.587.294 2.083.882.495.588.742 1.43.742 2.527v.488h-4.653c.017.677.214 1.225.59 1.644.382.415.864.623 1.448.623.415 0 .766-.085 1.054-.254.288-.17.54-.394.755-.673l.717.558c-.575.885-1.438 1.327-2.59 1.327zm-.145-6.157c-.474 0-.872.173-1.194.52-.321.343-.52.825-.596 1.447h3.44V6.85c-.034-.597-.195-1.058-.483-1.384-.287-.33-.677-.495-1.167-.495zm9.8 6.03h-1.174V8.067h-3.155V11h-1.18V4.132h1.18v2.977h3.155V4.132h1.174V11zm1.58-3.498c0-.672.132-1.278.394-1.815a2.988 2.988 0 0 1 1.105-1.244 3.023 3.023 0 0 1 1.619-.438c.935 0 1.69.324 2.266.971.58.648.87 1.509.87 2.584v.082c0 .669-.13 1.27-.388 1.803-.254.529-.62.941-1.098 1.238-.474.296-1.02.444-1.638.444-.93 0-1.686-.324-2.266-.971-.575-.648-.863-1.505-.863-2.571v-.083zm1.181.14c0 .762.176 1.373.527 1.835.356.46.83.691 1.422.691.597 0 1.07-.232 1.422-.698.351-.47.527-1.125.527-1.968 0-.753-.18-1.362-.54-1.828a1.694 1.694 0 0 0-1.421-.704c-.58 0-1.048.23-1.403.692-.356.46-.533 1.121-.533 1.98zM3.072 21.074h-.857V24h-1.18v-6.868h1.18v2.907h.768l2.311-2.907h1.422l-2.717 3.3L6.943 24H5.452l-2.38-2.926zm4.43-.572c0-.672.132-1.278.395-1.815A2.988 2.988 0 0 1 9 17.443a3.023 3.023 0 0 1 1.619-.438c.935 0 1.69.324 2.266.971.58.648.87 1.509.87 2.584v.082c0 .669-.13 1.27-.388 1.803-.254.529-.62.941-1.098 1.238-.474.296-1.02.444-1.638.444-.93 0-1.686-.324-2.266-.971-.575-.648-.863-1.505-.863-2.571v-.083zm1.182.14c0 .762.175 1.373.526 1.835.356.46.83.692 1.422.692.597 0 1.071-.233 1.422-.699.351-.47.527-1.125.527-1.968 0-.753-.18-1.362-.54-1.828a1.694 1.694 0 0 0-1.421-.704c-.58 0-1.048.23-1.403.692-.356.46-.533 1.121-.533 1.98zm12.073-3.51V24h-1.18v-5.897h-2.337l-.14 2.57c-.076 1.182-.274 2.026-.596 2.534-.317.507-.823.772-1.517.793h-.47v-1.035l.336-.025c.381-.042.654-.262.82-.66.164-.398.27-1.134.317-2.21l.127-2.938h4.64zm4.329 3.421h-3.098v-.958h3.098v.958zM26.342 24v-6.868h2.678c.915 0 1.615.16 2.102.482.49.318.736.785.736 1.403 0 .317-.095.605-.286.863-.19.254-.472.449-.844.584.415.098.747.288.997.572.253.283.38.622.38 1.015 0 .63-.232 1.113-.698 1.448-.461.334-1.115.501-1.961.501h-3.104zm1.174-3.015v2.07h1.943c.49 0 .856-.092 1.098-.274.245-.182.368-.438.368-.768 0-.685-.504-1.028-1.51-1.028h-1.899zm0-.94h1.517c1.1 0 1.65-.321 1.65-.964 0-.644-.52-.976-1.56-.997h-1.607v1.961zm5.834.457c0-.672.13-1.278.393-1.815a2.988 2.988 0 0 1 1.105-1.244 3.023 3.023 0 0 1 1.618-.438c.935 0 1.69.324 2.266.971.58.648.87 1.509.87 2.584v.082c0 .669-.129 1.27-.387 1.803-.254.529-.62.941-1.098 1.238-.474.296-1.02.444-1.638.444-.931 0-1.686-.324-2.266-.971-.576-.648-.863-1.505-.863-2.571v-.083zm1.18.14c0 .762.176 1.373.527 1.835.356.46.83.692 1.422.692.597 0 1.07-.233 1.422-.699.351-.47.527-1.125.527-1.968 0-.753-.18-1.362-.54-1.828a1.694 1.694 0 0 0-1.422-.704c-.58 0-1.047.23-1.403.692-.355.46-.533 1.121-.533 1.98zM44.407 24v-6.868h2.679c.914 0 1.614.16 2.101.482.49.318.736.785.736 1.403 0 .317-.095.605-.285.863-.19.254-.472.449-.844.584.414.098.746.288.996.572.254.283.38.622.38 1.015 0 .63-.232 1.113-.697 1.448-.462.334-1.115.501-1.962.501h-3.104zm1.175-3.015v2.07h1.942c.49 0 .857-.092 1.098-.274.245-.182.368-.438.368-.768 0-.685-.503-1.028-1.51-1.028h-1.898zm0-.94h1.517c1.1 0 1.65-.321 1.65-.964 0-.644-.52-.976-1.562-.997h-1.605v1.961zm8.994 4.082c-.93 0-1.688-.305-2.272-.914-.584-.614-.876-1.433-.876-2.457v-.215c0-.682.129-1.289.387-1.822a3.05 3.05 0 0 1 1.092-1.257c.47-.305.977-.457 1.523-.457.893 0 1.587.294 2.082.882.495.588.743 1.43.743 2.527v.488h-4.653c.017.677.214 1.225.59 1.644.381.415.864.623 1.448.623.414 0 .766-.085 1.053-.254.288-.17.54-.394.756-.673l.717.558c-.575.885-1.439 1.327-2.59 1.327zm-.146-6.157c-.474 0-.872.173-1.193.52-.322.343-.52.825-.597 1.448h3.44v-.09c-.033-.596-.194-1.057-.482-1.383-.288-.33-.677-.495-1.168-.495zm5.402-.838v5.91h2.514v-5.91h1.174v5.91h2.507v-5.91h1.181v5.91h.965l-.114 2.996h-1.054V24H58.65v-6.868h1.181zm12.467 6.995c-.931 0-1.689-.305-2.273-.914-.584-.614-.876-1.433-.876-2.457v-.215c0-.682.13-1.289.388-1.822a3.05 3.05 0 0 1 1.091-1.257c.47-.305.978-.457 1.524-.457.893 0 1.587.294 2.082.882.495.588.743 1.43.743 2.527v.488h-4.653c.017.677.213 1.225.59 1.644.38.415.863.623 1.447.623.415 0 .766-.085 1.054-.254.288-.17.54-.394.755-.673l.718.558c-.576.885-1.44 1.327-2.59 1.327zm-.146-6.157c-.474 0-.872.173-1.194.52-.321.343-.52.825-.596 1.448h3.44v-.09c-.034-.596-.194-1.057-.482-1.383-.288-.33-.677-.495-1.168-.495zm8.633-.838h1.174V24h-1.174v-5.008L77.618 24h-1.174v-6.868h1.174v5.014l3.168-5.014zm.317-2.501c0 .512-.176.925-.527 1.238-.347.309-.804.463-1.37.463-.568 0-1.027-.157-1.378-.47-.352-.313-.527-.723-.527-1.231h.958c0 .296.08.529.242.698.16.165.395.248.704.248.296 0 .527-.083.692-.248.17-.165.254-.398.254-.698h.952z"/></defs></svg>