<svg width="460" height="425" viewBox="0 0 460 425" version="1.1" xmlns="http://www.w3.org/2000/svg" xmlns:xlink="http://www.w3.org/1999/xlink">
<title>Group 24</title>
<desc>Created using Figma</desc>
<g id="Canvas" transform="translate(81 692)">
<g id="Group 24">
<g id="Rectangle 7">
<use xlink:href="#path0_fill" transform="translate(160 -692)" fill="#F6928D"/>
</g>
<g id="&#208;&#161;&#208;&#162;&#208;&#144;&#208;&#160;&#208;&#162;">
<use xlink:href="#path1_fill" transform="translate(192 -684)" fill="#FFFFFF"/>
</g>
<g id="Line">
<use xlink:href="#path2_stroke" transform="translate(214.617 -523.497)" fill="url(#paint2_linear)"/>
</g>
<g id="Line">
<use xlink:href="#path3_stroke" transform="matrix(-1 0 0 1 213.079 -494.497)" fill="url(#paint3_linear)"/>
</g>
<g id="Line Copy 5">
<use xlink:href="#path4_stroke" transform="translate(212 -579)" fill="url(#paint4_linear)"/>
</g>
<g id="Line Copy 5">
<use xlink:href="#path5_stroke" transform="translate(95 -478)" fill="url(#paint5_linear)"/>
</g>
<g id="Line Copy 6">
<use xlink:href="#path6_stroke" transform="translate(108 -397)" fill="url(#paint6_linear)"/>
</g>
<g id="Line Copy 7">
<use xlink:href="#path7_stroke" transform="translate(215 -353)" fill="url(#paint7_linear)"/>
</g>
<g id="Line Copy 5">
<use xlink:href="#path8_stroke" transform="translate(212 -660)" fill="url(#paint8_linear)"/>
</g>
<g id="Oval 6">
<use xlink:href="#path9_stroke" transform="translate(202 -603)" fill="#A79FCA"/>
</g>
<g id="&#208;&#152;&#208;&#183;&#208;&#188;&#208;&#181;&#208;&#189;&#208;&#181;&#208;&#189;&#208;&#176; &#208;&#180;&#208;&#176;&#209;&#130;&#208;&#176;">
<use xlink:href="#path10_fill" transform="translate(67 -537)" fill="#353535"/>
</g>
<g id="&#208;&#158;&#209;&#130;&#208;&#186;&#208;&#176;&#208;&#183; &#208;&#184;&#208;&#187;&#208;&#184; &#208;&#191;&#208;&#181;&#209;&#128;&#208;&#181;&#208;&#178;&#208;&#190;&#208;&#183;&#209;&#135;&#208;&#184;&#208;&#186;">
<use xlink:href="#path11_fill" transform="translate(43 -379)" fill="#353535"/>
</g>
<g id="Oval 6">
<use xlink:href="#path12_fill" transform="translate(85 -501)" fill="#FFFFFF"/>
<use xlink:href="#path9_stroke" transform="translate(85 -501)" fill="#D9B9E6"/>
</g>
<g id="Oval 6">
<use xlink:href="#path12_fill" transform="translate(85 -408)" fill="#FFFFFF"/>
<use xlink:href="#path9_stroke" transform="translate(85 -408)" fill="#FBA18D"/>
</g>
<g id="Oval 6">
<use xlink:href="#path12_fill" transform="translate(274 -364)" fill="#FFFFFF"/>
<use xlink:href="#path9_stroke" transform="translate(274 -364)" fill="#E6E6E6"/>
</g>
<g id="Oval 6 Copy">
<use xlink:href="#path12_fill" transform="translate(-20 -501)" fill="#FFFFFF"/>
<use xlink:href="#path9_stroke" transform="translate(-20 -501)" fill="#DCA9E3"/>
</g>
<g id="Oval 6">
<use xlink:href="#path9_stroke" transform="translate(273 -530)" fill="#F8A5A0"/>
</g>
<g id="&#208;&#159;&#209;&#128;&#208;&#184;&#208;&#189;&#209;&#143;&#209;&#130;&#208;&#190;">
<use xlink:href="#path13_fill" transform="translate(236 -600)" fill="#333333"/>
</g>
<g id="&#208;&#158;&#209;&#130;&#208;&#186;&#208;&#176;&#208;&#183;">
<use xlink:href="#path14_fill" transform="translate(304 -527)" fill="#333333"/>
</g>
<g id="&#208;&#152; &#208;&#180;&#209;&#128;&#209;&#131;&#208;&#179;&#208;&#190;&#208;&#181; &#226;&#128;&#166;">
<use xlink:href="#path15_fill" transform="translate(304 -361)" fill="#333333"/>
</g>
<g id="&#208;&#152;&#208;&#183;&#208;&#188;&#208;&#181;&#208;&#189;&#208;&#181;&#208;&#189;&#208;&#190; &#208;&#186;&#208;&#190;&#208;&#187;-&#208;&#178;&#208;&#190; &#208;&#178;&#208;&#181;&#209;&#137;&#208;&#181;">
<use xlink:href="#path16_fill" transform="translate(-50 -536)" fill="#353535"/>
</g>
</g>
</g>
<defs>
<linearGradient id="paint2_linear" x1="0" y1="0" x2="1" y2="0" gradientUnits="userSpaceOnUse" gradientTransform="matrix(62.4893 0 0 6.1937 0 0)">
<stop offset="0" stop-color="#C5D0E3"/>
<stop offset="1" stop-color="#F8A5A0"/>
</linearGradient>
<linearGradient id="paint3_linear" x1="0" y1="0" x2="1" y2="0" gradientUnits="userSpaceOnUse" gradientTransform="matrix(286.848 0 0 5.42025 0 0)">
<stop offset="0" stop-color="#C5D0E3"/>
<stop offset="0.639598" stop-color="#D885DE"/>
<stop offset="1" stop-color="#D885DE" stop-opacity="0.01"/>
</linearGradient>
<linearGradient id="paint4_linear" x1="0" y1="0" x2="1" y2="0" gradientUnits="userSpaceOnUse" gradientTransform="matrix(0 -309 3 0 0 309)">
<stop offset="0" stop-color="#6DDAE6" stop-opacity="0.01"/>
<stop offset="1" stop-color="#B6B1D3"/>
</linearGradient>
<linearGradient id="paint5_linear" x1="0" y1="0" x2="1" y2="0" gradientUnits="userSpaceOnUse" gradientTransform="matrix(0 -71 3 0 0 71)">
<stop offset="0" stop-color="#FCB2A0"/>
<stop offset="1" stop-color="#E0C8EA"/>
</linearGradient>
<linearGradient id="paint6_linear" x1="0" y1="0" x2="1" y2="0" gradientUnits="userSpaceOnUse" gradientTransform="matrix(105.845 0 0 2.05525 0 2)">
<stop offset="0" stop-color="#FCB2A0"/>
<stop offset="1" stop-color="#D5EAF1"/>
</linearGradient>
<linearGradient id="paint7_linear" x1="0" y1="0" x2="1" y2="0" gradientUnits="userSpaceOnUse" gradientTransform="matrix(57.547 0 0 2.05525 0 2)">
<stop offset="0" stop-color="#D5EAF1"/>
<stop offset="1" stop-color="#E0E0E0"/>
</linearGradient>
<linearGradient id="paint8_linear" x1="0" y1="0" x2="1" y2="0" gradientUnits="userSpaceOnUse" gradientTransform="matrix(0 -56 3 0 0 56)">
<stop offset="0" stop-color="#B6B1D3"/>
<stop offset="1" stop-color="#F8A5A0"/>
</linearGradient>
<path id="path0_fill" fill-rule="evenodd" d="M 0 16.5C 0 7.3873 7.3873 0 16.5 0L 90.5 0C 99.6127 0 107 7.3873 107 16.5C 107 25.6127 99.6127 33 90.5 33L 16.5 33C 7.3873 33 0 25.6127 0 16.5Z"/>
<path id="path1_fill" d="M 8.47656 9.8418C 8.35352 10.8945 7.96387 11.708 7.30762 12.2822C 6.65592 12.8519 5.78776 13.1367 4.70312 13.1367C 3.52734 13.1367 2.58398 12.7152 1.87305 11.8721C 1.16667 11.029 0.813477 9.90104 0.813477 8.48828L 0.813477 7.53125C 0.813477 6.60612 0.977539 5.79264 1.30566 5.09082C 1.63835 4.389 2.10775 3.85124 2.71387 3.47754C 3.31999 3.09928 4.02181 2.91016 4.81934 2.91016C 5.87663 2.91016 6.72428 3.20638 7.3623 3.79883C 8.00033 4.38672 8.37174 5.20247 8.47656 6.24609L 7.15723 6.24609C 7.04329 5.45312 6.79492 4.87891 6.41211 4.52344C 6.03385 4.16797 5.50293 3.99023 4.81934 3.99023C 3.98079 3.99023 3.32227 4.30013 2.84375 4.91992C 2.36979 5.53971 2.13281 6.42155 2.13281 7.56543L 2.13281 8.5293C 2.13281 9.60938 2.3584 10.4684 2.80957 11.1064C 3.26074 11.7445 3.89193 12.0635 4.70312 12.0635C 5.43229 12.0635 5.99056 11.8994 6.37793 11.5713C 6.76986 11.2386 7.02962 10.6621 7.15723 9.8418L 8.47656 9.8418ZM 16.9463 4.12695L 13.7471 4.12695L 13.7471 13L 12.4414 13L 12.4414 4.12695L 9.24902 4.12695L 9.24902 3.04688L 16.9463 3.04688L 16.9463 4.12695ZM 23.3721 10.4023L 19.2021 10.4023L 18.2656 13L 16.9121 13L 20.7129 3.04688L 21.8613 3.04688L 25.6689 13L 24.3223 13L 23.3721 10.4023ZM 19.5986 9.32227L 22.9824 9.32227L 21.2871 4.66699L 19.5986 9.32227ZM 28.3213 9.10352L 28.3213 13L 27.0088 13L 27.0088 3.04688L 30.6797 3.04688C 31.7689 3.04688 32.6211 3.32487 33.2363 3.88086C 33.8561 4.43685 34.166 5.17285 34.166 6.08887C 34.166 7.05501 33.863 7.80013 33.2568 8.32422C 32.6553 8.84375 31.7917 9.10352 30.666 9.10352L 28.3213 9.10352ZM 28.3213 8.03027L 30.6797 8.03027C 31.3815 8.03027 31.9193 7.86621 32.293 7.53809C 32.6667 7.2054 32.8535 6.72689 32.8535 6.10254C 32.8535 5.51009 32.6667 5.03613 32.293 4.68066C 31.9193 4.3252 31.4066 4.14062 30.7549 4.12695L 28.3213 4.12695L 28.3213 8.03027ZM 42.7178 4.12695L 39.5186 4.12695L 39.5186 13L 38.2129 13L 38.2129 4.12695L 35.0205 4.12695L 35.0205 3.04688L 42.7178 3.04688L 42.7178 4.12695Z"/>
<path id="path2_stroke" d="M 55.4618 7.99716C 56.8426 7.99716 57.9618 6.87788 57.9618 5.49716C 57.9618 4.11645 56.8426 2.99716 55.4618 2.99716L 55.4618 7.99716ZM 2.10723 -1.34521C 1.36428 -2.509 -0.181426 -2.85017 -1.34521 -2.10723C -2.509 -1.36428 -2.85017 0.181426 -2.10723 1.34521L 2.10723 -1.34521ZM 55.4618 5.49716C 55.4618 2.99716 55.4617 2.99716 55.4615 2.99716C 55.4613 2.99716 55.461 2.99716 55.4606 2.99716C 55.4598 2.99716 55.4586 2.99716 55.457 2.99716C 55.4537 2.99716 55.4489 2.99716 55.4425 2.99716C 55.4296 2.99716 55.4103 2.99716 55.3848 2.99716C 55.3337 2.99716 55.2577 2.99716 55.1576 2.99716C 54.9574 2.99716 54.6612 2.99716 54.277 2.99716C 53.5085 2.99716 52.3879 2.99716 50.9795 2.99716C 48.1628 2.99716 44.1948 2.99716 39.5901 2.99716C 30.3807 2.99716 18.6241 2.99716 8.43565 2.99716L 8.43565 7.99716C 18.6241 7.99716 30.3807 7.99716 39.5901 7.99716C 44.1948 7.99716 48.1628 7.99716 50.9795 7.99716C 52.3879 7.99716 53.5085 7.99716 54.277 7.99716C 54.6612 7.99716 54.9574 7.99716 55.1576 7.99716C 55.2577 7.99716 55.3337 7.99716 55.3848 7.99716C 55.4103 7.99716 55.4296 7.99716 55.4425 7.99716C 55.4489 7.99716 55.4537 7.99716 55.457 7.99716C 55.4586 7.99716 55.4598 7.99716 55.4606 7.99716C 55.461 7.99716 55.4613 7.99716 55.4615 7.99716C 55.4617 7.99716 55.4618 7.99716 55.4618 5.49716ZM 8.43565 2.99716C 6.89817 2.99716 5.37577 2.11697 4.0635 0.909137C 3.41998 0.322466 2.96027 -0.215976 2.58916 -0.688084C 2.41518 -0.908221 2.29952 -1.0677 2.20619 -1.20073C 2.16466 -1.25973 2.14092 -1.29479 2.11922 -1.3273C 2.11076 -1.33992 2.10799 -1.34415 2.10361 -1.35087C 2.10257 -1.35245 2.10244 -1.35268 2.10299 -1.35183C 2.10269 -1.35228 2.10463 -1.34926 2.10449 -1.34948C 2.10414 -1.35003 2.10588 -1.34732 2.10571 -1.34759C 2.10593 -1.34724 2.10631 -1.34664 2.10643 -1.34646C 2.10682 -1.34585 2.10723 -1.34521 0 0C -2.10723 1.34521 -2.10679 1.34589 -2.10635 1.34659C -2.10618 1.34685 -2.10572 1.34757 -2.10539 1.34809C -2.105 1.3487 -2.10399 1.35027 -2.10321 1.35149C -2.10221 1.35304 -2.09986 1.3567 -2.09786 1.3598C -2.095 1.36423 -2.08893 1.37359 -2.08317 1.38241C -2.07398 1.39649 -2.05644 1.42313 -2.03799 1.45077C -2.00588 1.49879 -1.94941 1.58183 -1.88537 1.67315C -1.76754 1.84074 -1.57054 2.11073 -1.33856 2.40595C -0.897731 2.96456 -0.17222 3.80041 0.677383 4.58803C 2.35135 6.12877 5.04676 7.99716 8.43565 7.99716L 8.43565 2.99716Z"/>
<path id="path3_stroke" d="M 290.919 7.99716C 292.299 7.99716 293.419 6.87788 293.419 5.49716C 293.419 4.11645 292.299 2.99716 290.919 2.99716L 290.919 7.99716ZM 2.10723 -1.34521C 1.36428 -2.509 -0.181426 -2.85017 -1.34521 -2.10723C -2.509 -1.36428 -2.85017 0.181426 -2.10723 1.34521L 2.10723 -1.34521ZM 290.919 5.49716C 290.919 2.99716 290.918 2.99716 290.916 2.99716C 290.914 2.99716 290.911 2.99716 290.907 2.99716C 290.899 2.99716 290.887 2.99716 290.871 2.99716C 290.839 2.99716 290.792 2.99716 290.729 2.99716C 290.603 2.99716 290.414 2.99716 290.166 2.99716C 289.67 2.99716 288.932 2.99716 287.97 2.99716C 286.045 2.99716 283.22 2.99716 279.616 2.99716C 272.41 2.99716 262.092 2.99716 249.646 2.99716C 224.755 2.99716 191.355 2.99716 157.318 2.99716C 89.2449 2.99716 18.6241 2.99716 8.43565 2.99716L 8.43565 7.99716C 18.6241 7.99716 89.2449 7.99716 157.318 7.99716C 191.355 7.99716 224.755 7.99716 249.646 7.99716C 262.092 7.99716 272.41 7.99716 279.616 7.99716C 283.22 7.99716 286.045 7.99716 287.97 7.99716C 288.932 7.99716 289.67 7.99716 290.166 7.99716C 290.414 7.99716 290.603 7.99716 290.729 7.99716C 290.792 7.99716 290.839 7.99716 290.871 7.99716C 290.887 7.99716 290.899 7.99716 290.907 7.99716C 290.911 7.99716 290.914 7.99716 290.916 7.99716C 290.918 7.99716 290.919 7.99716 290.919 5.49716ZM 8.43565 2.99716C 6.89817 2.99716 5.37577 2.11697 4.0635 0.909137C 3.41998 0.322466 2.96027 -0.215976 2.58916 -0.688084C 2.41518 -0.908221 2.29952 -1.0677 2.20619 -1.20073C 2.16466 -1.25973 2.14092 -1.29479 2.11922 -1.3273C 2.11076 -1.33992 2.10799 -1.34415 2.10361 -1.35087C 2.10257 -1.35245 2.10244 -1.35268 2.10299 -1.35183C 2.10269 -1.35228 2.10463 -1.34926 2.10449 -1.34948C 2.10414 -1.35003 2.10588 -1.34732 2.10571 -1.34759C 2.10593 -1.34724 2.10631 -1.34664 2.10643 -1.34646C 2.10682 -1.34585 2.10723 -1.34521 0 0C -2.10723 1.34521 -2.10679 1.34589 -2.10635 1.34659C -2.10618 1.34685 -2.10572 1.34757 -2.10539 1.34809C -2.105 1.3487 -2.10399 1.35027 -2.10321 1.35149C -2.10221 1.35304 -2.09986 1.3567 -2.09786 1.3598C -2.095 1.36423 -2.08893 1.37359 -2.08317 1.38241C -2.07398 1.39649 -2.05644 1.42313 -2.03799 1.45077C -2.00588 1.49879 -1.94941 1.58183 -1.88537 1.67315C -1.76754 1.84074 -1.57054 2.11073 -1.33856 2.40595C -0.897731 2.96456 -0.17222 3.80041 0.677383 4.58803C 2.35135 6.12877 5.04676 7.99716 8.43565 7.99716L 8.43565 2.99716Z"/>
<path id="path4_stroke" d="M 4 0.5L 4 -2L -1 -2L -1 0.5L 4 0.5ZM -1 308.515L -1 311.015L 4 311.015L 4 308.515L -1 308.515ZM -1 0.5L -1 308.515L 4 308.515L 4 0.5L -1 0.5Z"/>
<path id="path5_stroke" d="M 4 0.5L 4 -2L -1 -2L -1 0.5L 4 0.5ZM -1 70.3713L -1 72.8713L 4 72.8713L 4 70.3713L -1 70.3713ZM -1 0.5L -1 70.3713L 4 70.3713L 4 0.5L -1 0.5Z"/>
<path id="path6_stroke" d="M 102.53 3.5L 105.03 3.5L 105.03 -1.5L 102.53 -1.5L 102.53 3.5ZM 0 -1.5L -2.5 -1.5L -2.5 3.5L 0 3.5L 0 -1.5ZM 102.53 -1.5L 0 -1.5L 0 3.5L 102.53 3.5L 102.53 -1.5Z"/>
<path id="path7_stroke" d="M 55.5 3.5C 56.8807 3.5 58 2.38071 58 1C 58 -0.380712 56.8807 -1.5 55.5 -1.5L 55.5 3.5ZM 0 -1.5C -1.38071 -1.5 -2.5 -0.380712 -2.5 1C -2.5 2.38071 -1.38071 3.5 0 3.5L 0 -1.5ZM 55.5 -1.5L 0 -1.5L 0 3.5L 55.5 3.5L 55.5 -1.5Z"/>
<path id="path8_stroke" d="M 4 0.5C 4 -0.880712 2.88071 -2 1.5 -2C 0.119288 -2 -1 -0.880712 -1 0.5L 4 0.5ZM -1 55.5C -1 56.8807 0.119288 58 1.5 58C 2.88071 58 4 56.8807 4 55.5L -1 55.5ZM -1 0.5L -1 55.5L 4 55.5L 4 0.5L -1 0.5Z"/>
<path id="path9_stroke" d="M 11.5 24.5C 18.6797 24.5 24.5 18.6797 24.5 11.5L 21.5 11.5C 21.5 17.0228 17.0228 21.5 11.5 21.5L 11.5 24.5ZM 24.5 11.5C 24.5 4.3203 18.6797 -1.5 11.5 -1.5L 11.5 1.5C 17.0228 1.5 21.5 5.97715 21.5 11.5L 24.5 11.5ZM 11.5 -1.5C 4.3203 -1.5 -1.5 4.3203 -1.5 11.5L 1.5 11.5C 1.5 5.97715 5.97715 1.5 11.5 1.5L 11.5 -1.5ZM -1.5 11.5C -1.5 18.6797 4.3203 24.5 11.5 24.5L 11.5 21.5C 5.97715 21.5 1.5 17.0228 1.5 11.5L -1.5 11.5Z"/>
<path id="path10_fill" d="M 7.09668 1.75781L 8.31543 1.75781L 8.31543 11L 7.09668 11L 7.09668 3.87793L 2.54541 11L 1.32031 11L 1.32031 1.75781L 2.54541 1.75781L 2.54541 8.87988L 7.09668 1.75781ZM 14.1299 6.01074C 14.1299 5.68913 14.0072 5.43522 13.7617 5.24902C 13.5163 5.05859 13.1799 4.96338 12.7524 4.96338C 12.3377 4.96338 11.9907 5.07129 11.7114 5.28711C 11.4364 5.50293 11.2988 5.75684 11.2988 6.04883L 10.1309 6.04883C 10.1309 5.45215 10.3805 4.96338 10.8799 4.58252C 11.3792 4.20166 12.0034 4.01123 12.7524 4.01123C 13.5565 4.01123 14.1828 4.18473 14.6313 4.53174C 15.0799 4.87451 15.3042 5.3654 15.3042 6.00439C 15.3042 6.31331 15.2111 6.59684 15.0249 6.85498C 14.8387 7.11312 14.5742 7.31836 14.2314 7.4707C 15.0312 7.74154 15.4312 8.27474 15.4312 9.07031C 15.4312 9.70085 15.1878 10.2002 14.7012 10.5684C 14.2145 10.9365 13.5649 11.1206 12.7524 11.1206C 11.9611 11.1206 11.3073 10.9281 10.791 10.543C 10.279 10.1536 10.0229 9.62891 10.0229 8.96875L 11.1909 8.96875C 11.1909 9.30306 11.339 9.59082 11.6353 9.83203C 11.9357 10.069 12.3081 10.1875 12.7524 10.1875C 13.201 10.1875 13.5628 10.0838 13.8379 9.87646C 14.113 9.66911 14.2505 9.40039 14.2505 9.07031C 14.2505 8.68522 14.1341 8.41016 13.9014 8.24512C 13.6729 8.07585 13.3153 7.99121 12.8286 7.99121L 11.6543 7.99121L 11.6543 7.00098L 12.9302 7.00098C 13.73 6.97982 14.1299 6.64974 14.1299 6.01074ZM 20.9092 9.44482L 23.2451 4.13184L 24.7114 4.13184L 24.7114 11L 23.5371 11L 23.5371 6.00439L 21.3154 11L 20.5029 11L 18.2368 5.89648L 18.2368 11L 17.0625 11L 17.0625 4.13184L 18.5859 4.13184L 20.9092 9.44482ZM 29.4531 11.127C 28.5221 11.127 27.7646 10.8223 27.1807 10.2129C 26.5967 9.59928 26.3047 8.78044 26.3047 7.75635L 26.3047 7.54053C 26.3047 6.85921 26.4338 6.25195 26.6919 5.71875C 26.9543 5.18131 27.3182 4.76237 27.7837 4.46191C 28.2534 4.15723 28.7612 4.00488 29.3071 4.00488C 30.2 4.00488 30.894 4.29899 31.3892 4.88721C 31.8843 5.47542 32.1318 6.31755 32.1318 7.41357L 32.1318 7.90234L 27.479 7.90234C 27.4959 8.57943 27.6927 9.12744 28.0693 9.54639C 28.4502 9.9611 28.9326 10.1685 29.5166 10.1685C 29.9313 10.1685 30.2826 10.0838 30.5703 9.91455C 30.8581 9.74528 31.1099 9.521 31.3257 9.2417L 32.043 9.80029C 31.4674 10.6847 30.6042 11.127 29.4531 11.127ZM 29.3071 4.96973C 28.8332 4.96973 28.4354 5.14323 28.1138 5.49023C 27.7922 5.83301 27.5933 6.31543 27.5171 6.9375L 30.9575 6.9375L 30.9575 6.84863C 30.9237 6.25195 30.7629 5.79069 30.4751 5.46484C 30.1873 5.13477 29.798 4.96973 29.3071 4.96973ZM 39.1079 11L 37.9336 11L 37.9336 8.06738L 34.7788 8.06738L 34.7788 11L 33.5981 11L 33.5981 4.13184L 34.7788 4.13184L 34.7788 7.10889L 37.9336 7.10889L 37.9336 4.13184L 39.1079 4.13184L 39.1079 11ZM 43.8496 11.127C 42.9186 11.127 42.1611 10.8223 41.5771 10.2129C 40.9932 9.59928 40.7012 8.78044 40.7012 7.75635L 40.7012 7.54053C 40.7012 6.85921 40.8302 6.25195 41.0884 5.71875C 41.3507 5.18131 41.7147 4.76237 42.1802 4.46191C 42.6499 4.15723 43.1577 4.00488 43.7036 4.00488C 44.5965 4.00488 45.2905 4.29899 45.7856 4.88721C 46.2808 5.47542 46.5283 6.31755 46.5283 7.41357L 46.5283 7.90234L 41.8755 7.90234C 41.8924 8.57943 42.0892 9.12744 42.4658 9.54639C 42.8467 9.9611 43.3291 10.1685 43.9131 10.1685C 44.3278 10.1685 44.679 10.0838 44.9668 9.91455C 45.2546 9.74528 45.5063 9.521 45.7222 9.2417L 46.4395 9.80029C 45.8639 10.6847 45.0007 11.127 43.8496 11.127ZM 43.7036 4.96973C 43.2297 4.96973 42.8319 5.14323 42.5103 5.49023C 42.1886 5.83301 41.9897 6.31543 41.9136 6.9375L 45.354 6.9375L 45.354 6.84863C 45.3201 6.25195 45.1593 5.79069 44.8716 5.46484C 44.5838 5.13477 44.1945 4.96973 43.7036 4.96973ZM 53.5044 11L 52.3301 11L 52.3301 8.06738L 49.1753 8.06738L 49.1753 11L 47.9946 11L 47.9946 4.13184L 49.1753 4.13184L 49.1753 7.10889L 52.3301 7.10889L 52.3301 4.13184L 53.5044 4.13184L 53.5044 11ZM 59.6362 11C 59.5685 10.8646 59.5135 10.6234 59.4712 10.2764C 58.9253 10.8434 58.2736 11.127 57.5161 11.127C 56.839 11.127 56.2826 10.9365 55.8467 10.5557C 55.415 10.1706 55.1992 9.68392 55.1992 9.0957C 55.1992 8.38053 55.4701 7.82617 56.0117 7.43262C 56.5576 7.03483 57.3236 6.83594 58.3096 6.83594L 59.4521 6.83594L 59.4521 6.29639C 59.4521 5.8859 59.3294 5.56006 59.084 5.31885C 58.8385 5.0734 58.4767 4.95068 57.9985 4.95068C 57.5796 4.95068 57.2284 5.05648 56.9448 5.26807C 56.6613 5.47965 56.5195 5.73568 56.5195 6.03613L 55.3389 6.03613C 55.3389 5.69336 55.4595 5.36328 55.7007 5.0459C 55.9461 4.72428 56.2762 4.47038 56.6909 4.28418C 57.1099 4.09798 57.569 4.00488 58.0684 4.00488C 58.8597 4.00488 59.4797 4.20378 59.9282 4.60156C 60.3768 4.99512 60.6095 5.5389 60.6265 6.23291L 60.6265 9.39404C 60.6265 10.0246 60.7069 10.526 60.8677 10.8984L 60.8677 11L 59.6362 11ZM 57.6875 10.105C 58.0557 10.105 58.4048 10.0098 58.7349 9.81934C 59.0649 9.62891 59.304 9.38135 59.4521 9.07666L 59.4521 7.66748L 58.5317 7.66748C 57.0929 7.66748 56.3735 8.08854 56.3735 8.93066C 56.3735 9.29883 56.4963 9.58659 56.7417 9.79395C 56.9871 10.0013 57.3024 10.105 57.6875 10.105ZM 19.3159 23.0415L 19.7222 22.54C 20.1792 21.9476 20.4395 21.0589 20.5029 19.874L 20.6108 17.1318L 25.0352 17.1318L 25.0352 23.0415L 25.9175 23.0415L 25.9175 26.0186L 24.7432 26.0186L 24.7432 24L 19.9507 24L 19.9507 26.0186L 18.7764 26.0186L 18.7827 23.0415L 19.3159 23.0415ZM 20.7061 23.0415L 23.8608 23.0415L 23.8608 18.2173L 21.7471 18.2173L 21.6772 19.855C 21.6053 21.2218 21.2816 22.284 20.7061 23.0415ZM 31.459 24C 31.3913 23.8646 31.3363 23.6234 31.2939 23.2764C 30.748 23.8434 30.0964 24.127 29.3389 24.127C 28.6618 24.127 28.1053 23.9365 27.6694 23.5557C 27.2378 23.1706 27.022 22.6839 27.022 22.0957C 27.022 21.3805 27.2928 20.8262 27.8345 20.4326C 28.3804 20.0348 29.1463 19.8359 30.1323 19.8359L 31.2749 19.8359L 31.2749 19.2964C 31.2749 18.8859 31.1522 18.5601 30.9067 18.3188C 30.6613 18.0734 30.2995 17.9507 29.8213 17.9507C 29.4023 17.9507 29.0511 18.0565 28.7676 18.2681C 28.484 18.4797 28.3423 18.7357 28.3423 19.0361L 27.1616 19.0361C 27.1616 18.6934 27.2822 18.3633 27.5234 18.0459C 27.7689 17.7243 28.099 17.4704 28.5137 17.2842C 28.9326 17.098 29.3918 17.0049 29.8911 17.0049C 30.6825 17.0049 31.3024 17.2038 31.751 17.6016C 32.1995 17.9951 32.4323 18.5389 32.4492 19.2329L 32.4492 22.394C 32.4492 23.0246 32.5296 23.526 32.6904 23.8984L 32.6904 24L 31.459 24ZM 29.5103 23.105C 29.8784 23.105 30.2275 23.0098 30.5576 22.8193C 30.8877 22.6289 31.1268 22.3813 31.2749 22.0767L 31.2749 20.6675L 30.3545 20.6675C 28.9157 20.6675 28.1963 21.0885 28.1963 21.9307C 28.1963 22.2988 28.319 22.5866 28.5645 22.7939C 28.8099 23.0013 29.1252 23.105 29.5103 23.105ZM 39.292 18.084L 36.9878 18.084L 36.9878 24L 35.8135 24L 35.8135 18.084L 33.5537 18.084L 33.5537 17.1318L 39.292 17.1318L 39.292 18.084ZM 44.5732 24C 44.5055 23.8646 44.4505 23.6234 44.4082 23.2764C 43.8623 23.8434 43.2106 24.127 42.4531 24.127C 41.776 24.127 41.2196 23.9365 40.7837 23.5557C 40.3521 23.1706 40.1362 22.6839 40.1362 22.0957C 40.1362 21.3805 40.4071 20.8262 40.9487 20.4326C 41.4946 20.0348 42.2606 19.8359 43.2466 19.8359L 44.3892 19.8359L 44.3892 19.2964C 44.3892 18.8859 44.2664 18.5601 44.021 18.3188C 43.7756 18.0734 43.4137 17.9507 42.9355 17.9507C 42.5166 17.9507 42.1654 18.0565 41.8818 18.2681C 41.5983 18.4797 41.4565 18.7357 41.4565 19.0361L 40.2759 19.0361C 40.2759 18.6934 40.3965 18.3633 40.6377 18.0459C 40.8831 17.7243 41.2132 17.4704 41.6279 17.2842C 42.0469 17.098 42.506 17.0049 43.0054 17.0049C 43.7967 17.0049 44.4167 17.2038 44.8652 17.6016C 45.3138 17.9951 45.5465 18.5389 45.5635 19.2329L 45.5635 22.394C 45.5635 23.0246 45.6439 23.526 45.8047 23.8984L 45.8047 24L 44.5732 24ZM 42.6245 23.105C 42.9927 23.105 43.3418 23.0098 43.6719 22.8193C 44.002 22.6289 44.241 22.3813 44.3892 22.0767L 44.3892 20.6675L 43.4688 20.6675C 42.0299 20.6675 41.3105 21.0885 41.3105 21.9307C 41.3105 22.2988 41.4333 22.5866 41.6787 22.7939C 41.9242 23.0013 42.2394 23.105 42.6245 23.105Z"/>
<path id="path11_fill" d="M 29.8706 6.67725C 29.8706 7.58285 29.7183 8.37419 29.4136 9.05127C 29.1089 9.72412 28.6772 10.2383 28.1187 10.5938C 27.5601 10.9492 26.9084 11.127 26.1636 11.127C 25.4357 11.127 24.7904 10.9492 24.2275 10.5938C 23.6647 10.234 23.2267 9.72412 22.9136 9.06396C 22.6047 8.39958 22.446 7.63151 22.4375 6.75977L 22.4375 6.09326C 22.4375 5.20459 22.592 4.4196 22.9009 3.73828C 23.2098 3.05697 23.6457 2.53646 24.2085 2.17676C 24.7756 1.81283 25.423 1.63086 26.1509 1.63086C 26.8914 1.63086 27.5431 1.81071 28.106 2.17041C 28.673 2.52588 29.1089 3.04427 29.4136 3.72559C 29.7183 4.40267 29.8706 5.19189 29.8706 6.09326L 29.8706 6.67725ZM 28.6582 6.08057C 28.6582 4.98454 28.4382 4.14453 27.998 3.56055C 27.5579 2.97233 26.9422 2.67822 26.1509 2.67822C 25.3807 2.67822 24.7734 2.97233 24.3291 3.56055C 23.889 4.14453 23.6626 4.95703 23.6499 5.99805L 23.6499 6.67725C 23.6499 7.73942 23.8721 8.5752 24.3164 9.18457C 24.765 9.78971 25.3807 10.0923 26.1636 10.0923C 26.9507 10.0923 27.5601 9.80664 27.9917 9.23535C 28.4233 8.65983 28.6455 7.83675 28.6582 6.76611L 28.6582 6.08057ZM 36.6182 5.08398L 34.314 5.08398L 34.314 11L 33.1396 11L 33.1396 5.08398L 30.8799 5.08398L 30.8799 4.13184L 36.6182 4.13184L 36.6182 5.08398ZM 39.8999 8.07373L 39.043 8.07373L 39.043 11L 37.8623 11L 37.8623 4.13184L 39.043 4.13184L 39.043 7.03906L 39.811 7.03906L 42.1216 4.13184L 43.5435 4.13184L 40.8267 7.43262L 43.772 11L 42.2803 11L 39.8999 8.07373ZM 49.0215 11C 48.9538 10.8646 48.8988 10.6234 48.8564 10.2764C 48.3105 10.8434 47.6589 11.127 46.9014 11.127C 46.2243 11.127 45.6678 10.9365 45.2319 10.5557C 44.8003 10.1706 44.5845 9.68392 44.5845 9.0957C 44.5845 8.38053 44.8553 7.82617 45.397 7.43262C 45.9429 7.03483 46.7088 6.83594 47.6948 6.83594L 48.8374 6.83594L 48.8374 6.29639C 48.8374 5.8859 48.7147 5.56006 48.4692 5.31885C 48.2238 5.0734 47.862 4.95068 47.3838 4.95068C 46.9648 4.95068 46.6136 5.05648 46.3301 5.26807C 46.0465 5.47965 45.9048 5.73568 45.9048 6.03613L 44.7241 6.03613C 44.7241 5.69336 44.8447 5.36328 45.0859 5.0459C 45.3314 4.72428 45.6615 4.47038 46.0762 4.28418C 46.4951 4.09798 46.9543 4.00488 47.4536 4.00488C 48.245 4.00488 48.8649 4.20378 49.3135 4.60156C 49.762 4.99512 49.9948 5.5389 50.0117 6.23291L 50.0117 9.39404C 50.0117 10.0246 50.0921 10.526 50.2529 10.8984L 50.2529 11L 49.0215 11ZM 47.0728 10.105C 47.4409 10.105 47.79 10.0098 48.1201 9.81934C 48.4502 9.62891 48.6893 9.38135 48.8374 9.07666L 48.8374 7.66748L 47.917 7.66748C 46.4782 7.66748 45.7588 8.08854 45.7588 8.93066C 45.7588 9.29883 45.8815 9.58659 46.127 9.79395C 46.3724 10.0013 46.6877 10.105 47.0728 10.105ZM 55.6294 6.01074C 55.6294 5.68913 55.5067 5.43522 55.2612 5.24902C 55.0158 5.05859 54.6794 4.96338 54.252 4.96338C 53.8372 4.96338 53.4902 5.07129 53.2109 5.28711C 52.9359 5.50293 52.7983 5.75684 52.7983 6.04883L 51.6304 6.04883C 51.6304 5.45215 51.88 4.96338 52.3794 4.58252C 52.8787 4.20166 53.5029 4.01123 54.252 4.01123C 55.056 4.01123 55.6823 4.18473 56.1309 4.53174C 56.5794 4.87451 56.8037 5.3654 56.8037 6.00439C 56.8037 6.31331 56.7106 6.59684 56.5244 6.85498C 56.3382 7.11312 56.0737 7.31836 55.731 7.4707C 56.5308 7.74154 56.9307 8.27474 56.9307 9.07031C 56.9307 9.70085 56.6873 10.2002 56.2007 10.5684C 55.714 10.9365 55.0645 11.1206 54.252 11.1206C 53.4606 11.1206 52.8068 10.9281 52.2905 10.543C 51.7785 10.1536 51.5225 9.62891 51.5225 8.96875L 52.6904 8.96875C 52.6904 9.30306 52.8385 9.59082 53.1348 9.83203C 53.4352 10.069 53.8076 10.1875 54.252 10.1875C 54.7005 10.1875 55.0623 10.0838 55.3374 9.87646C 55.6125 9.66911 55.75 9.40039 55.75 9.07031C 55.75 8.68522 55.6336 8.41016 55.4009 8.24512C 55.1724 8.07585 54.8148 7.99121 54.3281 7.99121L 53.1538 7.99121L 53.1538 7.00098L 54.4297 7.00098C 55.2295 6.97982 55.6294 6.64974 55.6294 6.01074ZM 66.1221 4.13184L 67.2964 4.13184L 67.2964 11L 66.1221 11L 66.1221 5.9917L 62.9546 11L 61.7803 11L 61.7803 4.13184L 62.9546 4.13184L 62.9546 9.14648L 66.1221 4.13184ZM 74.812 4.13184L 74.812 11L 73.6313 11L 73.6313 5.10303L 71.2954 5.10303L 71.1558 7.67383C 71.0796 8.85449 70.8807 9.69873 70.5591 10.2065C 70.2417 10.7144 69.736 10.9788 69.042 11L 68.5723 11L 68.5723 9.96533L 68.9087 9.93994C 69.2896 9.89762 69.5625 9.67757 69.7275 9.27979C 69.8926 8.882 69.9984 8.14567 70.0449 7.0708L 70.1719 4.13184L 74.812 4.13184ZM 81.1406 4.13184L 82.3149 4.13184L 82.3149 11L 81.1406 11L 81.1406 5.9917L 77.9731 11L 76.7988 11L 76.7988 4.13184L 77.9731 4.13184L 77.9731 9.14648L 81.1406 4.13184ZM 23.1929 24L 22.0186 24L 22.0186 18.103L 18.8574 18.103L 18.8574 24L 17.6768 24L 17.6768 17.1318L 23.1929 17.1318L 23.1929 24ZM 27.9282 24.127C 26.9972 24.127 26.2397 23.8223 25.6558 23.2129C 25.0718 22.5993 24.7798 21.7804 24.7798 20.7563L 24.7798 20.5405C 24.7798 19.8592 24.9089 19.252 25.167 18.7188C 25.4294 18.1813 25.7933 17.7624 26.2588 17.4619C 26.7285 17.1572 27.2363 17.0049 27.7822 17.0049C 28.6751 17.0049 29.3691 17.299 29.8643 17.8872C 30.3594 18.4754 30.6069 19.3175 30.6069 20.4136L 30.6069 20.9023L 25.9541 20.9023C 25.971 21.5794 26.1678 22.1274 26.5444 22.5464C 26.9253 22.9611 27.4077 23.1685 27.9917 23.1685C 28.4064 23.1685 28.7576 23.0838 29.0454 22.9146C 29.3332 22.7453 29.585 22.521 29.8008 22.2417L 30.5181 22.8003C 29.9425 23.6847 29.0793 24.127 27.9282 24.127ZM 27.7822 17.9697C 27.3083 17.9697 26.9105 18.1432 26.5889 18.4902C 26.2673 18.833 26.0684 19.3154 25.9922 19.9375L 29.4326 19.9375L 29.4326 19.8486C 29.3988 19.252 29.238 18.7907 28.9502 18.4648C 28.6624 18.1348 28.2731 17.9697 27.7822 17.9697ZM 37.7734 20.6421C 37.7734 21.6873 37.5343 22.5295 37.0562 23.1685C 36.578 23.8075 35.9305 24.127 35.1138 24.127C 34.2801 24.127 33.6242 23.8625 33.146 23.3335L 33.146 26.6406L 31.9717 26.6406L 31.9717 17.1318L 33.0444 17.1318L 33.1016 17.8936C 33.5798 17.3011 34.2441 17.0049 35.0947 17.0049C 35.9199 17.0049 36.5716 17.3159 37.0498 17.938C 37.5322 18.5601 37.7734 19.4255 37.7734 20.5342L 37.7734 20.6421ZM 36.5991 20.5088C 36.5991 19.7344 36.4341 19.1229 36.104 18.6743C 35.7739 18.2257 35.3211 18.0015 34.7456 18.0015C 34.0347 18.0015 33.5015 18.3167 33.146 18.9473L 33.146 22.229C 33.4972 22.8553 34.0347 23.1685 34.7583 23.1685C 35.3211 23.1685 35.7676 22.9463 36.0977 22.502C 36.432 22.0534 36.5991 21.389 36.5991 20.5088ZM 42.1216 24.127C 41.1906 24.127 40.4331 23.8223 39.8491 23.2129C 39.2651 22.5993 38.9731 21.7804 38.9731 20.7563L 38.9731 20.5405C 38.9731 19.8592 39.1022 19.252 39.3604 18.7188C 39.6227 18.1813 39.9867 17.7624 40.4521 17.4619C 40.9219 17.1572 41.4297 17.0049 41.9756 17.0049C 42.8685 17.0049 43.5625 17.299 44.0576 17.8872C 44.5527 18.4754 44.8003 19.3175 44.8003 20.4136L 44.8003 20.9023L 40.1475 20.9023C 40.1644 21.5794 40.3612 22.1274 40.7378 22.5464C 41.1187 22.9611 41.6011 23.1685 42.1851 23.1685C 42.5998 23.1685 42.951 23.0838 43.2388 22.9146C 43.5265 22.7453 43.7783 22.521 43.9941 22.2417L 44.7114 22.8003C 44.1359 23.6847 43.2726 24.127 42.1216 24.127ZM 41.9756 17.9697C 41.5016 17.9697 41.1038 18.1432 40.7822 18.4902C 40.4606 18.833 40.2617 19.3154 40.1855 19.9375L 43.626 19.9375L 43.626 19.8486C 43.5921 19.252 43.4313 18.7907 43.1436 18.4648C 42.8558 18.1348 42.4665 17.9697 41.9756 17.9697ZM 46.2729 24L 46.2729 17.1318L 48.9517 17.1318C 49.8657 17.1318 50.5661 17.2926 51.0527 17.6143C 51.5436 17.9316 51.7891 18.3993 51.7891 19.0171C 51.7891 19.3345 51.6938 19.6222 51.5034 19.8804C 51.313 20.1343 51.0316 20.3289 50.6592 20.4644C 51.0739 20.5617 51.4061 20.7521 51.6558 21.0356C 51.9097 21.3192 52.0366 21.6577 52.0366 22.0513C 52.0366 22.6818 51.8039 23.1642 51.3384 23.4985C 50.8771 23.8328 50.2233 24 49.377 24L 46.2729 24ZM 47.4473 20.9849L 47.4473 23.0542L 49.3896 23.0542C 49.8805 23.0542 50.2466 22.9632 50.4878 22.7812C 50.7332 22.5993 50.856 22.3433 50.856 22.0132C 50.856 21.3276 50.3524 20.9849 49.3452 20.9849L 47.4473 20.9849ZM 47.4473 20.0454L 48.9644 20.0454C 50.0646 20.0454 50.6147 19.7238 50.6147 19.0806C 50.6147 18.4373 50.0942 18.1051 49.0532 18.084L 47.4473 18.084L 47.4473 20.0454ZM 53.2808 20.5024C 53.2808 19.8296 53.4119 19.2244 53.6743 18.687C 53.9409 18.1496 54.3091 17.7349 54.7788 17.4429C 55.2528 17.1509 55.7923 17.0049 56.3975 17.0049C 57.3327 17.0049 58.0881 17.3286 58.6636 17.9761C 59.2433 18.6235 59.5332 19.4847 59.5332 20.5596L 59.5332 20.6421C 59.5332 21.3107 59.4041 21.9116 59.146 22.4448C 58.8921 22.9738 58.526 23.3864 58.0479 23.6826C 57.5739 23.9788 57.028 24.127 56.4102 24.127C 55.4792 24.127 54.7238 23.8032 54.144 23.1558C 53.5685 22.5083 53.2808 21.6514 53.2808 20.585L 53.2808 20.5024ZM 54.4614 20.6421C 54.4614 21.4038 54.637 22.0153 54.9883 22.4766C 55.3438 22.9378 55.8177 23.1685 56.4102 23.1685C 57.0068 23.1685 57.4808 22.9357 57.832 22.4702C 58.1833 22.0005 58.3589 21.3446 58.3589 20.5024C 58.3589 19.7492 58.179 19.1398 57.8193 18.6743C 57.4639 18.2046 56.9899 17.9697 56.3975 17.9697C 55.8177 17.9697 55.3501 18.2004 54.9946 18.6616C 54.6392 19.1229 54.4614 19.783 54.4614 20.6421ZM 64.7827 19.0107C 64.7827 18.6891 64.66 18.4352 64.4146 18.249C 64.1691 18.0586 63.8327 17.9634 63.4053 17.9634C 62.9906 17.9634 62.6436 18.0713 62.3643 18.2871C 62.0892 18.5029 61.9517 18.7568 61.9517 19.0488L 60.7837 19.0488C 60.7837 18.4521 61.0334 17.9634 61.5327 17.5825C 62.0321 17.2017 62.6562 17.0112 63.4053 17.0112C 64.2093 17.0112 64.8356 17.1847 65.2842 17.5317C 65.7327 17.8745 65.957 18.3654 65.957 19.0044C 65.957 19.3133 65.8639 19.5968 65.6777 19.855C 65.4915 20.1131 65.2271 20.3184 64.8843 20.4707C 65.6841 20.7415 66.084 21.2747 66.084 22.0703C 66.084 22.7008 65.8407 23.2002 65.354 23.5684C 64.8674 23.9365 64.2178 24.1206 63.4053 24.1206C 62.6139 24.1206 61.9601 23.9281 61.4438 23.543C 60.9318 23.1536 60.6758 22.6289 60.6758 21.9688L 61.8438 21.9688C 61.8438 22.3031 61.9919 22.5908 62.2881 22.832C 62.5885 23.069 62.9609 23.1875 63.4053 23.1875C 63.8538 23.1875 64.2157 23.0838 64.4907 22.8765C 64.7658 22.6691 64.9033 22.4004 64.9033 22.0703C 64.9033 21.6852 64.7869 21.4102 64.5542 21.2451C 64.3257 21.0758 63.9681 20.9912 63.4814 20.9912L 62.3071 20.9912L 62.3071 20.001L 63.583 20.001C 64.3828 19.9798 64.7827 19.6497 64.7827 19.0107ZM 72.7935 24L 71.6128 24L 71.6128 21.5117C 71.0965 21.6471 70.5675 21.7148 70.0259 21.7148C 69.1668 21.7148 68.5109 21.4948 68.0581 21.0547C 67.6095 20.6146 67.381 19.9883 67.3726 19.1758L 67.3726 17.1255L 68.5469 17.1255L 68.5469 19.2139C 68.568 20.238 69.061 20.75 70.0259 20.75C 70.5675 20.75 71.0965 20.6823 71.6128 20.5469L 71.6128 17.1318L 72.7935 17.1318L 72.7935 24ZM 79.1221 17.1318L 80.2964 17.1318L 80.2964 24L 79.1221 24L 79.1221 18.9917L 75.9546 24L 74.7803 24L 74.7803 17.1318L 75.9546 17.1318L 75.9546 22.1465L 79.1221 17.1318ZM 84.3208 21.0737L 83.4639 21.0737L 83.4639 24L 82.2832 24L 82.2832 17.1318L 83.4639 17.1318L 83.4639 20.0391L 84.2319 20.0391L 86.5425 17.1318L 87.9644 17.1318L 85.2476 20.4326L 88.1929 24L 86.7012 24L 84.3208 21.0737ZM 24.3545 30.5254C 25.2178 30.5254 25.9076 30.8153 26.4238 31.395C 26.9443 31.9705 27.2046 32.7301 27.2046 33.6738L 27.2046 33.7817C 27.2046 34.4292 27.0798 35.009 26.8301 35.521C 26.5804 36.0288 26.2207 36.4245 25.751 36.708C 25.2855 36.9873 24.748 37.127 24.1387 37.127C 23.2161 37.127 22.4735 36.8201 21.9106 36.2065C 21.3478 35.5887 21.0664 34.7614 21.0664 33.7246L 21.0664 33.1533C 21.0664 31.7103 21.333 30.5635 21.8662 29.7129C 22.4036 28.8623 23.195 28.3439 24.2402 28.1577C 24.8327 28.0519 25.2326 27.9229 25.4399 27.7705C 25.6473 27.6182 25.751 27.4087 25.751 27.1421L 26.7158 27.1421C 26.7158 27.6711 26.5952 28.0837 26.354 28.3799C 26.117 28.6761 25.7362 28.8856 25.2114 29.0083L 24.3354 29.2051C 23.6372 29.3701 23.1125 29.6494 22.7612 30.043C 22.4142 30.4323 22.1878 30.9528 22.082 31.6045C 22.7041 30.8851 23.4616 30.5254 24.3545 30.5254ZM 24.126 31.4902C 23.5505 31.4902 23.0934 31.6849 22.7549 32.0742C 22.4163 32.4593 22.2471 32.9946 22.2471 33.6802L 22.2471 33.7817C 22.2471 34.5181 22.4163 35.1021 22.7549 35.5337C 23.0977 35.9611 23.5589 36.1748 24.1387 36.1748C 24.7227 36.1748 25.1839 35.959 25.5225 35.5273C 25.861 35.0957 26.0303 34.4652 26.0303 33.6357C 26.0303 32.9883 25.8589 32.4699 25.5161 32.0806C 25.1776 31.687 24.7142 31.4902 24.126 31.4902ZM 28.2139 33.5024C 28.2139 32.8296 28.3451 32.2244 28.6074 31.687C 28.874 31.1496 29.2422 30.7349 29.7119 30.4429C 30.1859 30.1509 30.7254 30.0049 31.3306 30.0049C 32.2658 30.0049 33.0212 30.3286 33.5967 30.9761C 34.1764 31.6235 34.4663 32.4847 34.4663 33.5596L 34.4663 33.6421C 34.4663 34.3107 34.3372 34.9116 34.0791 35.4448C 33.8252 35.9738 33.4591 36.3864 32.981 36.6826C 32.507 36.9788 31.9611 37.127 31.3433 37.127C 30.4123 37.127 29.6569 36.8032 29.0771 36.1558C 28.5016 35.5083 28.2139 34.6514 28.2139 33.585L 28.2139 33.5024ZM 29.3945 33.6421C 29.3945 34.4038 29.5701 35.0153 29.9214 35.4766C 30.2769 35.9378 30.7508 36.1685 31.3433 36.1685C 31.9399 36.1685 32.4139 35.9357 32.7651 35.4702C 33.1164 35.0005 33.292 34.3446 33.292 33.5024C 33.292 32.7492 33.1121 32.1398 32.7524 31.6743C 32.397 31.2046 31.923 30.9697 31.3306 30.9697C 30.7508 30.9697 30.2832 31.2004 29.9277 31.6616C 29.5723 32.1229 29.3945 32.783 29.3945 33.6421ZM 41.4678 30.1318L 41.4678 37L 40.2871 37L 40.2871 31.103L 37.9512 31.103L 37.8115 33.6738C 37.7354 34.8545 37.5365 35.6987 37.2148 36.2065C 36.8975 36.7144 36.3918 36.9788 35.6978 37L 35.228 37L 35.228 35.9653L 35.5645 35.9399C 35.9453 35.8976 36.2183 35.6776 36.3833 35.2798C 36.5483 34.882 36.6541 34.1457 36.7007 33.0708L 36.8276 30.1318L 41.4678 30.1318ZM 44.6353 32.4995L 46.4189 32.4995C 47.1976 32.508 47.8133 32.7111 48.2661 33.1089C 48.7189 33.5067 48.9453 34.0462 48.9453 34.7275C 48.9453 35.4131 48.7126 35.9632 48.2471 36.3779C 47.7816 36.7926 47.1553 37 46.3682 37L 43.4609 37L 43.4609 30.1318L 44.6353 30.1318L 44.6353 32.4995ZM 44.6353 33.458L 44.6353 36.0415L 46.3809 36.0415C 46.821 36.0415 47.1616 35.9294 47.4028 35.7051C 47.644 35.4766 47.7646 35.1655 47.7646 34.772C 47.7646 34.3911 47.6462 34.0801 47.4092 33.8389C 47.1764 33.5934 46.8485 33.4665 46.4253 33.458L 44.6353 33.458ZM 51.6938 30.1318L 51.6938 36.0415L 54.2075 36.0415L 54.2075 30.1318L 55.3818 30.1318L 55.3818 36.0415L 57.8892 36.0415L 57.8892 30.1318L 59.0698 30.1318L 59.0698 37L 50.5132 37L 50.5132 30.1318L 51.6938 30.1318ZM 63.7734 37.127C 62.8424 37.127 62.085 36.8223 61.501 36.2129C 60.917 35.5993 60.625 34.7804 60.625 33.7563L 60.625 33.5405C 60.625 32.8592 60.7541 32.252 61.0122 31.7188C 61.2746 31.1813 61.6385 30.7624 62.104 30.4619C 62.5737 30.1572 63.0815 30.0049 63.6274 30.0049C 64.5203 30.0049 65.2144 30.299 65.7095 30.8872C 66.2046 31.4754 66.4521 32.3175 66.4521 33.4136L 66.4521 33.9023L 61.7993 33.9023C 61.8162 34.5794 62.013 35.1274 62.3896 35.5464C 62.7705 35.9611 63.2529 36.1685 63.8369 36.1685C 64.2516 36.1685 64.6029 36.0838 64.8906 35.9146C 65.1784 35.7453 65.4302 35.521 65.646 35.2417L 66.3633 35.8003C 65.7878 36.6847 64.9245 37.127 63.7734 37.127ZM 63.6274 30.9697C 63.1535 30.9697 62.7557 31.1432 62.4341 31.4902C 62.1125 31.833 61.9136 32.3154 61.8374 32.9375L 65.2778 32.9375L 65.2778 32.8486C 65.244 32.252 65.0832 31.7907 64.7954 31.4648C 64.5076 31.1348 64.1183 30.9697 63.6274 30.9697ZM 76.6528 37L 75.4785 37L 75.4785 34.0674L 72.3237 34.0674L 72.3237 37L 71.1431 37L 71.1431 30.1318L 72.3237 30.1318L 72.3237 33.1089L 75.4785 33.1089L 75.4785 30.1318L 76.6528 30.1318L 76.6528 37ZM 81.3945 37.127C 80.4635 37.127 79.7061 36.8223 79.1221 36.2129C 78.5381 35.5993 78.2461 34.7804 78.2461 33.7563L 78.2461 33.5405C 78.2461 32.8592 78.3752 32.252 78.6333 31.7188C 78.8957 31.1813 79.2596 30.7624 79.7251 30.4619C 80.1948 30.1572 80.7026 30.0049 81.2485 30.0049C 82.1414 30.0049 82.8354 30.299 83.3306 30.8872C 83.8257 31.4754 84.0732 32.3175 84.0732 33.4136L 84.0732 33.9023L 79.4204 33.9023C 79.4373 34.5794 79.6341 35.1274 80.0107 35.5464C 80.3916 35.9611 80.874 36.1685 81.458 36.1685C 81.8727 36.1685 82.224 36.0838 82.5117 35.9146C 82.7995 35.7453 83.0513 35.521 83.2671 35.2417L 83.9844 35.8003C 83.4089 36.6847 82.5456 37.127 81.3945 37.127ZM 81.2485 30.9697C 80.7746 30.9697 80.3768 31.1432 80.0552 31.4902C 79.7336 31.833 79.5347 32.3154 79.4585 32.9375L 82.8989 32.9375L 82.8989 32.8486C 82.8651 32.252 82.7043 31.7907 82.4165 31.4648C 82.1287 31.1348 81.7394 30.9697 81.2485 30.9697ZM 30.4165 50L 29.2422 50L 29.2422 44.103L 26.0811 44.103L 26.0811 50L 24.9004 50L 24.9004 43.1318L 30.4165 43.1318L 30.4165 50ZM 31.9907 46.5024C 31.9907 45.8296 32.1219 45.2244 32.3843 44.687C 32.6509 44.1496 33.019 43.7349 33.4888 43.4429C 33.9627 43.1509 34.5023 43.0049 35.1074 43.0049C 36.0426 43.0049 36.798 43.3286 37.3735 43.9761C 37.9533 44.6235 38.2432 45.4847 38.2432 46.5596L 38.2432 46.6421C 38.2432 47.3107 38.1141 47.9116 37.856 48.4448C 37.6021 48.9738 37.236 49.3864 36.7578 49.6826C 36.2839 49.9788 35.738 50.127 35.1201 50.127C 34.1891 50.127 33.4338 49.8032 32.854 49.1558C 32.2785 48.5083 31.9907 47.6514 31.9907 46.585L 31.9907 46.5024ZM 33.1714 46.6421C 33.1714 47.4038 33.347 48.0153 33.6982 48.4766C 34.0537 48.9378 34.5277 49.1685 35.1201 49.1685C 35.7168 49.1685 36.1908 48.9357 36.542 48.4702C 36.8932 48.0005 37.0688 47.3446 37.0688 46.5024C 37.0688 45.7492 36.889 45.1398 36.5293 44.6743C 36.1738 44.2046 35.6999 43.9697 35.1074 43.9697C 34.5277 43.9697 34.0601 44.2004 33.7046 44.6616C 33.3491 45.1229 33.1714 45.783 33.1714 46.6421ZM 39.2017 49.0415L 39.6079 48.54C 40.0649 47.9476 40.3252 47.0589 40.3887 45.874L 40.4966 43.1318L 44.9209 43.1318L 44.9209 49.0415L 45.8032 49.0415L 45.8032 52.0186L 44.6289 52.0186L 44.6289 50L 39.8364 50L 39.8364 52.0186L 38.6621 52.0186L 38.6685 49.0415L 39.2017 49.0415ZM 40.5918 49.0415L 43.7466 49.0415L 43.7466 44.2173L 41.6328 44.2173L 41.563 45.855C 41.491 47.2218 41.1673 48.284 40.5918 49.0415ZM 49.4087 45.6392L 50.9321 43.1318L 52.3032 43.1318L 50.0562 46.5278L 52.373 50L 51.0146 50L 49.4277 47.4292L 47.8408 50L 46.4761 50L 48.793 46.5278L 46.5459 43.1318L 47.9043 43.1318L 49.4087 45.6392ZM 53.1157 46.5024C 53.1157 45.8296 53.2469 45.2244 53.5093 44.687C 53.7759 44.1496 54.144 43.7349 54.6138 43.4429C 55.0877 43.1509 55.6273 43.0049 56.2324 43.0049C 57.1676 43.0049 57.923 43.3286 58.4985 43.9761C 59.0783 44.6235 59.3682 45.4847 59.3682 46.5596L 59.3682 46.6421C 59.3682 47.3107 59.2391 47.9116 58.981 48.4448C 58.7271 48.9738 58.361 49.3864 57.8828 49.6826C 57.4089 49.9788 56.863 50.127 56.2451 50.127C 55.3141 50.127 54.5588 49.8032 53.979 49.1558C 53.4035 48.5083 53.1157 47.6514 53.1157 46.585L 53.1157 46.5024ZM 54.2964 46.6421C 54.2964 47.4038 54.472 48.0153 54.8232 48.4766C 55.1787 48.9378 55.6527 49.1685 56.2451 49.1685C 56.8418 49.1685 57.3158 48.9357 57.667 48.4702C 58.0182 48.0005 58.1938 47.3446 58.1938 46.5024C 58.1938 45.7492 58.014 45.1398 57.6543 44.6743C 57.2988 44.2046 56.8249 43.9697 56.2324 43.9697C 55.6527 43.9697 55.1851 44.2004 54.8296 44.6616C 54.4741 45.1229 54.2964 45.783 54.2964 46.6421ZM 60.3267 49.0415L 60.7329 48.54C 61.1899 47.9476 61.4502 47.0589 61.5137 45.874L 61.6216 43.1318L 66.0459 43.1318L 66.0459 49.0415L 66.9282 49.0415L 66.9282 52.0186L 65.7539 52.0186L 65.7539 50L 60.9614 50L 60.9614 52.0186L 59.7871 52.0186L 59.7935 49.0415L 60.3267 49.0415ZM 61.7168 49.0415L 64.8716 49.0415L 64.8716 44.2173L 62.7578 44.2173L 62.688 45.855C 62.616 47.2218 62.2923 48.284 61.7168 49.0415ZM 72.6729 43.1318L 73.8472 43.1318L 73.8472 50L 72.6729 50L 72.6729 44.9917L 69.5054 50L 68.3311 50L 68.3311 43.1318L 69.5054 43.1318L 69.5054 48.1465L 72.6729 43.1318ZM 80.8359 44.084L 78.5317 44.084L 78.5317 50L 77.3574 50L 77.3574 44.084L 75.0977 44.084L 75.0977 43.1318L 80.8359 43.1318L 80.8359 44.084Z"/>
<path id="path12_fill" fill-rule="evenodd" d="M 11.5 23C 17.8513 23 23 17.8513 23 11.5C 23 5.14873 17.8513 0 11.5 0C 5.14873 0 0 5.14873 0 11.5C 0 17.8513 5.14873 23 11.5 23Z"/>
<path id="path13_fill" d="M 9.38232 14L 7.96875 14L 7.96875 4.49316L 2.70996 4.49316L 2.70996 14L 1.30371 14L 1.30371 3.33594L 9.38232 3.33594L 9.38232 14ZM 18.4277 10.1255C 18.4277 11.3315 18.1519 12.3032 17.6001 13.0405C 17.0483 13.7778 16.3013 14.1465 15.3589 14.1465C 14.397 14.1465 13.6401 13.8413 13.0884 13.231L 13.0884 17.0469L 11.7334 17.0469L 11.7334 6.0752L 12.9712 6.0752L 13.0371 6.9541C 13.5889 6.27051 14.3555 5.92871 15.3369 5.92871C 16.2891 5.92871 17.041 6.2876 17.5928 7.00537C 18.1494 7.72314 18.4277 8.72168 18.4277 10.001L 18.4277 10.1255ZM 17.0728 9.97168C 17.0728 9.07812 16.8823 8.37256 16.5015 7.85498C 16.1206 7.3374 15.5981 7.07861 14.9341 7.07861C 14.1138 7.07861 13.4985 7.44238 13.0884 8.16992L 13.0884 11.9565C 13.4937 12.6792 14.1138 13.0405 14.9487 13.0405C 15.5981 13.0405 16.1133 12.7842 16.4941 12.2715C 16.8799 11.7539 17.0728 10.9873 17.0728 9.97168ZM 25.2832 6.0752L 26.6382 6.0752L 26.6382 14L 25.2832 14L 25.2832 8.22119L 21.6284 14L 20.2734 14L 20.2734 6.0752L 21.6284 6.0752L 21.6284 11.8613L 25.2832 6.0752ZM 35.2881 14L 33.9331 14L 33.9331 10.6162L 30.293 10.6162L 30.293 14L 28.9307 14L 28.9307 6.0752L 30.293 6.0752L 30.293 9.51025L 33.9331 9.51025L 33.9331 6.0752L 35.2881 6.0752L 35.2881 14ZM 43.5278 6.0752L 43.5278 14L 42.1655 14L 42.1655 10.9165L 40.1221 10.9165L 38.2544 14L 36.7896 14L 38.7817 10.7114C 38.2739 10.5259 37.8833 10.2402 37.6099 9.85449C 37.3413 9.46387 37.207 9.00977 37.207 8.49219C 37.207 7.76953 37.478 7.18848 38.02 6.74902C 38.562 6.30469 39.2871 6.08008 40.1953 6.0752L 43.5278 6.0752ZM 38.5693 8.50684C 38.5693 8.89258 38.7012 9.20508 38.9648 9.44434C 39.2285 9.67871 39.5776 9.79834 40.0122 9.80322L 42.1655 9.80322L 42.1655 7.17383L 40.2173 7.17383C 39.7144 7.17383 39.314 7.29834 39.0161 7.54736C 38.7183 7.7915 38.5693 8.11133 38.5693 8.50684ZM 51.5918 7.17383L 48.9331 7.17383L 48.9331 14L 47.5781 14L 47.5781 7.17383L 44.9707 7.17383L 44.9707 6.0752L 51.5918 6.0752L 51.5918 7.17383ZM 52.2437 9.96436C 52.2437 9.18799 52.395 8.48975 52.6978 7.86963C 53.0054 7.24951 53.4302 6.771 53.9722 6.43408C 54.519 6.09717 55.1416 5.92871 55.8398 5.92871C 56.9189 5.92871 57.7905 6.30225 58.4546 7.04932C 59.1235 7.79639 59.458 8.79004 59.458 10.0303L 59.458 10.1255C 59.458 10.897 59.3091 11.5903 59.0112 12.2056C 58.7183 12.8159 58.2959 13.292 57.7441 13.6338C 57.1973 13.9756 56.5674 14.1465 55.8545 14.1465C 54.7803 14.1465 53.9087 13.7729 53.2397 13.0259C 52.5757 12.2788 52.2437 11.29 52.2437 10.0596L 52.2437 9.96436ZM 53.606 10.1255C 53.606 11.0044 53.8086 11.71 54.2139 12.2422C 54.624 12.7744 55.1709 13.0405 55.8545 13.0405C 56.543 13.0405 57.0898 12.772 57.4951 12.2349C 57.9004 11.6929 58.103 10.936 58.103 9.96436C 58.103 9.09521 57.8955 8.39209 57.4805 7.85498C 57.0703 7.31299 56.5234 7.04199 55.8398 7.04199C 55.1709 7.04199 54.6313 7.30811 54.2212 7.84033C 53.811 8.37256 53.606 9.13428 53.606 10.1255Z"/>
<path id="path14_fill" d="M 9.44092 9.01221C 9.44092 10.0571 9.26514 10.9702 8.91357 11.7515C 8.56201 12.5278 8.06396 13.1211 7.41943 13.5312C 6.7749 13.9414 6.02295 14.1465 5.16357 14.1465C 4.32373 14.1465 3.5791 13.9414 2.92969 13.5312C 2.28027 13.1162 1.7749 12.5278 1.41357 11.7661C 1.05713 10.9995 0.874023 10.1133 0.864258 9.10742L 0.864258 8.33838C 0.864258 7.31299 1.04248 6.40723 1.39893 5.62109C 1.75537 4.83496 2.2583 4.23437 2.90771 3.81934C 3.56201 3.39941 4.30908 3.18945 5.14893 3.18945C 6.00342 3.18945 6.75537 3.39697 7.40479 3.81201C 8.05908 4.22217 8.56201 4.82031 8.91357 5.60645C 9.26514 6.3877 9.44092 7.29834 9.44092 8.33838L 9.44092 9.01221ZM 8.04199 8.32373C 8.04199 7.05908 7.78809 6.08984 7.28027 5.41602C 6.77246 4.7373 6.06201 4.39795 5.14893 4.39795C 4.26025 4.39795 3.55957 4.7373 3.04688 5.41602C 2.53906 6.08984 2.27783 7.02734 2.26318 8.22852L 2.26318 9.01221C 2.26318 10.2378 2.51953 11.2021 3.03223 11.9053C 3.5498 12.6035 4.26025 12.9526 5.16357 12.9526C 6.07178 12.9526 6.7749 12.623 7.27295 11.9639C 7.771 11.2998 8.02734 10.3501 8.04199 9.11475L 8.04199 8.32373ZM 17.2266 7.17383L 14.5679 7.17383L 14.5679 14L 13.2129 14L 13.2129 7.17383L 10.6055 7.17383L 10.6055 6.0752L 17.2266 6.0752L 17.2266 7.17383ZM 21.0132 10.6235L 20.0244 10.6235L 20.0244 14L 18.6621 14L 18.6621 6.0752L 20.0244 6.0752L 20.0244 9.42969L 20.9106 9.42969L 23.5767 6.0752L 25.2173 6.0752L 22.0825 9.88379L 25.481 14L 23.7598 14L 21.0132 10.6235ZM 31.5381 14C 31.46 13.8437 31.3965 13.5654 31.3477 13.165C 30.7178 13.8193 29.9658 14.1465 29.0918 14.1465C 28.3105 14.1465 27.6685 13.9268 27.1655 13.4873C 26.6675 13.043 26.4185 12.4814 26.4185 11.8027C 26.4185 10.9775 26.731 10.3379 27.356 9.88379C 27.9858 9.4248 28.8696 9.19531 30.0073 9.19531L 31.3257 9.19531L 31.3257 8.57275C 31.3257 8.09912 31.1841 7.72314 30.9009 7.44482C 30.6177 7.16162 30.2002 7.02002 29.6484 7.02002C 29.165 7.02002 28.7598 7.14209 28.4326 7.38623C 28.1055 7.63037 27.9419 7.92578 27.9419 8.27246L 26.5796 8.27246C 26.5796 7.87695 26.7188 7.49609 26.9971 7.12988C 27.2803 6.75879 27.6611 6.46582 28.1396 6.25098C 28.623 6.03613 29.1528 5.92871 29.729 5.92871C 30.6421 5.92871 31.3574 6.1582 31.875 6.61719C 32.3926 7.07129 32.6611 7.69873 32.6807 8.49951L 32.6807 12.147C 32.6807 12.8745 32.7734 13.4531 32.959 13.8828L 32.959 14L 31.5381 14ZM 29.2896 12.9673C 29.7144 12.9673 30.1172 12.8574 30.498 12.6377C 30.8789 12.418 31.1548 12.1323 31.3257 11.7808L 31.3257 10.1548L 30.2637 10.1548C 28.6035 10.1548 27.7734 10.6406 27.7734 11.6123C 27.7734 12.0371 27.915 12.3691 28.1982 12.6084C 28.4814 12.8477 28.8452 12.9673 29.2896 12.9673ZM 39.1626 8.24316C 39.1626 7.87207 39.021 7.5791 38.7378 7.36426C 38.4546 7.14453 38.0664 7.03467 37.5732 7.03467C 37.0947 7.03467 36.6943 7.15918 36.3721 7.4082C 36.0547 7.65723 35.896 7.9502 35.896 8.28711L 34.5483 8.28711C 34.5483 7.59863 34.8364 7.03467 35.4126 6.59521C 35.9888 6.15576 36.709 5.93604 37.5732 5.93604C 38.501 5.93604 39.2236 6.13623 39.7412 6.53662C 40.2588 6.93213 40.5176 7.49854 40.5176 8.23584C 40.5176 8.59229 40.4102 8.91943 40.1953 9.21729C 39.9805 9.51514 39.6753 9.75195 39.2798 9.92773C 40.2026 10.2402 40.6641 10.8555 40.6641 11.7734C 40.6641 12.501 40.3833 13.0771 39.8218 13.502C 39.2603 13.9268 38.5107 14.1392 37.5732 14.1392C 36.6602 14.1392 35.9058 13.917 35.3101 13.4727C 34.7192 13.0234 34.4238 12.418 34.4238 11.6562L 35.7715 11.6562C 35.7715 12.042 35.9424 12.374 36.2842 12.6523C 36.6309 12.9258 37.0605 13.0625 37.5732 13.0625C 38.0908 13.0625 38.5083 12.9429 38.8257 12.7036C 39.1431 12.4644 39.3018 12.1543 39.3018 11.7734C 39.3018 11.3291 39.1675 11.0117 38.8989 10.8213C 38.6353 10.626 38.2227 10.5283 37.6611 10.5283L 36.3062 10.5283L 36.3062 9.38574L 37.7783 9.38574C 38.7012 9.36133 39.1626 8.98047 39.1626 8.24316Z"/>
<path id="path15_fill" d="M 7.96143 3.33594L 9.36768 3.33594L 9.36768 14L 7.96143 14L 7.96143 5.78223L 2.70996 14L 1.29639 14L 1.29639 3.33594L 2.70996 3.33594L 2.70996 11.5537L 7.96143 3.33594ZM 15.3735 12.894L 15.8423 12.3154C 16.3696 11.6318 16.6699 10.6064 16.7432 9.23926L 16.8677 6.0752L 21.9727 6.0752L 21.9727 12.894L 22.9907 12.894L 22.9907 16.3291L 21.6357 16.3291L 21.6357 14L 16.106 14L 16.106 16.3291L 14.751 16.3291L 14.7583 12.894L 15.3735 12.894ZM 16.9775 12.894L 20.6177 12.894L 20.6177 7.32764L 18.1787 7.32764L 18.0981 9.21729C 18.0151 10.7944 17.6416 12.02 16.9775 12.894ZM 31.1865 10.1255C 31.1865 11.3315 30.9106 12.3032 30.3589 13.0405C 29.8071 13.7778 29.0601 14.1465 28.1177 14.1465C 27.1558 14.1465 26.3989 13.8413 25.8472 13.231L 25.8472 17.0469L 24.4922 17.0469L 24.4922 6.0752L 25.73 6.0752L 25.7959 6.9541C 26.3477 6.27051 27.1143 5.92871 28.0957 5.92871C 29.0479 5.92871 29.7998 6.2876 30.3516 7.00537C 30.9082 7.72314 31.1865 8.72168 31.1865 10.001L 31.1865 10.1255ZM 29.8315 9.97168C 29.8315 9.07812 29.6411 8.37256 29.2603 7.85498C 28.8794 7.3374 28.3569 7.07861 27.6929 7.07861C 26.8726 7.07861 26.2573 7.44238 25.8472 8.16992L 25.8472 11.9565C 26.2524 12.6792 26.8726 13.0405 27.7075 13.0405C 28.3569 13.0405 28.8721 12.7842 29.2529 12.2715C 29.6387 11.7539 29.8315 10.9873 29.8315 9.97168ZM 35.4199 12.0151L 37.2656 6.0752L 38.7158 6.0752L 35.5298 15.2231C 35.0366 16.5415 34.2529 17.2007 33.1787 17.2007L 32.9224 17.1787L 32.417 17.0835L 32.417 15.9849L 32.7832 16.0142C 33.2422 16.0142 33.5986 15.9214 33.8525 15.7358C 34.1113 15.5503 34.3237 15.2109 34.4897 14.7178L 34.79 13.9121L 31.9629 6.0752L 33.4424 6.0752L 35.4199 12.0151ZM 45.0513 7.1958L 41.3965 7.1958L 41.3965 14L 40.0342 14L 40.0342 6.0752L 45.0513 6.0752L 45.0513 7.1958ZM 45.7251 9.96436C 45.7251 9.18799 45.8765 8.48975 46.1792 7.86963C 46.4868 7.24951 46.9116 6.771 47.4536 6.43408C 48.0005 6.09717 48.623 5.92871 49.3213 5.92871C 50.4004 5.92871 51.272 6.30225 51.936 7.04932C 52.605 7.79639 52.9395 8.79004 52.9395 10.0303L 52.9395 10.1255C 52.9395 10.897 52.7905 11.5903 52.4927 12.2056C 52.1997 12.8159 51.7773 13.292 51.2256 13.6338C 50.6787 13.9756 50.0488 14.1465 49.3359 14.1465C 48.2617 14.1465 47.3901 13.7729 46.7212 13.0259C 46.0571 12.2788 45.7251 11.29 45.7251 10.0596L 45.7251 9.96436ZM 47.0874 10.1255C 47.0874 11.0044 47.29 11.71 47.6953 12.2422C 48.1055 12.7744 48.6523 13.0405 49.3359 13.0405C 50.0244 13.0405 50.5713 12.772 50.9766 12.2349C 51.3818 11.6929 51.5845 10.936 51.5845 9.96436C 51.5845 9.09521 51.377 8.39209 50.9619 7.85498C 50.5518 7.31299 50.0049 7.04199 49.3213 7.04199C 48.6523 7.04199 48.1128 7.30811 47.7026 7.84033C 47.2925 8.37256 47.0874 9.13428 47.0874 10.1255ZM 57.9272 14.1465C 56.853 14.1465 55.979 13.7949 55.3052 13.0918C 54.6313 12.3838 54.2944 11.439 54.2944 10.2573L 54.2944 10.0083C 54.2944 9.22217 54.4434 8.52148 54.7412 7.90625C 55.0439 7.28613 55.4639 6.80273 56.001 6.45605C 56.543 6.10449 57.1289 5.92871 57.7588 5.92871C 58.7891 5.92871 59.5898 6.26807 60.1611 6.94678C 60.7324 7.62549 61.0181 8.59717 61.0181 9.86182L 61.0181 10.4258L 55.6494 10.4258C 55.6689 11.207 55.896 11.8394 56.3306 12.3228C 56.77 12.8013 57.3267 13.0405 58.0005 13.0405C 58.479 13.0405 58.8843 12.9429 59.2163 12.7476C 59.5483 12.5522 59.8389 12.2935 60.0879 11.9712L 60.9155 12.6157C 60.2515 13.6362 59.2554 14.1465 57.9272 14.1465ZM 57.7588 7.04199C 57.2119 7.04199 56.7529 7.24219 56.3818 7.64258C 56.0107 8.03809 55.7812 8.59473 55.6934 9.3125L 59.6631 9.3125L 59.6631 9.20996C 59.624 8.52148 59.4385 7.98926 59.1064 7.61328C 58.7744 7.23242 58.3252 7.04199 57.7588 7.04199ZM 66.3721 13.2896C 66.3721 13.0552 66.4404 12.8599 66.5771 12.7036C 66.7187 12.5474 66.9287 12.4692 67.207 12.4692C 67.4854 12.4692 67.6953 12.5474 67.8369 12.7036C 67.9834 12.8599 68.0566 13.0552 68.0566 13.2896C 68.0566 13.5142 67.9834 13.7021 67.8369 13.8535C 67.6953 14.0049 67.4854 14.0806 67.207 14.0806C 66.9287 14.0806 66.7187 14.0049 66.5771 13.8535C 66.4404 13.7021 66.3721 13.5142 66.3721 13.2896ZM 69.5728 13.2896C 69.5728 13.0552 69.6411 12.8599 69.7778 12.7036C 69.9194 12.5474 70.1294 12.4692 70.4077 12.4692C 70.686 12.4692 70.896 12.5474 71.0376 12.7036C 71.1841 12.8599 71.2573 13.0552 71.2573 13.2896C 71.2573 13.5142 71.1841 13.7021 71.0376 13.8535C 70.896 14.0049 70.686 14.0806 70.4077 14.0806C 70.1294 14.0806 69.9194 14.0049 69.7778 13.8535C 69.6411 13.7021 69.5728 13.5142 69.5728 13.2896ZM 72.6123 13.2896C 72.6123 13.0552 72.6807 12.8599 72.8174 12.7036C 72.959 12.5474 73.1689 12.4692 73.4473 12.4692C 73.7256 12.4692 73.9355 12.5474 74.0771 12.7036C 74.2236 12.8599 74.2969 13.0552 74.2969 13.2896C 74.2969 13.5142 74.2236 13.7021 74.0771 13.8535C 73.9355 14.0049 73.7256 14.0806 73.4473 14.0806C 73.1689 14.0806 72.959 14.0049 72.8174 13.8535C 72.6807 13.7021 72.6123 13.5142 72.6123 13.2896Z"/>
<path id="path16_fill" d="M 17.5376 1.75781L 18.7563 1.75781L 18.7563 11L 17.5376 11L 17.5376 3.87793L 12.9863 11L 11.7612 11L 11.7612 1.75781L 12.9863 1.75781L 12.9863 8.87988L 17.5376 1.75781ZM 24.5708 6.01074C 24.5708 5.68913 24.4481 5.43522 24.2026 5.24902C 23.9572 5.05859 23.6208 4.96338 23.1934 4.96338C 22.7786 4.96338 22.4316 5.07129 22.1523 5.28711C 21.8773 5.50293 21.7397 5.75684 21.7397 6.04883L 20.5718 6.04883C 20.5718 5.45215 20.8215 4.96338 21.3208 4.58252C 21.8201 4.20166 22.4443 4.01123 23.1934 4.01123C 23.9974 4.01123 24.6237 4.18473 25.0723 4.53174C 25.5208 4.87451 25.7451 5.3654 25.7451 6.00439C 25.7451 6.31331 25.652 6.59684 25.4658 6.85498C 25.2796 7.11312 25.0151 7.31836 24.6724 7.4707C 25.4722 7.74154 25.8721 8.27474 25.8721 9.07031C 25.8721 9.70085 25.6287 10.2002 25.1421 10.5684C 24.6554 10.9365 24.0059 11.1206 23.1934 11.1206C 22.402 11.1206 21.7482 10.9281 21.2319 10.543C 20.7199 10.1536 20.4639 9.62891 20.4639 8.96875L 21.6318 8.96875C 21.6318 9.30306 21.7799 9.59082 22.0762 9.83203C 22.3766 10.069 22.749 10.1875 23.1934 10.1875C 23.6419 10.1875 24.0037 10.0838 24.2788 9.87646C 24.5539 9.66911 24.6914 9.40039 24.6914 9.07031C 24.6914 8.68522 24.575 8.41016 24.3423 8.24512C 24.1138 8.07585 23.7562 7.99121 23.2695 7.99121L 22.0952 7.99121L 22.0952 7.00098L 23.3711 7.00098C 24.1709 6.97982 24.5708 6.64974 24.5708 6.01074ZM 31.3501 9.44482L 33.686 4.13184L 35.1523 4.13184L 35.1523 11L 33.978 11L 33.978 6.00439L 31.7563 11L 30.9438 11L 28.6777 5.89648L 28.6777 11L 27.5034 11L 27.5034 4.13184L 29.0269 4.13184L 31.3501 9.44482ZM 39.894 11.127C 38.9631 11.127 38.2056 10.8223 37.6216 10.2129C 37.0376 9.59928 36.7456 8.78044 36.7456 7.75635L 36.7456 7.54053C 36.7456 6.85921 36.8747 6.25195 37.1328 5.71875C 37.3952 5.18131 37.7591 4.76237 38.2246 4.46191C 38.6943 4.15723 39.2021 4.00488 39.748 4.00488C 40.641 4.00488 41.335 4.29899 41.8301 4.88721C 42.3252 5.47542 42.5728 6.31755 42.5728 7.41357L 42.5728 7.90234L 37.9199 7.90234C 37.9368 8.57943 38.1336 9.12744 38.5103 9.54639C 38.8911 9.9611 39.3735 10.1685 39.9575 10.1685C 40.3722 10.1685 40.7235 10.0838 41.0112 9.91455C 41.299 9.74528 41.5508 9.521 41.7666 9.2417L 42.4839 9.80029C 41.9084 10.6847 41.0451 11.127 39.894 11.127ZM 39.748 4.96973C 39.2741 4.96973 38.8763 5.14323 38.5547 5.49023C 38.2331 5.83301 38.0342 6.31543 37.958 6.9375L 41.3984 6.9375L 41.3984 6.84863C 41.3646 6.25195 41.2038 5.79069 40.916 5.46484C 40.6283 5.13477 40.2389 4.96973 39.748 4.96973ZM 49.5488 11L 48.3745 11L 48.3745 8.06738L 45.2197 8.06738L 45.2197 11L 44.0391 11L 44.0391 4.13184L 45.2197 4.13184L 45.2197 7.10889L 48.3745 7.10889L 48.3745 4.13184L 49.5488 4.13184L 49.5488 11ZM 54.2905 11.127C 53.3595 11.127 52.6021 10.8223 52.0181 10.2129C 51.4341 9.59928 51.1421 8.78044 51.1421 7.75635L 51.1421 7.54053C 51.1421 6.85921 51.2712 6.25195 51.5293 5.71875C 51.7917 5.18131 52.1556 4.76237 52.6211 4.46191C 53.0908 4.15723 53.5986 4.00488 54.1445 4.00488C 55.0374 4.00488 55.7314 4.29899 56.2266 4.88721C 56.7217 5.47542 56.9692 6.31755 56.9692 7.41357L 56.9692 7.90234L 52.3164 7.90234C 52.3333 8.57943 52.5301 9.12744 52.9067 9.54639C 53.2876 9.9611 53.77 10.1685 54.354 10.1685C 54.7687 10.1685 55.12 10.0838 55.4077 9.91455C 55.6955 9.74528 55.9473 9.521 56.1631 9.2417L 56.8804 9.80029C 56.3049 10.6847 55.4416 11.127 54.2905 11.127ZM 54.1445 4.96973C 53.6706 4.96973 53.2728 5.14323 52.9512 5.49023C 52.6296 5.83301 52.4307 6.31543 52.3545 6.9375L 55.7949 6.9375L 55.7949 6.84863C 55.7611 6.25195 55.6003 5.79069 55.3125 5.46484C 55.0247 5.13477 54.6354 4.96973 54.1445 4.96973ZM 63.9453 11L 62.771 11L 62.771 8.06738L 59.6162 8.06738L 59.6162 11L 58.4355 11L 58.4355 4.13184L 59.6162 4.13184L 59.6162 7.10889L 62.771 7.10889L 62.771 4.13184L 63.9453 4.13184L 63.9453 11ZM 65.5259 7.50244C 65.5259 6.82959 65.6571 6.22445 65.9194 5.68701C 66.186 5.14958 66.5542 4.73486 67.0239 4.44287C 67.4979 4.15088 68.0374 4.00488 68.6426 4.00488C 69.5778 4.00488 70.3332 4.32861 70.9087 4.97607C 71.4884 5.62354 71.7783 6.4847 71.7783 7.55957L 71.7783 7.64209C 71.7783 8.31071 71.6493 8.91162 71.3911 9.44482C 71.1372 9.9738 70.7712 10.3864 70.293 10.6826C 69.819 10.9788 69.2731 11.127 68.6553 11.127C 67.7243 11.127 66.9689 10.8032 66.3892 10.1558C 65.8136 9.5083 65.5259 8.65137 65.5259 7.58496L 65.5259 7.50244ZM 66.7065 7.64209C 66.7065 8.40381 66.8822 9.0153 67.2334 9.47656C 67.5889 9.93783 68.0628 10.1685 68.6553 10.1685C 69.252 10.1685 69.7259 9.93571 70.0771 9.47021C 70.4284 9.00049 70.604 8.34456 70.604 7.50244C 70.604 6.74919 70.4242 6.13981 70.0645 5.67432C 69.709 5.20459 69.235 4.96973 68.6426 4.96973C 68.0628 4.96973 67.5952 5.20036 67.2397 5.66162C 66.8843 6.12288 66.7065 6.78304 66.7065 7.64209ZM 3.07129 21.0737L 2.21436 21.0737L 2.21436 24L 1.03369 24L 1.03369 17.1318L 2.21436 17.1318L 2.21436 20.0391L 2.98242 20.0391L 5.29297 17.1318L 6.71484 17.1318L 3.99805 20.4326L 6.94336 24L 5.45166 24L 3.07129 21.0737ZM 7.50195 20.5024C 7.50195 19.8296 7.63314 19.2244 7.89551 18.687C 8.16211 18.1496 8.53027 17.7349 9 17.4429C 9.47396 17.1509 10.0135 17.0049 10.6187 17.0049C 11.5539 17.0049 12.3092 17.3286 12.8848 17.9761C 13.4645 18.6235 13.7544 19.4847 13.7544 20.5596L 13.7544 20.6421C 13.7544 21.3107 13.6253 21.9116 13.3672 22.4448C 13.1133 22.9738 12.7472 23.3864 12.269 23.6826C 11.7951 23.9788 11.2492 24.127 10.6313 24.127C 9.70036 24.127 8.94499 23.8032 8.36523 23.1558C 7.78971 22.5083 7.50195 21.6514 7.50195 20.585L 7.50195 20.5024ZM 8.68262 20.6421C 8.68262 21.4038 8.85824 22.0153 9.20947 22.4766C 9.56494 22.9378 10.0389 23.1685 10.6313 23.1685C 11.228 23.1685 11.702 22.9357 12.0532 22.4702C 12.4045 22.0005 12.5801 21.3446 12.5801 20.5024C 12.5801 19.7492 12.4002 19.1398 12.0405 18.6743C 11.6851 18.2046 11.2111 17.9697 10.6187 17.9697C 10.0389 17.9697 9.57129 18.2004 9.21582 18.6616C 8.86035 19.1229 8.68262 19.783 8.68262 20.6421ZM 20.7559 17.1318L 20.7559 24L 19.5752 24L 19.5752 18.103L 17.2393 18.103L 17.0996 20.6738C 17.0234 21.8545 16.8245 22.6987 16.5029 23.2065C 16.1855 23.7144 15.6799 23.9788 14.9858 24L 14.5161 24L 14.5161 22.9653L 14.8525 22.9399C 15.2334 22.8976 15.5063 22.6776 15.6714 22.2798C 15.8364 21.882 15.9422 21.1457 15.9888 20.0708L 16.1157 17.1318L 20.7559 17.1318ZM 25.085 20.5532L 21.9873 20.5532L 21.9873 19.5947L 25.085 19.5947L 25.085 20.5532ZM 26.3418 24L 26.3418 17.1318L 29.0205 17.1318C 29.9346 17.1318 30.6349 17.2926 31.1216 17.6143C 31.6125 17.9316 31.8579 18.3993 31.8579 19.0171C 31.8579 19.3345 31.7627 19.6222 31.5723 19.8804C 31.3818 20.1343 31.1004 20.3289 30.728 20.4644C 31.1427 20.5617 31.4749 20.7521 31.7246 21.0356C 31.9785 21.3192 32.1055 21.6577 32.1055 22.0513C 32.1055 22.6818 31.8727 23.1642 31.4072 23.4985C 30.946 23.8328 30.2922 24 29.4458 24L 26.3418 24ZM 27.5161 20.9849L 27.5161 23.0542L 29.4585 23.0542C 29.9494 23.0542 30.3154 22.9632 30.5566 22.7812C 30.8021 22.5993 30.9248 22.3433 30.9248 22.0132C 30.9248 21.3276 30.4212 20.9849 29.4141 20.9849L 27.5161 20.9849ZM 27.5161 20.0454L 29.0332 20.0454C 30.1335 20.0454 30.6836 19.7238 30.6836 19.0806C 30.6836 18.4373 30.1631 18.1051 29.1221 18.084L 27.5161 18.084L 27.5161 20.0454ZM 33.3496 20.5024C 33.3496 19.8296 33.4808 19.2244 33.7432 18.687C 34.0098 18.1496 34.3779 17.7349 34.8477 17.4429C 35.3216 17.1509 35.8612 17.0049 36.4663 17.0049C 37.4015 17.0049 38.1569 17.3286 38.7324 17.9761C 39.3122 18.6235 39.6021 19.4847 39.6021 20.5596L 39.6021 20.6421C 39.6021 21.3107 39.473 21.9116 39.2148 22.4448C 38.9609 22.9738 38.5949 23.3864 38.1167 23.6826C 37.6427 23.9788 37.0968 24.127 36.479 24.127C 35.548 24.127 34.7926 23.8032 34.2129 23.1558C 33.6374 22.5083 33.3496 21.6514 33.3496 20.585L 33.3496 20.5024ZM 34.5303 20.6421C 34.5303 21.4038 34.7059 22.0153 35.0571 22.4766C 35.4126 22.9378 35.8866 23.1685 36.479 23.1685C 37.0757 23.1685 37.5496 22.9357 37.9009 22.4702C 38.2521 22.0005 38.4277 21.3446 38.4277 20.5024C 38.4277 19.7492 38.2479 19.1398 37.8882 18.6743C 37.5327 18.2046 37.0588 17.9697 36.4663 17.9697C 35.8866 17.9697 35.4189 18.2004 35.0635 18.6616C 34.708 19.1229 34.5303 19.783 34.5303 20.6421ZM 44.4072 24L 44.4072 17.1318L 47.0859 17.1318C 48 17.1318 48.7004 17.2926 49.187 17.6143C 49.6779 17.9316 49.9233 18.3993 49.9233 19.0171C 49.9233 19.3345 49.8281 19.6222 49.6377 19.8804C 49.4473 20.1343 49.1659 20.3289 48.7935 20.4644C 49.2082 20.5617 49.5404 20.7521 49.79 21.0356C 50.0439 21.3192 50.1709 21.6577 50.1709 22.0513C 50.1709 22.6818 49.9382 23.1642 49.4727 23.4985C 49.0114 23.8328 48.3576 24 47.5112 24L 44.4072 24ZM 45.5815 20.9849L 45.5815 23.0542L 47.5239 23.0542C 48.0148 23.0542 48.3809 22.9632 48.6221 22.7812C 48.8675 22.5993 48.9902 22.3433 48.9902 22.0132C 48.9902 21.3276 48.4867 20.9849 47.4795 20.9849L 45.5815 20.9849ZM 45.5815 20.0454L 47.0986 20.0454C 48.1989 20.0454 48.749 19.7238 48.749 19.0806C 48.749 18.4373 48.2285 18.1051 47.1875 18.084L 45.5815 18.084L 45.5815 20.0454ZM 54.5762 24.127C 53.6452 24.127 52.8877 23.8223 52.3037 23.2129C 51.7197 22.5993 51.4277 21.7804 51.4277 20.7563L 51.4277 20.5405C 51.4277 19.8592 51.5568 19.252 51.8149 18.7188C 52.0773 18.1813 52.4412 17.7624 52.9067 17.4619C 53.3765 17.1572 53.8843 17.0049 54.4302 17.0049C 55.3231 17.0049 56.0171 17.299 56.5122 17.8872C 57.0073 18.4754 57.2549 19.3175 57.2549 20.4136L 57.2549 20.9023L 52.6021 20.9023C 52.619 21.5794 52.8158 22.1274 53.1924 22.5464C 53.5732 22.9611 54.0557 23.1685 54.6396 23.1685C 55.0544 23.1685 55.4056 23.0838 55.6934 22.9146C 55.9811 22.7453 56.2329 22.521 56.4487 22.2417L 57.166 22.8003C 56.5905 23.6847 55.7272 24.127 54.5762 24.127ZM 54.4302 17.9697C 53.9562 17.9697 53.5584 18.1432 53.2368 18.4902C 52.9152 18.833 52.7163 19.3154 52.6401 19.9375L 56.0806 19.9375L 56.0806 19.8486C 56.0467 19.252 55.8859 18.7907 55.5981 18.4648C 55.3104 18.1348 54.9211 17.9697 54.4302 17.9697ZM 59.832 17.1318L 59.832 23.0415L 62.3457 23.0415L 62.3457 17.1318L 63.52 17.1318L 63.52 23.0415L 66.0273 23.0415L 66.0273 17.1318L 67.208 17.1318L 67.208 23.0415L 68.1729 23.0415L 68.0586 26.0376L 67.0049 26.0376L 67.0049 24L 58.6514 24L 58.6514 17.1318L 59.832 17.1318ZM 72.2988 24.127C 71.3678 24.127 70.6104 23.8223 70.0264 23.2129C 69.4424 22.5993 69.1504 21.7804 69.1504 20.7563L 69.1504 20.5405C 69.1504 19.8592 69.2795 19.252 69.5376 18.7188C 69.8 18.1813 70.1639 17.7624 70.6294 17.4619C 71.0991 17.1572 71.6069 17.0049 72.1528 17.0049C 73.0457 17.0049 73.7397 17.299 74.2349 17.8872C 74.73 18.4754 74.9775 19.3175 74.9775 20.4136L 74.9775 20.9023L 70.3247 20.9023C 70.3416 21.5794 70.5384 22.1274 70.915 22.5464C 71.2959 22.9611 71.7783 23.1685 72.3623 23.1685C 72.777 23.1685 73.1283 23.0838 73.416 22.9146C 73.7038 22.7453 73.9556 22.521 74.1714 22.2417L 74.8887 22.8003C 74.3132 23.6847 73.4499 24.127 72.2988 24.127ZM 72.1528 17.9697C 71.6789 17.9697 71.2811 18.1432 70.9595 18.4902C 70.6379 18.833 70.439 19.3154 70.3628 19.9375L 73.8032 19.9375L 73.8032 19.8486C 73.7694 19.252 73.6086 18.7907 73.3208 18.4648C 73.033 18.1348 72.6437 17.9697 72.1528 17.9697ZM 80.7856 17.1318L 81.96 17.1318L 81.96 24L 80.7856 24L 80.7856 18.9917L 77.6182 24L 76.4438 24L 76.4438 17.1318L 77.6182 17.1318L 77.6182 22.1465L 80.7856 17.1318ZM 81.103 14.6309C 81.103 15.1429 80.9274 15.5555 80.5762 15.8687C 80.2292 16.1776 79.7721 16.332 79.2051 16.332C 78.638 16.332 78.1789 16.1755 77.8276 15.8623C 77.4764 15.5492 77.3008 15.1387 77.3008 14.6309L 78.2593 14.6309C 78.2593 14.9271 78.3397 15.1598 78.5005 15.3291C 78.6613 15.4941 78.8962 15.5767 79.2051 15.5767C 79.5013 15.5767 79.7319 15.4941 79.897 15.3291C 80.0662 15.1641 80.1509 14.9313 80.1509 14.6309L 81.103 14.6309Z"/>
</defs>
</svg>
