<svg xmlns="http://www.w3.org/2000/svg" xmlns:xlink="http://www.w3.org/1999/xlink" width="34" height="31"><g fill="#fff" transform="translate(-427 -6225)"><use xlink:href="#A" x="448.145" y="6232.88"/><use xlink:href="#B" x="435.175" y="6232.88"/><use xlink:href="#C" x="441.806" y="6231.27"/><use xlink:href="#D" x="427" y="6225.05"/><use xlink:href="#E" x="443.447" y="6248.52"/></g><defs><path id="A" d="M4.518 3.758L.945.163a.55.55 0 0 0-.783 0 .56.56 0 0 0 0 .787l3.182 3.202-3.182 3.2a.56.56 0 0 0 0 .787.55.55 0 0 0 .391.163.55.55 0 0 0 .391-.163l3.573-3.595a.56.56 0 0 0 0-.787z"/><path id="B" d="M1.336 4.152L4.518.95a.56.56 0 0 0 0-.787.55.55 0 0 0-.782 0L.162 3.758a.56.56 0 0 0 0 .787L3.735 8.14a.55.55 0 0 0 .782 0 .56.56 0 0 0 0-.787l-3.182-3.2z"/><path id="C" d="M4 .026C3.7-.067 3.4.096 3.307.39L.026 10.81c-.092.293.07.606.36.7a.55.55 0 0 0 .167.026c.235 0 .453-.152.527-.39L4.362.725c.092-.293-.07-.606-.36-.7z"/><path id="D" d="M2.706 0h28.587C32.786 0 34 1.222 34 2.723v21.136c0 1.5-1.214 2.723-2.706 2.723h-9.482l1.36 3.203h2.66c.306 0 .553.25.553.557s-.248.557-.553.557H8.17c-.306 0-.553-.25-.553-.557s.248-.557.553-.557h2.66l1.36-3.203H2.706C1.214 26.58 0 25.36 0 23.858V8.536c0-.308.248-.557.553-.557s.553.25.553.557v13.19h26.475c.305 0 .553.25.553.557s-.248.557-.553.557H1.107v1.02c0 .888.718 1.6 1.6 1.6h28.587c.882 0 1.6-.722 1.6-1.6v-1.02h-3.467c-.306 0-.553-.25-.553-.557s.248-.557.553-.557h3.467V2.723c0-.887-.718-1.61-1.6-1.61H2.706c-.882 0-1.6.722-1.6 1.61V6.68c0 .308-.248.557-.553.557S0 6.987 0 6.68V2.723C0 1.222 1.214 0 2.706 0zm9.324 29.784h9.938l-.945-2.226h-8.047l-.946 2.226z" fill-rule="evenodd"/><path id="E" d="M1.013.247C.886.053.642-.04.418.016a.56.56 0 0 0-.418.512.56.56 0 0 0 .952.412c.177-.186.204-.48.06-.694z"/></defs></svg>