<svg xmlns="http://www.w3.org/2000/svg" xmlns:xlink="http://www.w3.org/1999/xlink" width="41" height="41"><g fill="#fff" transform="translate(-423 -6145)"><use xlink:href="#A" x="423.003" y="6145"/><use xlink:href="#B" x="428.47" y="6150.47"/><use xlink:href="#C" x="442.82" y="6152.52"/><use xlink:href="#D" x="442.82" y="6175.75"/><use xlink:href="#E" x="453.753" y="6164.82"/><use xlink:href="#F" x="430.52" y="6164.82"/><use xlink:href="#G" x="435.303" y="6157.98"/><use xlink:href="#H" x="430.992" y="6180.71"/><use xlink:href="#I" x="426.702" y="6176.33"/><use xlink:href="#J" x="427.981" y="6177.94"/><use xlink:href="#K" x="429.415" y="6179.4"/><use xlink:href="#L" x="425.597" y="6174.61"/><use xlink:href="#M" x="462.623" y="6165.58"/><use xlink:href="#N" x="423.109" y="6166.86"/><use xlink:href="#O" x="423.425" y="6168.89"/><use xlink:href="#P" x="424.675" y="6172.78"/><use xlink:href="#Q" x="423.947" y="6170.87"/><use xlink:href="#R" x="442.437" y="6184.63"/><use xlink:href="#S" x="458.481" y="6176.95"/><use xlink:href="#T" x="454.026" y="6181.15"/><use xlink:href="#U" x="455.653" y="6179.9"/><use xlink:href="#V" x="459.649" y="6175.27"/><use xlink:href="#W" x="457.142" y="6178.5"/><use xlink:href="#X" x="462.437" y="6167.62"/><use xlink:href="#Y" x="462.043" y="6169.63"/><use xlink:href="#Z" x="432.696" y="6181.85"/><use xlink:href="#a" x="461.446" y="6171.59"/><use xlink:href="#b" x="460.642" y="6173.47"/><use xlink:href="#c" x="440.396" y="6184.48"/><use xlink:href="#d" x="436.407" y="6183.57"/><use xlink:href="#e" x="438.376" y="6184.13"/><use xlink:href="#f" x="434.509" y="6182.8"/><use xlink:href="#g" x="446.512" y="6184.29"/><use xlink:href="#h" x="448.503" y="6183.8"/><use xlink:href="#i" x="450.435" y="6183.11"/><use xlink:href="#j" x="444.484" y="6184.56"/><use xlink:href="#k" x="452.28" y="6182.22"/></g><defs><path id="A" d="M.683 21.183c.377 0 .683-.305.683-.683A19.16 19.16 0 0 1 20.5 1.367c4.323 0 8.458 1.445 11.823 4.1H28.7c-.377 0-.683.305-.683.683s.306.683.683.683h5.41c.045.004.087.005.132 0h.61V.683c0-.378-.306-.683-.683-.683s-.683.305-.683.683v3.97C29.823 1.645 25.27 0 20.5 0 9.196 0 0 9.196 0 20.5c0 .378.306.683.683.683z"/><path id="B" d="M0 15.033C0 6.744 6.744 0 15.033 0s15.033 6.744 15.033 15.033-6.744 15.034-15.033 15.034S0 23.323 0 15.033zm1.367 0c0 7.536 6.13 13.667 13.667 13.667S28.7 22.57 28.7 15.033 22.57 1.367 15.033 1.367 1.367 7.498 1.367 15.033z" fill-rule="evenodd"/><path id="C" d="M.683 2.733c.377 0 .683-.305.683-.683V.683C1.367.305 1.06 0 .683 0S0 .305 0 .683V2.05c0 .378.306.683.683.683z"/><path id="D" d="M.683 0C.306 0 0 .305 0 .683V2.05c0 .378.306.683.683.683s.683-.305.683-.683V.683C1.367.305 1.06 0 .683 0z"/><path id="E" d="M.683 1.367H2.05c.377 0 .683-.305.683-.683S2.427 0 2.05 0H.683C.306 0 0 .305 0 .683s.306.683.683.683z"/><path id="F" d="M2.05 0H.683C.306 0 0 .305 0 .683s.306.683.683.683H2.05c.377 0 .683-.305.683-.683S2.427 0 2.05 0z"/><path id="G" d="M8.884.683v3.514a2.73 2.73 0 0 1 2.05 2.636c0 1.507-1.226 2.733-2.733 2.733-.506 0-.973-.147-1.38-.388l-5.654 5.654a.68.68 0 0 1-.483.2.68.68 0 0 1-.483-.2c-.267-.267-.267-.7 0-.966l5.654-5.654c-.24-.406-.387-.874-.387-1.38a2.73 2.73 0 0 1 2.05-2.636V.683C7.517.306 7.823 0 8.2 0s.683.306.683.683zm-2.05 6.15A1.37 1.37 0 0 0 8.2 8.2a1.37 1.37 0 0 0 1.367-1.367A1.37 1.37 0 0 0 8.2 5.467a1.37 1.37 0 0 0-1.367 1.367z" fill-rule="evenodd"/><path id="H" d="M.135.28a.68.68 0 0 0 .144.956.66.66 0 0 0 .403.13c.212 0 .417-.09.554-.273.22-.3.157-.73-.143-.956a.68.68 0 0 0-.957.144z"/><path id="I" d="M1.242.283c-.22-.3-.65-.376-.957-.156-.307.226-.376.65-.157.956a.69.69 0 0 0 .56.287c.137 0 .273-.04.396-.13a.69.69 0 0 0 .157-.957z"/><path id="J" d="M.228.17a.68.68 0 0 0-.055.963.66.66 0 0 0 .513.233c.157 0 .32-.055.45-.17.28-.253.308-.683.055-.964C.947-.055.516-.076.228.17z"/><path id="K" d="M1.146.177C.873-.075.435-.055.183.22c-.26.28-.24.71.04.97a.69.69 0 0 0 .458.178.7.7 0 0 0 .506-.219.68.68 0 0 0-.041-.963z"/><path id="L" d="M1.28.345C1.1.017.673-.1.345.092c-.328.185-.444.6-.253.93a.68.68 0 0 0 .595.342c.11 0 .232-.027.335-.09.328-.184.444-.602.26-.93z"/><path id="M" d="M.656 1.367h.027c.37 0 .67-.295.683-.656A.68.68 0 0 0 .711.001C.335-.014.014.28 0 .657s.28.697.656.71z"/><path id="N" d="M.756 1.365c.376-.042.65-.377.608-.752S.988-.037.612.004C.236.038-.037.38.004.75a.68.68 0 0 0 .677.615l.075.001z"/><path id="O" d="M.822 1.35c.37-.075.608-.437.526-.806C1.273.174.91-.066.542.016.173.09-.066.454.016.823c.06.32.35.54.663.54.047 0 .096 0 .144-.014z"/><path id="P" d="M1.308.406C1.157.064.754-.093.406.057c-.342.15-.5.553-.348.9.116.253.362.41.63.41a.65.65 0 0 0 .273-.062c.34-.15.498-.553.35-.9z"/><path id="Q" d="M1.332.477c-.11-.362-.5-.56-.854-.444-.362.116-.56.5-.444.862.096.287.362.47.65.47a.75.75 0 0 0 .212-.027c.356-.116.554-.506.437-.86z"/><path id="R" d="M.697 0C.32-.007.007.294 0 .67a.68.68 0 0 0 .67.698.68.68 0 0 0 .697-.67C1.373.32 1.073.007.697 0z"/><path id="S" d="M.144.267c-.232.294-.178.725.116.957.13.096.273.144.424.144a.68.68 0 0 0 .54-.267C1.456.806 1.402.375 1.1.144a.68.68 0 0 0-.957.123z"/><path id="T" d="M.294.12a.68.68 0 0 0-.171.95c.13.19.342.294.56.294.137 0 .266-.034.39-.116a.68.68 0 0 0 .171-.95.68.68 0 0 0-.95-.178z"/><path id="U" d="M.24.164C-.047.4-.082.84.164 1.127a.69.69 0 0 0 .519.24.69.69 0 0 0 .444-.164c.287-.246.32-.676.075-.963S.527-.08.24.164z"/><path id="V" d="M1.046.1A.69.69 0 0 0 .103.32c-.198.32-.102.745.22.943.116.07.24.103.362.103.226 0 .45-.11.58-.322.2-.32.103-.744-.22-.942z"/><path id="W" d="M.192.21c-.266.273-.253.703.02.963.13.13.3.19.472.19.178 0 .362-.068.492-.212a.68.68 0 0 0-.02-.964.68.68 0 0 0-.963.021z"/><path id="X" d="M.78.007a.69.69 0 0 0-.772.582.68.68 0 0 0 .581.772c.034.007.068.007.096.007.335 0 .63-.245.677-.587.055-.37-.204-.72-.58-.774z"/><path id="Y" d="M.853.02C.484-.07.115.156.02.518c-.09.37.137.738.5.834a.64.64 0 0 0 .164.02c.308 0 .588-.212.663-.52C1.44.485 1.215.116.853.02z"/><path id="Z" d="M1.035.096a.68.68 0 0 0-.936.24.68.68 0 0 0 .232.936c.11.068.232.096.35.096a.68.68 0 0 0 .588-.335c.198-.322.1-.74-.232-.937z"/><path id="a" d="M.917.04a.68.68 0 0 0-.875.41c-.13.356.048.746.403.875.075.027.157.042.232.042.28 0 .547-.17.642-.45C1.45.56 1.272.17.917.04z"/><path id="b" d="M.984.07C.65-.094.232.042.068.383a.69.69 0 0 0 .314.916.67.67 0 0 0 .301.069c.253 0 .5-.143.615-.383C1.462.642 1.325.233.984.07z"/><path id="c" d="M.764.006C.388-.042.053.224.006.6s.22.717.594.758v.008h.082a.68.68 0 0 0 .676-.602C1.406.388 1.14.053.764.006z"/><path id="d" d="M.905.038a.68.68 0 0 0-.868.424c-.123.355.068.745.424.868a.86.86 0 0 0 .226.034.68.68 0 0 0 .642-.458.68.68 0 0 0-.424-.868z"/><path id="e" d="M.836.017C.467-.065.105.16.016.53a.69.69 0 0 0 .512.82.61.61 0 0 0 .157.014.68.68 0 0 0 .663-.526.68.68 0 0 0-.513-.82z"/><path id="f" d="M.972.067C.624-.097.22.052.064.394s-.014.752.328.91a.71.71 0 0 0 .287.061A.68.68 0 0 0 1.3.969C1.458.627 1.314.223.972.067z"/><path id="g" d="M.558.012a.69.69 0 0 0-.547.8c.062.328.355.554.676.554.04 0 .082 0 .123-.008.37-.074.615-.43.547-.8C1.29.182.927-.057.558.012z"/><path id="h" d="M.487.03C.125.13-.08.515.03.876c.09.295.362.486.656.486.062 0 .13-.008.198-.027.362-.11.567-.493.458-.854C1.23.125.85-.08.487.03z"/><path id="i" d="M.42.052C.072.195-.092.6.052.948a.68.68 0 0 0 .629.416c.09 0 .178-.014.266-.047a.69.69 0 0 0 .369-.896.69.69 0 0 0-.895-.369z"/><path id="j" d="M.625.002C.25.037-.03.364.003.74c.027.356.328.63.683.63H.74v-.007a.67.67 0 0 0 .622-.731C1.335.255 1-.025.625.002z"/><path id="k" d="M.36.086C.024.263-.1.68.086 1.01c.123.232.355.36.6.36.11 0 .22-.027.32-.09.335-.178.458-.594.273-.922A.67.67 0 0 0 .359.086z"/></defs></svg>