<svg width="32" height="40" viewBox="0 0 26 33" version="1.1" xmlns="http://www.w3.org/2000/svg" xmlns:xlink="http://www.w3.org/1999/xlink">
<title>document</title>
<desc>Created using Figma</desc>
<g id="Canvas" transform="translate(82 3471)">
<g id="document">
<g id="Shape">
<use xlink:href="#path0_fill" transform="translate(-81.7292 -3471)" fill="#F1A7B3"/>
</g>
<g id="Shape">
<use xlink:href="#path1_fill" transform="translate(-76.8542 -3462.75)" fill="#F1A7B3"/>
</g>
<g id="Shape">
<use xlink:href="#path2_fill" transform="translate(-76.8542 -3450.65)" fill="#F1A7B3"/>
</g>
<g id="Shape">
<use xlink:href="#path3_fill" transform="translate(-66.0208 -3454.5)" fill="#F1A7B3"/>
</g>
<g id="Shape">
<use xlink:href="#path4_fill" transform="translate(-76.8542 -3458.35)" fill="#F1A7B3"/>
</g>
<g id="Shape">
<use xlink:href="#path5_fill" transform="translate(-68.7292 -3458.35)" fill="#F1A7B3"/>
</g>
<g id="Shape">
<use xlink:href="#path6_fill" transform="translate(-71.4375 -3458.34)" fill="#F1A7B3"/>
</g>
<g id="Shape">
<use xlink:href="#path7_fill" transform="translate(-74.1458 -3454.5)" fill="#F1A7B3"/>
</g>
<g id="Shape">
<use xlink:href="#path8_fill" transform="translate(-76.8542 -3454.49)" fill="#F1A7B3"/>
</g>
<g id="Shape">
<use xlink:href="#path3_fill" transform="translate(-66.0208 -3446.8)" fill="#F1A7B3"/>
</g>
<g id="Shape">
<use xlink:href="#path9_fill" transform="translate(-74.1458 -3446.8)" fill="#F1A7B3"/>
</g>
<g id="Shape">
<use xlink:href="#path10_fill" transform="translate(-76.8542 -3446.79)" fill="#F1A7B3"/>
</g>
<g id="Shape">
<use xlink:href="#path11_fill" transform="translate(-62.2292 -3458.34)" fill="#F1A7B3"/>
</g>
<g id="Shape">
<use xlink:href="#path12_fill" transform="translate(-64.9375 -3450.64)" fill="#F1A7B3"/>
</g>
<g id="Shape">
<use xlink:href="#path13_fill" transform="translate(-62.2292 -3450.64)" fill="#F1A7B3"/>
</g>
</g>
</g>
<defs>
<path id="path0_fill" fill-rule="evenodd" d="M 17.5576 0L 0 0L 0 33L 25.4583 33L 25.4583 8.02222L 17.5576 0ZM 17.875 1.87769L 23.6091 7.69995L 17.875 7.69995L 17.875 1.87769ZM 1.08334 1.1001L 1.08334 31.9001L 24.375 31.9001L 24.375 8.80005L 16.7917 8.80005L 16.7917 1.1001L 1.08334 1.1001Z"/>
<path id="path1_fill" d="M 0.541667 1.1L 5.41667 1.1C 5.71567 1.1 5.95833 0.85415 5.95833 0.55C 5.95833 0.24585 5.71567 0 5.41667 0L 0.541667 0C 0.242667 0 0 0.24585 0 0.55C 0 0.85415 0.242667 1.1 0.541667 1.1Z"/>
<path id="path2_fill" d="M 9.75 0L 0.541667 0C 0.242667 0 0 0.24585 0 0.55C 0 0.85415 0.242667 1.1 0.541667 1.1L 9.75 1.1C 10.049 1.1 10.2917 0.85415 10.2917 0.55C 10.2917 0.24585 10.049 0 9.75 0Z"/>
<path id="path3_fill" d="M 4.33333 0L 0.541667 0C 0.242667 0 0 0.24585 0 0.55C 0 0.85415 0.242667 1.1 0.541667 1.1L 4.33333 1.1C 4.63233 1.1 4.875 0.85415 4.875 0.55C 4.875 0.24585 4.63233 0 4.33333 0Z"/>
<path id="path4_fill" d="M 0.541667 1.1L 3.25 1.1C 3.549 1.1 3.79167 0.85415 3.79167 0.55C 3.79167 0.24585 3.549 0 3.25 0L 0.541667 0C 0.242667 0 0 0.24585 0 0.55C 0 0.85415 0.242667 1.1 0.541667 1.1Z"/>
<path id="path5_fill" d="M 0.541667 1.1L 4.33333 1.1C 4.63233 1.1 4.875 0.85415 4.875 0.55C 4.875 0.24585 4.63233 0 4.33333 0L 0.541667 0C 0.242667 0 0 0.24585 0 0.55C 0 0.85415 0.242667 1.1 0.541667 1.1Z"/>
<path id="path6_fill" d="M 0 0.543125C 0 0.686125 0.0595833 0.829125 0.157083 0.933625C 0.26 1.03262 0.400833 1.09312 0.541667 1.09312C 0.6825 1.09312 0.823333 1.03262 0.92625 0.933625C 1.02375 0.829125 1.08333 0.686125 1.08333 0.543125C 1.08333 0.399575 1.02375 0.256575 0.92625 0.152625C 0.725833 -0.050875 0.362917 -0.050875 0.157083 0.152625C 0.0595833 0.256575 0 0.399575 0 0.543125Z"/>
<path id="path7_fill" d="M 0.541667 0C 0.242667 0 0 0.24585 0 0.55C 0 0.85415 0.242667 1.1 0.541667 1.1L 5.95833 1.1C 6.25733 1.1 6.5 0.85415 6.5 0.55C 6.5 0.24585 6.25733 0 5.95833 0L 0.541667 0Z"/>
<path id="path8_fill" d="M 0.541667 1.09312C 0.6825 1.09312 0.823333 1.03262 0.92625 0.933625C 1.02375 0.829125 1.08333 0.686125 1.08333 0.543125C 1.08333 0.399575 1.02375 0.256575 0.92625 0.152625C 0.725833 -0.050875 0.3575 -0.050875 0.157083 0.152625C 0.0595833 0.256575 0 0.394075 0 0.543125C 0 0.686125 0.0595833 0.829125 0.157083 0.933625C 0.26 1.03262 0.400833 1.09312 0.541667 1.09312Z"/>
<path id="path9_fill" d="M 5.95833 0L 0.541667 0C 0.242667 0 0 0.24585 0 0.55C 0 0.85415 0.242667 1.1 0.541667 1.1L 5.95833 1.1C 6.25733 1.1 6.5 0.85415 6.5 0.55C 6.5 0.24585 6.25733 0 5.95833 0Z"/>
<path id="path10_fill" d="M 0.157083 0.151944C 0.0595833 0.250944 0 0.393394 0 0.542444C 0 0.690944 0.0541667 0.828444 0.157083 0.932944C 0.26 1.03194 0.400833 1.09244 0.541667 1.09244C 0.687917 1.09244 0.823333 1.03194 0.92625 0.932944C 1.02375 0.828444 1.08333 0.685444 1.08333 0.542444C 1.08333 0.393394 1.02375 0.255894 0.92625 0.157444C 0.725833 -0.0515556 0.362917 -0.0515556 0.157083 0.151944Z"/>
<path id="path11_fill" d="M 0.157083 0.152625C 0.0595833 0.256575 0 0.399575 0 0.543125C 0 0.686125 0.0595833 0.829125 0.157083 0.933625C 0.26 1.03262 0.400833 1.09312 0.541667 1.09312C 0.6825 1.09312 0.823333 1.03262 0.92625 0.933625C 1.02917 0.829125 1.08333 0.686125 1.08333 0.543125C 1.08333 0.399575 1.02917 0.256575 0.92625 0.152625C 0.720417 -0.050875 0.362917 -0.050875 0.157083 0.152625Z"/>
<path id="path12_fill" d="M 0.92625 0.933625C 1.02375 0.829125 1.08333 0.686125 1.08333 0.543125C 1.08333 0.399575 1.02375 0.256575 0.92625 0.152625C 0.720417 -0.050875 0.3575 -0.050875 0.157083 0.152625C 0.0595833 0.256575 0 0.399575 0 0.543125C 0 0.686125 0.0595833 0.829125 0.157083 0.933625C 0.26 1.03757 0.395417 1.09312 0.541667 1.09312C 0.687917 1.09312 0.823333 1.03262 0.92625 0.933625Z"/>
<path id="path13_fill" d="M 0.157083 0.152625C 0.0595833 0.256575 0 0.399575 0 0.543125C 0 0.686125 0.0595833 0.829125 0.157083 0.933625C 0.26 1.03262 0.395417 1.09312 0.541667 1.09312C 0.687917 1.09312 0.823333 1.03262 0.92625 0.933625C 1.02375 0.829125 1.08333 0.686125 1.08333 0.543125C 1.08333 0.399575 1.02375 0.256575 0.92625 0.152625C 0.725833 -0.050875 0.3575 -0.050875 0.157083 0.152625Z"/>
</defs>
</svg>
