<svg xmlns="http://www.w3.org/2000/svg" xmlns:xlink="http://www.w3.org/1999/xlink" width="32" height="40" viewBox="0 0 26 33"><g fill="#F1A7B3" transform="translate(82 3471)"><use xlink:href="#A" x="-81.729" y="-3471"/><use xlink:href="#B" x="-76.854" y="-3462.75"/><use xlink:href="#C" x="-76.854" y="-3450.65"/><use xlink:href="#D" x="-66.021" y="-3454.5"/><use xlink:href="#E" x="-76.854" y="-3458.35"/><use xlink:href="#F" x="-68.729" y="-3458.35"/><use xlink:href="#G" x="-71.437" y="-3458.34"/><use xlink:href="#H" x="-74.146" y="-3454.5"/><use xlink:href="#I" x="-76.854" y="-3454.49"/><use xlink:href="#D" x="-66.021" y="-3446.8"/><use xlink:href="#J" x="-74.146" y="-3446.8"/><use xlink:href="#K" x="-76.854" y="-3446.79"/><use xlink:href="#L" x="-62.229" y="-3458.34"/><use xlink:href="#M" x="-64.937" y="-3450.64"/><use xlink:href="#N" x="-62.229" y="-3450.64"/></g><defs><path id="A" d="M17.558 0H0v33h25.458V8.022L17.558 0zm.317 1.878L23.61 7.7h-5.734V1.878zM1.083 1.1v30.8h23.292V8.8h-7.583V1.1H1.083z" fill-rule="evenodd"/><path id="B" d="M.542 1.1h4.875c.3 0 .542-.246.542-.55S5.716 0 5.417 0H.542C.243 0 0 .246 0 .55s.243.55.542.55z"/><path id="C" d="M9.75 0H.542C.243 0 0 .246 0 .55s.243.55.542.55H9.75c.3 0 .542-.246.542-.55S10.05 0 9.75 0z"/><path id="D" d="M4.333 0H.542C.243 0 0 .246 0 .55s.243.55.542.55h3.792c.3 0 .542-.246.542-.55S4.632 0 4.333 0z"/><path id="E" d="M.542 1.1H3.25c.3 0 .542-.246.542-.55S3.55 0 3.25 0H.542C.243 0 0 .246 0 .55s.243.55.542.55z"/><path id="F" d="M.542 1.1h3.792c.3 0 .542-.246.542-.55S4.632 0 4.333 0H.542C.243 0 0 .246 0 .55s.243.55.542.55z"/><path id="G" d="M0 .543c0 .143.06.286.157.39.103.1.244.16.385.16s.282-.06.385-.16c.097-.105.157-.248.157-.39a.58.58 0 0 0-.157-.39c-.2-.203-.563-.203-.77 0A.58.58 0 0 0 0 .543z"/><path id="H" d="M.542 0C.243 0 0 .246 0 .55s.243.55.542.55h5.417c.3 0 .542-.246.542-.55S6.257 0 5.958 0H.542z"/><path id="I" d="M.542 1.093c.14 0 .282-.06.385-.16.097-.105.157-.248.157-.39a.58.58 0 0 0-.157-.39c-.2-.203-.57-.203-.77 0A.57.57 0 0 0 0 .543c0 .143.06.286.157.39.103.1.244.16.385.16z"/><path id="J" d="M5.958 0H.542C.243 0 0 .246 0 .55s.243.55.542.55h5.417c.3 0 .542-.246.542-.55S6.257 0 5.958 0z"/><path id="K" d="M.157.152A.56.56 0 0 0 0 .542a.55.55 0 0 0 .157.39c.103.1.244.16.385.16.146 0 .282-.06.385-.16.097-.105.157-.247.157-.4 0-.15-.06-.287-.157-.385-.2-.21-.563-.21-.77-.006z"/><path id="L" d="M.157.153A.58.58 0 0 0 0 .543c0 .143.06.286.157.39.103.1.244.16.385.16s.282-.06.385-.16a.56.56 0 0 0 .157-.391c0-.144-.054-.287-.157-.4a.56.56 0 0 0-.769 0z"/><path id="M" d="M.926.934c.097-.105.157-.248.157-.39a.58.58 0 0 0-.157-.39C.72-.05.358-.05.157.153A.58.58 0 0 0 0 .543c0 .143.06.286.157.39.103.104.238.16.385.16s.282-.06.385-.16z"/><path id="N" d="M.157.153A.58.58 0 0 0 0 .543c0 .143.06.286.157.39.103.1.238.16.385.16s.282-.06.385-.16c.097-.105.157-.248.157-.39a.58.58 0 0 0-.157-.39c-.2-.203-.57-.203-.77 0z"/></defs></svg>