<svg xmlns="http://www.w3.org/2000/svg" xmlns:xlink="http://www.w3.org/1999/xlink" width="32" height="40" viewBox="0 0 26 33"><g fill="#F1A7B3" transform="translate(82 3342)"><use xlink:href="#A" x="-81.729" y="-3342"/><use xlink:href="#B" x="-77.765" y="-3333.36"/><use xlink:href="#B" x="-77.765" y="-3328.35"/><use xlink:href="#B" x="-77.765" y="-3323.34"/><use xlink:href="#B" x="-77.765" y="-3318.33"/><use xlink:href="#C" x="-72.309" y="-3332.08"/><use xlink:href="#C" x="-72.309" y="-3327.07"/><use xlink:href="#C" x="-72.309" y="-3322.06"/><use xlink:href="#C" x="-72.309" y="-3317.05"/></g><defs><path id="A" d="M17.558 0H0v33h25.458V8.022L17.558 0zm.317 1.878L23.61 7.7h-5.734V1.878zM1.083 1.1v30.8h23.292V8.8h-7.583V1.1H1.083z" fill-rule="evenodd"/><path id="B" d="M0 1.822C0 .817.8 0 1.782 0s1.782.817 1.782 1.822-.8 1.822-1.782 1.822S0 2.827 0 1.822zm.89 0c0 .502.4.91.89.91s.89-.408.89-.91-.4-.91-.89-.91-.89.41-.89.91z" fill-rule="evenodd"/><path id="C" d="M0 0h11.586v.91H0V0z"/></defs></svg>