<svg xmlns="http://www.w3.org/2000/svg" xmlns:xlink="http://www.w3.org/1999/xlink" width="41" height="41"><g fill="#F6928D" transform="translate(-737 3379)"><use xlink:href="#A" x="737" y="-3379"/><use xlink:href="#B" x="749.3" y="-3368.83"/><use xlink:href="#C" x="756.817" y="-3374.3"/><use xlink:href="#D" x="756.817" y="-3344.92"/><use xlink:href="#E" x="771.167" y="-3359.27"/><use xlink:href="#E" x="741.783" y="-3359.27"/><use xlink:href="#F" x="766.963" y="-3369.9"/><use xlink:href="#G" x="746.187" y="-3349.12"/><use xlink:href="#H" x="766.963" y="-3349.12"/><use xlink:href="#H" x="746.187" y="-3369.9"/></g><defs><path id="A" d="M0 20.5C0 9.196 9.196 0 20.5 0S41 9.196 41 20.5 31.804 41 20.5 41 0 31.804 0 20.5zm1.367 0A19.16 19.16 0 0 0 20.5 39.633 19.16 19.16 0 0 0 39.633 20.5 19.16 19.16 0 0 0 20.5 1.367 19.16 19.16 0 0 0 1.367 20.5z" fill-rule="evenodd"/><path id="B" d="M8.883.683v6.93a2.73 2.73 0 0 1 2.05 2.636c0 1.507-1.226 2.733-2.733 2.733-1.27 0-2.33-.875-2.636-2.05H.683c-.377 0-.683-.305-.683-.683s.306-.683.683-.683h4.88a2.73 2.73 0 0 1 1.953-1.953V.683C7.517.305 7.823 0 8.2 0s.683.305.683.683zm-2.05 9.567A1.37 1.37 0 0 0 8.2 11.617a1.37 1.37 0 0 0 1.367-1.367A1.37 1.37 0 0 0 8.2 8.883a1.37 1.37 0 0 0-1.367 1.367z" fill-rule="evenodd"/><path id="C" d="M.683 2.05c.377 0 .683-.305.683-.683V.683C1.367.305 1.06 0 .683 0S0 .305 0 .683v.683c0 .378.306.683.683.683z"/><path id="D" d="M.683 0C.306 0 0 .305 0 .683v.683c0 .378.306.683.683.683s.683-.305.683-.683V.683C1.367.305 1.06 0 .683 0z"/><path id="E" d="M1.367 0H.683C.306 0 0 .305 0 .683s.306.683.683.683h.683c.377 0 .683-.305.683-.683S1.744 0 1.367 0z"/><path id="F" d="M.684.2L.2.683c-.267.267-.267.7 0 .966a.68.68 0 0 0 .483.2.68.68 0 0 0 .483-.2l.483-.483c.267-.267.267-.7 0-.966S.95-.066.684.2z"/><path id="G" d="M.684.2L.2.683c-.267.267-.267.7 0 .966a.68.68 0 0 0 .483.2.68.68 0 0 0 .483-.2l.483-.483c.267-.267.267-.7 0-.966S.95-.066.684.2z"/><path id="H" d="M1.167.2C.9-.067.468-.067.2.2s-.267.7 0 .966l.483.483a.68.68 0 0 0 .483.2.68.68 0 0 0 .483-.2c.267-.267.267-.7 0-.966L1.167.2z"/></defs></svg>