<svg width="41" height="41" viewBox="0 0 41 41" version="1.1" xmlns="http://www.w3.org/2000/svg" xmlns:xlink="http://www.w3.org/1999/xlink">
<title>clock</title>
<desc>Created using Figma</desc>
<g id="Canvas" transform="translate(-737 3379)">
<g id="clock">
<g id="Shape">
<use xlink:href="#path0_fill" transform="translate(737 -3379)" fill="#F6928D"/>
</g>
<g id="Shape">
<use xlink:href="#path1_fill" transform="translate(749.3 -3368.83)" fill="#F6928D"/>
</g>
<g id="Shape">
<use xlink:href="#path2_fill" transform="translate(756.817 -3374.3)" fill="#F6928D"/>
</g>
<g id="Shape">
<use xlink:href="#path3_fill" transform="translate(756.817 -3344.92)" fill="#F6928D"/>
</g>
<g id="Shape">
<use xlink:href="#path4_fill" transform="translate(771.167 -3359.27)" fill="#F6928D"/>
</g>
<g id="Shape">
<use xlink:href="#path4_fill" transform="translate(741.783 -3359.27)" fill="#F6928D"/>
</g>
<g id="Shape">
<use xlink:href="#path5_fill" transform="translate(766.963 -3369.9)" fill="#F6928D"/>
</g>
<g id="Shape">
<use xlink:href="#path6_fill" transform="translate(746.187 -3349.12)" fill="#F6928D"/>
</g>
<g id="Shape">
<use xlink:href="#path7_fill" transform="translate(766.963 -3349.12)" fill="#F6928D"/>
</g>
<g id="Shape">
<use xlink:href="#path7_fill" transform="translate(746.187 -3369.9)" fill="#F6928D"/>
</g>
</g>
</g>
<defs>
<path id="path0_fill" fill-rule="evenodd" d="M 0 20.5C 0 9.19629 9.19629 0 20.5 0C 31.8037 0 41 9.19629 41 20.5C 41 31.8037 31.8037 41 20.5 41C 9.19629 41 0 31.8037 0 20.5ZM 1.36664 20.5C 1.36664 31.05 9.95001 39.6333 20.5 39.6333C 31.0499 39.6333 39.6333 31.05 39.6333 20.5C 39.6333 9.94995 31.0499 1.3667 20.5 1.3667C 9.95001 1.3667 1.36664 9.94995 1.36664 20.5Z"/>
<path id="path1_fill" fill-rule="evenodd" d="M 8.88336 0.68335L 8.88336 7.61377C 10.0587 7.91919 10.9333 8.97974 10.9333 10.25C 10.9333 11.7573 9.70746 12.9834 8.20001 12.9834C 6.93036 12.9834 5.86914 12.1086 5.56372 10.9333L 0.68335 10.9333C 0.306152 10.9333 0 10.6279 0 10.25C 0 9.87207 0.306152 9.56665 0.68335 9.56665L 5.56372 9.56665C 5.81244 8.6106 6.56067 7.86255 7.51666 7.61377L 7.51666 0.68335C 7.51666 0.30542 7.82281 0 8.20001 0C 8.57721 0 8.88336 0.30542 8.88336 0.68335ZM 6.83331 10.25C 6.83331 11.0037 7.44629 11.6167 8.19995 11.6167C 8.95367 11.6167 9.56665 11.0037 9.56665 10.25C 9.56665 9.49634 8.95367 8.8833 8.19995 8.8833C 7.44629 8.8833 6.83331 9.49634 6.83331 10.25Z"/>
<path id="path2_fill" d="M 0.683333 2.05C 1.06053 2.05 1.36667 1.74455 1.36667 1.36667L 1.36667 0.683333C 1.36667 0.30545 1.06053 0 0.683333 0C 0.306133 0 0 0.30545 0 0.683333L 0 1.36667C 0 1.74455 0.306133 2.05 0.683333 2.05Z"/>
<path id="path3_fill" d="M 0.683333 0C 0.306133 0 0 0.30545 0 0.683333L 0 1.36667C 0 1.74455 0.306133 2.05 0.683333 2.05C 1.06053 2.05 1.36667 1.74455 1.36667 1.36667L 1.36667 0.683333C 1.36667 0.30545 1.06053 0 0.683333 0Z"/>
<path id="path4_fill" d="M 1.36667 0L 0.683333 0C 0.306133 0 0 0.30545 0 0.683333C 0 1.06122 0.306133 1.36667 0.683333 1.36667L 1.36667 1.36667C 1.74387 1.36667 2.05 1.06122 2.05 0.683333C 2.05 0.30545 1.74387 0 1.36667 0Z"/>
<path id="path5_fill" d="M 0.683504 0.200131L 0.200387 0.683248C -0.0667958 0.950431 -0.0667958 1.3823 0.200387 1.64948C 0.333637 1.78273 0.508571 1.8497 0.683504 1.8497C 0.858437 1.8497 1.03337 1.78273 1.16662 1.64948L 1.64974 1.16636C 1.91692 0.899181 1.91692 0.467315 1.64974 0.200131C 1.38255 -0.067052 0.950687 -0.0663687 0.683504 0.200131Z"/>
<path id="path6_fill" d="M 0.683504 0.200131L 0.200387 0.683248C -0.0667958 0.950431 -0.0667958 1.3823 0.200387 1.64948C 0.333637 1.78273 0.508571 1.8497 0.683504 1.8497C 0.858437 1.8497 1.03337 1.78273 1.16662 1.64948L 1.64974 1.16636C 1.91692 0.899181 1.91692 0.467315 1.64974 0.200131C 1.38255 -0.067052 0.950004 -0.0663687 0.683504 0.200131Z"/>
<path id="path7_fill" d="M 1.16662 0.200387C 0.899438 -0.0667958 0.467571 -0.0667958 0.200387 0.200387C -0.0667958 0.467571 -0.0667958 0.899438 0.200387 1.16662L 0.683504 1.64974C 0.816754 1.78299 0.991688 1.84995 1.16662 1.84995C 1.34155 1.84995 1.51649 1.78299 1.64974 1.64974C 1.91692 1.38255 1.91692 0.950687 1.64974 0.683504L 1.16662 0.200387Z"/>
</defs>
</svg>
