<svg xmlns="http://www.w3.org/2000/svg" xmlns:xlink="http://www.w3.org/1999/xlink" width="39" height="35"><g fill="#F47C79" transform="translate(-744 3285)"><use xlink:href="#A" x="756.377" y="-3284.96"/><use xlink:href="#B" x="744" y="-3279.89"/><use xlink:href="#C" x="767.201" y="-3266.7"/></g><defs><path id="A" d="M1.194 21.97A3.32 3.32 0 0 0 0 24.532v3.556c0 .442.35.795.788.795s.788-.353.788-.795v-3.556c0-.522.223-1.003.62-1.333 3.128-2.593 6.527-4.32 7.17-4.64.35-.168.573-.53.573-.923v-5.01a.8.8 0 0 0-.35-.658c-.43-.29-.684-.77-.684-1.284V5.49c0-2.143 1.727-3.885 3.852-3.885h1.106c2.125 0 3.852 1.742 3.852 3.885v5.194c0 .514-.255.995-.684 1.284a.78.78 0 0 0-.35.658v5c0 .393.223.755.573.923.653.32 4.043 2.047 7.17 4.64a1.74 1.74 0 0 1 .621 1.333v3.556c0 .44.35.795.788.795s.788-.353.788-.795v-3.556c0-.995-.438-1.927-1.194-2.56-2.913-2.416-6.05-4.1-7.17-4.688v-4.27c.653-.594 1.035-1.437 1.035-2.336V5.475C19.293 2.456 16.858 0 13.865 0H12.76C9.766 0 7.33 2.456 7.33 5.475v5.194c0 .9.382 1.742 1.035 2.336v4.27c-1.122.578-4.25 2.28-7.17 4.696z"/><path id="B" d="M11.437 0h-.9C8.023 0 5.97 2.063 5.97 4.608v4.23c0 .755.3 1.46.844 1.967v3.323c-.98.506-3.47 1.87-5.786 3.79-.653.538-1.027 1.34-1.027 2.2v2.898c0 .44.35.795.788.795s.788-.353.788-.795v-2.898c0-.377.167-.73.454-.97 2.54-2.103 5.285-3.5 5.818-3.765a.99.99 0 0 0 .549-.883V10.42a.8.8 0 0 0-.35-.658 1.11 1.11 0 0 1-.493-.923v-4.23c0-1.662 1.345-3.018 2.993-3.018h.9c1.648 0 2.993 1.357 2.993 3.018v4.23a1.11 1.11 0 0 1-.494.923.78.78 0 0 0-.35.658v3.348c0 .44.35.795.788.795s.788-.353.788-.795v-2.962c.533-.506.844-1.212.844-1.967v-4.23C16.006 2.063 13.96 0 11.437 0z"/><path id="C" d="M3.407.803c0-.44.35-.795.788-.795.43 0 .788.36.804.803a2.49 2.49 0 0 1-.533 1.541l.51 11.993c.008.24-.088.466-.263.626l-1.64 1.485a.77.77 0 0 1-.525.201c-.183 0-.374-.072-.525-.21L.358 14.94c-.175-.16-.27-.385-.263-.626L.63 2.464A2.53 2.53 0 0 1 0 .795C0 .353.35 0 .788 0s.788.353.788.795c0 .273.11.514.294.682a.6.6 0 0 1 .111.088c.143.104.318.16.51.16a.92.92 0 0 0 .915-.923zM1.68 14.024l.86.778.828-.755L2.905 3.29c-.143.024-.286.04-.43.04-.103 0-.215-.008-.318-.024L1.68 14.024z" fill-rule="evenodd"/></defs></svg>