<svg xmlns="http://www.w3.org/2000/svg" xmlns:xlink="http://www.w3.org/1999/xlink" width="27" height="27"><g fill="#F6928D" transform="translate(-752 3179)"><use xlink:href="#A" x="752" y="-3179"/><use xlink:href="#B" x="761.093" y="-3171.98"/><use xlink:href="#C" x="766.105" y="-3175.9"/></g><defs><path id="A" d="M16.993.466c3.482.933 6.392 3.166 8.194 6.287s2.28 6.758 1.348 10.24-3.166 6.39-6.287 8.194C18.168 26.387 15.86 27 13.522 27a13.57 13.57 0 0 1-3.514-.466c-3.482-.933-6.392-3.166-8.194-6.287S-.467 13.49.466 10.008 3.63 3.616 6.753 1.814 13.51-.467 16.993.466zm2.552 23.504a12.01 12.01 0 0 0 5.633-7.341 12.01 12.01 0 0 0-1.208-9.173 12.01 12.01 0 0 0-7.34-5.633c-1.04-.28-2.098-.417-3.148-.417-2.095 0-4.162.55-6.025 1.625a12.01 12.01 0 0 0-5.633 7.341 12.01 12.01 0 0 0 1.208 9.173 12.01 12.01 0 0 0 7.34 5.633 12.01 12.01 0 0 0 9.173-1.208z" fill-rule="evenodd"/><path id="B" d="M2.206.2l8.676 5.01c.46.266.735.742.735 1.273s-.275 1.008-.735 1.274l-8.676 5.01a1.47 1.47 0 0 1-.735.199c-.253 0-.505-.066-.735-.2C.275 12.5 0 12.023 0 11.49V1.473C0 .94.275.465.735.2s1-.266 1.47 0zm-.703 11.348l8.676-5.01c.01-.006.033-.02.033-.056s-.022-.05-.033-.057l-8.676-5.01a.06.06 0 0 0-.032-.01c-.01 0-.02.002-.033.01-.033.02-.033.044-.033.056v10.02c0 .012 0 .038.033.056s.055.006.065 0z" fill-rule="evenodd"/><path id="C" d="M7.7 3.986A10.6 10.6 0 0 0 .798.007c-.384-.053-.74.217-.79.6s.217.74.6.79a9.18 9.18 0 0 1 5.971 3.447.7.7 0 0 0 .986.125c.307-.238.363-.68.126-.986z"/></defs></svg>