<svg width="374" height="374" viewBox="0 0 374 374" version="1.1" xmlns="http://www.w3.org/2000/svg" xmlns:xlink="http://www.w3.org/1999/xlink">
<title>Суммарный просчет затрат</title>
<g id="Canvas" transform="translate(-350 3501)">
<g id="&#209;&#129;&#209;&#128;&#208;&#190;&#208;&#186;">
<g id="Line" opacity="0.536911">
<use xlink:href="#path0_stroke" transform="translate(532 -3497)" fill="#C8C8C8"/>
</g>
<g id="Line" opacity="0.536911">
<use xlink:href="#path0_stroke" transform="matrix(-1.83697e-16 1 -1 -1.83697e-16 710.5 -3321.5)" fill="#C8C8C8"/>
</g>
<g id="Line" opacity="0.536911">
<use xlink:href="#path0_stroke" transform="matrix(-1.83697e-16 1 -1 -1.83697e-16 710.5 -3321.5)" fill="#C8C8C8"/>
</g>
<g id="Line" opacity="0.536911">
<use xlink:href="#path0_stroke" transform="matrix(-0.5 0.866025 -0.866025 -0.5 687.536 -3232.8)" fill="#C8C8C8"/>
</g>
<g id="Line" opacity="0.536911">
<use xlink:href="#path1_stroke" transform="translate(445.25 -3472.85)" fill="#C8C8C8"/>
</g>
<g id="Line" opacity="0.536911">
<use xlink:href="#path0_stroke" transform="matrix(0.5 0.866025 -0.866025 0.5 686.036 -3409.8)" fill="#C8C8C8"/>
</g>
<g id="Line" opacity="0.536911">
<use xlink:href="#path2_stroke" transform="translate(445.25 -3472.85)" fill="#C8C8C8"/>
</g>
<g id="Mask">
<mask id="mask0_outline_out">
<rect id="mask0_outline_inv" fill="white" x="-5" y="-5" width="257" height="257" transform="translate(414 -3437)"/>
<use xlink:href="#path3_fill" fill="black" transform="translate(414 -3437)"/>
</mask>
<g mask="url(#mask0_outline_out)">
<use xlink:href="#path4_stroke_2x" transform="translate(414 -3437)" fill="#FFFFD3"/>
</g>
</g>
<g id="Mask">
<mask id="mask1_outline_out">
<rect id="mask1_outline_inv" fill="white" x="-45" y="-45" width="374" height="374" transform="translate(395 -3456)"/>
<use xlink:href="#path5_fill" fill="black" transform="translate(395 -3456)"/>
</mask>
<g mask="url(#mask1_outline_out)">
<use xlink:href="#path6_stroke_2x" transform="translate(395 -3456)" fill="#FFFFD3"/>
</g>
</g>
<g id="&#208;&#144;&#208;&#178;&#208;&#179;&#209;&#131;&#209;&#129;&#209;&#130; 2016">
<use xlink:href="#path7_fill" transform="translate(497 -3489)" fill="#333333"/>
</g>
<g id="&#208;&#175;&#208;&#189;&#208;&#178;&#208;&#176;&#209;&#128;&#209;&#140; 2017">
<use xlink:href="#path8_fill" transform="translate(497 -3159.23)" fill="#333333"/>
</g>
<g id="Path 2 + Line + Line + Line + Line + Line + Line + Line Mask">
<g id="Mask">
<use xlink:href="#path3_fill" transform="translate(414 -3437)" fill="#F2F2F2"/>
</g>
<mask id="mask2_outline" mask-type="alpha">
<g id="Mask">
<use xlink:href="#path3_fill" transform="translate(414 -3437)" fill="#FFFFFF"/>
</g>
</mask>
<g id="Path 2" mask="url(#mask2_outline)">
<use xlink:href="#path9_fill" transform="translate(523.881 -3451.08)" fill="url(#paint13_linear)"/>
</g>
<g id="Line" opacity="0.536911" mask="url(#mask2_outline)">
<use xlink:href="#path0_stroke" transform="translate(532 -3497)" fill="#FFFFFF"/>
</g>
<g id="Line" opacity="0.536911" mask="url(#mask2_outline)">
<use xlink:href="#path0_stroke" transform="matrix(-1.83697e-16 1 -1 -1.83697e-16 710.5 -3321.5)" fill="#FFFFFF"/>
</g>
<g id="Line" opacity="0.536911" mask="url(#mask2_outline)">
<use xlink:href="#path0_stroke" transform="matrix(-1.83697e-16 1 -1 -1.83697e-16 710.5 -3321.5)" fill="#FFFFFF"/>
</g>
<g id="Line" opacity="0.536911" mask="url(#mask2_outline)">
<use xlink:href="#path0_stroke" transform="matrix(-0.5 0.866025 -0.866025 -0.5 687.536 -3232.8)" fill="#FFFFFF"/>
</g>
<g id="Line" opacity="0.536911" mask="url(#mask2_outline)">
<use xlink:href="#path1_stroke" transform="translate(445.25 -3472.85)" fill="#FFFFFF"/>
</g>
<g id="Line" opacity="0.536911" mask="url(#mask2_outline)">
<use xlink:href="#path0_stroke" transform="matrix(0.5 0.866025 -0.866025 0.5 686.036 -3409.8)" fill="#FFFFFF"/>
</g>
<g id="Line" opacity="0.536911" mask="url(#mask2_outline)">
<use xlink:href="#path2_stroke" transform="translate(445.25 -3472.85)" fill="#FFFFFF"/>
</g>
</g>
<g id="Oval 5" filter="url(#filter0_d)">
<use xlink:href="#path10_fill" transform="translate(437 -3414)" fill="#FFFFFF"/>
</g>
<g id="6">
<use xlink:href="#path11_fill" transform="translate(518 -3372)" fill="#353535"/>
</g>
<g id="&#208;&#188;&#208;&#181;&#209;&#129;&#209;&#143;&#209;&#134;&#208;&#181;&#208;&#178; &#209;&#129;&#209;&#128;&#208;&#190;&#208;&#186; &#208;&#178;&#209;&#139;&#208;&#191;&#208;&#190;&#208;&#187;&#208;&#189;&#208;&#181;">
<use xlink:href="#path12_fill" transform="translate(455 -3306)" fill="#353535"/>
</g>
<g id="Group 39">
<g id="1">
<use xlink:href="#path13_fill" transform="translate(562 -3455)" fill="#353535"/>
</g>
<g id="2">
<use xlink:href="#path14_fill" transform="translate(629 -3422)" fill="#353535"/>
</g>
<g id="3">
<use xlink:href="#path15_fill" transform="translate(666 -3361)" fill="#353535"/>
</g>
<g id="4">
<use xlink:href="#path16_fill" transform="translate(667 -3286)" fill="#353535"/>
</g>
<g id="5">
<use xlink:href="#path17_fill" transform="translate(628 -3224)" fill="#353535"/>
</g>
<g id="6">
<use xlink:href="#path18_fill" transform="translate(567 -3187)" fill="#353535"/>
</g>
</g>
</g>
</g>
<defs>
<filter id="filter0_d" filterUnits="userSpaceOnUse" x="433" y="-3416" width="210" height="210" color-interpolation-filters="sRGB">
<feFlood flood-opacity="0" result="BackgroundImageFix"/>
<feColorMatrix in="SourceAlpha" type="matrix" values="0 0 0 0 0 0 0 0 0 0 0 0 0 0 0 0 0 0 255 0"/>
<feOffset dx="0" dy="2"/>
<feGaussianBlur stdDeviation="2"/>
<feColorMatrix type="matrix" values="0 0 0 0 0 0 0 0 0 0 0 0 0 0 0 0 0 0 0.185349 0"/>
<feBlend mode="normal" in2="BackgroundImageFix" result="effect1_dropShadow"/>
<feBlend mode="normal" in="SourceGraphic" in2="effect1_dropShadow" result="shape"/>
</filter>
<linearGradient id="paint13_linear" x1="0" y1="0" x2="1" y2="0" gradientUnits="userSpaceOnUse" gradientTransform="matrix(-18.1566 249.162 -142.002 -31.8582 34.5725 3.55719e-07)">
<stop offset="0" stop-color="#EE96A3"/>
<stop offset="0.501913" stop-color="#F7C8A4"/>
<stop offset="1" stop-color="#C499B8"/>
</linearGradient>
<path id="path0_stroke" d="M 2 0.5L 2 0L 1 0L 1 0.5L 2 0.5ZM 1 353.5L 1 354L 2 354L 2 353.5L 1 353.5ZM 1 0.5L 1 353.5L 2 353.5L 2 0.5L 1 0.5Z"/>
<path id="path1_stroke" d="M 176.067 305.957L 176.317 306.39L 177.183 305.89L 176.933 305.457L 176.067 305.957ZM 0.433013 -0.25L 0.183013 -0.683013L -0.683013 -0.183013L -0.433013 0.25L 0.433013 -0.25ZM 176.933 305.457L 0.433013 -0.25L -0.433013 0.25L 176.067 305.957L 176.933 305.457Z"/>
<path id="path2_stroke" d="M 176.933 0.25L 177.183 -0.183013L 176.317 -0.683013L 176.067 -0.25L 176.933 0.25ZM -0.433013 305.457L -0.683013 305.89L 0.183013 306.39L 0.433013 305.957L -0.433013 305.457ZM 176.067 -0.25L -0.433013 305.457L 0.433013 305.957L 176.933 0.25L 176.067 -0.25Z"/>
<path id="path3_fill" fill-rule="evenodd" d="M 123.5 247C 191.707 247 247 191.707 247 123.5C 247 55.2928 191.707 0 123.5 0C 55.2928 0 0 55.2928 0 123.5C 0 191.707 55.2928 247 123.5 247Z"/>
<path id="path4_stroke_2x" d="M 123.5 252C 194.469 252 252 194.469 252 123.5L 242 123.5C 242 188.946 188.946 242 123.5 242L 123.5 252ZM 252 123.5C 252 52.5314 194.469 -5 123.5 -5L 123.5 5C 188.946 5 242 58.0543 242 123.5L 252 123.5ZM 123.5 -5C 52.5314 -5 -5 52.5314 -5 123.5L 5 123.5C 5 58.0543 58.0543 5 123.5 5L 123.5 -5ZM -5 123.5C -5 194.469 52.5314 252 123.5 252L 123.5 242C 58.0543 242 5 188.946 5 123.5L -5 123.5Z"/>
<path id="path5_fill" fill-rule="evenodd" d="M 142 284C 220.424 284 284 220.424 284 142C 284 63.5756 220.424 0 142 0C 63.5756 0 0 63.5756 0 142C 0 220.424 63.5756 284 142 284Z"/>
<path id="path6_stroke_2x" d="M 142 329C 245.277 329 329 245.277 329 142L 239 142C 239 195.572 195.572 239 142 239L 142 329ZM 329 142C 329 38.7228 245.277 -45 142 -45L 142 45C 195.572 45 239 88.4284 239 142L 329 142ZM 142 -45C 38.7228 -45 -45 38.7228 -45 142L 45 142C 45 88.4284 88.4284 45 142 45L 142 -45ZM -45 142C -45 245.277 38.7228 329 142 329L 142 239C 88.4284 239 45 195.572 45 142L -45 142Z"/>
<path id="path7_fill" d="M 6.65137 10.4023L 2.48145 10.4023L 1.54492 13L 0.191406 13L 3.99219 3.04688L 5.14062 3.04688L 8.94824 13L 7.60156 13L 6.65137 10.4023ZM 2.87793 9.32227L 6.26172 9.32227L 4.56641 4.66699L 2.87793 9.32227ZM 10.2061 13L 10.2061 5.60352L 13.0908 5.60352C 14.0752 5.60352 14.8294 5.77669 15.3535 6.12305C 15.8822 6.46484 16.1465 6.96842 16.1465 7.63379C 16.1465 7.97559 16.0439 8.28548 15.8389 8.56348C 15.6338 8.83691 15.3307 9.04655 14.9297 9.19238C 15.3763 9.2972 15.734 9.50228 16.0029 9.80762C 16.2764 10.113 16.4131 10.4775 16.4131 10.9014C 16.4131 11.5804 16.1624 12.0999 15.6611 12.46C 15.1644 12.82 14.4603 13 13.5488 13L 10.2061 13ZM 11.4707 9.75293L 11.4707 11.9814L 13.5625 11.9814C 14.0911 11.9814 14.4854 11.8835 14.7451 11.6875C 15.0094 11.4915 15.1416 11.2158 15.1416 10.8604C 15.1416 10.1221 14.5993 9.75293 13.5146 9.75293L 11.4707 9.75293ZM 11.4707 8.74121L 13.1045 8.74121C 14.2894 8.74121 14.8818 8.39486 14.8818 7.70215C 14.8818 7.00944 14.3213 6.65169 13.2002 6.62891L 11.4707 6.62891L 11.4707 8.74121ZM 22.8662 6.64941L 19.4551 6.64941L 19.4551 13L 18.1836 13L 18.1836 5.60352L 22.8662 5.60352L 22.8662 6.64941ZM 26.3867 11.1475L 28.1094 5.60352L 29.4629 5.60352L 26.4893 14.1416C 26.029 15.3721 25.2975 15.9873 24.2949 15.9873L 24.0557 15.9668L 23.584 15.8779L 23.584 14.8525L 23.9258 14.8799C 24.3542 14.8799 24.6868 14.7933 24.9238 14.6201C 25.1654 14.4469 25.3636 14.1302 25.5186 13.6699L 25.7988 12.918L 23.1602 5.60352L 24.541 5.60352L 26.3867 11.1475ZM 33.4688 12.1045C 33.9199 12.1045 34.3141 11.9678 34.6514 11.6943C 34.9886 11.4209 35.1755 11.0791 35.2119 10.6689L 36.4082 10.6689C 36.3854 11.0928 36.2396 11.4961 35.9707 11.8789C 35.7018 12.2617 35.3418 12.5671 34.8906 12.7949C 34.444 13.0228 33.9701 13.1367 33.4688 13.1367C 32.4616 13.1367 31.6595 12.8018 31.0625 12.1318C 30.4701 11.4574 30.1738 10.5368 30.1738 9.37012L 30.1738 9.1582C 30.1738 8.43815 30.306 7.79785 30.5703 7.2373C 30.8346 6.67676 31.2129 6.24154 31.7051 5.93164C 32.2018 5.62174 32.7874 5.4668 33.4619 5.4668C 34.2913 5.4668 34.9795 5.71517 35.5264 6.21191C 36.0778 6.70866 36.3717 7.35352 36.4082 8.14648L 35.2119 8.14648C 35.1755 7.66797 34.9932 7.27604 34.665 6.9707C 34.3415 6.66081 33.9404 6.50586 33.4619 6.50586C 32.8193 6.50586 32.3203 6.73828 31.9648 7.20312C 31.6139 7.66341 31.4385 8.33105 31.4385 9.20605L 31.4385 9.44531C 31.4385 10.2975 31.6139 10.9538 31.9648 11.4141C 32.3158 11.8743 32.8171 12.1045 33.4688 12.1045ZM 43.3262 6.62891L 40.8447 6.62891L 40.8447 13L 39.5801 13L 39.5801 6.62891L 37.1465 6.62891L 37.1465 5.60352L 43.3262 5.60352L 43.3262 6.62891ZM 54.4209 13L 47.8994 13L 47.8994 12.0908L 51.3447 8.2627C 51.8551 7.68392 52.2061 7.21452 52.3975 6.85449C 52.5934 6.48991 52.6914 6.11393 52.6914 5.72656C 52.6914 5.20703 52.5342 4.78092 52.2197 4.44824C 51.9053 4.11556 51.486 3.94922 50.9619 3.94922C 50.333 3.94922 49.8431 4.12923 49.4922 4.48926C 49.1458 4.84473 48.9727 5.34147 48.9727 5.97949L 47.708 5.97949C 47.708 5.06348 48.002 4.32292 48.5898 3.75781C 49.1823 3.19271 49.973 2.91016 50.9619 2.91016C 51.887 2.91016 52.6185 3.15397 53.1562 3.6416C 53.694 4.12467 53.9629 4.76953 53.9629 5.57617C 53.9629 6.55599 53.3385 7.72266 52.0898 9.07617L 49.4238 11.9678L 54.4209 11.9678L 54.4209 13ZM 62.002 8.75488C 62.002 10.236 61.749 11.3366 61.2432 12.0566C 60.7373 12.7767 59.9466 13.1367 58.8711 13.1367C 57.8092 13.1367 57.0231 12.7858 56.5127 12.084C 56.0023 11.3776 55.738 10.3249 55.7197 8.92578L 55.7197 7.2373C 55.7197 5.77441 55.9727 4.6875 56.4785 3.97656C 56.9844 3.26562 57.7773 2.91016 58.8574 2.91016C 59.9284 2.91016 60.7168 3.25423 61.2227 3.94238C 61.7285 4.62598 61.9883 5.68327 62.002 7.11426L 62.002 8.75488ZM 60.7373 7.02539C 60.7373 5.95443 60.5869 5.17513 60.2861 4.6875C 59.9854 4.19531 59.5091 3.94922 58.8574 3.94922C 58.2103 3.94922 57.7386 4.19303 57.4424 4.68066C 57.1462 5.16829 56.9935 5.91797 56.9844 6.92969L 56.9844 8.95312C 56.9844 10.0286 57.1393 10.8239 57.4492 11.3389C 57.7637 11.8493 58.2376 12.1045 58.8711 12.1045C 59.4954 12.1045 59.958 11.863 60.2588 11.3799C 60.5641 10.8968 60.7236 10.1357 60.7373 9.09668L 60.7373 7.02539ZM 67.7783 13L 66.5068 13L 66.5068 4.57129L 63.957 5.50781L 63.957 4.35938L 67.5801 2.99902L 67.7783 2.99902L 67.7783 13ZM 76.4463 3.04004L 76.4463 4.11328L 76.2139 4.11328C 75.2295 4.13151 74.4456 4.42318 73.8623 4.98828C 73.279 5.55339 72.9417 6.34863 72.8506 7.37402C 73.3747 6.77246 74.0902 6.47168 74.9971 6.47168C 75.863 6.47168 76.5534 6.77702 77.0684 7.3877C 77.5879 7.99837 77.8477 8.78678 77.8477 9.75293C 77.8477 10.7783 77.5674 11.5986 77.0068 12.2139C 76.4508 12.8291 75.7035 13.1367 74.7646 13.1367C 73.8122 13.1367 73.0397 12.7721 72.4473 12.043C 71.8548 11.3092 71.5586 10.3659 71.5586 9.21289L 71.5586 8.72754C 71.5586 6.89551 71.9482 5.49642 72.7275 4.53027C 73.5114 3.55957 74.6758 3.06283 76.2207 3.04004L 76.4463 3.04004ZM 74.7852 7.52441C 74.3522 7.52441 73.9535 7.6543 73.5889 7.91406C 73.2243 8.17383 72.9714 8.49967 72.8301 8.8916L 72.8301 9.35645C 72.8301 10.1768 73.0146 10.8376 73.3838 11.3389C 73.7529 11.8402 74.2132 12.0908 74.7646 12.0908C 75.3343 12.0908 75.7809 11.8812 76.1045 11.4619C 76.4326 11.0426 76.5967 10.4935 76.5967 9.81445C 76.5967 9.13086 76.4303 8.57943 76.0977 8.16016C 75.7695 7.73633 75.332 7.52441 74.7852 7.52441Z"/>
<path id="path8_fill" d="M 6.36426 13L 6.36426 9.12402L 4.06738 9.12402L 2.00977 13L 0.608398 13L 2.91895 8.76172C 1.63379 8.25586 0.991211 7.35124 0.991211 6.04785C 0.991211 5.09994 1.30111 4.36393 1.9209 3.83984C 2.54525 3.3112 3.41113 3.04688 4.51855 3.04688L 7.68359 3.04688L 7.68359 13L 6.36426 13ZM 2.30371 6.04785C 2.30371 6.64941 2.49056 7.13249 2.86426 7.49707C 3.24251 7.86165 3.7666 8.04622 4.43652 8.05078L 6.36426 8.05078L 6.36426 4.12695L 4.49805 4.12695C 3.78711 4.12695 3.24251 4.29557 2.86426 4.63281C 2.49056 4.97005 2.30371 5.44173 2.30371 6.04785ZM 15.9141 13L 14.6494 13L 14.6494 9.8418L 11.252 9.8418L 11.252 13L 9.98047 13L 9.98047 5.60352L 11.252 5.60352L 11.252 8.80957L 14.6494 8.80957L 14.6494 5.60352L 15.9141 5.60352L 15.9141 13ZM 18.0674 13L 18.0674 5.60352L 20.9521 5.60352C 21.9365 5.60352 22.6908 5.77669 23.2148 6.12305C 23.7435 6.46484 24.0078 6.96842 24.0078 7.63379C 24.0078 7.97559 23.9053 8.28548 23.7002 8.56348C 23.4951 8.83691 23.1921 9.04655 22.791 9.19238C 23.2376 9.2972 23.5954 9.50228 23.8643 9.80762C 24.1377 10.113 24.2744 10.4775 24.2744 10.9014C 24.2744 11.5804 24.0238 12.0999 23.5225 12.46C 23.0257 12.82 22.3216 13 21.4102 13L 18.0674 13ZM 19.332 9.75293L 19.332 11.9814L 21.4238 11.9814C 21.9525 11.9814 22.3467 11.8835 22.6064 11.6875C 22.8708 11.4915 23.0029 11.2158 23.0029 10.8604C 23.0029 10.1221 22.4606 9.75293 21.376 9.75293L 19.332 9.75293ZM 19.332 8.74121L 20.9658 8.74121C 22.1507 8.74121 22.7432 8.39486 22.7432 7.70215C 22.7432 7.00944 22.1826 6.65169 21.0615 6.62891L 19.332 6.62891L 19.332 8.74121ZM 30.5156 13C 30.4427 12.8542 30.3835 12.5944 30.3379 12.2207C 29.75 12.8314 29.0482 13.1367 28.2324 13.1367C 27.5033 13.1367 26.904 12.9316 26.4346 12.5215C 25.9697 12.1068 25.7373 11.5827 25.7373 10.9492C 25.7373 10.179 26.029 9.58203 26.6123 9.1582C 27.2002 8.72982 28.0251 8.51562 29.0869 8.51562L 30.3174 8.51562L 30.3174 7.93457C 30.3174 7.49251 30.1852 7.1416 29.9209 6.88184C 29.6566 6.61751 29.2669 6.48535 28.752 6.48535C 28.3008 6.48535 27.9225 6.59928 27.6172 6.82715C 27.3118 7.05501 27.1592 7.33073 27.1592 7.6543L 25.8877 7.6543C 25.8877 7.28516 26.0176 6.92969 26.2773 6.58789C 26.5417 6.24154 26.8971 5.9681 27.3438 5.76758C 27.7949 5.56706 28.2894 5.4668 28.8271 5.4668C 29.6794 5.4668 30.347 5.68099 30.8301 6.10938C 31.3132 6.5332 31.5638 7.11882 31.582 7.86621L 31.582 11.2705C 31.582 11.9495 31.6686 12.4896 31.8418 12.8906L 31.8418 13L 30.5156 13ZM 28.417 12.0361C 28.8135 12.0361 29.1895 11.9336 29.5449 11.7285C 29.9004 11.5234 30.1579 11.2568 30.3174 10.9287L 30.3174 9.41113L 29.3262 9.41113C 27.7767 9.41113 27.002 9.86458 27.002 10.7715C 27.002 11.168 27.1341 11.4779 27.3984 11.7012C 27.6628 11.9245 28.0023 12.0361 28.417 12.0361ZM 39.8125 9.38379C 39.8125 10.5094 39.555 11.4163 39.04 12.1045C 38.5251 12.7926 37.8278 13.1367 36.9482 13.1367C 36.0505 13.1367 35.3441 12.8519 34.8291 12.2822L 34.8291 15.8438L 33.5645 15.8438L 33.5645 5.60352L 34.7197 5.60352L 34.7812 6.42383C 35.2962 5.78581 36.0117 5.4668 36.9277 5.4668C 37.8164 5.4668 38.5182 5.80176 39.0332 6.47168C 39.5527 7.1416 39.8125 8.07357 39.8125 9.26758L 39.8125 9.38379ZM 38.5479 9.24023C 38.5479 8.40625 38.3701 7.74772 38.0146 7.26465C 37.6592 6.78158 37.1715 6.54004 36.5518 6.54004C 35.7861 6.54004 35.2119 6.87956 34.8291 7.55859L 34.8291 11.0928C 35.2074 11.7673 35.7861 12.1045 36.5654 12.1045C 37.1715 12.1045 37.6523 11.8652 38.0078 11.3867C 38.3678 10.9036 38.5479 10.1882 38.5479 9.24023ZM 42.8066 8.15332L 44.7275 8.15332C 45.5661 8.16243 46.2292 8.38118 46.7168 8.80957C 47.2044 9.23796 47.4482 9.81901 47.4482 10.5527C 47.4482 11.291 47.1976 11.8835 46.6963 12.3301C 46.195 12.7767 45.5205 13 44.6729 13L 41.542 13L 41.542 5.60352L 42.8066 5.60352L 42.8066 8.15332ZM 42.8066 9.18555L 42.8066 11.9678L 44.6865 11.9678C 45.1605 11.9678 45.5273 11.847 45.7871 11.6055C 46.0469 11.3594 46.1768 11.0244 46.1768 10.6006C 46.1768 10.1904 46.0492 9.85547 45.7939 9.5957C 45.5433 9.33138 45.1901 9.19466 44.7344 9.18555L 42.8066 9.18555ZM 58.8916 13L 52.3701 13L 52.3701 12.0908L 55.8154 8.2627C 56.3258 7.68392 56.6768 7.21452 56.8682 6.85449C 57.0641 6.48991 57.1621 6.11393 57.1621 5.72656C 57.1621 5.20703 57.0049 4.78092 56.6904 4.44824C 56.376 4.11556 55.9567 3.94922 55.4326 3.94922C 54.8037 3.94922 54.3138 4.12923 53.9629 4.48926C 53.6165 4.84473 53.4434 5.34147 53.4434 5.97949L 52.1787 5.97949C 52.1787 5.06348 52.4727 4.32292 53.0605 3.75781C 53.653 3.19271 54.4437 2.91016 55.4326 2.91016C 56.3577 2.91016 57.0892 3.15397 57.627 3.6416C 58.1647 4.12467 58.4336 4.76953 58.4336 5.57617C 58.4336 6.55599 57.8092 7.72266 56.5605 9.07617L 53.8945 11.9678L 58.8916 11.9678L 58.8916 13ZM 66.4727 8.75488C 66.4727 10.236 66.2197 11.3366 65.7139 12.0566C 65.208 12.7767 64.4173 13.1367 63.3418 13.1367C 62.2799 13.1367 61.4938 12.7858 60.9834 12.084C 60.473 11.3776 60.2087 10.3249 60.1904 8.92578L 60.1904 7.2373C 60.1904 5.77441 60.4434 4.6875 60.9492 3.97656C 61.4551 3.26562 62.248 2.91016 63.3281 2.91016C 64.3991 2.91016 65.1875 3.25423 65.6934 3.94238C 66.1992 4.62598 66.459 5.68327 66.4727 7.11426L 66.4727 8.75488ZM 65.208 7.02539C 65.208 5.95443 65.0576 5.17513 64.7568 4.6875C 64.4561 4.19531 63.9798 3.94922 63.3281 3.94922C 62.681 3.94922 62.2093 4.19303 61.9131 4.68066C 61.6169 5.16829 61.4642 5.91797 61.4551 6.92969L 61.4551 8.95312C 61.4551 10.0286 61.61 10.8239 61.9199 11.3389C 62.2344 11.8493 62.7083 12.1045 63.3418 12.1045C 63.9661 12.1045 64.4287 11.863 64.7295 11.3799C 65.0348 10.8968 65.1943 10.1357 65.208 9.09668L 65.208 7.02539ZM 72.249 13L 70.9775 13L 70.9775 4.57129L 68.4277 5.50781L 68.4277 4.35938L 72.0508 2.99902L 72.249 2.99902L 72.249 13ZM 82.3799 3.75781L 78.2578 13L 76.9316 13L 81.04 4.08594L 75.6533 4.08594L 75.6533 3.04688L 82.3799 3.04688L 82.3799 3.75781Z"/>
<path id="path9_fill" fill-rule="evenodd" d="M 11.0177 54.9887L 11.0177 0L 77.7197 14.0464L 128.854 61.9461L 148.879 127.215L 137.03 200.663L 89.1123 259.337L 10.1192 261.229C 10.1192 261.229 2.58265e-16 259.772 0 249.643C 0 239.514 11.0177 239.015 11.0177 239.015L 53.0889 204.57L 81.2275 176.499L 92.069 131.959L 83.7632 93.8568L 55.0019 58.8729L 11.0177 54.9887Z"/>
<path id="path10_fill" fill-rule="evenodd" d="M 101 202C 156.781 202 202 156.781 202 101C 202 45.2192 156.781 0 101 0C 45.2192 0 0 45.2192 0 101C 0 156.781 45.2192 202 101 202Z"/>
<path id="path11_fill" d="M 26.5 13.4688L 26.5 18.375L 25.4375 18.375C 20.9375 18.4583 17.3542 19.7917 14.6875 22.375C 12.0208 24.9583 10.4792 28.5938 10.0625 33.2812C 12.4583 30.5312 15.7292 29.1562 19.875 29.1562C 23.8333 29.1562 26.9896 30.5521 29.3438 33.3438C 31.7188 36.1354 32.9062 39.7396 32.9062 44.1562C 32.9062 48.8438 31.625 52.5938 29.0625 55.4062C 26.5208 58.2188 23.1042 59.625 18.8125 59.625C 14.4583 59.625 10.9271 57.9583 8.21875 54.625C 5.51042 51.2708 4.15625 46.9583 4.15625 41.6875L 4.15625 39.4688C 4.15625 31.0938 5.9375 24.6979 9.5 20.2812C 13.0833 15.8438 18.4062 13.5729 25.4688 13.4688L 26.5 13.4688ZM 18.9062 33.9688C 16.9271 33.9688 15.1042 34.5625 13.4375 35.75C 11.7708 36.9375 10.6146 38.4271 9.96875 40.2188L 9.96875 42.3438C 9.96875 46.0938 10.8125 49.1146 12.5 51.4062C 14.1875 53.6979 16.2917 54.8438 18.8125 54.8438C 21.4167 54.8438 23.4583 53.8854 24.9375 51.9688C 26.4375 50.0521 27.1875 47.5417 27.1875 44.4375C 27.1875 41.3125 26.4271 38.7917 24.9062 36.875C 23.4062 34.9375 21.4062 33.9688 18.9062 33.9688Z"/>
<path id="path12_fill" d="M 27.6318 14.8467L 30.8662 7.49023L 32.8965 7.49023L 32.8965 17L 31.2705 17L 31.2705 10.083L 28.1943 17L 27.0693 17L 23.9316 9.93359L 23.9316 17L 22.3057 17L 22.3057 7.49023L 24.415 7.49023L 27.6318 14.8467ZM 39.4619 17.1758C 38.1729 17.1758 37.124 16.7539 36.3154 15.9102C 35.5068 15.0605 35.1025 13.9268 35.1025 12.5088L 35.1025 12.21C 35.1025 11.2666 35.2813 10.4258 35.6387 9.6875C 36.002 8.94336 36.5059 8.36328 37.1504 7.94727C 37.8008 7.52539 38.5039 7.31445 39.2598 7.31445C 40.4961 7.31445 41.457 7.72168 42.1426 8.53613C 42.8281 9.35059 43.1709 10.5166 43.1709 12.0342L 43.1709 12.7109L 36.7285 12.7109C 36.752 13.6484 37.0244 14.4072 37.5459 14.9873C 38.0732 15.5615 38.7412 15.8486 39.5498 15.8486C 40.124 15.8486 40.6104 15.7314 41.0088 15.4971C 41.4072 15.2627 41.7559 14.9521 42.0547 14.5654L 43.0479 15.3389C 42.251 16.5635 41.0557 17.1758 39.4619 17.1758ZM 39.2598 8.65039C 38.6035 8.65039 38.0527 8.89062 37.6074 9.37109C 37.1621 9.8457 36.8867 10.5137 36.7812 11.375L 41.5449 11.375L 41.5449 11.252C 41.498 10.4258 41.2754 9.78711 40.877 9.33594C 40.4785 8.87891 39.9395 8.65039 39.2598 8.65039ZM 48.875 15.8486C 49.4551 15.8486 49.9619 15.6729 50.3955 15.3213C 50.8291 14.9697 51.0693 14.5303 51.1162 14.0029L 52.6543 14.0029C 52.625 14.5479 52.4375 15.0664 52.0918 15.5586C 51.7461 16.0508 51.2832 16.4434 50.7031 16.7363C 50.1289 17.0293 49.5195 17.1758 48.875 17.1758C 47.5801 17.1758 46.5488 16.7451 45.7812 15.8838C 45.0195 15.0166 44.6387 13.833 44.6387 12.333L 44.6387 12.0605C 44.6387 11.1348 44.8086 10.3115 45.1484 9.59082C 45.4883 8.87012 45.9746 8.31055 46.6074 7.91211C 47.2461 7.51367 47.999 7.31445 48.8662 7.31445C 49.9326 7.31445 50.8174 7.63379 51.5205 8.27246C 52.2295 8.91113 52.6074 9.74023 52.6543 10.7598L 51.1162 10.7598C 51.0693 10.1445 50.835 9.64063 50.4131 9.24805C 49.9971 8.84961 49.4814 8.65039 48.8662 8.65039C 48.04 8.65039 47.3984 8.94922 46.9414 9.54688C 46.4902 10.1387 46.2646 10.9971 46.2646 12.1221L 46.2646 12.4297C 46.2646 13.5254 46.4902 14.3691 46.9414 14.9609C 47.3926 15.5527 48.0371 15.8486 48.875 15.8486ZM 61.751 7.49023L 61.751 17L 60.1162 17L 60.1162 13.2998L 57.6641 13.2998L 55.4229 17L 53.665 17L 56.0557 13.0537C 55.4463 12.8311 54.9775 12.4883 54.6494 12.0254C 54.3271 11.5566 54.166 11.0117 54.166 10.3906C 54.166 9.52344 54.4912 8.82617 55.1416 8.29883C 55.792 7.76563 56.6621 7.49609 57.752 7.49023L 61.751 7.49023ZM 55.8008 10.4082C 55.8008 10.8711 55.959 11.2461 56.2754 11.5332C 56.5918 11.8145 57.0107 11.958 57.5322 11.9639L 60.1162 11.9639L 60.1162 8.80859L 57.7783 8.80859C 57.1748 8.80859 56.6943 8.95801 56.3369 9.25684C 55.9795 9.5498 55.8008 9.93359 55.8008 10.4082ZM 64.502 7.49023L 66.1367 7.49023L 66.1367 15.6729L 70.5137 15.6729L 70.5137 7.49023L 72.1396 7.49023L 72.1396 15.6729L 73.2734 15.6729L 73.1152 19.8213L 71.6562 19.8213L 71.6562 17L 64.502 17L 64.502 7.49023ZM 78.9775 17.1758C 77.6885 17.1758 76.6396 16.7539 75.8311 15.9102C 75.0225 15.0605 74.6182 13.9268 74.6182 12.5088L 74.6182 12.21C 74.6182 11.2666 74.7969 10.4258 75.1543 9.6875C 75.5176 8.94336 76.0215 8.36328 76.666 7.94727C 77.3164 7.52539 78.0195 7.31445 78.7754 7.31445C 80.0117 7.31445 80.9727 7.72168 81.6582 8.53613C 82.3438 9.35059 82.6865 10.5166 82.6865 12.0342L 82.6865 12.7109L 76.2441 12.7109C 76.2676 13.6484 76.54 14.4072 77.0615 14.9873C 77.5889 15.5615 78.2568 15.8486 79.0654 15.8486C 79.6396 15.8486 80.126 15.7314 80.5244 15.4971C 80.9229 15.2627 81.2715 14.9521 81.5703 14.5654L 82.5635 15.3389C 81.7666 16.5635 80.5713 17.1758 78.9775 17.1758ZM 78.7754 8.65039C 78.1191 8.65039 77.5684 8.89062 77.123 9.37109C 76.6777 9.8457 76.4023 10.5137 76.2969 11.375L 81.0605 11.375L 81.0605 11.252C 81.0137 10.4258 80.791 9.78711 80.3926 9.33594C 79.9941 8.87891 79.4551 8.65039 78.7754 8.65039ZM 84.7256 17L 84.7256 7.49023L 88.4346 7.49023C 89.7002 7.49023 90.6699 7.71289 91.3438 8.1582C 92.0234 8.59766 92.3633 9.24512 92.3633 10.1006C 92.3633 10.54 92.2314 10.9385 91.9678 11.2959C 91.7041 11.6475 91.3145 11.917 90.7988 12.1045C 91.373 12.2393 91.833 12.5029 92.1787 12.8955C 92.5303 13.2881 92.7061 13.7568 92.7061 14.3018C 92.7061 15.1748 92.3838 15.8428 91.7393 16.3057C 91.1006 16.7686 90.1953 17 89.0234 17L 84.7256 17ZM 86.3516 12.8252L 86.3516 15.6904L 89.041 15.6904C 89.7207 15.6904 90.2275 15.5645 90.5615 15.3125C 90.9014 15.0605 91.0713 14.7061 91.0713 14.249C 91.0713 13.2998 90.374 12.8252 88.9795 12.8252L 86.3516 12.8252ZM 86.3516 11.5244L 88.4521 11.5244C 89.9756 11.5244 90.7373 11.0791 90.7373 10.1885C 90.7373 9.29785 90.0166 8.83789 88.5752 8.80859L 86.3516 8.80859L 86.3516 11.5244ZM 103.139 15.8486C 103.719 15.8486 104.226 15.6729 104.659 15.3213C 105.093 14.9697 105.333 14.5303 105.38 14.0029L 106.918 14.0029C 106.889 14.5479 106.701 15.0664 106.355 15.5586C 106.01 16.0508 105.547 16.4434 104.967 16.7363C 104.393 17.0293 103.783 17.1758 103.139 17.1758C 101.844 17.1758 100.813 16.7451 100.045 15.8838C 99.2832 15.0166 98.9023 13.833 98.9023 12.333L 98.9023 12.0605C 98.9023 11.1348 99.0723 10.3115 99.4121 9.59082C 99.752 8.87012 100.238 8.31055 100.871 7.91211C 101.51 7.51367 102.263 7.31445 103.13 7.31445C 104.196 7.31445 105.081 7.63379 105.784 8.27246C 106.493 8.91113 106.871 9.74023 106.918 10.7598L 105.38 10.7598C 105.333 10.1445 105.099 9.64063 104.677 9.24805C 104.261 8.84961 103.745 8.65039 103.13 8.65039C 102.304 8.65039 101.662 8.94922 101.205 9.54688C 100.754 10.1387 100.528 10.9971 100.528 12.1221L 100.528 12.4297C 100.528 13.5254 100.754 14.3691 101.205 14.9609C 101.656 15.5527 102.301 15.8486 103.139 15.8486ZM 116.779 12.3506C 116.779 13.7979 116.448 14.9639 115.786 15.8486C 115.124 16.7334 114.228 17.1758 113.097 17.1758C 111.942 17.1758 111.034 16.8096 110.372 16.0771L 110.372 20.6562L 108.746 20.6562L 108.746 7.49023L 110.231 7.49023L 110.311 8.54492C 110.973 7.72461 111.893 7.31445 113.07 7.31445C 114.213 7.31445 115.115 7.74512 115.777 8.60645C 116.445 9.46777 116.779 10.666 116.779 12.2012L 116.779 12.3506ZM 115.153 12.166C 115.153 11.0938 114.925 10.2471 114.468 9.62598C 114.011 9.00488 113.384 8.69434 112.587 8.69434C 111.603 8.69434 110.864 9.13086 110.372 10.0039L 110.372 14.5479C 110.858 15.415 111.603 15.8486 112.604 15.8486C 113.384 15.8486 114.002 15.541 114.459 14.9258C 114.922 14.3047 115.153 13.3848 115.153 12.166ZM 118.423 12.1572C 118.423 11.2256 118.604 10.3877 118.968 9.64355C 119.337 8.89941 119.847 8.3252 120.497 7.9209C 121.153 7.5166 121.9 7.31445 122.738 7.31445C 124.033 7.31445 125.079 7.7627 125.876 8.65918C 126.679 9.55566 127.08 10.748 127.08 12.2363L 127.08 12.3506C 127.08 13.2764 126.901 14.1084 126.544 14.8467C 126.192 15.5791 125.686 16.1504 125.023 16.5605C 124.367 16.9707 123.611 17.1758 122.756 17.1758C 121.467 17.1758 120.421 16.7275 119.618 15.8311C 118.821 14.9346 118.423 13.748 118.423 12.2715L 118.423 12.1572ZM 120.058 12.3506C 120.058 13.4053 120.301 14.252 120.787 14.8906C 121.279 15.5293 121.936 15.8486 122.756 15.8486C 123.582 15.8486 124.238 15.5264 124.725 14.8818C 125.211 14.2314 125.454 13.3232 125.454 12.1572C 125.454 11.1143 125.205 10.2705 124.707 9.62598C 124.215 8.97559 123.559 8.65039 122.738 8.65039C 121.936 8.65039 121.288 8.96973 120.796 9.6084C 120.304 10.2471 120.058 11.1611 120.058 12.3506ZM 132.081 12.9482L 130.895 12.9482L 130.895 17L 129.26 17L 129.26 7.49023L 130.895 7.49023L 130.895 11.5156L 131.958 11.5156L 135.157 7.49023L 137.126 7.49023L 133.364 12.0605L 137.442 17L 135.377 17L 132.081 12.9482ZM 29.9961 38L 29.9961 28.4902L 33.7051 28.4902C 34.9707 28.4902 35.9404 28.7129 36.6143 29.1582C 37.2939 29.5977 37.6338 30.2451 37.6338 31.1006C 37.6338 31.54 37.502 31.9385 37.2383 32.2959C 36.9746 32.6475 36.585 32.917 36.0693 33.1045C 36.6436 33.2393 37.1035 33.5029 37.4492 33.8955C 37.8008 34.2881 37.9766 34.7568 37.9766 35.3018C 37.9766 36.1748 37.6543 36.8428 37.0098 37.3057C 36.3711 37.7686 35.4658 38 34.2939 38L 29.9961 38ZM 31.6221 33.8252L 31.6221 36.6904L 34.3115 36.6904C 34.9912 36.6904 35.498 36.5645 35.832 36.3125C 36.1719 36.0605 36.3418 35.7061 36.3418 35.249C 36.3418 34.2998 35.6445 33.8252 34.25 33.8252L 31.6221 33.8252ZM 31.6221 32.5244L 33.7227 32.5244C 35.2461 32.5244 36.0078 32.0791 36.0078 31.1885C 36.0078 30.2979 35.2871 29.8379 33.8457 29.8086L 31.6221 29.8086L 31.6221 32.5244ZM 41.9053 31.7686L 44.375 31.7686C 45.4531 31.7803 46.3057 32.0615 46.9326 32.6123C 47.5596 33.1631 47.873 33.9102 47.873 34.8535C 47.873 35.8027 47.5508 36.5645 46.9062 37.1387C 46.2617 37.7129 45.3945 38 44.3047 38L 40.2793 38L 40.2793 28.4902L 41.9053 28.4902L 41.9053 31.7686ZM 51.2656 38L 49.6309 38L 49.6309 28.4902L 51.2656 28.4902L 51.2656 38ZM 41.9053 33.0957L 41.9053 36.6729L 44.3223 36.6729C 44.9316 36.6729 45.4033 36.5176 45.7373 36.207C 46.0713 35.8906 46.2383 35.46 46.2383 34.915C 46.2383 34.3877 46.0742 33.957 45.7461 33.623C 45.4238 33.2832 44.9697 33.1074 44.3838 33.0957L 41.9053 33.0957ZM 61.8828 38L 60.2568 38L 60.2568 29.835L 55.8799 29.835L 55.8799 38L 54.2451 38L 54.2451 28.4902L 61.8828 28.4902L 61.8828 38ZM 64.0625 33.1572C 64.0625 32.2256 64.2441 31.3877 64.6074 30.6436C 64.9766 29.8994 65.4863 29.3252 66.1367 28.9209C 66.793 28.5166 67.54 28.3145 68.3779 28.3145C 69.6729 28.3145 70.7187 28.7627 71.5156 29.6592C 72.3184 30.5557 72.7197 31.748 72.7197 33.2363L 72.7197 33.3506C 72.7197 34.2764 72.541 35.1084 72.1836 35.8467C 71.832 36.5791 71.3252 37.1504 70.6631 37.5605C 70.0068 37.9707 69.251 38.1758 68.3955 38.1758C 67.1064 38.1758 66.0605 37.7275 65.2578 36.8311C 64.4609 35.9346 64.0625 34.748 64.0625 33.2715L 64.0625 33.1572ZM 65.6973 33.3506C 65.6973 34.4053 65.9404 35.252 66.4268 35.8906C 66.9189 36.5293 67.5752 36.8486 68.3955 36.8486C 69.2217 36.8486 69.8779 36.5264 70.3643 35.8818C 70.8506 35.2314 71.0938 34.3232 71.0938 33.1572C 71.0938 32.1143 70.8447 31.2705 70.3467 30.626C 69.8545 29.9756 69.1982 29.6504 68.3779 29.6504C 67.5752 29.6504 66.9277 29.9697 66.4355 30.6084C 65.9434 31.2471 65.6973 32.1611 65.6973 33.3506ZM 82.4141 28.4902L 82.4141 38L 80.7793 38L 80.7793 29.835L 77.5449 29.835L 77.3516 33.3945C 77.2461 35.0293 76.9707 36.1982 76.5254 36.9014C 76.0859 37.6045 75.3857 37.9707 74.4248 38L 73.7744 38L 73.7744 36.5674L 74.2402 36.5322C 74.7676 36.4736 75.1455 36.1689 75.374 35.6182C 75.6025 35.0674 75.749 34.0479 75.8135 32.5596L 75.9893 28.4902L 82.4141 28.4902ZM 92.7939 38L 91.168 38L 91.168 33.9395L 86.7998 33.9395L 86.7998 38L 85.165 38L 85.165 28.4902L 86.7998 28.4902L 86.7998 32.6123L 91.168 32.6123L 91.168 28.4902L 92.7939 28.4902L 92.7939 38ZM 99.3594 38.1758C 98.0703 38.1758 97.0215 37.7539 96.2129 36.9102C 95.4043 36.0605 95 34.9268 95 33.5088L 95 33.21C 95 32.2666 95.1787 31.4258 95.5361 30.6875C 95.8994 29.9434 96.4033 29.3633 97.0479 28.9473C 97.6982 28.5254 98.4014 28.3145 99.1572 28.3145C 100.394 28.3145 101.354 28.7217 102.04 29.5361C 102.726 30.3506 103.068 31.5166 103.068 33.0342L 103.068 33.7109L 96.626 33.7109C 96.6494 34.6484 96.9219 35.4072 97.4434 35.9873C 97.9707 36.5615 98.6387 36.8486 99.4473 36.8486C 100.021 36.8486 100.508 36.7314 100.906 36.4971C 101.305 36.2627 101.653 35.9521 101.952 35.5654L 102.945 36.3389C 102.148 37.5635 100.953 38.1758 99.3594 38.1758ZM 99.1572 29.6504C 98.501 29.6504 97.9502 29.8906 97.5049 30.3711C 97.0596 30.8457 96.7842 31.5137 96.6787 32.375L 101.442 32.375L 101.442 32.252C 101.396 31.4258 101.173 30.7871 100.774 30.3359C 100.376 29.8789 99.8369 29.6504 99.1572 29.6504ZM 112.728 38L 111.102 38L 111.102 33.9395L 106.733 33.9395L 106.733 38L 105.099 38L 105.099 28.4902L 106.733 28.4902L 106.733 32.6123L 111.102 32.6123L 111.102 28.4902L 112.728 28.4902L 112.728 38ZM 121.499 28.4902L 123.125 28.4902L 123.125 38L 121.499 38L 121.499 31.0654L 117.113 38L 115.487 38L 115.487 28.4902L 117.113 28.4902L 117.113 35.4336L 121.499 28.4902ZM 133.004 28.4902L 133.004 38L 131.369 38L 131.369 34.2998L 128.917 34.2998L 126.676 38L 124.918 38L 127.309 34.0537C 126.699 33.8311 126.23 33.4883 125.902 33.0254C 125.58 32.5566 125.419 32.0117 125.419 31.3906C 125.419 30.5234 125.744 29.8262 126.395 29.2988C 127.045 28.7656 127.915 28.4961 129.005 28.4902L 133.004 28.4902ZM 127.054 31.4082C 127.054 31.8711 127.212 32.2461 127.528 32.5332C 127.845 32.8145 128.264 32.958 128.785 32.9639L 131.369 32.9639L 131.369 29.8086L 129.031 29.8086C 128.428 29.8086 127.947 29.958 127.59 30.2568C 127.232 30.5498 127.054 30.9336 127.054 31.4082Z"/>
<path id="path13_fill" d="M 5.47559 13L 3.5 13L 3.5 5.38477L 1.1416 6.11621L 1.1416 4.50977L 5.26367 3.0332L 5.47559 3.0332L 5.47559 13Z"/>
<path id="path14_fill" d="M 7.49902 13L 0.676758 13L 0.676758 11.6465L 3.89648 8.21484C 4.33854 7.73177 4.66439 7.31022 4.87402 6.9502C 5.08822 6.59017 5.19531 6.24837 5.19531 5.9248C 5.19531 5.48275 5.08366 5.13639 4.86035 4.88574C 4.63704 4.63053 4.31803 4.50293 3.90332 4.50293C 3.45671 4.50293 3.10352 4.65788 2.84375 4.96777C 2.58854 5.27311 2.46094 5.67643 2.46094 6.17773L 0.478516 6.17773C 0.478516 5.57161 0.62207 5.0179 0.90918 4.5166C 1.20085 4.0153 1.611 3.62337 2.13965 3.34082C 2.66829 3.05371 3.26758 2.91016 3.9375 2.91016C 4.96289 2.91016 5.75814 3.15625 6.32324 3.64844C 6.8929 4.14062 7.17773 4.83561 7.17773 5.7334C 7.17773 6.22559 7.05013 6.72689 6.79492 7.2373C 6.53971 7.74772 6.10221 8.34245 5.48242 9.02148L 3.21973 11.4072L 7.49902 11.4072L 7.49902 13Z"/>
<path id="path15_fill" d="M 2.68652 7.14844L 3.73926 7.14844C 4.24056 7.14844 4.61198 7.02311 4.85352 6.77246C 5.09505 6.52181 5.21582 6.18913 5.21582 5.77441C 5.21582 5.37337 5.09505 5.0612 4.85352 4.83789C 4.61654 4.61458 4.28841 4.50293 3.86914 4.50293C 3.49089 4.50293 3.17415 4.60775 2.91895 4.81738C 2.66374 5.02246 2.53613 5.29134 2.53613 5.62402L 0.560547 5.62402C 0.560547 5.10449 0.699544 4.63965 0.977539 4.22949C 1.26009 3.81478 1.65202 3.49121 2.15332 3.25879C 2.65918 3.02637 3.21517 2.91016 3.82129 2.91016C 4.87402 2.91016 5.69889 3.16309 6.2959 3.66895C 6.8929 4.17025 7.19141 4.86296 7.19141 5.74707C 7.19141 6.2028 7.05241 6.62207 6.77441 7.00488C 6.49642 7.3877 6.13184 7.68164 5.68066 7.88672C 6.24121 8.08724 6.6582 8.38802 6.93164 8.78906C 7.20964 9.1901 7.34863 9.66406 7.34863 10.2109C 7.34863 11.0951 7.02506 11.8037 6.37793 12.3369C 5.73535 12.8701 4.88314 13.1367 3.82129 13.1367C 2.8278 13.1367 2.01432 12.8747 1.38086 12.3506C 0.751953 11.8265 0.4375 11.1338 0.4375 10.2725L 2.41309 10.2725C 2.41309 10.6462 2.55208 10.9515 2.83008 11.1885C 3.11263 11.4255 3.45898 11.5439 3.86914 11.5439C 4.33854 11.5439 4.7054 11.4209 4.96973 11.1748C 5.23861 10.9242 5.37305 10.5938 5.37305 10.1836C 5.37305 9.1901 4.82617 8.69336 3.73242 8.69336L 2.68652 8.69336L 2.68652 7.14844Z"/>
<path id="path16_fill" d="M 6.52148 9.25391L 7.64941 9.25391L 7.64941 10.8467L 6.52148 10.8467L 6.52148 13L 4.5459 13L 4.5459 10.8467L 0.464844 10.8467L 0.375977 9.60254L 4.52539 3.04688L 6.52148 3.04688L 6.52148 9.25391ZM 2.34473 9.25391L 4.5459 9.25391L 4.5459 5.74023L 4.41602 5.96582L 2.34473 9.25391Z"/>
<path id="path17_fill" d="M 0.970703 8.10547L 1.54492 3.04688L 7.12305 3.04688L 7.12305 4.69434L 3.16504 4.69434L 2.91895 6.83398C 3.38835 6.58333 3.88737 6.45801 4.41602 6.45801C 5.36393 6.45801 6.10677 6.75195 6.64453 7.33984C 7.18229 7.92773 7.45117 8.75033 7.45117 9.80762C 7.45117 10.4502 7.31445 11.0267 7.04102 11.5371C 6.77214 12.043 6.38477 12.4372 5.87891 12.7197C 5.37305 12.9977 4.77604 13.1367 4.08789 13.1367C 3.48633 13.1367 2.92806 13.016 2.41309 12.7744C 1.89811 12.5283 1.49023 12.1842 1.18945 11.7422C 0.893229 11.3001 0.736003 10.7965 0.717773 10.2314L 2.67285 10.2314C 2.71387 10.6462 2.85742 10.9697 3.10352 11.2021C 3.35417 11.43 3.68001 11.5439 4.08105 11.5439C 4.52767 11.5439 4.87174 11.3844 5.11328 11.0654C 5.35482 10.7419 5.47559 10.2861 5.47559 9.69824C 5.47559 9.13314 5.33659 8.7002 5.05859 8.39941C 4.7806 8.09863 4.38639 7.94824 3.87598 7.94824C 3.40658 7.94824 3.02604 8.07129 2.73438 8.31738L 2.54297 8.49512L 0.970703 8.10547Z"/>
<path id="path18_fill" d="M 6.03613 2.94434L 6.03613 4.57129L 5.84473 4.57129C 4.9515 4.58496 4.23145 4.81738 3.68457 5.26855C 3.14225 5.71973 2.81641 6.34635 2.70703 7.14844C 3.23568 6.61068 3.90332 6.3418 4.70996 6.3418C 5.57585 6.3418 6.264 6.65169 6.77441 7.27148C 7.28483 7.89128 7.54004 8.70703 7.54004 9.71875C 7.54004 10.3659 7.39876 10.9515 7.11621 11.4756C 6.83822 11.9997 6.44173 12.4076 5.92676 12.6992C 5.41634 12.9909 4.83757 13.1367 4.19043 13.1367C 3.14225 13.1367 2.2946 12.7721 1.64746 12.043C 1.00488 11.3138 0.683594 10.3408 0.683594 9.12402L 0.683594 8.41309C 0.683594 7.33301 0.886393 6.38053 1.29199 5.55566C 1.70215 4.72624 2.28776 4.08594 3.04883 3.63477C 3.81445 3.17904 4.70085 2.94889 5.70801 2.94434L 6.03613 2.94434ZM 4.1084 7.92773C 3.78939 7.92773 3.5 8.01204 3.24023 8.18066C 2.98047 8.34473 2.78906 8.56348 2.66602 8.83691L 2.66602 9.43848C 2.66602 10.0993 2.7959 10.6165 3.05566 10.9902C 3.31543 11.3594 3.68001 11.5439 4.14941 11.5439C 4.57324 11.5439 4.91504 11.3776 5.1748 11.0449C 5.43913 10.7077 5.57129 10.2725 5.57129 9.73926C 5.57129 9.19694 5.43913 8.75944 5.1748 8.42676C 4.91048 8.09408 4.55501 7.92773 4.1084 7.92773Z"/>
</defs>
</svg>
