<svg width="163" height="44" viewBox="0 0 163 44" version="1.1" xmlns="http://www.w3.org/2000/svg" xmlns:xlink="http://www.w3.org/1999/xlink">
<title>logo-main</title>
<desc>Created using Figma</desc>
<g id="Canvas" transform="translate(112 4791)">
<g id="logo-main">
<g id="Shape">
<use xlink:href="#path0_fill" transform="translate(-111.851 -4776.22)" fill="#3D3D3D"/>
</g>
<g id="Shape">
<use xlink:href="#path1_fill" transform="translate(-111.554 -4790.56)" fill="#3D3D3D"/>
</g>
<g id="Shape">
<use xlink:href="#path2_fill" transform="translate(-4.83617 -4776.51)" fill="#3D3D3D"/>
</g>
<g id="Shape">
<use xlink:href="#path3_fill" transform="translate(-54.4793 -4776.22)" fill="#3D3D3D"/>
</g>
<g id="Shape">
<use xlink:href="#path4_fill" transform="translate(-4.83617 -4756.79)" fill="#3D3D3D"/>
</g>
</g>
</g>
<defs>
<path id="path0_fill" fill-rule="evenodd" d="M 43.1529 3.60889L 43.1529 15.1774C 43.1529 22.6426 37.059 28.7235 29.5778 28.7235L 13.6246 28.7235C 6.09392 28.7235 0 22.6426 0 15.1774L 0 3.60889L 9.51246 3.60889L 9.51246 15.1774C 9.51246 18.6875 12.386 21.555 15.9036 21.555L 27.2492 21.555C 30.7669 21.555 33.6404 18.6875 33.6404 15.1774L 33.6404 3.60889L 43.1529 3.60889L 43.1529 3.60889ZM 18.4799 0L 24.7225 0C 25.7134 0 26.5556 0.791011 26.5556 1.82921L 26.5556 12.5573C 26.5556 13.5461 25.7629 14.3865 24.7225 14.3865C 22.6416 14.3865 20.5608 14.3865 18.4799 14.3865C 17.4891 14.3865 16.6468 13.5955 16.6468 12.5573C 16.6468 8.99775 16.6468 5.38876 16.6468 1.82921C 16.6468 0.840449 17.4891 0 18.4799 0L 18.4799 0Z"/>
<path id="path1_fill" fill-rule="evenodd" d="M 33.3927 0.642578C 38.0003 2.12572 41.5675 5.9819 42.6079 10.7774L 33.3927 10.7774L 33.3927 0.642578L 33.3927 0.642578ZM 13.3274 0L 26.2584 0L 26.2584 7.16854L 15.6064 7.16854C 13.0796 7.16854 10.8997 8.65168 9.85927 10.7775L 0 10.7775C 1.28815 4.64719 6.78754 0 13.3274 0L 13.3274 0Z"/>
<path id="path2_fill" fill-rule="evenodd" d="M 48.7018 0C 53.3094 0 55.8362 1.53271 55.8362 7.31689C 55.8362 13.2002 53.359 14.9302 48.7018 14.9302C 44.0447 14.9302 41.5675 13.2002 41.5675 7.31689C 41.5675 1.53271 44.0447 0 48.7018 0ZM 0 0.345703L 0 14.6333L 6.49027 14.6333C 11.0979 14.6333 13.3769 12.9526 13.3769 7.36621C 13.3769 1.7793 11.1474 0.296387 6.49027 0.296387L 0 0.296387L 0 0.345703ZM 23.038 11.1729C 20.8581 11.1729 20.1149 10.9751 19.9167 8.99756L 19.9167 8.94824L 25.8125 8.94824L 25.8125 5.58643L 19.9663 5.58643C 20.214 3.90527 21.0067 3.75684 23.038 3.75684L 27.2988 3.75684L 27.2988 0.296387L 22.5426 0.296387C 17.8854 0.296387 15.6559 1.7793 15.6559 7.36621C 15.6559 12.9526 17.935 14.6333 22.5426 14.6333L 27.2988 14.6333L 27.2988 11.1729L 23.038 11.1729ZM 29.776 0.346191L 29.776 7.41602C 29.776 12.9531 32.0055 14.6338 36.6626 14.6338L 39.8334 14.6338L 39.8334 11.1733L 37.1581 11.1733C 34.5322 11.1733 33.9872 10.8271 33.9872 7.46533L 33.9872 0.346191L 29.776 0.346191ZM 6.04438 11.1729C 8.67021 11.1729 9.2152 10.8267 9.2152 7.46484C 9.2152 4.05371 8.62067 3.80664 6.04438 3.80664L 4.01307 3.80664L 4.01307 11.1729L 6.04438 11.1729ZM 51.6249 7.31689C 51.6249 10.9751 51.3277 11.3213 48.7018 11.3213C 46.0264 11.3213 45.7292 10.9751 45.7787 7.31689C 45.7787 3.90527 46.0264 3.60889 48.7018 3.60889C 51.3277 3.60889 51.6249 3.90527 51.6249 7.31689Z"/>
<path id="path3_fill" fill-rule="evenodd" d="M 24.9702 8.70117C 25.1684 10.6787 25.9116 10.8765 28.0915 10.8765L 32.3523 10.8765L 32.3523 14.3369L 27.5961 14.3369C 22.9885 14.3369 20.7094 12.6562 20.7094 7.06982C 20.7094 1.48291 22.9389 0 27.5961 0L 32.3523 0L 32.3523 3.46045L 28.0915 3.46045C 26.0602 3.46045 25.2675 3.60889 25.0198 5.29004L 30.866 5.29004L 30.866 8.65186L 24.9702 8.65186L 24.9702 8.70117ZM 6.88663 14.3369C 2.27903 14.3369 0 12.6562 0 7.06934L 0 0.0493164L 4.21125 0.0493164L 4.21125 7.16846C 4.21125 10.481 4.75623 10.8765 7.28298 10.8765L 7.28298 0.0493164L 11.197 0.0493164L 11.197 10.8765C 13.7733 10.8765 14.3182 10.481 14.3182 7.16846L 14.3182 0.0493164L 18.5295 0.0493164L 18.5295 7.11914C 18.5295 12.7056 16.3 14.3862 11.6429 14.3862C 10.107 14.3369 8.52158 14.3369 6.88663 14.3369ZM 42.1125 3.36182L 38.7435 3.36182L 38.7435 5.38867L 42.1125 5.38867C 42.4593 5.38867 42.707 5.29004 42.707 4.3999C 42.707 3.55957 42.4593 3.36182 42.1125 3.36182ZM 38.7435 10.9751L 38.7435 8.55273L 42.1125 8.55273C 42.6079 8.55273 42.9547 8.7998 42.9547 9.78857C 42.9547 10.728 42.6574 10.9751 42.2116 10.9751L 38.7435 10.9751ZM 46.9678 3.50977C 46.9678 5.53711 46.4228 6.67383 43.8465 6.87158C 46.5714 7.02002 47.166 8.20654 47.2155 10.5303C 47.2155 13.4473 45.6796 14.3369 43.3511 14.3369L 34.8295 14.3369L 34.8295 0.0493164L 43.3511 0.0493164C 46.2246 0.0493164 46.9678 1.0874 46.9678 3.50977Z"/>
<path id="path4_fill" fill-rule="evenodd" d="M 2.37812 0C 3.07173 0 3.76535 0.0986328 4.1617 0.24707L 3.81489 1.43359C 3.75288 1.4248 3.68612 1.41455 3.61461 1.40332C 3.28616 1.35205 2.85748 1.28516 2.32857 1.28516C 1.58541 1.28516 1.48632 1.43359 1.48632 1.63135C 1.48632 1.92822 1.58541 1.97754 2.4772 2.07617C 3.66626 2.22461 4.21125 2.71924 4.21125 3.70801C 4.21125 5.09229 3.56717 5.48779 1.83313 5.48779C 1.13951 5.48779 0.495441 5.38867 0.0495439 5.24023L 0.346808 4.00439L 0.524146 4.03076C 0.865883 4.08252 1.3319 4.15283 1.83313 4.15283C 2.57629 4.15283 2.67538 4.05371 2.67538 3.80664C 2.67538 3.55957 2.57629 3.46045 1.58541 3.36182C 0.49544 3.21338 0 2.86719 0 1.87842C 0 0.543945 0.693617 0 2.37812 0ZM 9.90881 1.38379L 9.90881 5.38867L 8.47204 5.38867L 8.47204 1.38379L 6.73799 1.38379L 6.73799 0.0986328L 11.6429 0.0986328L 11.6429 1.38379L 9.90881 1.38379ZM 17.5386 0.148438L 18.9754 0.148438L 18.9754 4.0542C 18.9754 5.19092 18.034 5.53711 16.6964 5.53711C 15.3091 5.53711 14.4173 5.24072 14.4173 4.0542L 14.4173 0.148438L 15.8541 0.148438L 15.8541 3.70801C 15.8541 4.00439 16.0523 4.15283 16.6964 4.15283C 17.3404 4.15283 17.5386 4.00439 17.5386 3.70801L 17.5386 0.148438ZM 22.0471 5.38867L 22.0471 0.148438L 24.4252 0.148438C 26.1097 0.148438 26.952 0.692383 26.952 2.71924C 26.952 4.79541 26.1097 5.38867 24.4252 5.38867L 22.0471 5.38867ZM 25.4161 2.76855C 25.4161 4.00439 25.2179 4.15283 24.2271 4.15283L 23.4839 4.15283L 23.4839 1.38428L 24.2271 1.38428C 25.2179 1.38428 25.4161 1.48291 25.4161 2.76855ZM 29.8255 5.38867L 31.2623 5.38867L 31.2623 0.148438L 29.8255 0.148438L 29.8255 5.38867ZM 37.2076 0C 38.8921 0 39.8334 0.543945 39.8334 2.66943C 39.8334 4.84473 38.9416 5.48779 37.2076 5.48779C 35.5231 5.48779 34.5818 4.84473 34.5818 2.66943C 34.5818 0.543945 35.4736 0 37.2076 0ZM 38.2976 2.66943C 38.2976 4.00439 38.1985 4.15234 37.2076 4.15234C 36.2167 4.15234 36.1176 4.05371 36.1176 2.66943C 36.1176 1.38379 36.2167 1.28516 37.2076 1.28516C 38.1985 1.28516 38.2976 1.43359 38.2976 2.66943Z"/>
</defs>
</svg>
