<svg width="1057" height="608" viewBox="0 0 1057 608" version="1.1" xmlns="http://www.w3.org/2000/svg" xmlns:xlink="http://www.w3.org/1999/xlink">
<title>Group 37</title>
<desc>Created using Figma</desc>
<g id="Canvas" transform="translate(29 -4327)">
<g id="Group 37">
<g id="Rectangle 12">
<use xlink:href="#path0_fill" transform="translate(345 4327)" fill="#FFFFFF"/>
<mask id="mask0_outline_ins">
<use xlink:href="#path0_fill" fill="white" transform="translate(345 4327)"/>
</mask>
<g mask="url(#mask0_outline_ins)">
<use xlink:href="#path1_stroke_2x" transform="translate(345 4327)" fill="#6772E5"/>
</g>
</g>
<g id="boss (1)">
<g id="Shape">
<use xlink:href="#path2_fill" transform="translate(905.688 4546.66)" fill="#E6AF78"/>
</g>
<g id="Shape">
<use xlink:href="#path3_fill" transform="translate(905.688 4546.66)" fill="#D29B6E"/>
</g>
<g id="Shape">
<use xlink:href="#path4_fill" transform="translate(884.992 4551.89)" fill="#EFF2FA"/>
</g>
<g id="Group">
<g id="Shape">
<use xlink:href="#path5_fill" transform="translate(884.992 4561.38)" fill="#E4EAF6"/>
</g>
<g id="Shape">
<use xlink:href="#path6_fill" transform="translate(934.937 4560.26)" fill="#E4EAF6"/>
</g>
</g>
<g id="Shape">
<use xlink:href="#path7_fill" transform="translate(898.352 4507.98)" fill="#785550"/>
</g>
<g id="Shape">
<use xlink:href="#path8_fill" transform="translate(900.581 4521.15)" fill="#F0C087"/>
</g>
<g id="Shape">
<use xlink:href="#path9_fill" transform="translate(900.581 4521.15)" fill="#E6AF78"/>
</g>
<g id="Shape">
<use xlink:href="#path10_fill" transform="translate(902.525 4507.98)" fill="#694B4B"/>
</g>
<g id="Shape">
<use xlink:href="#path11_fill" transform="translate(900.491 4551.94)" fill="#E4EAF6"/>
</g>
<g id="SVGCleanerId_0">
<use xlink:href="#path12_fill" transform="translate(914.986 4551.89)" fill="#E4EAF6"/>
</g>
<g id="SVGCleanerId_0_1_">
<use xlink:href="#path12_fill" transform="translate(914.986 4551.89)" fill="#E4EAF6"/>
</g>
<g id="Shape">
<use xlink:href="#path13_fill" transform="translate(911.903 4567.19)" fill="#5B5D6E"/>
</g>
<g id="Shape">
<use xlink:href="#path14_fill" transform="translate(911.888 4561.33)" fill="#515262"/>
</g>
</g>
<g id="Oval 10">
<use xlink:href="#path15_fill" transform="translate(-27 4482)" fill="#FFFFFF"/>
<use xlink:href="#path16_stroke" transform="translate(-27 4482)" fill="#DCA9E3"/>
</g>
<g id="&#208;&#154;&#208;&#187;&#208;&#184;&#208;&#181;&#208;&#189;&#209;&#130;">
<use xlink:href="#path17_fill" transform="translate(-25 4616)" fill="#1E1E1E"/>
</g>
<g id="boy">
<g id="Shape">
<use xlink:href="#path18_fill" transform="translate(27.7364 4544.23)" fill="#EAB883"/>
</g>
<g id="Shape">
<use xlink:href="#path19_fill" transform="translate(27.7364 4544.23)" fill="#DDA36F"/>
</g>
<g id="Shape">
<use xlink:href="#path20_fill" transform="translate(7.18509 4549.24)" fill="#4DADE2"/>
</g>
<g id="Shape">
<use xlink:href="#path21_fill" transform="translate(7.18509 4552.21)" fill="#2794C4"/>
</g>
<g id="Shape">
<use xlink:href="#path22_fill" transform="translate(16.4519 4504.11)" fill="#DD9A5E"/>
</g>
<g id="Shape">
<use xlink:href="#path23_fill" transform="translate(16.4518 4504.11)" fill="#CE884E"/>
</g>
<g id="Group">
<g id="Shape">
<use xlink:href="#path24_fill" transform="translate(15.6026 4523.81)" fill="#EAB883"/>
</g>
<g id="Shape">
<use xlink:href="#path25_fill" transform="translate(47.1844 4523.81)" fill="#EAB883"/>
</g>
</g>
<g id="Group">
<g id="Shape">
<use xlink:href="#path26_fill" transform="translate(15.5994 4525.96)" fill="#DDA36F"/>
</g>
<g id="Shape">
<use xlink:href="#path27_fill" transform="translate(47.1843 4525.96)" fill="#DDA36F"/>
</g>
</g>
<g id="Shape">
<use xlink:href="#path28_fill" transform="translate(19.8554 4519.3)" fill="#F7CF9C"/>
</g>
<g id="Shape">
<use xlink:href="#path29_fill" transform="translate(19.8552 4523.06)" fill="#EAB883"/>
</g>
<g id="Group">
<g id="Shape">
<use xlink:href="#path30_fill" transform="translate(23.7301 4549.24)" fill="#91CBF2"/>
</g>
</g>
</g>
<g id="Oval 10 Copy">
<use xlink:href="#path16_stroke" transform="translate(853 4481)" fill="#F8A5A0"/>
</g>
<g id="Path 4">
<use xlink:href="#path31_stroke" transform="translate(123 4508)" fill="url(#paint33_linear)"/>
</g>
<g id="Path 4 Copy">
<use xlink:href="#path32_stroke" transform="matrix(-1 0 0 1 831.321 4508)" fill="url(#paint34_linear)"/>
</g>
<g id="Group 4">
<g id="Group 2 Copy 2">
<g id="Oval 11">
<use xlink:href="#path33_fill" transform="translate(524 4439)" fill="#FFFFFF"/>
<use xlink:href="#path34_stroke" transform="translate(524 4439)" fill="#6772E5"/>
</g>
</g>
</g>
<g id="Line">
<use xlink:href="#path35_stroke" transform="translate(479.5 4508.5)" fill="url(#paint37_linear)"/>
</g>
<g id="Group 3">
<g id="Group 2 Copy">
<g id="Oval 11">
<use xlink:href="#path33_fill" transform="translate(457 4439)" fill="#FFFFFF"/>
<use xlink:href="#path34_stroke" transform="translate(457 4439)" fill="#6772E5"/>
</g>
</g>
</g>
<g id="Group 5">
<g id="Stooler">
<use xlink:href="#path36_fill" transform="translate(426 4915.73)" fill="#1E1E1E"/>
</g>
<g id="Oval 10 Copy 2">
<use xlink:href="#path16_stroke" transform="translate(424 4780.73)" fill="#A79FCA"/>
</g>
<g id="employee">
<g id="Shape">
<use xlink:href="#path37_fill" transform="translate(456.063 4849.31)" fill="#E4EAF8"/>
</g>
<g id="Rectangle-path">
<use xlink:href="#path38_fill" transform="translate(473.322 4839.5)" fill="#E6AF78"/>
</g>
<g id="Shape">
<use xlink:href="#path39_fill" transform="translate(473.322 4839.5)" fill="#D29B6E"/>
</g>
<g id="Shape">
<use xlink:href="#path40_fill" transform="translate(465.925 4802.73)" fill="#694B4B"/>
</g>
<g id="Shape">
<use xlink:href="#path41_fill" transform="translate(465.925 4805.2)" fill="#5A4146"/>
</g>
<g id="Shape">
<use xlink:href="#path42_fill" transform="translate(456.063 4854.88)" fill="#D5DCED"/>
</g>
<g id="Shape">
<use xlink:href="#path42_fill" transform="matrix(-1 0 0 1 507.63 4854.73)" fill="#D5DCED"/>
</g>
<g id="Shape">
<use xlink:href="#path43_fill" transform="translate(479.487 4855.44)" fill="#B4E66E"/>
</g>
<g id="Shape">
<use xlink:href="#path44_fill" transform="translate(479.487 4851.76)" fill="#A0D755"/>
</g>
<g id="Group">
<g id="Shape">
<use xlink:href="#path45_fill" transform="translate(469.624 4846.07)" fill="#D5DCED"/>
</g>
<g id="Shape">
<use xlink:href="#path46_fill" transform="translate(481.952 4846.07)" fill="#D5DCED"/>
</g>
</g>
<g id="Shape">
<use xlink:href="#path47_fill" transform="translate(467.158 4814.52)" fill="#F0C087"/>
</g>
<g id="Shape">
<use xlink:href="#path48_fill" transform="translate(467.158 4814.52)" fill="#E6AF78"/>
</g>
</g>
</g>
<g id="Group 2">
<g id="Oval 11">
<use xlink:href="#path33_fill" transform="translate(391 4439)" fill="#FFFFFF"/>
<use xlink:href="#path34_stroke" transform="translate(391 4439)" fill="#6772E5"/>
</g>
<g id="credit-card (1)">
<g id="Shape">
<use xlink:href="#path49_fill" transform="translate(402 4449)" fill="#4C4C4C"/>
</g>
<g id="Shape">
<use xlink:href="#path50_fill" transform="translate(410.158 4464.58)" fill="#4C4C4C"/>
</g>
<g id="Shape">
<use xlink:href="#path51_fill" transform="translate(411.69 4468.65)" fill="#4C4C4C"/>
</g>
<g id="Shape">
<use xlink:href="#path52_fill" transform="translate(414.817 4467.03)" fill="#4C4C4C"/>
</g>
<g id="Shape">
<use xlink:href="#path53_fill" transform="translate(419.449 4457.21)" fill="#4C4C4C"/>
</g>
<g id="Shape">
<use xlink:href="#path54_fill" transform="translate(417.726 4451.78)" fill="#4C4C4C"/>
</g>
<g id="Shape">
<use xlink:href="#path55_fill" transform="translate(407.056 4467.13)" fill="#4C4C4C"/>
</g>
</g>
</g>
<g id="Group 3">
<g id="Group 2 Copy">
<g id="Oval 11">
<use xlink:href="#path33_fill" transform="translate(457 4700)" fill="#FFFFFF"/>
<use xlink:href="#path34_stroke" transform="translate(457 4700)" fill="#6772E5"/>
</g>
</g>
<g id="coin-of-dollar">
<g id="Oval">
<use xlink:href="#path56_fill" transform="translate(471 4714)" fill="#FFFFFF"/>
</g>
<g id="Shape">
<use xlink:href="#path57_fill" transform="translate(470 4713)" fill="#96C962"/>
</g>
</g>
</g>
<g id="Group 4">
<g id="Group 2 Copy 2">
<g id="Oval 11">
<use xlink:href="#path33_fill" transform="translate(776 4521)" fill="#FFFFFF"/>
<use xlink:href="#path34_stroke" transform="translate(776 4521)" fill="#6772E5"/>
</g>
</g>
<g id="coin-of-dollar copy">
<g id="Oval">
<use xlink:href="#path56_fill" transform="translate(790 4535)" fill="#FFFFFF"/>
</g>
<g id="Shape">
<use xlink:href="#path58_fill" transform="translate(789 4534)" fill="#96C862"/>
</g>
</g>
</g>
<g id="&#208;&#146;&#208;&#181;&#208;&#189;&#208;&#180;&#208;&#181;&#209;&#128;">
<use xlink:href="#path59_fill" transform="translate(856 4616)" fill="#1E1E1E"/>
</g>
<g id="Group 36">
<g id="Rectangle 13" filter="url(#filter0_d)">
<use xlink:href="#path60_fill" transform="matrix(-1 -1.22465e-16 1.22465e-16 -1 1015 4765.32)" fill="#FFFFFF"/>
</g>
<g id="&#208;&#159;&#208;&#190;&#209;&#129;&#208;&#187;&#208;&#181; &#208;&#183;&#208;&#176;&#208;&#178;&#208;&#181;&#209;&#128;&#209;&#136;&#208;&#181;&#208;&#189;&#208;&#184;&#209;&#143; &#208;&#183;&#208;&#176;&#208;&#186;">
<use xlink:href="#path61_fill" transform="translate(662 4637)" fill="#555555"/>
</g>
<g id="6">
<use xlink:href="#path62_fill" transform="translate(586 4617)" fill="#E3E3E3"/>
</g>
</g>
<g id="stripe">
<g id="Stripe">
<g id="Vector">
<use xlink:href="#path63_fill" transform="translate(517.757 4379.6)" fill="#6772E5"/>
</g>
<g id="Vector">
<use xlink:href="#path64_fill" transform="translate(487.873 4379.6)" fill="#6772E5"/>
</g>
<g id="Vector">
<use xlink:href="#path65_fill" transform="translate(475.26 4368)" fill="#6772E5"/>
</g>
<g id="Vector">
<use xlink:href="#path66_fill" transform="translate(475.26 4380.23)" fill="#6772E5"/>
</g>
<g id="Vector">
<use xlink:href="#path67_fill" transform="translate(456.89 4379.85)" fill="#6772E5"/>
</g>
<g id="Vector">
<use xlink:href="#path68_fill" transform="translate(438.08 4372.26)" fill="#6772E5"/>
</g>
<g id="Vector">
<use xlink:href="#path69_fill" transform="translate(413 4379.6)" fill="#6772E5"/>
</g>
</g>
</g>
</g>
</g>
<defs>
<filter id="filter0_d" filterUnits="userSpaceOnUse" x="550" y="4571" width="478" height="202" color-interpolation-filters="sRGB">
<feFlood flood-opacity="0" result="BackgroundImageFix"/>
<feColorMatrix in="SourceAlpha" type="matrix" values="0 0 0 0 0 0 0 0 0 0 0 0 0 0 0 0 0 0 255 0"/>
<feOffset dx="0" dy="-6"/>
<feGaussianBlur stdDeviation="6.5"/>
<feColorMatrix type="matrix" values="0 0 0 0 0 0 0 0 0 0 0 0 0 0 0 0 0 0 0.2 0"/>
<feBlend mode="normal" in2="BackgroundImageFix" result="effect1_dropShadow"/>
<feBlend mode="normal" in="SourceGraphic" in2="effect1_dropShadow" result="shape"/>
</filter>
<linearGradient id="paint33_linear" x1="0" y1="0" x2="1" y2="0" gradientUnits="userSpaceOnUse" gradientTransform="matrix(285.273 0 0 36.3228 0 0)">
<stop offset="0" stop-color="#DCA9E3"/>
<stop offset="1" stop-color="#6772E5"/>
</linearGradient>
<linearGradient id="paint34_linear" x1="0" y1="0" x2="1" y2="0" gradientUnits="userSpaceOnUse" gradientTransform="matrix(278.371 0 0 36.3228 0 0)">
<stop offset="0" stop-color="#F8A5A0"/>
<stop offset="1" stop-color="#6772E5"/>
</linearGradient>
<linearGradient id="paint37_linear" x1="0" y1="0" x2="1" y2="0" gradientUnits="userSpaceOnUse" gradientTransform="matrix(0 244.659 -1.95942 0 0 0)">
<stop offset="0" stop-color="#6772E5"/>
<stop offset="1" stop-color="#A79FCA"/>
</linearGradient>
<path id="path0_fill" fill-rule="evenodd" d="M 0 52C 0 23.2812 23.2812 0 52 0L 220 0C 248.719 0 272 23.2812 272 52L 272 121C 272 149.719 248.719 173 220 173L 52 173C 23.2812 173 0 149.719 0 121L 0 52Z"/>
<path id="path1_stroke_2x" d="M 52 5L 220 5L 220 -5L 52 -5L 52 5ZM 267 52L 267 121L 277 121L 277 52L 267 52ZM 220 168L 52 168L 52 178L 220 178L 220 168ZM 5 121L 5 52L -5 52L -5 121L 5 121ZM 52 -5C 20.5198 -5 -5 20.5198 -5 52L 5 52C 5 26.0426 26.0426 5 52 5L 52 -5ZM 220 5C 245.957 5 267 26.0426 267 52L 277 52C 277 20.5198 251.48 -5 220 -5L 220 5ZM 267 121C 267 146.957 245.957 168 220 168L 220 178C 251.48 178 277 152.48 277 121L 267 121ZM 52 168C 26.0426 168 5 146.957 5 121L -5 121C -5 152.48 20.5198 178 52 178L 52 168Z"/>
<path id="path2_fill" d="M 18.6232 7.32298L 18.6232 0L 0 0L 0 7.32298L 9.31162 15.6921L 18.6232 7.32298Z"/>
<path id="path3_fill" d="M 0 0.000261209L 0 7.72655C 11.7301 11.9998 18.6234 1.30474 18.6234 1.30474L 18.6234 0L 0 0.000261209Z"/>
<path id="path4_fill" d="M 60.0107 15.5449C 60.0032 11.514 57.4823 7.21586 53.1441 5.99588L 44.4695 4.17852L 42.0061 0.416989C 41.652 -0.0585408 40.9776 -0.139907 40.5228 0.2378L 29.9939 9.43691L 19.4308 0.277765C 18.9746 -0.0982445 18.3005 -0.0141353 17.9482 0.462701L 15.4989 4.23351L 6.83112 6.08391C 2.49745 7.32047 -0.00734631 11.6282 1.61853e-05 15.659L 0.00479535 18.2539C 0.00763702 19.7716 1.39967 20.9994 3.11397 20.996L 26.9112 20.9509L 33.1193 20.9391L 56.9165 20.8939C 58.6308 20.8906 60.0182 19.6576 60.0154 18.1399L 60.0107 15.5449Z"/>
<path id="path5_fill" d="M 7.55226 4.16301L 2.02612 0C 0.70617 1.79868 -0.00385922 4.02562 1.57769e-05 6.17393L 0.00479494 8.76877C 0.00763661 10.2865 1.39967 11.5143 3.11397 11.5109L 9.52399 11.4988L 9.52399 8.55719C 9.52412 6.88076 8.80725 5.28334 7.55226 4.16301Z"/>
<path id="path6_fill" d="M 10.0711 9.77234L 10.0663 7.17749C 10.0616 4.60302 9.03004 1.92093 7.15609 0L 1.97186 5.28072C 0.716875 6.40105 0 7.99847 0 9.6749L 0 12.5397L 6.97242 12.5265C 8.68659 12.5233 10.074 11.2902 10.0711 9.77234Z"/>
<path id="path7_fill" d="M 2.27788 24.4271C 2.44075 20.2449 4.55328 14.987 5.07537 13.8402C 5.14202 13.694 5.17935 13.6154 5.17935 13.6154C 6.7916 13.4025 8.33592 13.2733 9.80791 13.2118C 10.2285 13.1943 10.6431 13.1823 11.0518 13.1755C 22.2895 12.987 28.9826 16.7089 28.9826 16.7089L 31.0857 21.7422C 34.0614 12.2529 33.0119 4.23408 32.0593 2.05638C 24.8186 3.11624 14.1155 -3.09687 7.37092 2.10314L 6.79768 2.10418C 2.51218 2.11241 -0.00850345 5.88022 2.15545e-05 10.4866C 0.00828822 14.9333 2.06139 23.7594 2.06139 23.7594L 2.27788 25.2116C 2.27762 25.0627 2.27219 24.8407 2.27788 24.6885C 2.27813 24.6812 2.27762 24.4344 2.27788 24.4271Z"/>
<path id="path8_fill" d="M 28.7463 14.5428C 28.7568 14.4601 28.7667 14.3774 28.7763 14.2952C 29.0267 12.1231 29.2684 9.37398 28.349 7.36124C 27.7767 6.10835 27.284 4.81198 26.7526 3.54028C 26.7526 3.54028 20.0596 -0.181417 8.82185 0.00691395C 8.41317 0.0137054 7.99854 0.025721 7.57798 0.0432219C 6.10599 0.104737 4.56168 0.233904 2.94942 0.446789C 2.94942 0.446789 2.91209 0.525413 2.84544 0.67169C -1.03085 9.18657 -1.64581 19.7679 5.46145 26.7976C 7.09128 28.4097 9.07114 29.6875 11.2741 30.3215C 11.5477 30.4004 11.8239 30.4691 12.1028 30.5273C 12.1569 30.5387 12.2111 30.5498 12.2654 30.5602C 12.9623 30.6951 13.6741 30.7658 14.3975 30.7645C 22.7837 30.7492 27.794 22.0523 28.7463 14.5428Z"/>
<path id="path9_fill" d="M 4.96248 14.4113C 4.71965 2.70729 6.64371 3.29592 6.64371 3.29592C 11.3905 2.18827 19.2496 2.97019 27.197 4.62404C 27.0502 4.26187 26.9029 3.89997 26.7526 3.54028C 26.7526 3.54028 20.0596 -0.181417 8.82185 0.00691395C 8.41317 0.0137054 7.99854 0.025721 7.57798 0.0432219C 6.10599 0.104737 4.56168 0.233904 2.94942 0.446789C 2.94942 0.446789 2.91209 0.525413 2.84544 0.67169C -1.03085 9.18657 -1.64581 19.7679 5.46145 26.7976C 7.09128 28.4097 9.07114 29.6875 11.2741 30.3215C 11.5477 30.4004 11.8239 30.4691 12.1028 30.5273C 12.1569 30.5387 12.2111 30.5498 12.2654 30.5602C 12.9605 30.6949 13.6705 30.7654 14.392 30.7644C 11.7842 29.8395 5.14254 23.0898 4.96248 14.4113Z"/>
<path id="path10_fill" d="M 27.8854 2.05638C 20.6447 3.11624 9.94153 -3.09687 3.19696 2.10314C 3.19696 2.10314 -2.17172 8.42674 1.00526 13.6155C 2.61752 13.4026 4.16184 13.2735 5.63382 13.2119C 5.64273 13.2116 5.65139 13.2114 5.66017 13.211C 6.07157 13.1942 6.47767 13.1823 6.8777 13.1756C 18.1155 12.9872 24.8085 16.709 24.8085 16.709L 26.9116 21.7424C 29.8874 12.2529 28.8378 4.23408 27.8854 2.05638Z"/>
<path id="path11_fill" d="M 11.3969 12.5389L 14.4951 9.39442L 3.93196 0.235274C 3.47575 -0.140736 2.80163 -0.0566269 2.44939 0.420209L 0 4.19102L 8.29883 15.6833L 11.3969 12.5389Z"/>
<path id="path12_fill" d="M 6.21963 15.7024L 14.4756 4.17852L 12.0121 0.416989C 11.6581 -0.0585408 10.9837 -0.139907 10.5289 0.2378L 0 9.43691L 3.10982 12.5696L 6.21963 15.7024Z"/>
<path id="path13_fill" d="M 5.02148 0.130735L 1.14157 0L 0 5.65112L 6.20801 5.63936L 5.02148 0.130735Z"/>
<path id="path14_fill" d="M 0.0019375 4.19057C 0.00413333 5.34132 0.936975 6.28115 2.07519 6.27906L 4.14457 6.27514C 5.28266 6.27292 6.21214 5.3297 6.20995 4.17881L 6.20801 3.13267L 3.09819 0L 0 3.14443L 0.0019375 4.19057Z"/>
<path id="path15_fill" fill-rule="evenodd" d="M 60 120C 93.1371 120 120 93.1371 120 60C 120 26.8629 93.1371 0 60 0C 26.8629 0 0 26.8629 0 60C 0 93.1371 26.8629 120 60 120Z"/>
<path id="path16_stroke" d="M 60 121.5C 93.9655 121.5 121.5 93.9655 121.5 60L 118.5 60C 118.5 92.3087 92.3087 118.5 60 118.5L 60 121.5ZM 121.5 60C 121.5 26.0345 93.9655 -1.5 60 -1.5L 60 1.5C 92.3087 1.5 118.5 27.6913 118.5 60L 121.5 60ZM 60 -1.5C 26.0345 -1.5 -1.5 26.0345 -1.5 60L 1.5 60C 1.5 27.6913 27.6913 1.5 60 1.5L 60 -1.5ZM -1.5 60C -1.5 93.9655 26.0345 121.5 60 121.5L 60 118.5C 27.6913 118.5 1.5 92.3087 1.5 60L -1.5 60Z"/>
<path id="path17_fill" d="M 30.6504 12.9062L 28.9707 12.9062L 28.9707 19L 26.5098 19L 26.5098 4.78125L 28.9707 4.78125L 28.9707 10.7578L 30.3281 10.7578L 34.5078 4.78125L 37.5352 4.78125L 32.6523 11.5879L 37.9648 19L 34.9961 19L 30.6504 12.9062ZM 48.082 8.43359L 48.082 19L 45.709 19L 45.709 10.3477L 42.7207 10.3477L 42.5254 14.0293C 42.4017 15.8001 42.0599 17.0729 41.5 17.8477C 40.9466 18.6159 40.097 19 38.9512 19L 38.2188 19L 38.209 17.0273L 38.6973 16.9785C 39.2181 16.9069 39.5957 16.5911 39.8301 16.0312C 40.071 15.4648 40.224 14.4362 40.2891 12.9453L 40.4844 8.43359L 48.082 8.43359ZM 57.2031 8.43359L 59.5664 8.43359L 59.5664 19L 57.2031 19L 57.2031 11.9492L 53.0625 19L 50.6992 19L 50.6992 8.43359L 53.0625 8.43359L 53.0625 15.4844L 57.2031 8.43359ZM 66.7441 19.1953C 65.2402 19.1953 64.0195 18.7233 63.082 17.7793C 62.151 16.8288 61.6855 15.5658 61.6855 13.9902L 61.6855 13.6973C 61.6855 12.6426 61.8874 11.7018 62.291 10.875C 62.7012 10.0417 63.2741 9.39388 64.0098 8.93164C 64.7454 8.4694 65.5658 8.23828 66.4707 8.23828C 67.9095 8.23828 69.0195 8.69727 69.8008 9.61523C 70.5885 10.5332 70.9824 11.832 70.9824 13.5117L 70.9824 14.4688L 64.0781 14.4688C 64.1497 15.3411 64.4395 16.0312 64.9473 16.5391C 65.4616 17.0469 66.1061 17.3008 66.8809 17.3008C 67.9681 17.3008 68.8535 16.8613 69.5371 15.9824L 70.8164 17.2031C 70.3932 17.8346 69.8268 18.3262 69.1172 18.6777C 68.4141 19.0228 67.623 19.1953 66.7441 19.1953ZM 66.4609 10.1426C 65.8099 10.1426 65.2826 10.3704 64.8789 10.8262C 64.4818 11.2819 64.2279 11.9167 64.1172 12.7305L 68.6387 12.7305L 68.6387 12.5547C 68.5866 11.7604 68.375 11.1615 68.0039 10.7578C 67.6328 10.3477 67.1185 10.1426 66.4609 10.1426ZM 81.7832 19L 79.4102 19L 79.4102 14.7324L 75.2988 14.7324L 75.2988 19L 72.9258 19L 72.9258 8.43359L 75.2988 8.43359L 75.2988 12.8379L 79.4102 12.8379L 79.4102 8.43359L 81.7832 8.43359L 81.7832 19ZM 92.6328 10.3184L 89.2051 10.3184L 89.2051 19L 86.832 19L 86.832 10.3184L 83.4434 10.3184L 83.4434 8.43359L 92.6328 8.43359L 92.6328 10.3184Z"/>
<path id="path18_fill" d="M 11.5273 0C 11.5139 0.00623437 11.5005 0.011875 11.4871 0.0179609L 11.4871 0.0164766C 11.4862 0.0169219 11.485 0.0175156 11.4839 0.0179609L 11.4839 0C 7.98035 1.62242 3.80704 1.74295 0.0431081 0L 0.0431081 0.0179609L 0.0429595 0.0179609C 0.0419189 0.0175156 0.0408784 0.0169219 0.0398378 0.0164766L 0.0398378 0.0179609C 0.0266081 0.011875 0.0132297 0.00623437 0 0L 0 5.68694L 0.0136757 5.67773C 0.208257 8.68048 2.70749 11.0561 5.76355 11.0561C 8.82289 11.0561 11.3242 8.67528 11.5142 5.66809L 11.5271 5.66022C 11.5273 3.59219 11.5273 2.06031 11.5273 0Z"/>
<path id="path19_fill" d="M 3.71651 1.10512C 2.42386 0.908289 1.19068 0.531258 0.0431081 0L 0.0431081 0.0179609L 0.0429595 0.0179609C 0.0419189 0.0175156 0.0408784 0.0169219 0.0398378 0.0164766L 0.0398378 0.0179609C 0.0266081 0.011875 0.0132297 0.00623437 0 0L 0 5.68694L 0.0136757 5.67773C 0.162324 7.97169 1.65684 9.89841 3.71651 10.6807L 3.71651 1.10512Z"/>
<path id="path20_fill" d="M 52.5756 24.7175L 49.3272 8.42591C 48.7134 5.35577 46.4546 4.10741 45.2101 3.64384C 45.1951 3.63939 44.358 3.39284 44.3731 3.39729L 32.0786 0.348531L 32.0657 0.356398C 31.8757 3.36359 29.3744 5.74438 26.3151 5.74438C 23.1356 5.74438 20.5578 3.17345 20.5518 0L 8.25693 3.39729L 8.25708 3.39729C 8.09059 3.4724 4.1511 4.18371 3.30291 8.42591L 0.0541982 24.7175C -0.110059 25.8759 -0.12745 28.6446 3.47014 28.6446C 9.17558 28.6446 43.646 28.6446 49.1597 28.6446C 52.7574 28.6446 52.7399 25.8759 52.5756 24.7175Z"/>
<path id="path21_fill" d="M 3.77056 21.7495L 7.01913 4.12196C 7.44843 1.97511 8.68177 0.719922 9.81046 0L 8.25663 0.429281L 8.25678 0.429281C 8.09029 0.504391 4.15081 1.2157 3.30262 5.4579L 0.0541982 21.7495C -0.110059 22.9079 -0.12745 25.6766 3.47014 25.6766L 7.18666 25.6766C 3.58891 25.6766 3.60631 22.9079 3.77056 21.7495Z"/>
<path id="path22_fill" d="M 17.0681 0C 7.64188 0 0 7.62969 0 17.0436L 0 21.3943L 34.1358 21.3943L 34.1358 17.0436C 34.1358 7.62984 26.4941 0 17.0681 0Z"/>
<path id="path23_fill" d="M 18.7699 0.0849305C 8.69565 -0.910788 0 6.97629 0 17.0445L 0 21.3952L 3.40346 21.3952L 3.40346 17.0445C 3.40361 8.20416 10.1427 0.937704 18.7699 0.0849305Z"/>
<path id="path24_fill" d="M 0 3.55612C 0 5.52039 1.90419 7.11238 4.25284 7.11238L 4.25284 0C 1.90404 -4.21885e-15 0 1.59199 0 3.55612Z"/>
<path id="path25_fill" d="M 4.25299 3.55612C 4.25299 5.52039 2.3488 7.11238 0 7.11238L 0 0C 2.3488 -4.21885e-15 4.25299 1.59199 4.25299 3.55612Z"/>
<path id="path26_fill" d="M 0.351279 0C -0.851734 2.32602 1.17881 4.96642 4.25598 4.96642L 4.25598 2.14596C 2.50654 2.14596 1.00444 1.26246 0.351279 0Z"/>
<path id="path27_fill" d="M 0 2.14596L 0 4.96642C 3.09264 4.96642 5.10311 2.31652 3.90485 0C 3.25169 1.26246 1.74959 2.14596 0 2.14596Z"/>
<path id="path28_fill" d="M 0 5.13398L 0 12.6486C 0 20.468 6.49015 26.8372 14.3122 26.4728C 21.5579 26.1352 27.3289 20.1627 27.3289 12.8426C 27.3289 12.6134 27.3289 1.46238 27.3289 1.85113C 27.3289 1.03428 26.3915 0.578727 25.7427 1.07659C 24.2691 2.20709 21.7064 3.64263 17.7971 4.14909C 17.5209 4.18487 17.2968 3.92659 17.3717 3.65881L 18.2804 0.410844C 18.3603 0.125102 18.0452 -0.107648 17.7949 0.052071C 15.6023 1.4508 8.73266 5.30438 1.65089 3.79537C 0.800473 3.61398 0 4.26547 0 5.13398Z"/>
<path id="path29_fill" d="M 3.71651 9.078L 3.71651 0.324936C 3.03288 0.272537 2.343 0.177834 1.65104 0.0304359C 0.800473 -0.150806 0 0.500537 0 1.36919L 0 8.88384C 0 17.1459 7.22239 23.7239 15.5226 22.5969C 8.85559 21.6918 3.71651 15.9854 3.71651 9.078Z"/>
<path id="path30_fill" d="M 9.77008 9.76793C 14.7311 9.76793 18.8329 6.10182 19.5112 1.3349L 15.5336 0.348531L 15.5207 0.356398C 15.3307 3.36359 12.8294 5.74438 9.77008 5.74438C 6.59064 5.74438 4.01277 3.17345 4.00682 0L 0 1.1072C 0.578095 5.98426 4.7303 9.76793 9.77008 9.76793Z"/>
<path id="path31_stroke" d="M 291.821 0C 291.821 -1.38071 290.702 -2.5 289.321 -2.5C 287.94 -2.5 286.821 -1.38071 286.821 0L 291.821 0ZM 0 34.3382C -1.38071 34.3382 -2.5 35.4575 -2.5 36.8382C -2.5 38.2189 -1.38071 39.3382 0 39.3382L 0 34.3382ZM 286.821 0L 286.821 21.8382L 291.821 21.8382L 291.821 0L 286.821 0ZM 274.321 34.3382L 0 34.3382L 0 39.3382L 274.321 39.3382L 274.321 34.3382ZM 286.821 21.8382C 286.821 28.7418 281.225 34.3382 274.321 34.3382L 274.321 39.3382C 283.986 39.3382 291.821 31.5032 291.821 21.8382L 286.821 21.8382Z"/>
<path id="path32_stroke" d="M 284.821 0C 284.821 -1.38071 283.702 -2.5 282.321 -2.5C 280.94 -2.5 279.821 -1.38071 279.821 0L 284.821 0ZM 0 34.3382C -1.38071 34.3382 -2.5 35.4575 -2.5 36.8382C -2.5 38.2189 -1.38071 39.3382 0 39.3382L 0 34.3382ZM 279.821 0L 279.821 21.8382L 284.821 21.8382L 284.821 0L 279.821 0ZM 267.321 34.3382L 0 34.3382L 0 39.3382L 267.321 39.3382L 267.321 34.3382ZM 279.821 21.8382C 279.821 28.7418 274.225 34.3382 267.321 34.3382L 267.321 39.3382C 276.986 39.3382 284.821 31.5032 284.821 21.8382L 279.821 21.8382Z"/>
<path id="path33_fill" fill-rule="evenodd" d="M 23.5 47C 36.4787 47 47 36.4787 47 23.5C 47 10.5213 36.4787 0 23.5 0C 10.5213 0 0 10.5213 0 23.5C 0 36.4787 10.5213 47 23.5 47Z"/>
<path id="path34_stroke" d="M 23.5 47.5C 36.7548 47.5 47.5 36.7548 47.5 23.5L 46.5 23.5C 46.5 36.2025 36.2025 46.5 23.5 46.5L 23.5 47.5ZM 47.5 23.5C 47.5 10.2452 36.7548 -0.5 23.5 -0.5L 23.5 0.5C 36.2025 0.5 46.5 10.7975 46.5 23.5L 47.5 23.5ZM 23.5 -0.5C 10.2452 -0.5 -0.5 10.2452 -0.5 23.5L 0.5 23.5C 0.5 10.7975 10.7975 0.5 23.5 0.5L 23.5 -0.5ZM -0.5 23.5C -0.5 36.7548 10.2452 47.5 23.5 47.5L 23.5 46.5C 10.7975 46.5 0.5 36.2025 0.5 23.5L -0.5 23.5Z"/>
<path id="path35_stroke" d="M 3.5 0C 3.5 -1.38071 2.38071 -2.5 1 -2.5C -0.380712 -2.5 -1.5 -1.38071 -1.5 0L 3.5 0ZM -1.5 249.726C -1.5 251.106 -0.380712 252.226 1 252.226C 2.38071 252.226 3.5 251.106 3.5 249.726L -1.5 249.726ZM -1.5 0L -1.5 249.726L 3.5 249.726L 3.5 0L -1.5 0Z"/>
<path id="path36_fill" d="M 33.2676 15.3379C 33.2676 14.7129 33.0462 14.2311 32.6035 13.8926C 32.1673 13.554 31.3763 13.2122 30.2305 12.8672C 29.0846 12.5221 28.1732 12.138 27.4961 11.7148C 26.2005 10.901 25.5527 9.83984 25.5527 8.53125C 25.5527 7.38542 26.0182 6.44141 26.9492 5.69922C 27.8867 4.95703 29.1009 4.58594 30.5918 4.58594C 31.5814 4.58594 32.4635 4.76823 33.2383 5.13281C 34.013 5.4974 34.6217 6.01823 35.0645 6.69531C 35.5072 7.36589 35.7285 8.11133 35.7285 8.93164L 33.2676 8.93164C 33.2676 8.18945 33.0332 7.61003 32.5645 7.19336C 32.1022 6.77018 31.4382 6.55859 30.5723 6.55859C 29.765 6.55859 29.1367 6.73112 28.6875 7.07617C 28.2448 7.42122 28.0234 7.90299 28.0234 8.52148C 28.0234 9.04232 28.2643 9.47852 28.7461 9.83008C 29.2279 10.1751 30.0221 10.5137 31.1289 10.8457C 32.2357 11.1712 33.1243 11.5456 33.7949 11.9688C 34.4655 12.3854 34.957 12.8672 35.2695 13.4141C 35.582 13.9544 35.7383 14.5892 35.7383 15.3184C 35.7383 16.5033 35.2826 17.4473 34.3711 18.1504C 33.4661 18.847 32.2357 19.1953 30.6797 19.1953C 29.651 19.1953 28.7038 19.0065 27.8379 18.6289C 26.9785 18.2448 26.3079 17.7174 25.8262 17.0469C 25.3509 16.3763 25.1133 15.5951 25.1133 14.7031L 27.584 14.7031C 27.584 15.5104 27.8509 16.1354 28.3848 16.5781C 28.9186 17.0208 29.6836 17.2422 30.6797 17.2422C 31.5391 17.2422 32.1836 17.0697 32.6133 16.7246C 33.0495 16.373 33.2676 15.9108 33.2676 15.3379ZM 40.6504 5.86523L 40.6504 8.43359L 42.5156 8.43359L 42.5156 10.1914L 40.6504 10.1914L 40.6504 16.0898C 40.6504 16.4935 40.7285 16.7865 40.8848 16.9688C 41.0475 17.1445 41.334 17.2324 41.7441 17.2324C 42.0176 17.2324 42.2943 17.1999 42.5742 17.1348L 42.5742 18.9707C 42.0339 19.1204 41.513 19.1953 41.0117 19.1953C 39.1888 19.1953 38.2773 18.1895 38.2773 16.1777L 38.2773 10.1914L 36.5391 10.1914L 36.5391 8.43359L 38.2773 8.43359L 38.2773 5.86523L 40.6504 5.86523ZM 43.5996 13.6191C 43.5996 12.584 43.8047 11.653 44.2148 10.8262C 44.625 9.99284 45.2012 9.35482 45.9434 8.91211C 46.6855 8.46289 47.5384 8.23828 48.502 8.23828C 49.9277 8.23828 51.0833 8.69727 51.9688 9.61523C 52.8607 10.5332 53.3424 11.7507 53.4141 13.2676L 53.4238 13.8242C 53.4238 14.8659 53.222 15.7969 52.8184 16.6172C 52.4212 17.4375 51.8483 18.0723 51.0996 18.5215C 50.3574 18.9707 49.498 19.1953 48.5215 19.1953C 47.0306 19.1953 45.8359 18.7005 44.9375 17.7109C 44.0456 16.7148 43.5996 15.39 43.5996 13.7363L 43.5996 13.6191ZM 45.9727 13.8242C 45.9727 14.9115 46.1973 15.7643 46.6465 16.3828C 47.0957 16.9948 47.7207 17.3008 48.5215 17.3008C 49.3223 17.3008 49.944 16.9883 50.3867 16.3633C 50.8359 15.7383 51.0605 14.8236 51.0605 13.6191C 51.0605 12.5514 50.8294 11.7051 50.3672 11.0801C 49.9115 10.4551 49.2897 10.1426 48.502 10.1426C 47.7272 10.1426 47.112 10.4518 46.6562 11.0703C 46.2005 11.6823 45.9727 12.6003 45.9727 13.8242ZM 54.9863 13.6191C 54.9863 12.584 55.1914 11.653 55.6016 10.8262C 56.0117 9.99284 56.5879 9.35482 57.3301 8.91211C 58.0723 8.46289 58.9251 8.23828 59.8887 8.23828C 61.3145 8.23828 62.4701 8.69727 63.3555 9.61523C 64.2474 10.5332 64.7292 11.7507 64.8008 13.2676L 64.8105 13.8242C 64.8105 14.8659 64.6087 15.7969 64.2051 16.6172C 63.8079 17.4375 63.235 18.0723 62.4863 18.5215C 61.7441 18.9707 60.8848 19.1953 59.9082 19.1953C 58.4173 19.1953 57.2227 18.7005 56.3242 17.7109C 55.4323 16.7148 54.9863 15.39 54.9863 13.7363L 54.9863 13.6191ZM 57.3594 13.8242C 57.3594 14.9115 57.584 15.7643 58.0332 16.3828C 58.4824 16.9948 59.1074 17.3008 59.9082 17.3008C 60.709 17.3008 61.3307 16.9883 61.7734 16.3633C 62.2227 15.7383 62.4473 14.8236 62.4473 13.6191C 62.4473 12.5514 62.2161 11.7051 61.7539 11.0801C 61.2982 10.4551 60.6764 10.1426 59.8887 10.1426C 59.1139 10.1426 58.4987 10.4518 58.043 11.0703C 57.5872 11.6823 57.3594 12.6003 57.3594 13.8242ZM 69.3418 19L 66.9688 19L 66.9688 4L 69.3418 4L 69.3418 19ZM 74.459 19L 72.0859 19L 72.0859 4L 74.459 4L 74.459 19ZM 81.7051 19.1953C 80.2012 19.1953 78.9805 18.7233 78.043 17.7793C 77.112 16.8288 76.6465 15.5658 76.6465 13.9902L 76.6465 13.6973C 76.6465 12.6426 76.8483 11.7018 77.252 10.875C 77.6621 10.0417 78.235 9.39388 78.9707 8.93164C 79.7064 8.4694 80.5267 8.23828 81.4316 8.23828C 82.8704 8.23828 83.9805 8.69727 84.7617 9.61523C 85.5495 10.5332 85.9434 11.832 85.9434 13.5117L 85.9434 14.4688L 79.0391 14.4688C 79.1107 15.3411 79.4004 16.0312 79.9082 16.5391C 80.4225 17.0469 81.0671 17.3008 81.8418 17.3008C 82.929 17.3008 83.8145 16.8613 84.498 15.9824L 85.7773 17.2031C 85.3542 17.8346 84.7878 18.3262 84.0781 18.6777C 83.375 19.0228 82.584 19.1953 81.7051 19.1953ZM 81.4219 10.1426C 80.7708 10.1426 80.2435 10.3704 79.8398 10.8262C 79.4427 11.2819 79.1888 11.9167 79.0781 12.7305L 83.5996 12.7305L 83.5996 12.5547C 83.5475 11.7604 83.3359 11.1615 82.9648 10.7578C 82.5938 10.3477 82.0794 10.1426 81.4219 10.1426ZM 93.3262 10.6016C 93.0137 10.5495 92.6914 10.5234 92.3594 10.5234C 91.2721 10.5234 90.5397 10.9401 90.1621 11.7734L 90.1621 19L 87.7891 19L 87.7891 8.43359L 90.0547 8.43359L 90.1133 9.61523C 90.6862 8.69727 91.4805 8.23828 92.4961 8.23828C 92.8346 8.23828 93.1146 8.28385 93.3359 8.375L 93.3262 10.6016Z"/>
<path id="path37_fill" d="M 46.9102 3.14272L 38.2182 0L 25.8897 2.45159L 13.5613 0L 4.86921 3.14272C 1.94598 4.19959 0 6.96202 0 10.0549L 0 19.613C 0 20.2901 0.551922 20.8388 1.23283 20.8388L 50.5465 20.8388C 51.2274 20.8388 51.7793 20.2901 51.7793 19.613L 51.7793 10.0549C 51.7793 6.96202 49.8334 4.19974 46.9102 3.14272Z"/>
<path id="path38_fill" d="M 0 0L 17.2593 0L 17.2593 12.258L 0 12.258L 0 0Z"/>
<path id="path39_fill" d="M 0 3.8144C 2.54075 5.2777 5.48234 6.12898 8.62981 6.12898C 11.7773 6.12898 14.7189 5.2777 17.2596 3.8144L 17.2596 0L 0 0L 0 3.8144Z"/>
<path id="path40_fill" d="M 28.3552 0L 12.3281 0C 10.1254 0 8.15342 0.962617 6.79833 2.48173C 2.99384 2.78558 0 5.94552 0 9.80652L 0 14.4266C 0 15.4289 0.123611 16.4274 0.368147 17.3997L 0.864682 19.3747C 1.10922 20.3471 1.23283 21.3455 1.23283 22.3477L 1.23283 24.5161L 30.821 24.5161L 30.821 22.3477C 30.821 21.3455 30.9446 20.3469 31.1892 19.3747L 31.6857 17.3997C 31.9303 16.4273 32.0539 15.4289 32.0539 14.4266L 32.0539 3.67739C 32.0539 1.64647 30.3979 0 28.3552 0Z"/>
<path id="path41_fill" d="M 12.3283 22.0372L 12.3283 9.77921L 9.86263 9.77921C 7.13915 9.77921 4.93132 7.58397 4.93132 4.87602C 4.93132 3.00289 5.64149 1.29853 6.80116 0C 6.80027 0.00103906 6.79922 0.00192969 6.79833 0.00296875C 2.99384 0.30682 0 3.46676 0 7.32777L 0 11.9477C 0 12.95 0.123611 13.9484 0.368147 14.9208L 0.864832 16.8958C 1.10937 17.868 1.23298 18.8666 1.23298 19.8688L 1.23298 22.0372L 12.3283 22.0372Z"/>
<path id="path42_fill" d="M 1.55589 0C 0.578495 1.2592 0 2.81809 0 4.4837L 0 14.0419C 0 14.7189 0.551922 15.2677 1.23283 15.2677L 8.62981 15.2677L 8.62981 10.7092C 8.62981 8.90788 7.96502 7.16923 6.7613 5.82291L 1.55589 0Z"/>
<path id="path43_fill" d="M 4.20607 0L 0.725097 0.00103906L 0 14.7097L 4.93132 14.7097L 4.20607 0Z"/>
<path id="path44_fill" d="M 0 0L 0 3.67739C 0 4.35427 0.551922 4.90319 1.23283 4.90319L 3.69849 4.90319C 4.3794 4.90319 4.93132 4.35427 4.93132 3.67739L 4.93132 0L 0 0Z"/>
<path id="path45_fill" d="M 3.48068 0.18645L 12.3283 5.68457L 7.1932 10.7904C 6.65456 11.3259 5.76107 11.2525 5.31827 10.6362L 0 3.23298L 1.80162 0.545965C 2.17141 -0.00562829 2.91532 -0.164902 3.48068 0.18645Z"/>
<path id="path46_fill" d="M 8.84762 0.18645L 0 5.68457L 5.1351 10.7904C 5.67373 11.3259 6.56723 11.2525 7.01002 10.6362L 12.3283 3.23298L 10.5267 0.545965C 10.157 -0.00562829 9.41313 -0.164902 8.84762 0.18645Z"/>
<path id="path47_fill" d="M 24.6763 3.25615C 18.9234 -0.477646 10.0285 -0.168154 5.91916 0.223424C 4.65558 0.343807 3.69864 1.40142 3.69864 2.66359L 3.69864 5.49548C 3.69864 6.201 3.41678 6.87758 2.91502 7.37633L 0.783619 9.49557C 0.281858 9.99447 0 10.671 0 11.3764L 0 13.4642C 0 21.5634 6.3727 28.511 14.517 28.6592C 22.8144 28.8101 29.5882 22.1675 29.5882 13.952L 29.5882 11.3764C 29.5882 10.6709 29.3063 9.99432 28.8046 9.49557L 26.6733 7.37648C 26.1716 6.87758 25.8897 6.201 25.8897 5.49563L 25.8897 5.49548C 25.8897 4.59417 25.4353 3.74881 24.6763 3.25615Z"/>
<path id="path48_fill" d="M 8.62981 17.6291L 8.62981 6.41973C 8.62981 5.08795 9.69095 3.99738 11.0299 3.96798C 14.8777 3.88323 21.062 4.04963 25.9015 5.61534C 25.8996 5.57482 25.8896 5.53578 25.8896 5.49511L 25.8896 5.49496C 25.8896 4.59558 25.4378 3.75052 24.6805 3.2586C 19.9873 0.210141 13.2024 -0.14507 8.62981 0.0401799C 7.59747 0.0820393 6.67606 0.150914 5.91901 0.223055C 4.65543 0.343438 3.69849 1.40105 3.69849 2.66322L 3.69849 5.49511C 3.69849 6.20048 3.41663 6.87706 2.91502 7.37596L 0.783619 9.49506C 0.281858 9.99395 0 10.6705 0 11.3761L 0 13.4638C 0 21.25 5.89468 27.9534 13.5858 28.5932C 10.5513 25.8993 8.62981 21.992 8.62981 17.6291Z"/>
<path id="path49_fill" fill-rule="evenodd" d="M 17.0769 0.693359L 25.3098 8.97559C 26.23 9.90137 26.23 11.4077 25.3099 12.3335L 12.6542 25.0654L 18.416 25.0654C 18.7151 25.0654 18.9576 25.3091 18.9576 25.6104C 18.9576 25.9111 18.7151 26.1553 18.416 26.1553L 10.593 26.1548L 10.5889 26.1548L 7.58316 26.1548C 7.28406 26.1548 7.04153 25.9111 7.04153 25.6099C 7.04153 25.3091 7.28406 25.0654 7.58316 25.0654L 8.52789 25.0654L 1.70438 18.2007L 0.689148 17.1792C 0.244751 16.7324 0 16.1362 0 15.5005C 0 14.8647 0.244751 14.2686 0.689148 13.8218L 13.739 0.693359C 14.1835 0.246094 14.7762 0 15.408 0C 16.0398 0 16.6324 0.246094 17.0769 0.693359ZM 11.4939 24.6914L 24.5439 11.563C 25.0416 11.062 25.0417 10.2471 24.5439 9.74609L 20.0071 5.18213L 7.4744 17.7905C 7.36862 17.897 7.22998 17.9502 7.0914 17.9502C 6.95282 17.9502 6.81418 17.897 6.7084 17.7905C 6.49689 17.5776 6.49689 17.2324 6.7084 17.02L 19.2411 4.41162L 16.3109 1.46387C 16.0711 1.22266 15.7504 1.08984 15.4079 1.08984C 15.0655 1.08984 14.7448 1.22266 14.505 1.46387L 1.45514 14.5923C 1.21533 14.8335 1.08331 15.1558 1.08331 15.5005C 1.08331 15.8452 1.21533 16.1675 1.45508 16.4087L 2.08762 17.0449L 14.6202 4.43701C 14.8318 4.22412 15.1747 4.22412 15.3862 4.43701C 15.5977 4.6499 15.5977 4.99512 15.3862 5.20752L 2.85364 17.8154L 9.68814 24.6914C 9.92737 24.9321 10.2472 25.0645 10.5888 25.0654L 10.5929 25.0654C 10.9346 25.0649 11.2545 24.9321 11.4939 24.6914Z"/>
<path id="path50_fill" d="M 5.18694 0.159562C 4.97543 -0.0532129 4.63256 -0.0531618 4.4209 0.159562L 0.158628 4.4474C -0.052876 4.66017 -0.052876 5.00516 0.158628 5.21804C 0.264405 5.32445 0.403038 5.37763 0.54162 5.37763C 0.680202 5.37763 0.818835 5.3244 0.924612 5.21804L 5.18689 0.930201C 5.39844 0.717324 5.39844 0.372337 5.18694 0.159562Z"/>
<path id="path51_fill" d="M 1.90677 0.15962L 0.158628 1.91827C -0.052876 2.13104 -0.052876 2.47608 0.158628 2.68891C 0.264405 2.79527 0.403038 2.8485 0.54162 2.8485C 0.680304 2.8485 0.818835 2.79527 0.924612 2.68891L 2.67276 0.930258C 2.88426 0.717483 2.88426 0.372446 2.67276 0.15962C 2.46125 -0.0532065 2.11843 -0.0532065 1.90677 0.15962Z"/>
<path id="path52_fill" d="M 0.388458 0.159556L 0.158672 0.390671C -0.0528823 0.603446 -0.0528823 0.948432 0.158622 1.16131C 0.264348 1.26772 0.403032 1.32095 0.541614 1.32095C 0.680196 1.32095 0.818829 1.26772 0.924555 1.16131L 1.15434 0.930194C 1.3659 0.71742 1.3659 0.372433 1.15439 0.159607C 0.942989 -0.0531682 0.599961 -0.0532193 0.388458 0.159556Z"/>
<path id="path53_fill" fill-rule="evenodd" d="M 2.83975 0C 2.9834 0 3.12115 0.0576172 3.22272 0.159668L 4.7547 1.70068C 4.96622 1.91357 4.96622 2.25879 4.7547 2.47119L 2.4567 4.7832C 2.35092 4.88965 2.21237 4.94287 2.0737 4.94287C 1.93512 4.94287 1.79648 4.88965 1.6907 4.7832L 0.15863 3.24219C 0.0570679 3.13965 0 3.00146 0 2.85693C 0 2.7124 0.0570679 2.57373 0.15863 2.47168L 2.45676 0.159668C 2.55835 0.0576172 2.69608 0 2.83975 0ZM 3.60568 2.08594L 2.83969 1.31543L 1.30762 2.85645L 2.07364 3.62744L 3.60568 2.08594Z"/>
<path id="path54_fill" d="M 0.541646 1.32106C 0.680329 1.32106 0.818962 1.26782 0.924688 1.16136L 1.15447 0.930092C 1.36593 0.717266 1.36588 0.372229 1.15432 0.159505C 0.942817 -0.0532193 0.59979 -0.0531682 0.388337 0.159658L 0.158552 0.390926C -0.0529014 0.603752 -0.0528506 0.94879 0.158704 1.16151C 0.264481 1.26793 0.403013 1.32106 0.541646 1.32106Z"/>
<path id="path55_fill" d="M 0.388413 0.15962L 0.158628 0.390786C -0.052876 0.603509 -0.052876 0.948547 0.158628 1.16142C 0.264405 1.26779 0.403038 1.32097 0.54162 1.32097C 0.680202 1.32097 0.818835 1.26779 0.924612 1.16142L 1.1544 0.930258C 1.3659 0.717432 1.3659 0.372395 1.1544 0.15962C 0.942843 -0.0532065 0.599968 -0.0532065 0.388413 0.15962Z"/>
<path id="path56_fill" fill-rule="evenodd" d="M 10.5 21C 16.299 21 21 16.299 21 10.5C 21 4.70101 16.299 0 10.5 0C 4.70101 0 0 4.70101 0 10.5C 0 16.299 4.70101 21 10.5 21Z"/>
<path id="path57_fill" fill-rule="evenodd" d="M 11 0C 4.92529 0 0 4.92529 0 11C 0 17.0747 4.92529 22 11 22C 17.0747 22 22 17.0747 22 11C 22 4.92529 17.0747 0 11 0ZM 11 20.625C 5.69336 20.625 1.375 16.3066 1.375 11C 1.375 5.69336 5.69336 1.375 11 1.375C 16.3066 1.375 20.625 5.69336 20.625 11C 20.625 16.3066 16.3066 20.625 11 20.625ZM 14.8121 12.9751C 14.8121 12.3833 14.6806 11.8662 14.4187 11.4229C 14.1555 10.9814 13.8051 10.6333 13.3647 10.3823C 12.9256 10.1313 12.3187 9.86426 11.5452 9.58203C 10.8416 9.32275 10.381 9.10693 10.1675 8.93213C 9.9527 8.75635 9.84528 8.50537 9.84528 8.17773C 9.84528 7.85645 9.9567 7.58252 10.1796 7.35693C 10.4012 7.13135 10.6966 7.01855 11.0645 7.01855C 11.7976 7.01855 12.3375 7.52344 12.6879 8.5332L 14.4818 7.79736C 14.0535 6.32471 13.1109 5.50146 11.6553 5.32666L 11.6553 4.125L 10.3528 4.125L 10.3528 5.32666C 9.38867 5.4624 8.6824 5.83447 8.23389 6.44238C 7.7854 7.05225 7.55981 7.73828 7.55981 8.49951C 7.55981 9.07959 7.686 9.58984 7.9371 10.0278C 8.18823 10.4644 8.51587 10.8042 8.9187 11.0459C 9.32153 11.29 9.8815 11.5347 10.5972 11.7827C 11.3934 12.0649 11.9077 12.2974 12.1387 12.481C 12.3696 12.6636 12.4851 12.9336 12.4851 13.2896C 12.4851 13.6333 12.3696 13.9258 12.1387 14.1689C 11.9077 14.4121 11.5452 14.5327 11.0551 14.5327C 10.0063 14.5327 9.38867 13.9663 9.20203 12.8315L 7.18787 13.3564C 7.5947 15.1611 8.6488 16.1523 10.3528 16.3267L 10.3528 17.875L 11.6553 17.875L 11.6553 16.3188C 12.6772 16.2114 13.4586 15.854 13.9998 15.2471C 14.5409 14.6416 14.8121 13.8843 14.8121 12.9751Z"/>
<path id="path58_fill" fill-rule="evenodd" d="M 11 0C 4.92529 0 0 4.92529 0 11C 0 17.0747 4.92529 22 11 22C 17.0747 22 22 17.0747 22 11C 22 4.92529 17.0747 0 11 0ZM 11 20.625C 5.69336 20.625 1.375 16.3066 1.375 11C 1.375 5.69336 5.69336 1.375 11 1.375C 16.3066 1.375 20.625 5.69336 20.625 11C 20.625 16.3066 16.3066 20.625 11 20.625ZM 14.8121 12.9751C 14.8121 12.3833 14.6806 11.8662 14.4187 11.4229C 14.1556 10.9814 13.8051 10.6333 13.3647 10.3823C 12.9256 10.1313 12.3187 9.86426 11.5452 9.58203C 10.8416 9.32275 10.381 9.10693 10.1675 8.93213C 9.9527 8.75635 9.84528 8.50537 9.84528 8.17773C 9.84528 7.85645 9.95667 7.58252 10.1796 7.35693C 10.4012 7.13135 10.6966 7.01855 11.0645 7.01855C 11.7976 7.01855 12.3375 7.52344 12.6879 8.5332L 14.4819 7.79736C 14.0535 6.32471 13.1109 5.50146 11.6553 5.32666L 11.6553 4.125L 10.3528 4.125L 10.3528 5.32666C 9.38867 5.4624 8.68243 5.83447 8.23389 6.44238C 7.7854 7.05225 7.55981 7.73828 7.55981 8.49951C 7.55981 9.07959 7.68597 9.58984 7.93713 10.0278C 8.18823 10.4644 8.51587 10.8042 8.9187 11.0459C 9.32153 11.29 9.88147 11.5347 10.5972 11.7827C 11.3934 12.0649 11.9077 12.2974 12.1387 12.481C 12.3696 12.6636 12.4851 12.9336 12.4851 13.2896C 12.4851 13.6333 12.3696 13.9258 12.1387 14.1689C 11.9077 14.4121 11.5452 14.5327 11.0551 14.5327C 10.0063 14.5327 9.38867 13.9663 9.20203 12.8315L 7.18787 13.3564C 7.59467 15.1611 8.6488 16.1523 10.3528 16.3267L 10.3528 17.875L 11.6553 17.875L 11.6553 16.3188C 12.6772 16.2114 13.4586 15.854 13.9998 15.2471C 14.5409 14.6416 14.8121 13.8843 14.8121 12.9751Z"/>
<path id="path59_fill" d="M 25.8164 19L 25.8164 4.78125L 30.6895 4.78125C 32.2975 4.78125 33.5215 5.10352 34.3613 5.74805C 35.2012 6.39258 35.6211 7.35286 35.6211 8.62891C 35.6211 9.27995 35.4453 9.86589 35.0938 10.3867C 34.7422 10.9076 34.2279 11.3112 33.5508 11.5977C 34.319 11.806 34.9115 12.1999 35.3281 12.7793C 35.7513 13.3522 35.9629 14.0423 35.9629 14.8496C 35.9629 16.1842 35.5332 17.2096 34.6738 17.9258C 33.821 18.6419 32.597 19 31.002 19L 25.8164 19ZM 28.2871 12.584L 28.2871 17.0273L 31.0312 17.0273C 31.806 17.0273 32.4115 16.8353 32.8477 16.4512C 33.2839 16.0671 33.502 15.5332 33.502 14.8496C 33.502 13.3717 32.7467 12.6165 31.2363 12.584L 28.2871 12.584ZM 28.2871 10.7676L 30.709 10.7676C 31.4772 10.7676 32.0762 10.5951 32.5059 10.25C 32.9421 9.89844 33.1602 9.40365 33.1602 8.76562C 33.1602 8.0625 32.9583 7.55469 32.5547 7.24219C 32.1576 6.92969 31.5358 6.77344 30.6895 6.77344L 28.2871 6.77344L 28.2871 10.7676ZM 42.8574 19.1953C 41.3535 19.1953 40.1328 18.7233 39.1953 17.7793C 38.2643 16.8288 37.7988 15.5658 37.7988 13.9902L 37.7988 13.6973C 37.7988 12.6426 38.0007 11.7018 38.4043 10.875C 38.8145 10.0417 39.3874 9.39388 40.123 8.93164C 40.8587 8.4694 41.679 8.23828 42.584 8.23828C 44.0228 8.23828 45.1328 8.69727 45.9141 9.61523C 46.7018 10.5332 47.0957 11.832 47.0957 13.5117L 47.0957 14.4688L 40.1914 14.4688C 40.263 15.3411 40.5527 16.0312 41.0605 16.5391C 41.5749 17.0469 42.2194 17.3008 42.9941 17.3008C 44.0814 17.3008 44.9668 16.8613 45.6504 15.9824L 46.9297 17.2031C 46.5065 17.8346 45.9401 18.3262 45.2305 18.6777C 44.5273 19.0228 43.7363 19.1953 42.8574 19.1953ZM 42.5742 10.1426C 41.9232 10.1426 41.3958 10.3704 40.9922 10.8262C 40.5951 11.2819 40.3411 11.9167 40.2305 12.7305L 44.752 12.7305L 44.752 12.5547C 44.6999 11.7604 44.4883 11.1615 44.1172 10.7578C 43.7461 10.3477 43.2318 10.1426 42.5742 10.1426ZM 57.8965 19L 55.5234 19L 55.5234 14.7324L 51.4121 14.7324L 51.4121 19L 49.0391 19L 49.0391 8.43359L 51.4121 8.43359L 51.4121 12.8379L 55.5234 12.8379L 55.5234 8.43359L 57.8965 8.43359L 57.8965 19ZM 60.4746 17.1055C 61.1322 16.3698 61.5716 15.6732 61.793 15.0156C 62.0208 14.3516 62.1576 13.5052 62.2031 12.4766L 62.3398 8.43359L 69.6738 8.43359L 69.6738 17.1055L 71.1387 17.1055L 71.1387 22.1445L 68.7754 22.1445L 68.7754 19L 61.998 19L 61.998 22.1445L 59.5957 22.1445L 59.6055 17.1055L 60.4746 17.1055ZM 63.2578 17.1055L 67.3105 17.1055L 67.3105 10.4746L 64.6445 10.4746L 64.5762 12.4961C 64.485 14.4362 64.0456 15.9727 63.2578 17.1055ZM 77.4863 19.1953C 75.9824 19.1953 74.7617 18.7233 73.8242 17.7793C 72.8932 16.8288 72.4277 15.5658 72.4277 13.9902L 72.4277 13.6973C 72.4277 12.6426 72.6296 11.7018 73.0332 10.875C 73.4434 10.0417 74.0163 9.39388 74.752 8.93164C 75.4876 8.4694 76.3079 8.23828 77.2129 8.23828C 78.6517 8.23828 79.7617 8.69727 80.543 9.61523C 81.3307 10.5332 81.7246 11.832 81.7246 13.5117L 81.7246 14.4688L 74.8203 14.4688C 74.8919 15.3411 75.1816 16.0312 75.6895 16.5391C 76.2038 17.0469 76.8483 17.3008 77.623 17.3008C 78.7103 17.3008 79.5957 16.8613 80.2793 15.9824L 81.5586 17.2031C 81.1354 17.8346 80.569 18.3262 79.8594 18.6777C 79.1562 19.0228 78.3652 19.1953 77.4863 19.1953ZM 77.2031 10.1426C 76.5521 10.1426 76.0247 10.3704 75.6211 10.8262C 75.224 11.2819 74.9701 11.9167 74.8594 12.7305L 79.3809 12.7305L 79.3809 12.5547C 79.3288 11.7604 79.1172 11.1615 78.7461 10.7578C 78.375 10.3477 77.8607 10.1426 77.2031 10.1426ZM 92.8281 13.8242C 92.8281 15.4583 92.457 16.7637 91.7148 17.7402C 90.9727 18.7103 89.9766 19.1953 88.7266 19.1953C 87.5677 19.1953 86.64 18.8145 85.9434 18.0527L 85.9434 23.0625L 83.5703 23.0625L 83.5703 8.43359L 85.7578 8.43359L 85.8555 9.50781C 86.5521 8.66146 87.4993 8.23828 88.6973 8.23828C 89.9863 8.23828 90.9954 8.72005 91.7246 9.68359C 92.4603 10.6406 92.8281 11.972 92.8281 13.6777L 92.8281 13.8242ZM 90.4648 13.6191C 90.4648 12.5645 90.2533 11.7279 89.8301 11.1094C 89.4134 10.4909 88.8145 10.1816 88.0332 10.1816C 87.0632 10.1816 86.3665 10.582 85.9434 11.3828L 85.9434 16.0703C 86.373 16.8906 87.0762 17.3008 88.0527 17.3008C 88.8079 17.3008 89.3971 16.998 89.8203 16.3926C 90.25 15.7806 90.4648 14.8561 90.4648 13.6191Z"/>
<path id="path60_fill" fill-rule="evenodd" d="M 0 10.0005C 0 4.4777 4.47715 0.000545711 10 0.000545711L 442 0.000545711C 447.523 0.000545711 452 4.4777 452 10.0005L 452 144.001C 452 149.523 447.523 154.001 442 154.001L 229.951 154.001L 218.234 175.325L 206.022 154.001L 10 154.001C 4.47715 154.001 0 149.523 0 144.001L 0 10.0005Z"/>
<path id="path61_fill" d="M 13.0957 20L 10.0781 20L 10.0781 8.24219L 4.82422 8.24219L 4.82422 20L 1.79688 20L 1.79688 5.72266L 13.0957 5.72266L 13.0957 20ZM 18.8379 14.5215C 18.8379 15.6022 19.0137 16.4193 19.3652 16.9727C 19.7233 17.526 20.3027 17.8027 21.1035 17.8027C 21.8978 17.8027 22.4674 17.5293 22.8125 16.9824C 23.1641 16.429 23.3398 15.6087 23.3398 14.5215C 23.3398 13.4408 23.1641 12.6302 22.8125 12.0898C 22.4609 11.5495 21.8848 11.2793 21.084 11.2793C 20.2897 11.2793 19.7168 11.5495 19.3652 12.0898C 19.0137 12.6237 18.8379 13.4342 18.8379 14.5215ZM 26.3867 14.5215C 26.3867 16.2988 25.918 17.6888 24.9805 18.6914C 24.043 19.694 22.7376 20.1953 21.0645 20.1953C 20.0163 20.1953 19.0918 19.9674 18.291 19.5117C 17.4902 19.0495 16.875 18.3887 16.4453 17.5293C 16.0156 16.6699 15.8008 15.6673 15.8008 14.5215C 15.8008 12.7376 16.2663 11.3509 17.1973 10.3613C 18.1283 9.37174 19.4368 8.87695 21.123 8.87695C 22.1712 8.87695 23.0957 9.10482 23.8965 9.56055C 24.6973 10.0163 25.3125 10.6706 25.7422 11.5234C 26.1719 12.3763 26.3867 13.3757 26.3867 14.5215ZM 33.2812 20.1953C 29.8828 20.1953 28.1836 18.3301 28.1836 14.5996C 28.1836 12.7441 28.6458 11.3281 29.5703 10.3516C 30.4948 9.36849 31.8197 8.87695 33.5449 8.87695C 34.8079 8.87695 35.9408 9.12435 36.9434 9.61914L 36.0645 11.9238C 35.5957 11.735 35.1595 11.582 34.7559 11.4648C 34.3522 11.3411 33.9486 11.2793 33.5449 11.2793C 31.9954 11.2793 31.2207 12.3796 31.2207 14.5801C 31.2207 16.7155 31.9954 17.7832 33.5449 17.7832C 34.1178 17.7832 34.6484 17.7083 35.1367 17.5586C 35.625 17.4023 36.1133 17.1615 36.6016 16.8359L 36.6016 19.3848C 36.1198 19.6908 35.6315 19.9023 35.1367 20.0195C 34.6484 20.1367 34.0299 20.1953 33.2812 20.1953ZM 48.916 20L 45.9375 20L 45.9375 11.3184L 43.1934 11.3184C 42.985 13.7598 42.7311 15.5827 42.4316 16.7871C 42.1322 17.985 41.7318 18.8542 41.2305 19.3945C 40.7357 19.9284 40.0846 20.1953 39.2773 20.1953C 38.5872 20.1953 38.0208 20.0911 37.5781 19.8828L 37.5781 17.5C 37.8971 17.6302 38.2161 17.6953 38.5352 17.6953C 38.9062 17.6953 39.2155 17.4284 39.4629 16.8945C 39.7168 16.3607 39.9414 15.472 40.1367 14.2285C 40.3385 12.9785 40.5111 11.263 40.6543 9.08203L 48.916 9.08203L 48.916 20ZM 56.5723 10.9961C 55.9408 10.9961 55.446 11.1979 55.0879 11.6016C 54.7298 11.9987 54.5247 12.5651 54.4727 13.3008L 58.6523 13.3008C 58.6393 12.5651 58.4473 11.9987 58.0762 11.6016C 57.7051 11.1979 57.2038 10.9961 56.5723 10.9961ZM 56.9922 20.1953C 55.2344 20.1953 53.8607 19.7103 52.8711 18.7402C 51.8815 17.7702 51.3867 16.3965 51.3867 14.6191C 51.3867 12.7897 51.8424 11.377 52.7539 10.3809C 53.6719 9.37826 54.9382 8.87695 56.5527 8.87695C 58.0957 8.87695 59.2969 9.31641 60.1562 10.1953C 61.0156 11.0742 61.4453 12.2884 61.4453 13.8379L 61.4453 15.2832L 54.4043 15.2832C 54.4368 16.1296 54.6875 16.7904 55.1562 17.2656C 55.625 17.7409 56.2826 17.9785 57.1289 17.9785C 57.7865 17.9785 58.4082 17.9102 58.9941 17.7734C 59.5801 17.6367 60.1921 17.4186 60.8301 17.1191L 60.8301 19.4238C 60.3092 19.6842 59.7526 19.8763 59.1602 20C 58.5677 20.1302 57.8451 20.1953 56.9922 20.1953ZM 71.7773 13.2812C 72.9036 13.2812 73.7012 13.1901 74.1699 13.0078C 74.6452 12.8255 74.8828 12.5358 74.8828 12.1387C 74.8828 11.7871 74.7103 11.5234 74.3652 11.3477C 74.0202 11.1719 73.4505 11.084 72.6562 11.084C 72.1549 11.084 71.5853 11.1458 70.9473 11.2695C 70.3158 11.3932 69.7396 11.5625 69.2188 11.7773L 68.3398 9.69727C 69.1146 9.4043 69.8665 9.19596 70.5957 9.07227C 71.3249 8.94206 72.1387 8.87695 73.0371 8.87695C 74.3978 8.87695 75.4883 9.13737 76.3086 9.6582C 77.1289 10.179 77.5391 10.8854 77.5391 11.7773C 77.5391 13.0078 76.8132 13.8086 75.3613 14.1797L 75.3613 14.2773C 76.2533 14.4987 76.888 14.8145 77.2656 15.2246C 77.6497 15.6283 77.8418 16.1589 77.8418 16.8164C 77.8418 17.4805 77.627 18.0697 77.1973 18.584C 76.7676 19.0983 76.1458 19.4954 75.332 19.7754C 74.5182 20.0553 73.5612 20.1953 72.4609 20.1953C 70.638 20.1953 69.2383 19.9707 68.2617 19.5215L 68.2617 17.0605C 68.8216 17.321 69.4336 17.526 70.0977 17.6758C 70.7682 17.8255 71.416 17.9004 72.041 17.9004C 73.0111 17.9004 73.737 17.793 74.2188 17.5781C 74.7005 17.3568 74.9414 17.0443 74.9414 16.6406C 74.9414 16.1979 74.6875 15.8724 74.1797 15.6641C 73.6719 15.4492 72.8906 15.3418 71.8359 15.3418L 70.6836 15.3418L 70.6836 13.2812L 71.7773 13.2812ZM 87.1094 20L 86.5332 18.5156L 86.4551 18.5156C 85.9538 19.1471 85.4362 19.5866 84.9023 19.834C 84.375 20.0749 83.6849 20.1953 82.832 20.1953C 81.7839 20.1953 80.957 19.8958 80.3516 19.2969C 79.7526 18.6979 79.4531 17.8451 79.4531 16.7383C 79.4531 15.5794 79.8568 14.7266 80.6641 14.1797C 81.4779 13.6263 82.7018 13.3203 84.3359 13.2617L 86.2305 13.2031L 86.2305 12.7246C 86.2305 11.6178 85.6641 11.0645 84.5312 11.0645C 83.6589 11.0645 82.6335 11.3281 81.4551 11.8555L 80.4688 9.84375C 81.7253 9.1862 83.1185 8.85742 84.6484 8.85742C 86.1133 8.85742 87.2363 9.17643 88.0176 9.81445C 88.7988 10.4525 89.1895 11.4225 89.1895 12.7246L 89.1895 20L 87.1094 20ZM 86.2305 14.9414L 85.0781 14.9805C 84.2122 15.0065 83.5677 15.1628 83.1445 15.4492C 82.7214 15.7357 82.5098 16.1719 82.5098 16.7578C 82.5098 17.5977 82.9915 18.0176 83.9551 18.0176C 84.6452 18.0176 85.1953 17.819 85.6055 17.4219C 86.0221 17.0247 86.2305 16.4974 86.2305 15.8398L 86.2305 14.9414ZM 102.344 11.9434C 102.344 12.5293 102.158 13.0306 101.787 13.4473C 101.423 13.8574 100.882 14.1211 100.166 14.2383L 100.166 14.3164C 100.941 14.4076 101.553 14.6745 102.002 15.1172C 102.458 15.5534 102.686 16.0938 102.686 16.7383C 102.686 17.7995 102.269 18.61 101.436 19.1699C 100.602 19.7233 99.4108 20 97.8613 20L 92.2656 20L 92.2656 9.08203L 97.8613 9.08203C 99.3587 9.08203 100.479 9.32617 101.221 9.81445C 101.969 10.2962 102.344 11.0059 102.344 11.9434ZM 99.5996 16.582C 99.5996 16.1523 99.4336 15.8431 99.1016 15.6543C 98.7695 15.459 98.2715 15.3613 97.6074 15.3613L 95.2441 15.3613L 95.2441 17.9395L 97.666 17.9395C 98.2975 17.9395 98.776 17.8223 99.1016 17.5879C 99.4336 17.347 99.5996 17.0117 99.5996 16.582ZM 99.3262 12.1777C 99.3262 11.5137 98.7988 11.1816 97.7441 11.1816L 95.2441 11.1816L 95.2441 13.3398L 97.4023 13.3398C 98.0339 13.3398 98.5124 13.2487 98.8379 13.0664C 99.1634 12.8841 99.3262 12.5879 99.3262 12.1777ZM 109.58 10.9961C 108.949 10.9961 108.454 11.1979 108.096 11.6016C 107.738 11.9987 107.533 12.5651 107.48 13.3008L 111.66 13.3008C 111.647 12.5651 111.455 11.9987 111.084 11.6016C 110.713 11.1979 110.212 10.9961 109.58 10.9961ZM 110 20.1953C 108.242 20.1953 106.868 19.7103 105.879 18.7402C 104.889 17.7702 104.395 16.3965 104.395 14.6191C 104.395 12.7897 104.85 11.377 105.762 10.3809C 106.68 9.37826 107.946 8.87695 109.561 8.87695C 111.104 8.87695 112.305 9.31641 113.164 10.1953C 114.023 11.0742 114.453 12.2884 114.453 13.8379L 114.453 15.2832L 107.412 15.2832C 107.445 16.1296 107.695 16.7904 108.164 17.2656C 108.633 17.7409 109.29 17.9785 110.137 17.9785C 110.794 17.9785 111.416 17.9102 112.002 17.7734C 112.588 17.6367 113.2 17.4186 113.838 17.1191L 113.838 19.4238C 113.317 19.6842 112.76 19.8763 112.168 20C 111.576 20.1302 110.853 20.1953 110 20.1953ZM 122.871 20.1953C 121.589 20.1953 120.583 19.7298 119.854 18.7988L 119.697 18.7988C 119.801 19.7103 119.854 20.2376 119.854 20.3809L 119.854 24.8047L 116.875 24.8047L 116.875 9.08203L 119.297 9.08203L 119.717 10.498L 119.854 10.498C 120.55 9.41732 121.582 8.87695 122.949 8.87695C 124.238 8.87695 125.247 9.375 125.977 10.3711C 126.706 11.3672 127.07 12.7507 127.07 14.5215C 127.07 15.6868 126.898 16.6992 126.553 17.5586C 126.214 18.418 125.729 19.0723 125.098 19.5215C 124.466 19.9707 123.724 20.1953 122.871 20.1953ZM 121.992 11.2598C 121.257 11.2598 120.719 11.4876 120.381 11.9434C 120.042 12.3926 119.867 13.138 119.854 14.1797L 119.854 14.502C 119.854 15.6738 120.026 16.5137 120.371 17.0215C 120.723 17.5293 121.276 17.7832 122.031 17.7832C 123.366 17.7832 124.033 16.6829 124.033 14.4824C 124.033 13.4082 123.867 12.6042 123.535 12.0703C 123.21 11.5299 122.695 11.2598 121.992 11.2598ZM 145.791 20L 129.531 20L 129.531 9.08203L 132.51 9.08203L 132.51 17.7637L 136.172 17.7637L 136.172 9.08203L 139.15 9.08203L 139.15 17.7637L 142.812 17.7637L 142.812 9.08203L 145.791 9.08203L 145.791 20ZM 153.447 10.9961C 152.816 10.9961 152.321 11.1979 151.963 11.6016C 151.605 11.9987 151.4 12.5651 151.348 13.3008L 155.527 13.3008C 155.514 12.5651 155.322 11.9987 154.951 11.6016C 154.58 11.1979 154.079 10.9961 153.447 10.9961ZM 153.867 20.1953C 152.109 20.1953 150.736 19.7103 149.746 18.7402C 148.757 17.7702 148.262 16.3965 148.262 14.6191C 148.262 12.7897 148.717 11.377 149.629 10.3809C 150.547 9.37826 151.813 8.87695 153.428 8.87695C 154.971 8.87695 156.172 9.31641 157.031 10.1953C 157.891 11.0742 158.32 12.2884 158.32 13.8379L 158.32 15.2832L 151.279 15.2832C 151.312 16.1296 151.562 16.7904 152.031 17.2656C 152.5 17.7409 153.158 17.9785 154.004 17.9785C 154.661 17.9785 155.283 17.9102 155.869 17.7734C 156.455 17.6367 157.067 17.4186 157.705 17.1191L 157.705 19.4238C 157.184 19.6842 156.628 19.8763 156.035 20C 155.443 20.1302 154.72 20.1953 153.867 20.1953ZM 163.721 9.08203L 163.721 13.2812L 167.881 13.2812L 167.881 9.08203L 170.859 9.08203L 170.859 20L 167.881 20L 167.881 15.498L 163.721 15.498L 163.721 20L 160.742 20L 160.742 9.08203L 163.721 9.08203ZM 176.865 9.08203L 176.865 13.3984C 176.865 13.8542 176.79 14.9674 176.641 16.7383L 181.68 9.08203L 185.264 9.08203L 185.264 20L 182.383 20L 182.383 15.6445C 182.383 14.8698 182.448 13.776 182.578 12.3633L 177.559 20L 173.984 20L 173.984 9.08203L 176.865 9.08203ZM 190.059 20L 186.836 20L 189.775 15.6836C 189.072 15.3906 188.538 14.9674 188.174 14.4141C 187.816 13.8607 187.637 13.2096 187.637 12.4609C 187.637 11.4062 188.031 10.5794 188.818 9.98047C 189.613 9.38151 190.693 9.08203 192.061 9.08203L 197.139 9.08203L 197.139 20L 194.16 20L 194.16 15.9375L 192.52 15.9375L 190.059 20ZM 190.557 12.4805C 190.557 12.9362 190.736 13.2943 191.094 13.5547C 191.452 13.8086 191.921 13.9355 192.5 13.9355L 194.16 13.9355L 194.16 11.1816L 192.119 11.1816C 191.631 11.1816 191.247 11.3021 190.967 11.543C 190.693 11.7773 190.557 12.0898 190.557 12.4805ZM 208.164 13.2812C 209.29 13.2812 210.088 13.1901 210.557 13.0078C 211.032 12.8255 211.27 12.5358 211.27 12.1387C 211.27 11.7871 211.097 11.5234 210.752 11.3477C 210.407 11.1719 209.837 11.084 209.043 11.084C 208.542 11.084 207.972 11.1458 207.334 11.2695C 206.702 11.3932 206.126 11.5625 205.605 11.7773L 204.727 9.69727C 205.501 9.4043 206.253 9.19596 206.982 9.07227C 207.712 8.94206 208.525 8.87695 209.424 8.87695C 210.785 8.87695 211.875 9.13737 212.695 9.6582C 213.516 10.179 213.926 10.8854 213.926 11.7773C 213.926 13.0078 213.2 13.8086 211.748 14.1797L 211.748 14.2773C 212.64 14.4987 213.275 14.8145 213.652 15.2246C 214.036 15.6283 214.229 16.1589 214.229 16.8164C 214.229 17.4805 214.014 18.0697 213.584 18.584C 213.154 19.0983 212.533 19.4954 211.719 19.7754C 210.905 20.0553 209.948 20.1953 208.848 20.1953C 207.025 20.1953 205.625 19.9707 204.648 19.5215L 204.648 17.0605C 205.208 17.321 205.82 17.526 206.484 17.6758C 207.155 17.8255 207.803 17.9004 208.428 17.9004C 209.398 17.9004 210.124 17.793 210.605 17.5781C 211.087 17.3568 211.328 17.0443 211.328 16.6406C 211.328 16.1979 211.074 15.8724 210.566 15.6641C 210.059 15.4492 209.277 15.3418 208.223 15.3418L 207.07 15.3418L 207.07 13.2812L 208.164 13.2812ZM 223.496 20L 222.92 18.5156L 222.842 18.5156C 222.34 19.1471 221.823 19.5866 221.289 19.834C 220.762 20.0749 220.072 20.1953 219.219 20.1953C 218.171 20.1953 217.344 19.8958 216.738 19.2969C 216.139 18.6979 215.84 17.8451 215.84 16.7383C 215.84 15.5794 216.243 14.7266 217.051 14.1797C 217.865 13.6263 219.089 13.3203 220.723 13.2617L 222.617 13.2031L 222.617 12.7246C 222.617 11.6178 222.051 11.0645 220.918 11.0645C 220.046 11.0645 219.02 11.3281 217.842 11.8555L 216.855 9.84375C 218.112 9.1862 219.505 8.85742 221.035 8.85742C 222.5 8.85742 223.623 9.17643 224.404 9.81445C 225.186 10.4525 225.576 11.4225 225.576 12.7246L 225.576 20L 223.496 20ZM 222.617 14.9414L 221.465 14.9805C 220.599 15.0065 219.954 15.1628 219.531 15.4492C 219.108 15.7357 218.896 16.1719 218.896 16.7578C 218.896 17.5977 219.378 18.0176 220.342 18.0176C 221.032 18.0176 221.582 17.819 221.992 17.4219C 222.409 17.0247 222.617 16.4974 222.617 15.8398L 222.617 14.9414ZM 235.811 9.08203L 239.092 9.08203L 234.766 14.3164L 239.473 20L 236.094 20L 231.631 14.4629L 231.631 20L 228.652 20L 228.652 9.08203L 231.631 9.08203L 231.631 14.3848L 235.811 9.08203ZM 247.969 20L 247.393 18.5156L 247.314 18.5156C 246.813 19.1471 246.296 19.5866 245.762 19.834C 245.234 20.0749 244.544 20.1953 243.691 20.1953C 242.643 20.1953 241.816 19.8958 241.211 19.2969C 240.612 18.6979 240.312 17.8451 240.312 16.7383C 240.312 15.5794 240.716 14.7266 241.523 14.1797C 242.337 13.6263 243.561 13.3203 245.195 13.2617L 247.09 13.2031L 247.09 12.7246C 247.09 11.6178 246.523 11.0645 245.391 11.0645C 244.518 11.0645 243.493 11.3281 242.314 11.8555L 241.328 9.84375C 242.585 9.1862 243.978 8.85742 245.508 8.85742C 246.973 8.85742 248.096 9.17643 248.877 9.81445C 249.658 10.4525 250.049 11.4225 250.049 12.7246L 250.049 20L 247.969 20ZM 247.09 14.9414L 245.938 14.9805C 245.072 15.0065 244.427 15.1628 244.004 15.4492C 243.581 15.7357 243.369 16.1719 243.369 16.7578C 243.369 17.5977 243.851 18.0176 244.814 18.0176C 245.505 18.0176 246.055 17.819 246.465 17.4219C 246.882 17.0247 247.09 16.4974 247.09 15.8398L 247.09 14.9414ZM 255.84 13.2812C 256.966 13.2812 257.764 13.1901 258.232 13.0078C 258.708 12.8255 258.945 12.5358 258.945 12.1387C 258.945 11.7871 258.773 11.5234 258.428 11.3477C 258.083 11.1719 257.513 11.084 256.719 11.084C 256.217 11.084 255.648 11.1458 255.01 11.2695C 254.378 11.3932 253.802 11.5625 253.281 11.7773L 252.402 9.69727C 253.177 9.4043 253.929 9.19596 254.658 9.07227C 255.387 8.94206 256.201 8.87695 257.1 8.87695C 258.46 8.87695 259.551 9.13737 260.371 9.6582C 261.191 10.179 261.602 10.8854 261.602 11.7773C 261.602 13.0078 260.876 13.8086 259.424 14.1797L 259.424 14.2773C 260.316 14.4987 260.951 14.8145 261.328 15.2246C 261.712 15.6283 261.904 16.1589 261.904 16.8164C 261.904 17.4805 261.689 18.0697 261.26 18.584C 260.83 19.0983 260.208 19.4954 259.395 19.7754C 258.581 20.0553 257.624 20.1953 256.523 20.1953C 254.701 20.1953 253.301 19.9707 252.324 19.5215L 252.324 17.0605C 252.884 17.321 253.496 17.526 254.16 17.6758C 254.831 17.8255 255.479 17.9004 256.104 17.9004C 257.074 17.9004 257.799 17.793 258.281 17.5781C 258.763 17.3568 259.004 17.0443 259.004 16.6406C 259.004 16.1979 258.75 15.8724 258.242 15.6641C 257.734 15.4492 256.953 15.3418 255.898 15.3418L 254.746 15.3418L 254.746 13.2812L 255.84 13.2812ZM 271.172 20L 270.596 18.5156L 270.518 18.5156C 270.016 19.1471 269.499 19.5866 268.965 19.834C 268.438 20.0749 267.747 20.1953 266.895 20.1953C 265.846 20.1953 265.02 19.8958 264.414 19.2969C 263.815 18.6979 263.516 17.8451 263.516 16.7383C 263.516 15.5794 263.919 14.7266 264.727 14.1797C 265.54 13.6263 266.764 13.3203 268.398 13.2617L 270.293 13.2031L 270.293 12.7246C 270.293 11.6178 269.727 11.0645 268.594 11.0645C 267.721 11.0645 266.696 11.3281 265.518 11.8555L 264.531 9.84375C 265.788 9.1862 267.181 8.85742 268.711 8.85742C 270.176 8.85742 271.299 9.17643 272.08 9.81445C 272.861 10.4525 273.252 11.4225 273.252 12.7246L 273.252 20L 271.172 20ZM 270.293 14.9414L 269.141 14.9805C 268.275 15.0065 267.63 15.1628 267.207 15.4492C 266.784 15.7357 266.572 16.1719 266.572 16.7578C 266.572 17.5977 267.054 18.0176 268.018 18.0176C 268.708 18.0176 269.258 17.819 269.668 17.4219C 270.085 17.0247 270.293 16.4974 270.293 15.8398L 270.293 14.9414ZM 8.39844 45.8223L 8.39844 39.3184L 6.16211 39.3184C 5.99935 40.5293 5.77474 41.6784 5.48828 42.7656C 5.20833 43.8529 4.81771 44.8717 4.31641 45.8223L 8.39844 45.8223ZM 12.9785 51.916L 10.3027 51.916L 10.3027 48L 2.95898 48L 2.95898 51.916L 0.283203 51.916L 0.283203 45.8223L 1.20117 45.8223C 1.82617 44.8522 2.35026 43.6283 2.77344 42.1504C 3.19661 40.6725 3.49284 38.9831 3.66211 37.082L 11.377 37.082L 11.377 45.8223L 12.9785 45.8223L 12.9785 51.916ZM 19.3652 38.9961C 18.7337 38.9961 18.2389 39.1979 17.8809 39.6016C 17.5228 39.9987 17.3177 40.5651 17.2656 41.3008L 21.4453 41.3008C 21.4323 40.5651 21.2402 39.9987 20.8691 39.6016C 20.498 39.1979 19.9967 38.9961 19.3652 38.9961ZM 19.7852 48.1953C 18.0273 48.1953 16.6536 47.7103 15.6641 46.7402C 14.6745 45.7702 14.1797 44.3965 14.1797 42.6191C 14.1797 40.7897 14.6354 39.377 15.5469 38.3809C 16.4648 37.3783 17.7311 36.877 19.3457 36.877C 20.8887 36.877 22.0898 37.3164 22.9492 38.1953C 23.8086 39.0742 24.2383 40.2884 24.2383 41.8379L 24.2383 43.2832L 17.1973 43.2832C 17.2298 44.1296 17.4805 44.7904 17.9492 45.2656C 18.418 45.7409 19.0755 45.9785 19.9219 45.9785C 20.5794 45.9785 21.2012 45.9102 21.7871 45.7734C 22.373 45.6367 22.985 45.4186 23.623 45.1191L 23.623 47.4238C 23.1022 47.6842 22.5456 47.8763 21.9531 48C 21.3607 48.1302 20.638 48.1953 19.7852 48.1953ZM 29.6387 37.082L 29.6387 41.2812L 33.7988 41.2812L 33.7988 37.082L 36.7773 37.082L 36.7773 48L 33.7988 48L 33.7988 43.498L 29.6387 43.498L 29.6387 48L 26.6602 48L 26.6602 37.082L 29.6387 37.082ZM 42.8809 41.3008L 44.9805 41.3008C 46.6602 41.3008 47.9036 41.5677 48.7109 42.1016C 49.5182 42.6354 49.9219 43.4427 49.9219 44.5234C 49.9219 46.8411 48.3138 48 45.0977 48L 39.9023 48L 39.9023 37.082L 42.8809 37.082L 42.8809 41.3008ZM 46.9434 44.5625C 46.9434 44.1393 46.7741 43.8333 46.4355 43.6445C 46.097 43.4557 45.5924 43.3613 44.9219 43.3613L 42.8809 43.3613L 42.8809 45.9395L 44.9609 45.9395C 46.2826 45.9395 46.9434 45.4805 46.9434 44.5625ZM 59.7266 37.082L 59.7266 39.3184L 55.166 39.3184L 55.166 48L 52.1875 48L 52.1875 37.082L 59.7266 37.082ZM 64.6387 37.082L 64.6387 41.3984C 64.6387 41.8542 64.5638 42.9674 64.4141 44.7383L 69.4531 37.082L 73.0371 37.082L 73.0371 48L 70.1562 48L 70.1562 43.6445C 70.1562 42.8698 70.2214 41.776 70.3516 40.3633L 65.332 48L 61.7578 48L 61.7578 37.082L 64.6387 37.082ZM 91.4453 39.9434C 91.4453 40.5293 91.2598 41.0306 90.8887 41.4473C 90.5241 41.8574 89.9837 42.1211 89.2676 42.2383L 89.2676 42.3164C 90.0423 42.4076 90.6543 42.6745 91.1035 43.1172C 91.5592 43.5534 91.7871 44.0938 91.7871 44.7383C 91.7871 45.7995 91.3704 46.61 90.5371 47.1699C 89.7038 47.7233 88.5124 48 86.9629 48L 81.3672 48L 81.3672 37.082L 86.9629 37.082C 88.4603 37.082 89.5801 37.3262 90.3223 37.8145C 91.071 38.2962 91.4453 39.0059 91.4453 39.9434ZM 88.7012 44.582C 88.7012 44.1523 88.5352 43.8431 88.2031 43.6543C 87.8711 43.459 87.373 43.3613 86.709 43.3613L 84.3457 43.3613L 84.3457 45.9395L 86.7676 45.9395C 87.3991 45.9395 87.8776 45.8223 88.2031 45.5879C 88.5352 45.347 88.7012 45.0117 88.7012 44.582ZM 88.4277 40.1777C 88.4277 39.5137 87.9004 39.1816 86.8457 39.1816L 84.3457 39.1816L 84.3457 41.3398L 86.5039 41.3398C 87.1354 41.3398 87.6139 41.2487 87.9395 41.0664C 88.265 40.8841 88.4277 40.5879 88.4277 40.1777ZM 98.6816 38.9961C 98.0501 38.9961 97.5553 39.1979 97.1973 39.6016C 96.8392 39.9987 96.6341 40.5651 96.582 41.3008L 100.762 41.3008C 100.749 40.5651 100.557 39.9987 100.186 39.6016C 99.8145 39.1979 99.3132 38.9961 98.6816 38.9961ZM 99.1016 48.1953C 97.3438 48.1953 95.9701 47.7103 94.9805 46.7402C 93.9909 45.7702 93.4961 44.3965 93.4961 42.6191C 93.4961 40.7897 93.9518 39.377 94.8633 38.3809C 95.7812 37.3783 97.0475 36.877 98.6621 36.877C 100.205 36.877 101.406 37.3164 102.266 38.1953C 103.125 39.0742 103.555 40.2884 103.555 41.8379L 103.555 43.2832L 96.5137 43.2832C 96.5462 44.1296 96.7969 44.7904 97.2656 45.2656C 97.7344 45.7409 98.3919 45.9785 99.2383 45.9785C 99.8958 45.9785 100.518 45.9102 101.104 45.7734C 101.689 45.6367 102.301 45.4186 102.939 45.1191L 102.939 47.4238C 102.419 47.6842 101.862 47.8763 101.27 48C 100.677 48.1302 99.9544 48.1953 99.1016 48.1953ZM 108.955 37.082L 108.955 41.2812L 113.115 41.2812L 113.115 37.082L 116.094 37.082L 116.094 48L 113.115 48L 113.115 43.498L 108.955 43.498L 108.955 48L 105.977 48L 105.977 37.082L 108.955 37.082ZM 126.055 45.8223L 126.055 39.3184L 123.818 39.3184C 123.656 40.5293 123.431 41.6784 123.145 42.7656C 122.865 43.8529 122.474 44.8717 121.973 45.8223L 126.055 45.8223ZM 130.635 51.916L 127.959 51.916L 127.959 48L 120.615 48L 120.615 51.916L 117.939 51.916L 117.939 45.8223L 118.857 45.8223C 119.482 44.8522 120.007 43.6283 120.43 42.1504C 120.853 40.6725 121.149 38.9831 121.318 37.082L 129.033 37.082L 129.033 45.8223L 130.635 45.8223L 130.635 51.916ZM 134.873 42.5215C 134.873 43.6022 135.049 44.4193 135.4 44.9727C 135.758 45.526 136.338 45.8027 137.139 45.8027C 137.933 45.8027 138.503 45.5293 138.848 44.9824C 139.199 44.429 139.375 43.6087 139.375 42.5215C 139.375 41.4408 139.199 40.6302 138.848 40.0898C 138.496 39.5495 137.92 39.2793 137.119 39.2793C 136.325 39.2793 135.752 39.5495 135.4 40.0898C 135.049 40.6237 134.873 41.4342 134.873 42.5215ZM 142.422 42.5215C 142.422 44.2988 141.953 45.6888 141.016 46.6914C 140.078 47.694 138.773 48.1953 137.1 48.1953C 136.051 48.1953 135.127 47.9674 134.326 47.5117C 133.525 47.0495 132.91 46.3887 132.48 45.5293C 132.051 44.6699 131.836 43.6673 131.836 42.5215C 131.836 40.7376 132.301 39.3509 133.232 38.3613C 134.163 37.3717 135.472 36.877 137.158 36.877C 138.206 36.877 139.131 37.1048 139.932 37.5605C 140.732 38.0163 141.348 38.6706 141.777 39.5234C 142.207 40.3763 142.422 41.3757 142.422 42.5215ZM 150.879 48.1953C 149.596 48.1953 148.59 47.7298 147.861 46.7988L 147.705 46.7988C 147.809 47.7103 147.861 48.2376 147.861 48.3809L 147.861 52.8047L 144.883 52.8047L 144.883 37.082L 147.305 37.082L 147.725 38.498L 147.861 38.498C 148.558 37.4173 149.59 36.877 150.957 36.877C 152.246 36.877 153.255 37.375 153.984 38.3711C 154.714 39.3672 155.078 40.7507 155.078 42.5215C 155.078 43.6868 154.906 44.6992 154.561 45.5586C 154.222 46.418 153.737 47.0723 153.105 47.5215C 152.474 47.9707 151.732 48.1953 150.879 48.1953ZM 150 39.2598C 149.264 39.2598 148.727 39.4876 148.389 39.9434C 148.05 40.3926 147.874 41.138 147.861 42.1797L 147.861 42.502C 147.861 43.6738 148.034 44.5137 148.379 45.0215C 148.73 45.5293 149.284 45.7832 150.039 45.7832C 151.374 45.7832 152.041 44.6829 152.041 42.4824C 152.041 41.4082 151.875 40.6042 151.543 40.0703C 151.217 39.5299 150.703 39.2598 150 39.2598ZM 164.473 48L 163.896 46.5156L 163.818 46.5156C 163.317 47.1471 162.799 47.5866 162.266 47.834C 161.738 48.0749 161.048 48.1953 160.195 48.1953C 159.147 48.1953 158.32 47.8958 157.715 47.2969C 157.116 46.6979 156.816 45.8451 156.816 44.7383C 156.816 43.5794 157.22 42.7266 158.027 42.1797C 158.841 41.6263 160.065 41.3203 161.699 41.2617L 163.594 41.2031L 163.594 40.7246C 163.594 39.6178 163.027 39.0645 161.895 39.0645C 161.022 39.0645 159.997 39.3281 158.818 39.8555L 157.832 37.8438C 159.089 37.1862 160.482 36.8574 162.012 36.8574C 163.477 36.8574 164.6 37.1764 165.381 37.8145C 166.162 38.4525 166.553 39.4225 166.553 40.7246L 166.553 48L 164.473 48ZM 163.594 42.9414L 162.441 42.9805C 161.576 43.0065 160.931 43.1628 160.508 43.4492C 160.085 43.7357 159.873 44.1719 159.873 44.7578C 159.873 45.5977 160.355 46.0176 161.318 46.0176C 162.008 46.0176 162.559 45.819 162.969 45.4219C 163.385 45.0247 163.594 44.4974 163.594 43.8398L 163.594 42.9414ZM 8.49609 75L 7.91992 73.5156L 7.8418 73.5156C 7.34049 74.1471 6.82292 74.5866 6.28906 74.834C 5.76172 75.0749 5.07161 75.1953 4.21875 75.1953C 3.17057 75.1953 2.34375 74.8958 1.73828 74.2969C 1.13932 73.6979 0.839844 72.8451 0.839844 71.7383C 0.839844 70.5794 1.24349 69.7266 2.05078 69.1797C 2.86458 68.6263 4.08854 68.3203 5.72266 68.2617L 7.61719 68.2031L 7.61719 67.7246C 7.61719 66.6178 7.05078 66.0645 5.91797 66.0645C 5.04557 66.0645 4.02018 66.3281 2.8418 66.8555L 1.85547 64.8438C 3.11198 64.1862 4.50521 63.8574 6.03516 63.8574C 7.5 63.8574 8.62305 64.1764 9.4043 64.8145C 10.1855 65.4525 10.5762 66.4225 10.5762 67.7246L 10.5762 75L 8.49609 75ZM 7.61719 69.9414L 6.46484 69.9805C 5.59896 70.0065 4.95443 70.1628 4.53125 70.4492C 4.10807 70.7357 3.89648 71.1719 3.89648 71.7578C 3.89648 72.5977 4.37826 73.0176 5.3418 73.0176C 6.0319 73.0176 6.58203 72.819 6.99219 72.4219C 7.40885 72.0247 7.61719 71.4974 7.61719 70.8398L 7.61719 69.9414ZM 23.7305 66.9434C 23.7305 67.5293 23.5449 68.0306 23.1738 68.4473C 22.8092 68.8574 22.2689 69.1211 21.5527 69.2383L 21.5527 69.3164C 22.3275 69.4076 22.9395 69.6745 23.3887 70.1172C 23.8444 70.5534 24.0723 71.0938 24.0723 71.7383C 24.0723 72.7995 23.6556 73.61 22.8223 74.1699C 21.9889 74.7233 20.7975 75 19.248 75L 13.6523 75L 13.6523 64.082L 19.248 64.082C 20.7454 64.082 21.8652 64.3262 22.6074 64.8145C 23.3561 65.2962 23.7305 66.0059 23.7305 66.9434ZM 20.9863 71.582C 20.9863 71.1523 20.8203 70.8431 20.4883 70.6543C 20.1562 70.459 19.6582 70.3613 18.9941 70.3613L 16.6309 70.3613L 16.6309 72.9395L 19.0527 72.9395C 19.6842 72.9395 20.1628 72.8223 20.4883 72.5879C 20.8203 72.347 20.9863 72.0117 20.9863 71.582ZM 20.7129 67.1777C 20.7129 66.5137 20.1855 66.1816 19.1309 66.1816L 16.6309 66.1816L 16.6309 68.3398L 18.7891 68.3398C 19.4206 68.3398 19.8991 68.2487 20.2246 68.0664C 20.5501 67.8841 20.7129 67.5879 20.7129 67.1777ZM 35.4785 64.082L 35.4785 66.3184L 31.9043 66.3184L 31.9043 75L 28.9258 75L 28.9258 66.3184L 25.3418 66.3184L 25.3418 64.082L 35.4785 64.082ZM 39.8926 69.5215C 39.8926 70.6022 40.0684 71.4193 40.4199 71.9727C 40.778 72.526 41.3574 72.8027 42.1582 72.8027C 42.9525 72.8027 43.5221 72.5293 43.8672 71.9824C 44.2188 71.429 44.3945 70.6087 44.3945 69.5215C 44.3945 68.4408 44.2188 67.6302 43.8672 67.0898C 43.5156 66.5495 42.9395 66.2793 42.1387 66.2793C 41.3444 66.2793 40.7715 66.5495 40.4199 67.0898C 40.0684 67.6237 39.8926 68.4342 39.8926 69.5215ZM 47.4414 69.5215C 47.4414 71.2988 46.9727 72.6888 46.0352 73.6914C 45.0977 74.694 43.7923 75.1953 42.1191 75.1953C 41.071 75.1953 40.1465 74.9674 39.3457 74.5117C 38.5449 74.0495 37.9297 73.3887 37.5 72.5293C 37.0703 71.6699 36.8555 70.6673 36.8555 69.5215C 36.8555 67.7376 37.321 66.3509 38.252 65.3613C 39.1829 64.3717 40.4915 63.877 42.1777 63.877C 43.2259 63.877 44.1504 64.1048 44.9512 64.5605C 45.752 65.0163 46.3672 65.6706 46.7969 66.5234C 47.2266 67.3763 47.4414 68.3757 47.4414 69.5215ZM 63.6621 75L 60.8789 75L 60.8789 66.3965L 60.7227 67.002C 60.3711 68.3757 60.0553 69.4141 59.7754 70.1172L 57.8418 75L 55.7227 75L 53.7598 70.0781C 53.4798 69.362 53.1803 68.3561 52.8613 67.0605L 52.6758 66.3965L 52.6758 75L 49.9023 75L 49.9023 64.082L 54.0039 64.082L 55.8789 68.7402C 56.0742 69.2415 56.2533 69.8177 56.416 70.4688C 56.5853 71.1198 56.6992 71.6764 56.7578 72.1387C 56.9727 71.1621 57.1387 70.4622 57.2559 70.0391C 57.3796 69.6094 57.513 69.2155 57.6562 68.8574C 57.7995 68.4993 58.4473 66.9076 59.5996 64.082L 63.6621 64.082L 63.6621 75ZM 73.7305 75L 73.1543 73.5156L 73.0762 73.5156C 72.5749 74.1471 72.0573 74.5866 71.5234 74.834C 70.9961 75.0749 70.306 75.1953 69.4531 75.1953C 68.4049 75.1953 67.5781 74.8958 66.9727 74.2969C 66.3737 73.6979 66.0742 72.8451 66.0742 71.7383C 66.0742 70.5794 66.4779 69.7266 67.2852 69.1797C 68.099 68.6263 69.3229 68.3203 70.957 68.2617L 72.8516 68.2031L 72.8516 67.7246C 72.8516 66.6178 72.2852 66.0645 71.1523 66.0645C 70.2799 66.0645 69.2546 66.3281 68.0762 66.8555L 67.0898 64.8438C 68.3464 64.1862 69.7396 63.8574 71.2695 63.8574C 72.7344 63.8574 73.8574 64.1764 74.6387 64.8145C 75.4199 65.4525 75.8105 66.4225 75.8105 67.7246L 75.8105 75L 73.7305 75ZM 72.8516 69.9414L 71.6992 69.9805C 70.8333 70.0065 70.1888 70.1628 69.7656 70.4492C 69.3424 70.7357 69.1309 71.1719 69.1309 71.7578C 69.1309 72.5977 69.6126 73.0176 70.5762 73.0176C 71.2663 73.0176 71.8164 72.819 72.2266 72.4219C 72.6432 72.0247 72.8516 71.4974 72.8516 70.8398L 72.8516 69.9414ZM 87.9199 64.082L 87.9199 66.3184L 84.3457 66.3184L 84.3457 75L 81.3672 75L 81.3672 66.3184L 77.7832 66.3184L 77.7832 64.082L 87.9199 64.082ZM 92.8418 64.082L 92.8418 68.3984C 92.8418 68.8542 92.7669 69.9674 92.6172 71.7383L 97.6562 64.082L 101.24 64.082L 101.24 75L 98.3594 75L 98.3594 70.6445C 98.3594 69.8698 98.4245 68.776 98.5547 67.3633L 93.5352 75L 89.9609 75L 89.9609 64.082L 92.8418 64.082ZM 103.408 70.8594L 103.408 68.418L 108.652 68.418L 108.652 70.8594L 103.408 70.8594ZM 113.438 64.082L 113.438 68.0762C 113.438 69.0267 113.877 69.502 114.756 69.502C 115.329 69.502 115.859 69.4368 116.348 69.3066C 116.842 69.1764 117.34 69.0072 117.842 68.7988L 117.842 64.082L 120.82 64.082L 120.82 75L 117.842 75L 117.842 70.6641C 117.152 71.0286 116.51 71.2858 115.918 71.4355C 115.326 71.5853 114.753 71.6602 114.199 71.6602C 113.008 71.6602 112.087 71.3574 111.436 70.752C 110.785 70.14 110.459 69.2708 110.459 68.1445L 110.459 64.082L 113.438 64.082ZM 128.467 65.9961C 127.835 65.9961 127.34 66.1979 126.982 66.6016C 126.624 66.9987 126.419 67.5651 126.367 68.3008L 130.547 68.3008C 130.534 67.5651 130.342 66.9987 129.971 66.6016C 129.6 66.1979 129.098 65.9961 128.467 65.9961ZM 128.887 75.1953C 127.129 75.1953 125.755 74.7103 124.766 73.7402C 123.776 72.7702 123.281 71.3965 123.281 69.6191C 123.281 67.7897 123.737 66.377 124.648 65.3809C 125.566 64.3783 126.833 63.877 128.447 63.877C 129.99 63.877 131.191 64.3164 132.051 65.1953C 132.91 66.0742 133.34 67.2884 133.34 68.8379L 133.34 70.2832L 126.299 70.2832C 126.331 71.1296 126.582 71.7904 127.051 72.2656C 127.52 72.7409 128.177 72.9785 129.023 72.9785C 129.681 72.9785 130.303 72.9102 130.889 72.7734C 131.475 72.6367 132.087 72.4186 132.725 72.1191L 132.725 74.4238C 132.204 74.6842 131.647 74.8763 131.055 75C 130.462 75.1302 129.74 75.1953 128.887 75.1953ZM 140.195 75.1953C 136.797 75.1953 135.098 73.3301 135.098 69.5996C 135.098 67.7441 135.56 66.3281 136.484 65.3516C 137.409 64.3685 138.734 63.877 140.459 63.877C 141.722 63.877 142.855 64.1243 143.857 64.6191L 142.979 66.9238C 142.51 66.735 142.074 66.582 141.67 66.4648C 141.266 66.3411 140.863 66.2793 140.459 66.2793C 138.91 66.2793 138.135 67.3796 138.135 69.5801C 138.135 71.7155 138.91 72.7832 140.459 72.7832C 141.032 72.7832 141.562 72.7083 142.051 72.5586C 142.539 72.4023 143.027 72.1615 143.516 71.8359L 143.516 74.3848C 143.034 74.6908 142.546 74.9023 142.051 75.0195C 141.562 75.1367 140.944 75.1953 140.195 75.1953ZM 153.213 64.082L 156.494 64.082L 152.168 69.3164L 156.875 75L 153.496 75L 149.033 69.4629L 149.033 75L 146.055 75L 146.055 64.082L 149.033 64.082L 149.033 69.3848L 153.213 64.082ZM 161.318 64.082L 161.318 68.3984C 161.318 68.8542 161.243 69.9674 161.094 71.7383L 166.133 64.082L 169.717 64.082L 169.717 75L 166.836 75L 166.836 70.6445C 166.836 69.8698 166.901 68.776 167.031 67.3633L 162.012 75L 158.438 75L 158.438 64.082L 161.318 64.082ZM 11.4844 91.082L 11.4844 102L 8.49609 102L 8.49609 93.3184L 4.54102 93.3184L 4.54102 102L 1.5625 102L 1.5625 91.082L 11.4844 91.082ZM 19.1309 92.9961C 18.4993 92.9961 18.0046 93.1979 17.6465 93.6016C 17.2884 93.9987 17.0833 94.5651 17.0312 95.3008L 21.2109 95.3008C 21.1979 94.5651 21.0059 93.9987 20.6348 93.6016C 20.2637 93.1979 19.7624 92.9961 19.1309 92.9961ZM 19.5508 102.195C 17.793 102.195 16.4193 101.71 15.4297 100.74C 14.4401 99.7702 13.9453 98.3965 13.9453 96.6191C 13.9453 94.7897 14.401 93.377 15.3125 92.3809C 16.2305 91.3783 17.4967 90.877 19.1113 90.877C 20.6543 90.877 21.8555 91.3164 22.7148 92.1953C 23.5742 93.0742 24.0039 94.2884 24.0039 95.8379L 24.0039 97.2832L 16.9629 97.2832C 16.9954 98.1296 17.2461 98.7904 17.7148 99.2656C 18.1836 99.7409 18.8411 99.9785 19.6875 99.9785C 20.3451 99.9785 20.9668 99.9102 21.5527 99.7734C 22.1387 99.6367 22.7507 99.4186 23.3887 99.1191L 23.3887 101.424C 22.8678 101.684 22.3112 101.876 21.7188 102C 21.1263 102.13 20.4036 102.195 19.5508 102.195ZM 32.4219 102.195C 31.1393 102.195 30.1335 101.73 29.4043 100.799L 29.248 100.799C 29.3522 101.71 29.4043 102.238 29.4043 102.381L 29.4043 106.805L 26.4258 106.805L 26.4258 91.082L 28.8477 91.082L 29.2676 92.498L 29.4043 92.498C 30.1009 91.4173 31.1328 90.877 32.5 90.877C 33.7891 90.877 34.7982 91.375 35.5273 92.3711C 36.2565 93.3672 36.6211 94.7507 36.6211 96.5215C 36.6211 97.6868 36.4486 98.6992 36.1035 99.5586C 35.765 100.418 35.2799 101.072 34.6484 101.521C 34.0169 101.971 33.2747 102.195 32.4219 102.195ZM 31.543 93.2598C 30.8073 93.2598 30.2702 93.4876 29.9316 93.9434C 29.5931 94.3926 29.4173 95.138 29.4043 96.1797L 29.4043 96.502C 29.4043 97.6738 29.5768 98.5137 29.9219 99.0215C 30.2734 99.5293 30.8268 99.7832 31.582 99.7832C 32.9167 99.7832 33.584 98.6829 33.584 96.4824C 33.584 95.4082 33.418 94.6042 33.0859 94.0703C 32.7604 93.5299 32.2461 93.2598 31.543 93.2598ZM 43.6035 92.9961C 42.972 92.9961 42.4772 93.1979 42.1191 93.6016C 41.7611 93.9987 41.556 94.5651 41.5039 95.3008L 45.6836 95.3008C 45.6706 94.5651 45.4785 93.9987 45.1074 93.6016C 44.7363 93.1979 44.235 92.9961 43.6035 92.9961ZM 44.0234 102.195C 42.2656 102.195 40.8919 101.71 39.9023 100.74C 38.9128 99.7702 38.418 98.3965 38.418 96.6191C 38.418 94.7897 38.8737 93.377 39.7852 92.3809C 40.7031 91.3783 41.9694 90.877 43.584 90.877C 45.127 90.877 46.3281 91.3164 47.1875 92.1953C 48.0469 93.0742 48.4766 94.2884 48.4766 95.8379L 48.4766 97.2832L 41.4355 97.2832C 41.4681 98.1296 41.7188 98.7904 42.1875 99.2656C 42.6562 99.7409 43.3138 99.9785 44.1602 99.9785C 44.8177 99.9785 45.4395 99.9102 46.0254 99.7734C 46.6113 99.6367 47.2233 99.4186 47.8613 99.1191L 47.8613 101.424C 47.3405 101.684 46.7839 101.876 46.1914 102C 45.599 102.13 44.8763 102.195 44.0234 102.195ZM 53.5156 91.082L 53.5156 95.0762C 53.5156 96.0267 53.9551 96.502 54.834 96.502C 55.4069 96.502 55.9375 96.4368 56.4258 96.3066C 56.9206 96.1764 57.4186 96.0072 57.9199 95.7988L 57.9199 91.082L 60.8984 91.082L 60.8984 102L 57.9199 102L 57.9199 97.6641C 57.2298 98.0286 56.5885 98.2858 55.9961 98.4355C 55.4036 98.5853 54.8307 98.6602 54.2773 98.6602C 53.0859 98.6602 52.1647 98.3574 51.5137 97.752C 50.8626 97.14 50.5371 96.2708 50.5371 95.1445L 50.5371 91.082L 53.5156 91.082ZM 66.9043 91.082L 66.9043 95.3984C 66.9043 95.8542 66.8294 96.9674 66.6797 98.7383L 71.7188 91.082L 75.3027 91.082L 75.3027 102L 72.4219 102L 72.4219 97.6445C 72.4219 96.8698 72.487 95.776 72.6172 94.3633L 67.5977 102L 64.0234 102L 64.0234 91.082L 66.9043 91.082ZM 82.8711 102.195C 79.4727 102.195 77.7734 100.33 77.7734 96.5996C 77.7734 94.7441 78.2357 93.3281 79.1602 92.3516C 80.0846 91.3685 81.4095 90.877 83.1348 90.877C 84.3978 90.877 85.5306 91.1243 86.5332 91.6191L 85.6543 93.9238C 85.1855 93.735 84.7493 93.582 84.3457 93.4648C 83.9421 93.3411 83.5384 93.2793 83.1348 93.2793C 81.5853 93.2793 80.8105 94.3796 80.8105 96.5801C 80.8105 98.7155 81.5853 99.7832 83.1348 99.7832C 83.7077 99.7832 84.2383 99.7083 84.7266 99.5586C 85.2148 99.4023 85.7031 99.1615 86.1914 98.8359L 86.1914 101.385C 85.7096 101.691 85.2214 101.902 84.7266 102.02C 84.2383 102.137 83.6198 102.195 82.8711 102.195ZM 98.5059 102L 95.5273 102L 95.5273 93.3184L 92.7832 93.3184C 92.5749 95.7598 92.321 97.5827 92.0215 98.7871C 91.722 99.985 91.3216 100.854 90.8203 101.395C 90.3255 101.928 89.6745 102.195 88.8672 102.195C 88.1771 102.195 87.6107 102.091 87.168 101.883L 87.168 99.5C 87.487 99.6302 87.806 99.6953 88.125 99.6953C 88.4961 99.6953 88.8053 99.4284 89.0527 98.8945C 89.3066 98.3607 89.5312 97.472 89.7266 96.2285C 89.9284 94.9785 90.1009 93.263 90.2441 91.082L 98.5059 91.082L 98.5059 102ZM 103.301 102L 100.078 102L 103.018 97.6836C 102.314 97.3906 101.781 96.9674 101.416 96.4141C 101.058 95.8607 100.879 95.2096 100.879 94.4609C 100.879 93.4062 101.273 92.5794 102.061 91.9805C 102.855 91.3815 103.936 91.082 105.303 91.082L 110.381 91.082L 110.381 102L 107.402 102L 107.402 97.9375L 105.762 97.9375L 103.301 102ZM 103.799 94.4805C 103.799 94.9362 103.978 95.2943 104.336 95.5547C 104.694 95.8086 105.163 95.9355 105.742 95.9355L 107.402 95.9355L 107.402 93.1816L 105.361 93.1816C 104.873 93.1816 104.489 93.3021 104.209 93.543C 103.936 93.7773 103.799 94.0898 103.799 94.4805ZM 128.574 96.5215C 128.574 98.3118 128.122 99.7051 127.217 100.701C 126.312 101.697 125.059 102.195 123.457 102.195C 122.018 102.195 120.866 101.792 120 100.984C 119.141 100.177 118.62 99.015 118.438 97.498L 116.475 97.498L 116.475 102L 113.496 102L 113.496 91.082L 116.475 91.082L 116.475 95.2812L 118.477 95.2812C 118.665 93.888 119.202 92.8073 120.088 92.0391C 120.98 91.2643 122.122 90.877 123.516 90.877C 125.059 90.877 126.286 91.3848 127.197 92.4004C 128.115 93.4095 128.574 94.7832 128.574 96.5215ZM 121.436 96.5215C 121.436 97.6087 121.595 98.429 121.914 98.9824C 122.233 99.5293 122.76 99.8027 123.496 99.8027C 124.219 99.8027 124.74 99.5293 125.059 98.9824C 125.378 98.429 125.537 97.6087 125.537 96.5215C 125.537 95.4342 125.374 94.6237 125.049 94.0898C 124.73 93.5495 124.206 93.2793 123.477 93.2793C 122.754 93.2793 122.233 93.5495 121.914 94.0898C 121.595 94.6302 121.436 95.4408 121.436 96.5215ZM 140.068 91.082L 140.068 93.3184L 136.494 93.3184L 136.494 102L 133.516 102L 133.516 93.3184L 129.932 93.3184L 129.932 91.082L 140.068 91.082ZM 146.543 102.195C 143.145 102.195 141.445 100.33 141.445 96.5996C 141.445 94.7441 141.908 93.3281 142.832 92.3516C 143.757 91.3685 145.081 90.877 146.807 90.877C 148.07 90.877 149.202 91.1243 150.205 91.6191L 149.326 93.9238C 148.857 93.735 148.421 93.582 148.018 93.4648C 147.614 93.3411 147.21 93.2793 146.807 93.2793C 145.257 93.2793 144.482 94.3796 144.482 96.5801C 144.482 98.7155 145.257 99.7832 146.807 99.7832C 147.38 99.7832 147.91 99.7083 148.398 99.5586C 148.887 99.4023 149.375 99.1615 149.863 98.8359L 149.863 101.385C 149.382 101.691 148.893 101.902 148.398 102.02C 147.91 102.137 147.292 102.195 146.543 102.195ZM 154.062 102L 150.84 102L 153.779 97.6836C 153.076 97.3906 152.542 96.9674 152.178 96.4141C 151.82 95.8607 151.641 95.2096 151.641 94.4609C 151.641 93.4062 152.035 92.5794 152.822 91.9805C 153.617 91.3815 154.697 91.082 156.064 91.082L 161.143 91.082L 161.143 102L 158.164 102L 158.164 97.9375L 156.523 97.9375L 154.062 102ZM 154.561 94.4805C 154.561 94.9362 154.74 95.2943 155.098 95.5547C 155.456 95.8086 155.924 95.9355 156.504 95.9355L 158.164 95.9355L 158.164 93.1816L 156.123 93.1816C 155.635 93.1816 155.251 93.3021 154.971 93.543C 154.697 93.7773 154.561 94.0898 154.561 94.4805ZM 172.432 91.082L 172.432 95.2812L 176.592 95.2812L 176.592 91.082L 179.57 91.082L 179.57 102L 176.592 102L 176.592 97.498L 172.432 97.498L 172.432 102L 169.453 102L 169.453 91.082L 172.432 91.082ZM 189.629 102L 189.053 100.516L 188.975 100.516C 188.473 101.147 187.956 101.587 187.422 101.834C 186.895 102.075 186.204 102.195 185.352 102.195C 184.303 102.195 183.477 101.896 182.871 101.297C 182.272 100.698 181.973 99.8451 181.973 98.7383C 181.973 97.5794 182.376 96.7266 183.184 96.1797C 183.997 95.6263 185.221 95.3203 186.855 95.2617L 188.75 95.2031L 188.75 94.7246C 188.75 93.6178 188.184 93.0645 187.051 93.0645C 186.178 93.0645 185.153 93.3281 183.975 93.8555L 182.988 91.8438C 184.245 91.1862 185.638 90.8574 187.168 90.8574C 188.633 90.8574 189.756 91.1764 190.537 91.8145C 191.318 92.4525 191.709 93.4225 191.709 94.7246L 191.709 102L 189.629 102ZM 188.75 96.9414L 187.598 96.9805C 186.732 97.0065 186.087 97.1628 185.664 97.4492C 185.241 97.7357 185.029 98.1719 185.029 98.7578C 185.029 99.5977 185.511 100.018 186.475 100.018C 187.165 100.018 187.715 99.819 188.125 99.4219C 188.542 99.0247 188.75 98.4974 188.75 97.8398L 188.75 96.9414ZM 204.502 92.9961C 203.87 92.9961 203.376 93.1979 203.018 93.6016C 202.66 93.9987 202.454 94.5651 202.402 95.3008L 206.582 95.3008C 206.569 94.5651 206.377 93.9987 206.006 93.6016C 205.635 93.1979 205.133 92.9961 204.502 92.9961ZM 204.922 102.195C 203.164 102.195 201.79 101.71 200.801 100.74C 199.811 99.7702 199.316 98.3965 199.316 96.6191C 199.316 94.7897 199.772 93.377 200.684 92.3809C 201.602 91.3783 202.868 90.877 204.482 90.877C 206.025 90.877 207.227 91.3164 208.086 92.1953C 208.945 93.0742 209.375 94.2884 209.375 95.8379L 209.375 97.2832L 202.334 97.2832C 202.367 98.1296 202.617 98.7904 203.086 99.2656C 203.555 99.7409 204.212 99.9785 205.059 99.9785C 205.716 99.9785 206.338 99.9102 206.924 99.7734C 207.51 99.6367 208.122 99.4186 208.76 99.1191L 208.76 101.424C 208.239 101.684 207.682 101.876 207.09 102C 206.497 102.13 205.775 102.195 204.922 102.195ZM 219.336 91.082L 219.336 93.3184L 214.775 93.3184L 214.775 102L 211.797 102L 211.797 91.082L 219.336 91.082ZM 223.74 96.5215C 223.74 97.6022 223.916 98.4193 224.268 98.9727C 224.626 99.526 225.205 99.8027 226.006 99.8027C 226.8 99.8027 227.37 99.5293 227.715 98.9824C 228.066 98.429 228.242 97.6087 228.242 96.5215C 228.242 95.4408 228.066 94.6302 227.715 94.0898C 227.363 93.5495 226.787 93.2793 225.986 93.2793C 225.192 93.2793 224.619 93.5495 224.268 94.0898C 223.916 94.6237 223.74 95.4342 223.74 96.5215ZM 231.289 96.5215C 231.289 98.2988 230.82 99.6888 229.883 100.691C 228.945 101.694 227.64 102.195 225.967 102.195C 224.919 102.195 223.994 101.967 223.193 101.512C 222.393 101.049 221.777 100.389 221.348 99.5293C 220.918 98.6699 220.703 97.6673 220.703 96.5215C 220.703 94.7376 221.169 93.3509 222.1 92.3613C 223.031 91.3717 224.339 90.877 226.025 90.877C 227.074 90.877 227.998 91.1048 228.799 91.5605C 229.6 92.0163 230.215 92.6706 230.645 93.5234C 231.074 94.3763 231.289 95.3757 231.289 96.5215ZM 238.281 95.457C 238.281 92.9505 238.757 91.0495 239.707 89.7539C 240.664 88.4518 242.155 87.6283 244.18 87.2832C 245.163 87.1139 246.631 86.8991 248.584 86.6387L 248.926 89.2363C 248.079 89.334 246.579 89.5423 244.424 89.8613C 243.604 89.9915 242.992 90.1868 242.588 90.4473C 242.184 90.7077 241.882 91.0788 241.68 91.5605C 241.484 92.0423 241.364 92.6836 241.318 93.4844L 241.465 93.4844C 241.81 92.9505 242.266 92.5404 242.832 92.2539C 243.398 91.9674 244.007 91.8242 244.658 91.8242C 246.006 91.8242 247.054 92.2376 247.803 93.0645C 248.551 93.8848 248.926 95.0632 248.926 96.5996C 248.926 98.3704 248.451 99.7474 247.5 100.73C 246.556 101.707 245.251 102.195 243.584 102.195C 241.917 102.195 240.615 101.6 239.678 100.408C 238.747 99.2103 238.281 97.5599 238.281 95.457ZM 243.76 99.7832C 245.173 99.7832 245.879 98.8099 245.879 96.8633C 245.879 94.9688 245.241 94.0215 243.965 94.0215C 243.613 94.0215 243.262 94.1029 242.91 94.2656C 242.565 94.4284 242.246 94.6432 241.953 94.9102C 241.667 95.1706 241.455 95.4342 241.318 95.7012C 241.318 97.0228 241.53 98.0352 241.953 98.7383C 242.376 99.4349 242.979 99.7832 243.76 99.7832ZM 258.32 102L 257.744 100.516L 257.666 100.516C 257.165 101.147 256.647 101.587 256.113 101.834C 255.586 102.075 254.896 102.195 254.043 102.195C 252.995 102.195 252.168 101.896 251.562 101.297C 250.964 100.698 250.664 99.8451 250.664 98.7383C 250.664 97.5794 251.068 96.7266 251.875 96.1797C 252.689 95.6263 253.913 95.3203 255.547 95.2617L 257.441 95.2031L 257.441 94.7246C 257.441 93.6178 256.875 93.0645 255.742 93.0645C 254.87 93.0645 253.844 93.3281 252.666 93.8555L 251.68 91.8438C 252.936 91.1862 254.329 90.8574 255.859 90.8574C 257.324 90.8574 258.447 91.1764 259.229 91.8145C 260.01 92.4525 260.4 93.4225 260.4 94.7246L 260.4 102L 258.32 102ZM 257.441 96.9414L 256.289 96.9805C 255.423 97.0065 254.779 97.1628 254.355 97.4492C 253.932 97.7357 253.721 98.1719 253.721 98.7578C 253.721 99.5977 254.202 100.018 255.166 100.018C 255.856 100.018 256.406 99.819 256.816 99.4219C 257.233 99.0247 257.441 98.4974 257.441 97.8398L 257.441 96.9414ZM 266.455 91.082L 266.455 95.2812L 270.615 95.2812L 270.615 91.082L 273.594 91.082L 273.594 102L 270.615 102L 270.615 97.498L 266.455 97.498L 266.455 102L 263.477 102L 263.477 91.082L 266.455 91.082ZM 283.877 91.082L 287.158 91.082L 282.832 96.3164L 287.539 102L 284.16 102L 279.697 96.4629L 279.697 102L 276.719 102L 276.719 91.082L 279.697 91.082L 279.697 96.3848L 283.877 91.082Z"/>
<path id="path62_fill" d="M 3.51562 57.6777C 3.51562 43.5501 6.49414 33.0358 12.4512 26.1348C 18.4408 19.2337 27.3926 15.7832 39.3066 15.7832C 43.3757 15.7832 46.5658 16.0273 48.877 16.5156L 48.877 28.5762C 45.9798 27.9251 43.1152 27.5996 40.2832 27.5996C 35.1074 27.5996 30.8757 28.3809 27.5879 29.9434C 24.3327 31.5059 21.8913 33.8171 20.2637 36.877C 18.6361 39.9368 17.6758 44.2826 17.3828 49.9141L 18.0176 49.9141C 21.2402 44.3802 26.3997 41.6133 33.4961 41.6133C 39.8763 41.6133 44.873 43.6152 48.4863 47.6191C 52.0996 51.623 53.9062 57.1569 53.9062 64.2207C 53.9062 71.8379 51.7578 77.8763 47.4609 82.3359C 43.1641 86.763 37.207 88.9766 29.5898 88.9766C 24.3164 88.9766 19.7103 87.7559 15.7715 85.3145C 11.8652 82.873 8.83789 79.3086 6.68945 74.6211C 4.57357 69.9336 3.51562 64.2858 3.51562 57.6777ZM 29.2969 76.916C 32.5195 76.916 34.9935 75.8418 36.7188 73.6934C 38.444 71.5124 39.3066 68.4199 39.3066 64.416C 39.3066 60.9329 38.4928 58.1986 36.8652 56.2129C 35.2702 54.1947 32.8451 53.1855 29.5898 53.1855C 26.5299 53.1855 23.9095 54.1784 21.7285 56.1641C 19.5801 58.1497 18.5059 60.4609 18.5059 63.0977C 18.5059 66.9714 19.515 70.2428 21.5332 72.9121C 23.584 75.5814 26.1719 76.916 29.2969 76.916Z"/>
<path id="path63_fill" fill-rule="evenodd" d="M 27.2433 16.8158C 27.2433 7.41656 22.6967 -5.60236e-07 14.0067 -5.60236e-07C 5.28 -5.60236e-07 4.47591e-06 7.41656 4.47591e-06 16.7423C 4.47591e-06 27.7937 6.23334 33.3745 15.18 33.3745C 19.5433 33.3745 22.8433 32.3832 25.3367 30.988L 25.3367 23.6449C 22.8433 24.8932 19.9833 25.6642 16.3533 25.6642C 12.7967 25.6642 9.64333 24.4159 9.24 20.0834L 27.17 20.0834C 27.17 19.6061 27.2433 17.6969 27.2433 16.8158ZM 9.13 13.3278C 9.13 9.17891 11.66 7.45327 13.97 7.45327C 16.2067 7.45327 18.59 9.17891 18.59 13.3278L 9.13 13.3278Z"/>
<path id="path64_fill" fill-rule="evenodd" d="M 15.73 -5.60236e-07C 12.1367 -5.60236e-07 9.82667 1.68892 8.54333 2.86382L 8.06667 0.587449L 4.47591e-06 0.587449L 4.47591e-06 43.3979L 9.16667 41.4519L 9.20333 31.0614C 10.5233 32.016 12.4667 33.3745 15.6933 33.3745C 22.2567 33.3745 28.2333 28.0875 28.2333 16.4486C 28.1967 5.80107 22.1467 -5.60236e-07 15.73 -5.60236e-07ZM 13.53 25.2971C 11.3667 25.2971 10.0833 24.526 9.20333 23.5714L 9.16667 9.94993C 10.12 8.88518 11.44 8.15087 13.53 8.15087C 16.8667 8.15087 19.1767 11.8959 19.1767 16.7056C 19.1767 21.6255 16.9033 25.2971 13.53 25.2971Z"/>
<path id="path65_fill" fill-rule="evenodd" d="M 1.11898e-06 9.43592L 9.20333 7.45327L 9.20333 0L 1.11898e-06 1.94593L 1.11898e-06 9.43592Z"/>
<path id="path66_fill" d="M 9.20333 0L 0 0L 0 32.1262L 9.20333 32.1262L 9.20333 0Z"/>
<path id="path67_fill" fill-rule="evenodd" d="M 8.50666 3.09647L 7.92 0.379514L -1.11898e-06 0.379514L -1.11898e-06 32.5057L 9.16667 32.5057L 9.16667 10.7333C 11.33 7.90622 14.9967 8.42024 16.1333 8.82411L 16.1333 0.379514C 14.96 -0.0610732 10.67 -0.868819 8.50666 3.09647Z"/>
<path id="path68_fill" fill-rule="evenodd" d="M 8.98333 -5.60236e-07L 0.0366667 1.90921L 5.59489e-07 31.3184C 5.59489e-07 36.7523 4.07 40.7543 9.49667 40.7543C 12.5033 40.7543 14.7033 40.2036 15.9133 39.5427L 15.9133 32.0895C 14.74 32.5668 8.94667 34.2557 8.94667 28.8218L 8.94667 15.7877L 15.9133 15.7877L 15.9133 7.96729L 8.94667 7.96729L 8.98333 -5.60236e-07Z"/>
<path id="path69_fill" fill-rule="evenodd" d="M 9.27667 9.94993C 9.27667 8.51802 10.45 7.96729 12.3933 7.96729C 15.18 7.96729 18.7 8.81175 21.4867 10.3171L 21.4867 1.68892C 18.4433 0.477302 15.4367 -5.60236e-07 12.3933 -5.60236e-07C 4.95 -5.60236e-07 0 3.89186 0 10.3905C 0 20.524 13.9333 18.9085 13.9333 23.2777C 13.9333 24.9666 12.4667 25.5174 10.4133 25.5174C 7.37 25.5174 3.48333 24.269 0.403333 22.5801L 0.403333 31.3184C 3.81333 32.787 7.26 33.4112 10.4133 33.4112C 18.04 33.4112 23.2833 29.6295 23.2833 23.0574C 23.2467 12.1162 9.27667 14.0621 9.27667 9.94993Z"/>
</defs>
</svg>
