<svg xmlns="http://www.w3.org/2000/svg" xmlns:xlink="http://www.w3.org/1999/xlink" width="1057" height="608"><style><![CDATA[.B{fill-rule:evenodd}.C{fill:#FFF}.D{fill:#6772E5}.E{fill:#E6AF78}.F{fill:#1E1E1E}.G{fill:#EAB883}]]></style><g transform="translate(29 -4327)"><use xlink:href="#F" x="345" y="4327" class="C"/><mask id="A"><use xlink:href="#F" fill="#fff" x="345" y="4327"/></mask><use xlink:href="#G" x="345" y="4327" mask="url(#A)" class="D"/></g><use xlink:href="#H" x="934.688" y="219.66" class="E"/><use xlink:href="#I" fill="#D29B6E" x="934.688" y="219.66"/><use xlink:href="#J" fill="#EFF2FA" x="913.992" y="224.89"/><g fill="#E4EAF6"><use xlink:href="#K" x="913.992" y="234.38"/><use xlink:href="#L" x="963.937" y="233.26"/></g><use xlink:href="#M" fill="#785550" x="927.352" y="180.98"/><use xlink:href="#N" fill="#F0C087" x="929.581" y="194.15"/><use xlink:href="#O" x="929.581" y="194.15" class="E"/><use xlink:href="#P" fill="#694B4B" x="931.525" y="180.98"/><g fill="#E4EAF6"><use xlink:href="#Q" x="929.491" y="224.94"/><use xlink:href="#R" x="943.986" y="224.89"/><use xlink:href="#R" x="943.986" y="224.89"/></g><use xlink:href="#S" fill="#5B5D6E" x="940.903" y="240.19"/><use xlink:href="#T" fill="#515262" x="940.888" y="234.33"/><g transform="translate(2 155)"><use xlink:href="#U" class="C"/><use xlink:href="#V" fill="#DCA9E3"/></g><use xlink:href="#W" x="4" y="289" class="F"/><use xlink:href="#X" x="56.736" y="217.23" class="G"/><use xlink:href="#Y" fill="#DDA36F" x="56.736" y="217.23"/><use xlink:href="#Z" fill="#4DADE2" x="36.185" y="222.24"/><use xlink:href="#a" fill="#2794C4" x="36.185" y="225.21"/><use xlink:href="#b" fill="#DD9A5E" x="45.452" y="177.11"/><use xlink:href="#c" fill="#CE884E" x="45.452" y="177.11"/><g class="G"><use xlink:href="#d" x="44.603" y="196.81"/><use xlink:href="#e" x="76.184" y="196.81"/></g><g fill="#DDA36F"><use xlink:href="#f" x="44.6" y="198.96"/><use xlink:href="#g" x="76.184" y="198.96"/></g><use xlink:href="#h" fill="#F7CF9C" x="48.855" y="192.3"/><use xlink:href="#i" x="19.855" y="4523.06" transform="translate(29 -4327)" class="G"/><use xlink:href="#j" fill="#91CBF2" x="52.73" y="222.24"/><g transform="translate(29 -4327)"><use xlink:href="#V" fill="#F8A5A0" x="853" y="4481"/><use xlink:href="#k" fill="url(#C)" x="123" y="4508"/></g><use xlink:href="#l" transform="matrix(-1 0 0 1 860.320984 181)" fill="url(#D)"/><g transform="translate(553 112)"><use xlink:href="#m" class="C"/><use xlink:href="#n" class="D"/></g><use xlink:href="#o" fill="url(#E)" x="479.5" y="4508.5" transform="translate(29 -4327)"/><g transform="translate(486 112)"><use xlink:href="#m" class="C"/><use xlink:href="#n" class="D"/></g><use xlink:href="#p" x="455" y="588.73" class="F"/><use xlink:href="#V" fill="#A79FCA" x="453" y="453.73"/><use xlink:href="#q" fill="#E4EAF8" x="485.063" y="522.31"/><use xlink:href="#r" x="502.322" y="512.5" class="E"/><use xlink:href="#s" fill="#D29B6E" x="502.322" y="512.5"/><use xlink:href="#t" fill="#694B4B" x="494.925" y="475.73"/><use xlink:href="#u" fill="#5A4146" x="494.925" y="478.2"/><g fill="#D5DCED"><use xlink:href="#v" x="485.063" y="527.88"/><use xlink:href="#v" transform="matrix(-1 0 0 1 536.63 527.73)"/></g><use xlink:href="#w" fill="#B4E66E" x="508.487" y="528.44"/><use xlink:href="#x" fill="#A0D755" x="508.487" y="524.76"/><g fill="#D5DCED"><use xlink:href="#y" x="498.624" y="519.07"/><use xlink:href="#z" x="510.952" y="519.07"/></g><use xlink:href="#AA" fill="#F0C087" x="496.158" y="487.52"/><use xlink:href="#AB" x="467.158" y="4814.52" transform="translate(29 -4327)" class="E"/><g transform="translate(420 112)"><use xlink:href="#m" class="C"/><use xlink:href="#n" class="D"/></g><g fill="#4C4C4C"><use xlink:href="#AC" x="431" y="122"/><use xlink:href="#AD" x="439.158" y="137.58"/><use xlink:href="#AE" x="440.69" y="141.65"/><use xlink:href="#AF" x="443.817" y="140.03"/><use xlink:href="#AG" x="448.449" y="130.21"/><use xlink:href="#AH" x="446.726" y="124.78"/><use xlink:href="#AI" x="436.056" y="140.13"/></g><g transform="translate(486 373)"><use xlink:href="#m" class="C"/><use xlink:href="#n" class="D"/></g><use xlink:href="#AJ" x="500" y="387" class="C"/><use xlink:href="#AK" fill="#96C962" x="499" y="386"/><g transform="translate(805 194)"><use xlink:href="#m" class="C"/><use xlink:href="#n" class="D"/></g><use xlink:href="#AJ" x="819" y="208" class="C"/><use xlink:href="#AL" fill="#96C862" x="818" y="207"/><use xlink:href="#AM" x="856" y="4616" transform="translate(29 -4327)" class="F"/><use xlink:href="#AN" transform="rotate(-180 522 219.16)" filter="url(#B)" class="C"/><use xlink:href="#AO" fill="#555" x="691" y="310"/><use xlink:href="#AP" fill="#E3E3E3" x="615" y="290"/><g class="D"><use xlink:href="#AQ" x="546.757" y="52.6"/><use xlink:href="#AR" x="516.873" y="52.6"/><use xlink:href="#AS" x="504.26" y="41"/><use xlink:href="#AT" x="504.26" y="53.23"/><use xlink:href="#AU" x="485.89" y="52.85"/><use xlink:href="#AV" x="467.08" y="45.26"/><use xlink:href="#AW" x="442" y="52.6"/></g><defs><filter id="B" filterUnits="userSpaceOnUse" x="550" y="4571" width="478" height="202" color-interpolation-filters="sRGB"><feFlood flood-opacity="0" result="A"/><feColorMatrix in="SourceAlpha" values="0 0 0 0 0 0 0 0 0 0 0 0 0 0 0 0 0 0 255 0"/><feOffset dy="-6"/><feGaussianBlur stdDeviation="6.5"/><feColorMatrix values="0 0 0 0 0 0 0 0 0 0 0 0 0 0 0 0 0 0 0.2 0"/><feBlend in2="A"/><feBlend in="SourceGraphic"/></filter><linearGradient id="C" x2="285.273" gradientUnits="userSpaceOnUse" x1="0" y1="0" y2="0"><stop offset="0" stop-color="#DCA9E3"/><stop offset="1" stop-color="#6772E5"/></linearGradient><linearGradient id="D" x2="278.371" gradientUnits="userSpaceOnUse" x1="0" y1="0" y2="0"><stop offset="0" stop-color="#F8A5A0"/><stop offset="1" stop-color="#6772E5"/></linearGradient><linearGradient id="E" x2="0" gradientUnits="userSpaceOnUse" x1="0" y1="0" y2="244.659"><stop offset="0" stop-color="#6772E5"/><stop offset="1" stop-color="#A79FCA"/></linearGradient><path id="F" d="M0 52C0 23.28 23.28 0 52 0h168c28.72 0 52 23.28 52 52v69c0 28.72-23.28 52-52 52H52c-28.72 0-52-23.28-52-52V52z" class="B"/><path id="G" d="M52 5h168V-5H52V5zm215 47v69h10V52h-10zm-47 116H52v10h168v-10zM5 121V52H-5v69H5zM52-5C20.52-5-5 20.52-5 52H5C5 26.043 26.043 5 52 5V-5zM220 5c25.957 0 47 21.043 47 47h10c0-31.48-25.52-57-57-57V5zm47 116c0 25.957-21.043 47-47 47v10c31.48 0 57-25.52 57-57h-10zM52 168c-25.957 0-47-21.043-47-47H-5c0 31.48 25.52 57 57 57v-10z"/><path id="H" d="M18.623 7.323V0H0v7.323l9.312 8.37 9.31-8.37z"/><path id="I" d="M0 0v7.727C11.73 12 18.623 1.305 18.623 1.305V0H0z"/><path id="J" d="M60 15.545c-.007-4.03-2.528-8.33-6.866-9.55L44.47 4.18 42.006.417a1.027 1.027 0 0 0-1.483-.18l-10.53 9.2-10.56-9.16a1.027 1.027 0 0 0-1.483.186l-2.45 3.77-8.667 1.85C2.497 7.32-.007 11.63 0 15.66l.005 2.595C.008 19.773 1.4 21 3.114 20.997l53.802-.102c1.715-.003 3.102-1.236 3.1-2.754l-.005-2.595z"/><path id="K" d="M7.552 4.163L2.026 0A10.552 10.552 0 0 0 0 6.174L.005 8.77c.003 1.518 1.395 2.745 3.11 2.742l6.4-.012V8.557a5.89 5.89 0 0 0-1.972-4.394z"/><path id="L" d="M10.07 9.772l-.005-2.595C10.062 4.603 9.03 1.92 7.156 0L1.972 5.28A5.89 5.89 0 0 0 0 9.676v2.865l6.972-.013c1.715-.004 3.102-1.237 3.1-2.755z"/><path id="M" d="M2.278 24.427c.163-4.182 2.275-9.44 2.797-10.587l.104-.225a51.894 51.894 0 0 1 5.873-.44c11.238-.188 17.93 3.534 17.93 3.534l2.104 5.033c2.975-9.5 1.926-17.508.973-19.686-7.24 1.06-17.943-5.153-24.688.047l-.573.001C2.512 2.112-.01 5.88 0 10.487.008 14.933 2.06 23.76 2.06 23.76l.217 1.453c0-.15-.006-.37 0-.523v-.262z"/><path id="N" d="M28.746 14.543l.03-.248c.25-2.172.492-4.92-.427-6.934l-1.596-3.82S20.06-.18 8.822.007a51.905 51.905 0 0 0-5.872.44s-.038.078-.105.225c-3.876 8.515-4.5 19.096 2.616 26.126 1.63 1.612 3.6 2.9 5.813 3.524a11.378 11.378 0 0 0 .991.238 11.13 11.13 0 0 0 2.133.205c8.386-.016 13.396-8.713 14.348-16.222z"/><path id="O" d="M4.962 14.41C4.72 2.707 6.644 3.296 6.644 3.296 11.4 2.188 19.25 2.97 27.197 4.624l-.444-1.084S20.06-.18 8.822.007a51.905 51.905 0 0 0-5.872.44s-.038.078-.105.225c-3.876 8.515-4.5 19.096 2.616 26.126 1.63 1.612 3.6 2.9 5.813 3.524a11.378 11.378 0 0 0 .991.238c.695.135 1.405.205 2.127.204-2.608-.924-9.25-7.674-9.43-16.353z"/><path id="P" d="M27.885 2.056c-7.24 1.06-17.943-5.153-24.688.047 0 0-5.37 6.324-2.192 11.513a51.932 51.932 0 0 1 4.629-.404l.026-.001 1.218-.035c11.238-.19 17.93 3.533 17.93 3.533l2.104 5.033c2.975-9.5 1.926-17.508.973-19.686z"/><path id="Q" d="M11.397 12.54l3.098-3.145L3.932.235A1.027 1.027 0 0 0 2.449.42L0 4.19l8.3 11.492 3.098-3.144z"/><path id="R" d="M6.22 15.702L14.476 4.18 12.012.417a1.027 1.027 0 0 0-1.483-.18L0 9.438l6.22 6.265z"/><path id="S" d="M5.02.13L1.14 0 0 5.65l6.208-.012L5.02.13z"/><path id="T" d="M.002 4.2a2.09 2.09 0 0 0 2.073 2.09l2.07-.005C5.283 6.273 6.212 5.33 6.2 4.18l-.002-1.046L3.098 0 0 3.144.002 4.19z"/><path id="U" d="M60 120c33.137 0 60-26.863 60-60S93.137 0 60 0 0 26.863 0 60s26.863 60 60 60z" class="B"/><path id="V" d="M60 121.5c33.966 0 61.5-27.534 61.5-61.5h-3c0 32.31-26.19 58.5-58.5 58.5v3zM121.5 60c0-33.965-27.534-61.5-61.5-61.5v3c32.31 0 58.5 26.19 58.5 58.5h3zM60-1.5C26.035-1.5-1.5 26.035-1.5 60h3C1.5 27.69 27.69 1.5 60 1.5v-3zM-1.5 60c0 33.966 27.535 61.5 61.5 61.5v-3C27.69 118.5 1.5 92.31 1.5 60h-3z"/><path id="W" d="M30.65 12.906h-1.68V19H26.5V4.78h2.46v5.977h1.358l4.18-5.977h3.027l-4.883 6.807L37.965 19h-2.97l-4.346-6.094zm17.432-4.472V19H45.71v-8.652H42.72l-.196 3.68c-.123 1.77-.465 3.044-1.025 3.82-.553.768-1.403 1.152-2.55 1.152h-.732l-.01-1.973.488-.05c.52-.07.9-.387 1.133-.947.24-.566.394-1.595.46-3.086l.194-4.51h7.598zm9.12 0h2.363V19h-2.363v-7.05L53.063 19H50.7V8.434h2.364v7.05l4.14-7.05zm9.54 10.76c-1.504 0-2.725-.472-3.662-1.416-.93-.95-1.397-2.213-1.397-3.79v-.293c0-1.054.202-1.995.606-2.822.4-.833.983-1.48 1.72-1.943a4.53 4.53 0 0 1 2.46-.694c1.44 0 2.55.46 3.33 1.377.788.918 1.182 2.217 1.182 3.897v.957h-6.904c.072.872.36 1.562.87 2.07.514.508 1.158.762 1.933.762a3.21 3.21 0 0 0 2.656-1.319l1.28 1.22a4.301 4.301 0 0 1-1.7 1.475c-.703.345-1.494.517-2.373.517zm-.283-9.052c-.65 0-1.178.227-1.582.683-.397.456-.65 1.1-.762 1.904h4.522v-.175c-.052-.795-.264-1.393-.635-1.797-.37-.4-.886-.615-1.543-.615zM81.783 19H79.4v-4.268h-4.1V19h-2.373V8.434H75.3v4.404h4.11V8.434h2.373V19zm10.85-8.682h-3.428V19h-2.373v-8.682h-3.39V8.434h9.2v1.884z"/><path id="X" d="M11.527 0l-.04.018V.016l-.003.002V0A13.592 13.592 0 0 1 .044 0v.018H.042L.04.016v.002L0 0v5.687l.014-.01a5.76 5.76 0 0 0 11.5-.009l.013-.008V0z"/><path id="Y" d="M3.717 1.105A13.615 13.615 0 0 1 .043 0v.018L.04.016v.002L0 0v5.687l.014-.01a5.759 5.759 0 0 0 3.703 5.004V1.105z"/><path id="Z" d="M52.576 24.718l-3.25-16.293c-.614-3.07-2.872-4.32-4.117-4.782l-.837-.247L32.067.357a5.76 5.76 0 0 1-5.75 5.388A5.76 5.76 0 0 1 20.551 0L8.257 3.397c-.166.075-4.106.787-4.954 5.03l-3.25 16.29c-.164 1.16-.18 3.928 3.416 3.928h45.7c3.597 0 3.58-2.77 3.416-3.927z"/><path id="a" d="M3.77 21.75L7.02 4.122C7.447 1.975 8.68.72 9.8 0L8.257.43C8.1.504 4.15 1.216 3.303 5.458L.054 21.75c-.164 1.158-.18 3.927 3.416 3.927h3.717c-3.598 0-3.58-2.77-3.416-3.927z"/><path id="b" d="M17.068 0C7.642 0 0 7.63 0 17.044v4.35h34.136v-4.35C34.136 7.63 26.494 0 17.068 0z"/><path id="c" d="M18.77.085C8.696-.91 0 6.976 0 17.045v4.35h3.403v-4.35c0-8.84 6.74-16.107 15.367-16.96z"/><path id="d" d="M0 3.556C0 5.52 1.904 7.112 4.253 7.112V0C1.904 0 0 1.592 0 3.556z"/><path id="e" d="M4.253 3.556C4.253 5.52 2.35 7.112 0 7.112V0c2.35 0 4.253 1.592 4.253 3.556z"/><path id="f" d="M.35 0c-1.203 2.326.828 4.966 3.905 4.966v-2.82C2.506 2.146 1.004 1.262.35 0z"/><path id="g" d="M0 2.146v2.82c3.093 0 5.103-2.65 3.905-4.966C3.252 1.262 1.75 2.146 0 2.146z"/><path id="h" d="M0 5.134v7.515c0 7.82 6.5 14.188 14.312 13.824 7.246-.338 13.017-6.3 13.017-13.63V1.85c0-.817-.938-1.272-1.586-.774-1.474 1.13-4.037 2.566-7.946 3.072a.39.39 0 0 1-.425-.49L18.28.4a.323.323 0 0 0-.485-.359C15.602 1.45 8.733 5.304 1.65 3.795A1.37 1.37 0 0 0 0 5.134z"/><path id="i" d="M3.717 9.078V.325A15.64 15.64 0 0 1 1.65.03 1.368 1.368 0 0 0 0 1.37v7.514c0 8.262 7.222 14.84 15.523 13.713-6.667-.905-11.806-6.612-11.806-13.52z"/><path id="j" d="M9.77 9.768a9.838 9.838 0 0 0 9.741-8.433L15.534.35l-.013.007a5.76 5.76 0 0 1-5.75 5.388A5.76 5.76 0 0 1 4.006 0L0 1.107a9.836 9.836 0 0 0 9.77 8.66z"/><path id="k" d="M291.82 0a2.5 2.5 0 1 0-5 0h5zM0 34.338a2.5 2.5 0 0 0 0 5v-5zM286.82 0v21.838h5V0h-5zm-12.5 34.338H0v5h274.32v-5zm12.5-12.5c0 6.904-5.596 12.5-12.5 12.5v5c9.665 0 17.5-7.835 17.5-17.5h-5z"/><path id="l" d="M284.82 0a2.5 2.5 0 1 0-5 0h5zM0 34.338a2.5 2.5 0 0 0 0 5v-5zM279.82 0v21.838h5V0h-5zm-12.5 34.338H0v5h267.32v-5zm12.5-12.5c0 6.904-5.596 12.5-12.5 12.5v5c9.665 0 17.5-7.835 17.5-17.5h-5z"/><path id="m" d="M23.5 47C36.48 47 47 36.48 47 23.5S36.48 0 23.5 0 0 10.52 0 23.5 10.52 47 23.5 47z" class="B"/><path id="n" d="M23.5 47.5c13.255 0 24-10.745 24-24h-1c0 12.703-10.297 23-23 23v1zm24-24c0-13.255-10.745-24-24-24v1c12.703 0 23 10.297 23 23h1zm-24-24c-13.255 0-24 10.745-24 24h1c0-12.703 10.297-23 23-23v-1zm-24 24c0 13.255 10.745 24 24 24v-1c-12.703 0-23-10.297-23-23h-1z"/><path id="o" d="M3.5 0a2.5 2.5 0 0 0-5 0h5zm-5 249.726a2.5 2.5 0 0 0 5 0h-5zM-1.5 0v249.726h5V0h-5z"/><path id="p" d="M33.268 15.338c0-.625-.222-1.107-.665-1.445-.436-.34-1.227-.68-2.373-1.026s-2.057-.73-2.734-1.152C26.2 10.9 25.553 9.84 25.553 8.53c0-1.146.465-2.1 1.396-2.832.938-.742 2.152-1.113 3.643-1.113 1 0 1.872.182 2.646.547s1.384.885 1.827 1.562c.442.67.663 1.416.663 2.237h-2.46c0-.743-.235-1.322-.703-1.74-.463-.423-1.127-.634-1.993-.634-.807 0-1.435.172-1.884.517-.443.345-.665.827-.665 1.445 0 .52.24.958.723 1.3.482.344 1.276.683 2.383 1.015 1.107.325 1.995.7 2.666 1.123.67.416 1.162.898 1.474 1.445.313.54.47 1.175.47 1.904 0 1.185-.456 2.13-1.368 2.832-.905.697-2.135 1.045-3.69 1.045-1.03 0-1.976-.19-2.842-.566-.86-.384-1.53-.912-2.012-1.582-.475-.67-.713-1.452-.713-2.344h2.47c0 .807.267 1.432.8 1.875s1.3.664 2.296.664c.86 0 1.504-.172 1.933-.517.437-.352.655-.814.655-1.387zm7.382-9.473v2.57h1.866v1.757H40.65v5.9c0 .404.078.697.235.88.163.175.45.263.86.263.273 0 .55-.032.83-.097v1.836a5.84 5.84 0 0 1-1.563.224c-1.823 0-2.735-1.006-2.735-3.017V10.2H36.54V8.434h1.738v-2.57h2.373zm2.95 7.754c0-1.035.205-1.966.615-2.793.4-.833.986-1.47 1.728-1.914.742-.45 1.595-.674 2.56-.674 1.426 0 2.58.46 3.467 1.377.892.918 1.373 2.136 1.445 3.653l.01.556c0 1.042-.202 1.973-.606 2.793a4.4 4.4 0 0 1-1.718 1.904c-.743.45-1.602.674-2.578.674-1.49 0-2.686-.494-3.584-1.484-.892-.996-1.338-2.32-1.338-3.975v-.117zm2.373.205c0 1.088.224 1.94.674 2.56.45.612 1.074.918 1.875.918s1.422-.313 1.865-.938c.45-.625.673-1.54.673-2.744 0-1.068-.23-1.914-.693-2.54-.456-.625-1.077-.937-1.865-.937-.775 0-1.4.31-1.846.927-.456.612-.683 1.53-.683 2.754zm9.013-.205c0-1.035.205-1.966.616-2.793.4-.833.986-1.47 1.728-1.914.742-.45 1.595-.674 2.56-.674 1.425 0 2.58.46 3.466 1.377.892.918 1.374 2.136 1.446 3.653l.01.556c0 1.042-.202 1.973-.606 2.793a4.4 4.4 0 0 1-1.719 1.904c-.742.45-1.6.674-2.578.674-1.5 0-2.685-.494-3.584-1.484-.892-.996-1.338-2.32-1.338-3.975v-.117zm2.373.205c0 1.088.225 1.94.674 2.56.45.612 1.074.918 1.875.918s1.423-.313 1.865-.938c.45-.625.674-1.54.674-2.744 0-1.068-.23-1.914-.693-2.54-.456-.625-1.078-.937-1.865-.937-.775 0-1.4.31-1.846.927-.456.612-.684 1.53-.684 2.754zM69.342 19H66.97V4h2.373v15zm5.117 0h-2.373V4h2.373v15zm7.246.195c-1.504 0-2.724-.472-3.662-1.416-.93-.95-1.397-2.213-1.397-3.79v-.293c0-1.054.202-1.995.606-2.822.4-.833.983-1.48 1.72-1.943a4.531 4.531 0 0 1 2.46-.694c1.44 0 2.55.46 3.33 1.377.788.918 1.182 2.217 1.182 3.897v.957H79.04c.072.872.36 1.562.87 2.07s1.158.762 1.933.762a3.21 3.21 0 0 0 2.656-1.319l1.28 1.22a4.3 4.3 0 0 1-1.7 1.475c-.703.345-1.494.517-2.373.517zm-.283-9.052c-.65 0-1.178.227-1.582.683-.397.456-.65 1.1-.762 1.904H83.6v-.175c-.052-.795-.264-1.393-.635-1.797-.37-.4-.886-.615-1.543-.615zm11.904.46a5.87 5.87 0 0 0-.967-.079c-1.087 0-1.82.417-2.197 1.25V19H87.8V8.434h2.266l.058 1.18c.573-.918 1.368-1.377 2.383-1.377.34 0 .62.046.84.137l-.01 2.227z"/><path id="q" d="M46.9 3.143L38.218 0 25.9 2.452 13.56 0l-8.7 3.143A7.357 7.357 0 0 0 0 10.055v9.558a1.23 1.23 0 0 0 1.233 1.226h49.314a1.23 1.23 0 0 0 1.232-1.226v-9.558a7.357 7.357 0 0 0-4.869-6.912z"/><path id="r" d="M0 0h17.26v12.258H0V0z"/><path id="s" d="M0 3.814A17.233 17.233 0 0 0 8.63 6.13a17.23 17.23 0 0 0 8.63-2.315V0H0v3.814z"/><path id="t" d="M28.355 0H12.328a7.389 7.389 0 0 0-5.53 2.482C2.994 2.786 0 5.946 0 9.807v4.62A12.22 12.22 0 0 0 .368 17.4l.497 1.975a12.21 12.21 0 0 1 .368 2.973v2.168H30.82v-2.168c0-1.002.124-2 .368-2.973l.497-1.975a12.22 12.22 0 0 0 .368-2.973V3.677A3.69 3.69 0 0 0 28.354 0z"/><path id="u" d="M12.328 22.037V9.78H9.863c-2.724 0-4.932-2.195-4.932-4.903 0-1.873.71-3.577 1.87-4.876l-.003.003C2.994.307 0 3.467 0 7.328v4.62c0 1.002.124 2 .368 2.973l.497 1.975c.244.972.368 1.97.368 2.973v2.168h11.095z"/><path id="v" d="M1.556 0A7.303 7.303 0 0 0 0 4.484v9.558a1.23 1.23 0 0 0 1.233 1.226H8.63v-4.56a7.33 7.33 0 0 0-1.87-4.886L1.556 0z"/><path id="w" d="M4.206 0L.726.001 0 14.7h4.93L4.206 0z"/><path id="x" d="M0 0v3.677a1.23 1.23 0 0 0 1.233 1.226h2.465a1.23 1.23 0 0 0 1.233-1.226V0H0z"/><path id="y" d="M3.48.186l8.848 5.5L7.193 10.8a1.237 1.237 0 0 1-1.875-.154L0 3.233 1.802.546A1.237 1.237 0 0 1 3.48.186z"/><path id="z" d="M8.848.186L0 5.685 5.135 10.8a1.237 1.237 0 0 0 1.875-.154l5.318-7.403-1.8-2.687a1.237 1.237 0 0 0-1.68-.36z"/><path id="AA" d="M24.676 3.256C18.923-.478 10.03-.168 5.92.223a2.45 2.45 0 0 0-2.22 2.44v2.832a2.65 2.65 0 0 1-.784 1.881L.784 9.496A2.652 2.652 0 0 0 0 11.376v2.088c0 8.1 6.373 15.047 14.517 15.195 8.297.15 15.07-6.49 15.07-14.707v-2.576a2.65 2.65 0 0 0-.783-1.88l-2.132-2.12a2.653 2.653 0 0 1-.783-1.88 2.67 2.67 0 0 0-1.214-2.24z"/><path id="AB" d="M8.63 17.63V6.42a2.45 2.45 0 0 1 2.4-2.452c3.848-.085 10.032.082 14.87 1.647-.001-.04-.01-.08-.01-.12 0-.9-.452-1.744-1.2-2.236C19.987.2 13.202-.145 8.63.04c-1.033.042-1.954.1-2.71.183a2.45 2.45 0 0 0-2.22 2.44v2.832c0 .705-.282 1.382-.784 1.88l-2.13 2.12A2.652 2.652 0 0 0 0 11.375v2.088c0 7.786 5.895 14.5 13.586 15.13C10.55 25.898 8.63 21.99 8.63 17.628z"/><path id="AC" d="M17.077.693L25.3 8.976a2.39 2.39 0 0 1 0 3.357L12.654 25.066h5.762c.3 0 .542.244.542.545s-.243.545-.542.545H7.583a.543.543 0 0 1-.541-.545c0-.3.242-.545.54-.545h.945L.7 17.18A2.364 2.364 0 0 1 0 15.501c0-.636.245-1.232.7-1.68L13.738.694A2.336 2.336 0 0 1 15.408 0c.632 0 1.224.246 1.67.693zM11.494 24.69l13.05-13.128a1.292 1.292 0 0 0 0-1.817l-4.537-4.564L7.474 17.8a.538.538 0 0 1-.766 0 .547.547 0 0 1 0-.77L19.24 4.412l-2.93-2.948a1.264 1.264 0 0 0-.903-.374c-.342 0-.663.133-.903.374L1.455 14.592a1.28 1.28 0 0 0-.372.909 1.28 1.28 0 0 0 .372.908l.633.636L14.62 4.437a.54.54 0 0 1 .766 0 .547.547 0 0 1 0 .77L2.854 17.816l6.834 6.876c.24.24.56.373.9.374h.005c.342 0 .662-.133.9-.374z" class="B"/><path id="AD" d="M5.187.16a.54.54 0 0 0-.766 0L.16 4.447a.547.547 0 0 0 .383.93.539.539 0 0 0 .383-.159L5.187.93a.547.547 0 0 0 0-.77z"/><path id="AE" d="M1.907.16L.16 1.918a.547.547 0 0 0 .383.93.538.538 0 0 0 .383-.16L2.673.93a.547.547 0 0 0 0-.77.54.54 0 0 0-.766 0z"/><path id="AF" d="M.388.16L.158.4a.547.547 0 0 0 .384.931.538.538 0 0 0 .383-.16l.23-.23a.547.547 0 0 0 0-.771.54.54 0 0 0-.767 0z"/><path id="AG" d="M2.84 0a.54.54 0 0 1 .383.16L4.755 1.7a.547.547 0 0 1 0 .771L2.457 4.783a.538.538 0 0 1-.766 0L.16 3.243a.547.547 0 0 1 0-.771L2.457.16A.54.54 0 0 1 2.84 0zm.766 2.086l-.766-.77-1.532 1.54.766.77 1.532-1.54z" class="B"/><path id="AH" d="M.542 1.32a.538.538 0 0 0 .383-.16l.23-.23a.547.547 0 0 0 0-.771.54.54 0 0 0-.767 0L.158.4a.547.547 0 0 0 .384.931z"/><path id="AI" d="M.388.16L.158.4a.547.547 0 0 0 .384.931.538.538 0 0 0 .383-.16l.23-.23a.547.547 0 0 0 0-.771.54.54 0 0 0-.767 0z"/><path id="AJ" d="M10.5 21C16.3 21 21 16.3 21 10.5S16.3 0 10.5 0 0 4.7 0 10.5 4.7 21 10.5 21z" class="B"/><path id="AK" d="M11 0C4.925 0 0 4.925 0 11s4.925 11 11 11 11-4.925 11-11S17.075 0 11 0zm0 20.625A9.64 9.64 0 0 1 1.375 11 9.64 9.64 0 0 1 11 1.375 9.64 9.64 0 0 1 20.625 11 9.64 9.64 0 0 1 11 20.625zm3.812-7.65c0-.592-.13-1.11-.393-1.552a2.86 2.86 0 0 0-1.054-1.04c-.44-.252-1.046-.52-1.82-.8-.703-.26-1.164-.475-1.377-.65s-.323-.427-.323-.754.112-.595.335-.82.517-.338.885-.338c.733 0 1.273.504 1.623 1.514l1.794-.736c-.428-1.472-1.37-2.296-2.827-2.47V4.125h-1.302v1.202c-.964.135-1.67.507-2.12 1.115A3.389 3.389 0 0 0 7.56 8.5c0 .58.126 1.1.377 1.528s.58.776.982 1.018.963.49 1.678.737c.796.282 1.3.514 1.542.698s.346.453.346.81a1.23 1.23 0 0 1-.346.879c-.23.243-.594.364-1.084.364-1.05 0-1.666-.567-1.853-1.7l-2.014.524c.407 1.805 1.46 2.796 3.165 2.97v1.55h1.302V16.32c1.022-.108 1.804-.465 2.345-1.072s.812-1.363.812-2.272z" class="B"/><path id="AL" d="M11 0C4.925 0 0 4.925 0 11s4.925 11 11 11 11-4.925 11-11S17.075 0 11 0zm0 20.625A9.64 9.64 0 0 1 1.375 11 9.64 9.64 0 0 1 11 1.375 9.64 9.64 0 0 1 20.625 11 9.64 9.64 0 0 1 11 20.625zm3.812-7.65c0-.592-.13-1.11-.393-1.552a2.86 2.86 0 0 0-1.054-1.04c-.44-.252-1.046-.52-1.82-.8-.703-.26-1.164-.475-1.377-.65s-.323-.427-.323-.754.112-.595.335-.82.517-.338.885-.338c.733 0 1.273.504 1.623 1.514l1.794-.736c-.428-1.472-1.37-2.296-2.827-2.47V4.125h-1.302v1.202c-.964.135-1.67.507-2.12 1.115A3.389 3.389 0 0 0 7.56 8.5c0 .58.126 1.1.377 1.528s.58.776.982 1.018.962.49 1.678.737c.796.282 1.3.514 1.542.698s.346.453.346.81a1.23 1.23 0 0 1-.346.879c-.23.243-.594.364-1.084.364-1.05 0-1.666-.567-1.853-1.7l-2.014.524c.407 1.805 1.46 2.796 3.165 2.97v1.55h1.302V16.32c1.022-.108 1.804-.465 2.345-1.072s.812-1.363.812-2.272z" class="B"/><path id="AM" d="M25.816 19V4.78h4.873c1.608 0 2.833.323 3.672.967s1.26 1.605 1.26 2.88a3.07 3.07 0 0 1-.527 1.759c-.352.52-.866.924-1.543 1.2.768.21 1.36.603 1.777 1.182.423.573.635 1.263.635 2.07 0 1.335-.43 2.36-1.3 3.077-.852.716-2.076 1.074-3.67 1.074h-5.186zm2.47-6.416v4.443h2.744c.775 0 1.38-.192 1.817-.576s.654-.918.654-1.6c0-1.478-.755-2.233-2.266-2.266h-2.95zm0-1.816h2.422c.768 0 1.367-.173 1.797-.518.436-.352.654-.846.654-1.484 0-.704-.202-1.21-.605-1.524-.397-.312-1.02-.47-1.866-.47h-2.402v3.995zm14.57 8.427c-1.504 0-2.724-.472-3.662-1.416-.93-.95-1.396-2.213-1.396-3.79v-.293c0-1.054.202-1.995.605-2.822.4-.833.983-1.48 1.72-1.943a4.531 4.531 0 0 1 2.461-.694c1.44 0 2.55.46 3.33 1.377.788.918 1.182 2.217 1.182 3.897v.957H40.2c.072.872.362 1.562.87 2.07.514.508 1.158.762 1.933.762 1.087 0 1.973-.44 2.656-1.32l1.28 1.22a4.301 4.301 0 0 1-1.7 1.475c-.703.345-1.494.517-2.373.517zm-.283-9.052c-.65 0-1.178.227-1.582.683-.397.456-.65 1.1-.76 1.904h4.52v-.175c-.052-.795-.264-1.393-.635-1.797-.37-.4-.885-.615-1.543-.615zM57.897 19h-2.374v-4.268h-4.1V19H49.04V8.434h2.373v4.404h4.11V8.434h2.373V19zm2.578-1.895c.657-.735 1.097-1.432 1.318-2.1.228-.663.365-1.5.4-2.538l.137-4.043h7.334v8.67h1.465v5.04h-2.364V19h-6.777v3.145h-2.402l.01-5.04h.87zm2.783 0h4.053v-6.63h-2.667l-.068 2.02c-.09 1.94-.53 3.477-1.318 4.6zm14.228 2.1c-1.504 0-2.724-.472-3.662-1.416-.93-.95-1.396-2.213-1.396-3.79v-.293c0-1.054.202-1.995.605-2.822.4-.833.983-1.48 1.72-1.943a4.53 4.53 0 0 1 2.46-.694c1.44 0 2.55.46 3.33 1.377.788.918 1.182 2.217 1.182 3.897v.957H74.82c.072.872.362 1.562.87 2.07.514.508 1.158.762 1.933.762 1.087 0 1.973-.44 2.656-1.32l1.28 1.22a4.301 4.301 0 0 1-1.7 1.475c-.703.345-1.494.517-2.373.517zm-.283-9.052c-.65 0-1.178.227-1.582.683-.397.456-.65 1.1-.762 1.904h4.522v-.175c-.052-.795-.264-1.393-.635-1.797-.37-.4-.885-.615-1.543-.615zm15.625 3.68c0 1.634-.37 2.94-1.113 3.916-.742.97-1.738 1.455-2.988 1.455-1.16 0-2.087-.38-2.784-1.142v5H83.57V8.432h2.188l.098 1.075c.696-.847 1.643-1.27 2.84-1.27 1.3 0 2.298.482 3.028 1.446.735.957 1.103 2.288 1.103 3.994v.146zm-2.363-.205c0-1.054-.212-1.89-.635-2.5-.417-.618-1.016-.927-1.797-.927-.97 0-1.666.4-2.1 1.2v4.688c.43.82 1.133 1.23 2.1 1.23.755 0 1.344-.302 1.767-.907.43-.612.645-1.537.645-2.774z"/><path id="AN" d="M0 10C0 4.48 4.477 0 10 0h432c5.523 0 10 4.478 10 10v134c0 5.522-4.477 10-10 10H229.95l-11.717 21.324L206.022 154H10c-5.523 0-10-4.478-10-10V10z" class="B"/><path id="AO" d="M13.096 20h-3.018V8.242H4.824V20H1.797V5.723h11.3V20zm5.742-5.48c0 1.08.176 1.898.527 2.452.358.553.938.83 1.74.83.794 0 1.363-.274 1.71-.82.35-.554.527-1.374.527-2.462 0-1.08-.176-1.9-.527-2.43s-.928-.8-1.73-.8c-.794 0-1.367.27-1.72.8-.35.534-.527 1.344-.527 2.43zm7.55 0c0 1.778-.47 3.168-1.407 4.17s-2.242 1.504-3.916 1.504c-1.048 0-1.972-.228-2.773-.683a4.611 4.611 0 0 1-1.846-1.983c-.43-.86-.644-1.862-.644-3.008 0-1.783.465-3.17 1.396-4.16s2.24-1.484 3.926-1.484c1.048 0 1.973.228 2.773.684s1.416 1.1 1.846 1.962.645 1.853.645 2.998zm6.894 5.674c-3.398 0-5.097-1.865-5.097-5.595 0-1.856.462-3.272 1.386-4.248.925-.984 2.25-1.475 3.975-1.475 1.263 0 2.396.247 3.398.742l-.878 2.305a13.92 13.92 0 0 0-1.31-.46 4.114 4.114 0 0 0-1.21-.185c-1.55 0-2.324 1.1-2.324 3.3 0 2.135.774 3.203 2.324 3.203.573 0 1.103-.075 1.592-.224a5.88 5.88 0 0 0 1.465-.723v2.55c-.482.306-.97.517-1.465.634-.49.118-1.107.176-1.856.176zM48.916 20h-2.978v-8.682h-2.745c-.208 2.442-.462 4.265-.76 5.47-.3 1.197-.7 2.066-1.202 2.607-.494.533-1.145.8-1.953.8-.7 0-1.256-.104-1.7-.312V17.5c.32.13.638.195.957.195.37 0 .68-.267.928-.8.254-.534.478-1.423.674-2.666.202-1.25.374-2.966.517-5.147h8.262V20zm7.656-9.004c-.63 0-1.126.202-1.484.606-.358.397-.563.963-.615 1.7h4.18c-.014-.736-.206-1.302-.577-1.7-.37-.403-.872-.605-1.504-.605zm.42 9.2c-1.758 0-3.13-.486-4.12-1.456s-1.485-2.343-1.485-4.12c0-1.83.455-3.243 1.367-4.24.918-1.002 2.184-1.503 3.8-1.503 1.543 0 2.744.44 3.603 1.318s1.3 2.093 1.3 3.643v1.445h-7.042c.033.847.283 1.507.752 1.983s1.127.713 1.973.713c.657 0 1.28-.07 1.865-.206a9.33 9.33 0 0 0 1.836-.654v2.305c-.52.26-1.077.452-1.67.576-.592.13-1.315.195-2.168.195zm14.785-6.915c1.127 0 1.924-.1 2.393-.273.475-.182.713-.472.713-.87 0-.35-.173-.615-.518-.8s-.914-.264-1.71-.264c-.5 0-1.07.062-1.71.186a9.133 9.133 0 0 0-1.728.507l-.88-2.08a12.118 12.118 0 0 1 2.257-.625c.73-.13 1.543-.195 2.44-.195 1.36 0 2.45.26 3.272.78s1.23 1.227 1.23 2.12c0 1.23-.726 2.03-2.178 2.402v.097c.892.222 1.527.538 1.905.948.384.403.576.934.576 1.59 0 .665-.215 1.254-.645 1.768s-1.05.91-1.865 1.19-1.77.42-2.87.42c-1.823 0-3.223-.224-4.2-.674v-2.46a9.13 9.13 0 0 0 1.837.615c.67.15 1.318.224 1.943.224.97 0 1.696-.107 2.178-.322.482-.22.722-.534.722-.937 0-.443-.254-.77-.76-.977-.508-.215-1.3-.322-2.344-.322h-1.152v-2.06h1.093zM87.1 20l-.576-1.484h-.078c-.5.63-1.02 1.07-1.553 1.318-.527.24-1.217.36-2.07.36-1.048 0-1.875-.3-2.48-.898-.6-.6-.9-1.452-.9-2.56 0-1.16.404-2.01 1.21-2.558.814-.554 2.038-.86 3.672-.918l1.895-.06v-.478c0-1.107-.567-1.66-1.7-1.66-.872 0-1.898.263-3.076.8l-.986-2.01c1.256-.658 2.65-.987 4.18-.987 1.464 0 2.587.32 3.37.957s1.17 1.608 1.17 2.9V20H87.1zm-.878-5.06l-1.153.04c-.866.026-1.5.182-1.934.468s-.634.723-.634 1.31c0 .84.48 1.26 1.445 1.26.7 0 1.24-.2 1.65-.596.417-.397.626-.925.626-1.582v-.9zm16.113-2.998c0 .586-.186 1.088-.557 1.504-.364.4-.905.674-1.62.79v.078c.775.092 1.387.358 1.836.8.456.436.684.977.684 1.62 0 1.06-.417 1.872-1.25 2.432-.834.553-2.025.83-3.575.83h-5.595V9.082h5.595c1.498 0 2.618.244 3.36.732.748.482 1.123 1.192 1.123 2.13zm-2.745 4.64c0-.43-.166-.74-.498-.928-.333-.195-.83-.293-1.495-.293h-2.363v2.578h2.422c.632 0 1.1-.117 1.436-.35a1.17 1.17 0 0 0 .498-1.006zm-.274-4.404c0-.664-.527-.996-1.582-.996h-2.5v2.158h2.158c.632 0 1.1-.09 1.436-.274s.488-.478.488-.888zm10.254-1.182c-.63 0-1.126.202-1.484.606-.358.397-.563.963-.616 1.7h4.18c-.013-.736-.205-1.302-.576-1.7-.37-.403-.872-.605-1.504-.605zm.42 9.2c-1.758 0-3.132-.486-4.12-1.456s-1.484-2.343-1.484-4.12c0-1.83.455-3.243 1.367-4.24.918-1.002 2.184-1.503 3.8-1.503 1.543 0 2.744.44 3.603 1.318s1.29 2.093 1.29 3.643v1.445h-7.04c.033.847.283 1.507.752 1.983s1.126.713 1.973.713c.657 0 1.28-.07 1.865-.206a9.33 9.33 0 0 0 1.836-.654v2.305a6.855 6.855 0 0 1-1.67.576c-.592.13-1.315.195-2.168.195zm12.87 0c-1.282 0-2.288-.466-3.017-1.397h-.157l.157 1.582v4.424h-2.98V9.082h2.422l.42 1.416h.137c.696-1.08 1.728-1.62 3.095-1.62 1.29 0 2.298.498 3.028 1.494s1.093 2.38 1.093 4.15c0 1.166-.172 2.178-.517 3.038-.34.86-.824 1.513-1.455 1.962s-1.374.674-2.227.674zm-.88-8.936c-.735 0-1.273.228-1.61.683s-.514 1.195-.527 2.237v.322c0 1.172.172 2.012.517 2.52.352.507.905.76 1.66.76 1.335 0 2.002-1.1 2.002-3.3 0-1.075-.166-1.88-.498-2.413-.325-.54-.84-.8-1.543-.8zm23.8 8.74h-16.26V9.082h2.98v8.682h3.662V9.082h2.978v8.682h3.662V9.082h2.98V20zm7.656-9.004c-.63 0-1.126.202-1.484.606-.358.397-.563.963-.615 1.7h4.18c-.013-.736-.205-1.302-.576-1.7-.37-.403-.872-.605-1.504-.605zm.42 9.2c-1.758 0-3.13-.486-4.12-1.456s-1.484-2.343-1.484-4.12c0-1.83.455-3.243 1.367-4.24.918-1.002 2.184-1.503 3.8-1.503 1.543 0 2.744.44 3.603 1.318s1.29 2.093 1.29 3.643v1.445h-7.04c.033.847.283 1.507.752 1.983s1.127.713 1.973.713c.657 0 1.28-.07 1.865-.206a9.33 9.33 0 0 0 1.836-.654v2.305a6.84 6.84 0 0 1-1.67.576c-.592.13-1.315.195-2.168.195zm9.854-11.114v4.2h4.16v-4.2h2.978V20h-2.978v-4.502h-4.16V20h-2.98V9.082h2.98zm13.144 0v4.316c0 .456-.075 1.57-.224 3.34l5.04-7.656h3.584V20h-2.88v-4.355c0-.775.065-1.87.195-3.282L177.56 20h-3.575V9.082h2.88zM190.06 20h-3.223l2.94-4.316c-.703-.293-1.237-.717-1.6-1.27-.358-.553-.537-1.204-.537-1.953 0-1.055.394-1.882 1.18-2.48.795-.6 1.875-.9 3.243-.9h5.078V20h-2.98v-4.063h-1.64L190.06 20zm.498-7.52c0 .456.18.814.537 1.075.358.254.827.38 1.406.38h1.66v-2.753h-2.04c-.488 0-.872.12-1.152.36a1.17 1.17 0 0 0-.41.938zm17.607.8c1.126 0 1.924-.1 2.393-.273.475-.182.713-.472.713-.87 0-.35-.173-.615-.518-.8s-.915-.264-1.71-.264c-.5 0-1.07.062-1.71.186a9.132 9.132 0 0 0-1.729.507l-.878-2.08a12.097 12.097 0 0 1 2.255-.625 13.98 13.98 0 0 1 2.442-.195c1.36 0 2.45.26 3.27.78s1.23 1.227 1.23 2.12c0 1.23-.726 2.03-2.178 2.402v.097c.892.222 1.527.538 1.904.948.384.403.577.934.577 1.59 0 .665-.215 1.254-.645 1.768s-1.05.91-1.865 1.19-1.77.42-2.87.42c-1.823 0-3.223-.224-4.2-.674v-2.46a9.12 9.12 0 0 0 1.836.615 8.9 8.9 0 0 0 1.944.224c.97 0 1.696-.107 2.177-.322.482-.22.723-.534.723-.937 0-.443-.254-.77-.762-.977-.507-.215-1.29-.322-2.343-.322h-1.153v-2.06h1.094zM223.496 20l-.576-1.484h-.078c-.502.63-1.02 1.07-1.553 1.318-.527.24-1.217.36-2.07.36-1.048 0-1.875-.3-2.48-.898-.6-.6-.898-1.452-.898-2.56 0-1.16.403-2.01 1.21-2.558.814-.554 2.038-.86 3.672-.918l1.894-.06v-.478c0-1.107-.566-1.66-1.7-1.66-.872 0-1.898.263-3.076.8l-.987-2.01c1.257-.658 2.65-.987 4.18-.987 1.465 0 2.588.32 3.37.957s1.172 1.608 1.172 2.9V20h-2.08zm-.88-5.06l-1.152.04c-.866.026-1.51.182-1.934.468s-.635.723-.635 1.31c0 .84.482 1.26 1.446 1.26.7 0 1.24-.2 1.65-.596.417-.397.625-.925.625-1.582v-.9zm13.194-5.86h3.28l-4.326 5.234L239.473 20h-3.38l-4.463-5.537V20h-2.98V9.082h2.98v5.303l4.18-5.303zM247.97 20l-.576-1.484h-.08c-.5.63-1.018 1.07-1.552 1.318-.528.24-1.218.36-2.07.36-1.048 0-1.875-.3-2.48-.898-.6-.6-.9-1.452-.9-2.56 0-1.16.404-2.01 1.21-2.558.814-.554 2.038-.86 3.672-.918l1.895-.06v-.478c0-1.107-.567-1.66-1.7-1.66-.873 0-1.898.263-3.077.8l-.986-2.01c1.257-.658 2.65-.987 4.18-.987 1.465 0 2.588.32 3.37.957s1.172 1.608 1.172 2.9V20h-2.08zm-.88-5.06l-1.152.04c-.866.026-1.51.182-1.934.468s-.635.723-.635 1.31c0 .84.482 1.26 1.445 1.26.69 0 1.24-.2 1.65-.596.417-.397.625-.925.625-1.582v-.9zm8.75-1.66c1.126 0 1.924-.1 2.392-.273.476-.182.713-.472.713-.87 0-.35-.172-.615-.517-.8s-.915-.264-1.71-.264c-.502 0-1.07.062-1.71.186a9.132 9.132 0 0 0-1.729.507l-.88-2.08a12.128 12.128 0 0 1 2.256-.625 13.95 13.95 0 0 1 2.442-.195c1.36 0 2.45.26 3.27.78s1.23 1.227 1.23 2.12c0 1.23-.726 2.03-2.178 2.402v.097c.892.222 1.527.538 1.904.948.384.403.576.934.576 1.59a2.68 2.68 0 0 1-.644 1.768c-.43.514-1.052.91-1.865 1.19s-1.77.42-2.872.42c-1.822 0-3.222-.224-4.2-.674v-2.46a9.12 9.12 0 0 0 1.836.615 8.9 8.9 0 0 0 1.944.224c.97 0 1.695-.107 2.177-.322.482-.22.723-.534.723-.937 0-.443-.254-.77-.762-.977-.508-.215-1.29-.322-2.344-.322h-1.152v-2.06h1.094zM271.172 20l-.576-1.484h-.078c-.502.63-1.02 1.07-1.553 1.318-.527.24-1.218.36-2.07.36-1.05 0-1.875-.3-2.48-.898-.6-.6-.898-1.452-.898-2.56 0-1.16.403-2.01 1.21-2.558.813-.554 2.037-.86 3.67-.918l1.895-.06v-.478c0-1.107-.566-1.66-1.7-1.66-.873 0-1.898.263-3.076.8l-.987-2.01c1.257-.658 2.65-.987 4.18-.987 1.465 0 2.588.32 3.37.957s1.172 1.608 1.172 2.9V20h-2.08zm-.88-5.06l-1.152.04c-.866.026-1.51.182-1.934.468s-.635.723-.635 1.31c0 .84.482 1.26 1.446 1.26.7 0 1.24-.2 1.65-.596.417-.397.625-.925.625-1.582v-.9zM8.398 45.822v-6.504H6.162a28.35 28.35 0 0 1-.674 3.448 14.021 14.021 0 0 1-1.172 3.056h4.082zm4.58 6.094h-2.675V48H2.96v3.916H.283v-6.094H1.2c.625-.97 1.15-2.194 1.572-3.672s.72-3.167.9-5.068h7.714v8.74h1.6v6.094zm6.387-12.92c-.63 0-1.126.202-1.484.606-.358.397-.563.963-.615 1.7h4.18c-.014-.736-.206-1.302-.577-1.7s-.872-.605-1.504-.605zm.42 9.2c-1.758 0-3.13-.486-4.12-1.456s-1.485-2.343-1.485-4.12c0-1.83.455-3.243 1.367-4.24.918-1.002 2.184-1.503 3.8-1.503 1.543 0 2.744.44 3.603 1.318s1.3 2.093 1.3 3.643v1.445h-7.042c.033.847.284 1.507.752 1.983s1.127.712 1.973.712a8.17 8.17 0 0 0 1.865-.205 9.33 9.33 0 0 0 1.836-.654v2.305c-.52.26-1.077.452-1.67.576-.592.13-1.315.195-2.168.195zm9.854-11.114v4.2h4.16v-4.2h2.978V48H33.8v-4.502h-4.16V48h-2.98V37.082h2.98zM42.88 41.3h2.1c1.68 0 2.923.267 3.73.8s1.2 1.342 1.2 2.422c0 2.318-1.607 3.477-4.823 3.477h-5.196V37.082h2.98v4.22zm4.062 3.26c0-.423-.17-.73-.508-.917s-.843-.284-1.513-.284H42.88v2.58h2.08c1.322 0 1.982-.46 1.982-1.377zm12.784-7.48v2.236h-4.56V48h-2.978V37.082h7.54zm4.912 0v4.316c0 .456-.075 1.57-.225 3.34l5.04-7.656h3.583V48h-2.88v-4.355c0-.775.064-1.87.195-3.282L65.332 48h-3.574V37.082h2.88zm26.806 2.86c0 .586-.185 1.088-.556 1.504-.365.4-.905.674-1.62.79v.078c.774.092 1.386.358 1.835.8.456.436.684.977.684 1.62 0 1.062-.417 1.872-1.25 2.432-.833.553-2.025.83-3.574.83h-5.596V37.082h5.596c1.497 0 2.617.244 3.36.733.748.48 1.122 1.2 1.122 2.128zm-2.744 4.64c0-.43-.166-.74-.498-.928-.332-.195-.83-.293-1.494-.293h-2.363v2.58h2.422c.63 0 1.1-.118 1.435-.352a1.17 1.17 0 0 0 .498-1.006zm-.273-4.404c0-.664-.528-.996-1.582-.996h-2.5v2.158h2.158c.63 0 1.1-.09 1.435-.274s.49-.478.49-.888zm10.254-1.182c-.632 0-1.127.202-1.485.606-.358.397-.563.963-.615 1.7h4.18c-.013-.736-.205-1.302-.576-1.7s-.873-.605-1.504-.605zm.42 9.2c-1.758 0-3.132-.486-4.12-1.456s-1.485-2.343-1.485-4.12c0-1.83.456-3.243 1.367-4.24.918-1.002 2.184-1.503 3.8-1.503 1.542 0 2.743.44 3.603 1.318s1.29 2.093 1.29 3.643v1.445h-7.04c.032.847.283 1.507.752 1.983s1.126.712 1.972.712a8.19 8.19 0 0 0 1.866-.205 9.344 9.344 0 0 0 1.835-.654v2.305a6.86 6.86 0 0 1-1.669.576c-.593.13-1.316.195-2.168.195zm9.853-11.114v4.2h4.16v-4.2h2.98V48h-2.98v-4.502h-4.16V48h-2.978V37.082h2.978zm17.1 8.74v-6.504h-2.237a28.295 28.295 0 0 1-.673 3.448 14.04 14.04 0 0 1-1.172 3.056h4.082zm4.58 6.094h-2.676V48h-7.344v3.916h-2.676v-6.094h.918c.625-.97 1.15-2.194 1.573-3.672s.72-3.167.888-5.068h7.715v8.74h1.602v6.094zm4.238-9.394c0 1.08.176 1.897.527 2.45.358.554.938.83 1.74.83.794 0 1.364-.273 1.71-.82.35-.553.527-1.373.527-2.46 0-1.08-.176-1.892-.527-2.432s-.928-.8-1.73-.8c-.794 0-1.367.27-1.72.8-.35.534-.527 1.344-.527 2.43zm7.55 0c0 1.777-.47 3.167-1.406 4.17s-2.243 1.503-3.916 1.503c-1.05 0-1.973-.228-2.774-.683a4.612 4.612 0 0 1-1.846-1.983c-.43-.86-.644-1.862-.644-3.008 0-1.783.465-3.17 1.396-4.16s2.24-1.484 3.926-1.484c1.048 0 1.973.228 2.774.683s1.416 1.1 1.845 1.963.645 1.853.645 2.998zm8.457 5.673c-1.283 0-2.29-.465-3.018-1.396h-.156l.156 1.582v4.424h-2.978V37.082h2.422l.42 1.416h.136c.697-1.08 1.73-1.62 3.096-1.62 1.29 0 2.298.498 3.027 1.494s1.094 2.38 1.094 4.15c0 1.166-.172 2.178-.517 3.038-.34.86-.824 1.513-1.456 1.963s-1.373.673-2.226.673zM150 39.26c-.736 0-1.273.228-1.61.683s-.515 1.195-.528 2.237v.322c0 1.172.173 2.012.518 2.52.35.507.905.76 1.66.76 1.335 0 2.002-1.1 2.002-3.3 0-1.075-.166-1.88-.498-2.413-.326-.54-.84-.8-1.543-.8zM164.473 48l-.577-1.484h-.078c-.5.63-1.02 1.07-1.552 1.318-.528.24-1.218.36-2.07.36-1.048 0-1.875-.3-2.48-.898-.6-.6-.9-1.452-.9-2.56 0-1.16.404-2.01 1.21-2.558.814-.554 2.038-.86 3.672-.918l1.895-.06v-.478c0-1.107-.567-1.66-1.7-1.66-.873 0-1.898.263-3.077.8l-.986-2.01c1.257-.658 2.65-.987 4.18-.987 1.465 0 2.588.32 3.37.958s1.172 1.608 1.172 2.9V48h-2.08zm-.88-5.06l-1.153.04c-.865.026-1.5.182-1.933.468s-.635.723-.635 1.31c0 .84.482 1.26 1.445 1.26.7 0 1.24-.2 1.65-.596.416-.397.625-.925.625-1.582v-.9zM8.496 75l-.576-1.484h-.078c-.502.63-1.02 1.07-1.553 1.318-.527.24-1.217.36-2.07.36-1.048 0-1.875-.3-2.48-.898s-.9-1.452-.9-2.56c0-1.16.404-2.01 1.212-2.558.814-.554 2.038-.86 3.672-.918l1.894-.06v-.478c0-1.107-.566-1.66-1.7-1.66-.872 0-1.898.263-3.076.8l-.987-2.01c1.257-.658 2.65-.987 4.18-.987 1.465 0 2.588.32 3.37.957s1.17 1.61 1.17 2.9V75h-2.08zm-.88-5.06l-1.152.04c-.866.026-1.5.182-1.934.468s-.635.723-.635 1.31c0 .84.482 1.26 1.446 1.26.7 0 1.24-.2 1.65-.596.417-.397.625-.925.625-1.582v-.9zm16.113-2.998c0 .586-.185 1.088-.556 1.504-.365.4-.905.674-1.62.79v.078c.774.092 1.386.358 1.836.8.455.436.683.977.683 1.62 0 1.06-.416 1.872-1.25 2.432-.833.553-2.024.83-3.574.83h-5.596V64.082h5.596c1.497 0 2.617.244 3.36.733.748.48 1.122 1.2 1.122 2.128zm-2.744 4.64c0-.43-.166-.74-.498-.928-.332-.195-.83-.293-1.494-.293H16.63v2.578h2.422c.63 0 1.1-.117 1.435-.35a1.17 1.17 0 0 0 .498-1.006zm-.273-4.404c0-.664-.527-.996-1.582-.996h-2.5v2.158h2.158c.632 0 1.1-.09 1.436-.274s.488-.478.488-.888zm14.765-3.096v2.236h-3.574V75h-2.978v-8.682h-3.584v-2.236h10.136zm4.415 5.44c0 1.08.175 1.897.527 2.45.358.554.937.83 1.738.83.794 0 1.364-.273 1.7-.82.35-.553.526-1.373.526-2.46 0-1.08-.175-1.892-.527-2.432s-.927-.8-1.728-.8c-.795 0-1.367.27-1.72.8-.35.534-.526 1.344-.526 2.43zm7.548 0c0 1.777-.468 3.167-1.406 4.17s-2.243 1.503-3.916 1.503c-1.048 0-1.972-.228-2.773-.683a4.611 4.611 0 0 1-1.846-1.983c-.43-.86-.645-1.862-.645-3.007 0-1.784.466-3.17 1.397-4.16s2.24-1.485 3.926-1.485c1.048 0 1.972.228 2.773.684s1.416 1.1 1.846 1.962.644 1.853.644 3zM63.662 75H60.88v-8.603l-.156.605-.948 3.115L57.842 75h-2.12l-1.962-4.922c-.28-.716-.58-1.722-.9-3.017l-.185-.665V75h-2.774V64.082h4.102l1.875 4.658c.195.502.374 1.078.537 1.73.17.65.283 1.207.342 1.67l.498-2.1.4-1.182 1.944-4.775h4.062V75zm10.07 0l-.577-1.484h-.078c-.5.63-1.02 1.07-1.553 1.318-.527.24-1.217.36-2.07.36-1.048 0-1.875-.3-2.48-.898-.6-.6-.9-1.452-.9-2.56 0-1.16.404-2.01 1.21-2.558.814-.554 2.038-.86 3.672-.918l1.895-.06v-.478c0-1.107-.567-1.66-1.7-1.66-.872 0-1.897.263-3.076.8l-.986-2.01c1.256-.658 2.65-.987 4.18-.987 1.464 0 2.587.32 3.37.957s1.172 1.61 1.172 2.9V75h-2.08zm-.88-5.06l-1.152.04c-.866.026-1.5.182-1.933.468s-.635.723-.635 1.31c0 .84.482 1.26 1.445 1.26.7 0 1.24-.2 1.65-.596.417-.397.626-.925.626-1.582v-.9zm15.07-5.86v2.236h-3.574V75h-2.98v-8.682h-3.584v-2.236H87.92zm4.922 0v4.316c0 .456-.075 1.57-.225 3.34l5.04-7.656h3.583V75h-2.88v-4.356c0-.774.064-1.868.195-3.28L93.535 75H89.96V64.082h2.88zm10.566 6.777v-2.44h5.244v2.44h-5.244zm10.03-6.777v3.994c0 .95.44 1.426 1.318 1.426.573 0 1.103-.065 1.592-.195s.992-.3 1.494-.508v-4.717h2.978V75h-2.978v-4.336c-.7.365-1.332.622-1.924.772a6.999 6.999 0 0 1-1.719.224c-1.19 0-2.112-.303-2.763-.908-.65-.612-.977-1.48-.977-2.608v-4.062h2.98zm15.03 1.914c-.632 0-1.127.202-1.485.606-.358.397-.563.963-.615 1.7h4.18c-.013-.736-.205-1.302-.576-1.7-.37-.403-.873-.605-1.504-.605zm.42 9.2c-1.758 0-3.132-.486-4.12-1.456s-1.485-2.343-1.485-4.12c0-1.83.456-3.243 1.367-4.24.918-1.002 2.185-1.503 3.8-1.503 1.543 0 2.744.44 3.604 1.318s1.29 2.093 1.29 3.643v1.445h-7.04c.032.847.283 1.507.752 1.983s1.126.712 1.972.712c.658 0 1.28-.068 1.866-.205a9.33 9.33 0 0 0 1.836-.654v2.305a6.855 6.855 0 0 1-1.67.576c-.593.13-1.315.195-2.168.195zm11.308 0c-3.398 0-5.097-1.866-5.097-5.596 0-1.856.462-3.272 1.386-4.248.925-.984 2.25-1.475 3.975-1.475 1.263 0 2.396.247 3.398.742l-.878 2.305a13.905 13.905 0 0 0-1.309-.46 4.114 4.114 0 0 0-1.211-.185c-1.55 0-2.324 1.1-2.324 3.3 0 2.136.775 3.203 2.324 3.203.573 0 1.103-.075 1.592-.224a5.897 5.897 0 0 0 1.465-.723v2.55c-.482.306-.97.517-1.465.634-.49.118-1.107.176-1.856.176zm13.018-11.114h3.28l-4.326 5.234L156.875 75h-3.38l-4.463-5.537V75h-2.978V64.082h2.978v5.303l4.18-5.303zm8.105 0v4.316c0 .456-.075 1.57-.224 3.34l5.04-7.656h3.584V75h-2.88v-4.356c0-.774.065-1.868.195-3.28L162.012 75h-3.574V64.082h2.88zm-149.834 27V102H8.496v-8.682H4.54V102h-2.98V91.082h9.922zm7.647 1.914c-.632 0-1.126.202-1.485.606-.358.397-.563.963-.615 1.7h4.18c-.013-.736-.205-1.302-.576-1.7-.37-.403-.873-.605-1.504-.605zm.42 9.2c-1.758 0-3.132-.485-4.12-1.455s-1.485-2.343-1.485-4.12c0-1.83.456-3.243 1.367-4.24.918-1.002 2.185-1.503 3.8-1.503 1.542 0 2.744.44 3.603 1.318s1.29 2.093 1.29 3.643v1.445h-7.04c.032.847.283 1.507.752 1.983s1.126.712 1.973.712c.657 0 1.28-.068 1.865-.205a9.33 9.33 0 0 0 1.836-.654v2.305c-.52.26-1.078.452-1.67.576-.593.13-1.315.195-2.168.195zm12.87 0c-1.282 0-2.287-.465-3.017-1.396h-.156l.156 1.582v4.424h-2.978V91.082h2.422l.42 1.416h.136c.697-1.08 1.73-1.62 3.096-1.62 1.3 0 2.298.498 3.027 1.494s1.094 2.38 1.094 4.15c0 1.166-.172 2.178-.518 3.038-.338.86-.823 1.513-1.455 1.962s-1.373.674-2.226.674zm-.878-8.935c-.736 0-1.273.228-1.61.683s-.515 1.195-.528 2.237v.322c0 1.172.173 2.012.518 2.52.35.507.905.76 1.66.76 1.335 0 2.002-1.1 2.002-3.3 0-1.075-.166-1.88-.498-2.413-.326-.54-.84-.8-1.543-.8zm12.06-.264c-.63 0-1.126.202-1.484.606-.358.397-.563.963-.615 1.7h4.18c-.013-.736-.206-1.302-.577-1.7-.37-.403-.872-.605-1.504-.605zm.42 9.2c-1.757 0-3.13-.485-4.12-1.455s-1.485-2.343-1.485-4.12c0-1.83.456-3.243 1.367-4.24.918-1.002 2.184-1.503 3.8-1.503 1.543 0 2.744.44 3.603 1.318s1.3 2.093 1.3 3.643v1.445h-7.04c.032.847.283 1.507.752 1.983s1.126.712 1.972.712c.658 0 1.28-.068 1.865-.205a9.33 9.33 0 0 0 1.836-.654v2.305c-.52.26-1.077.452-1.67.576-.592.13-1.315.195-2.168.195zm9.493-11.113v3.994c0 .95.44 1.426 1.318 1.426.573 0 1.103-.065 1.592-.195.495-.13.993-.3 1.494-.508v-4.717h2.978V102H57.92v-4.336c-.7.365-1.33.622-1.924.772a7.004 7.004 0 0 1-1.719.224c-1.19 0-2.112-.303-2.763-.908-.65-.612-.977-1.48-.977-2.608v-4.062h2.98zm13.388 0v4.316c0 .456-.075 1.57-.224 3.34l5.04-7.656h3.584V102h-2.88v-4.356c0-.774.065-1.868.195-3.28L67.597 102h-3.574V91.082h2.88zm15.967 11.113c-3.398 0-5.098-1.865-5.098-5.595 0-1.856.463-3.272 1.387-4.248.925-.984 2.25-1.475 3.975-1.475 1.263 0 2.396.247 3.398.742l-.88 2.305a13.92 13.92 0 0 0-1.308-.46 4.113 4.113 0 0 0-1.211-.185c-1.55 0-2.325 1.1-2.325 3.3 0 2.136.775 3.203 2.325 3.203.573 0 1.103-.075 1.592-.224a5.88 5.88 0 0 0 1.464-.723v2.55c-.48.306-.97.517-1.464.635s-1.107.175-1.856.175zM98.506 102h-2.98v-8.682h-2.744c-.208 2.442-.462 4.265-.76 5.47-.3 1.197-.7 2.066-1.202 2.607-.494.533-1.145.8-1.953.8-.7 0-1.256-.104-1.7-.312V99.5a2.52 2.52 0 0 0 .957.195c.37 0 .68-.267.928-.8.254-.534.478-1.423.674-2.666.2-1.25.374-2.966.517-5.147h8.262V102zm4.795 0h-3.223l2.94-4.316c-.704-.293-1.237-.717-1.602-1.27-.358-.553-.537-1.204-.537-1.953 0-1.055.394-1.882 1.182-2.48.794-.6 1.875-.9 3.242-.9h5.078V102h-2.98v-4.063h-1.64L103.3 102zm.498-7.52c0 .456.18.814.537 1.075.358.254.827.38 1.406.38h1.66v-2.753h-2.04c-.488 0-.872.12-1.152.36-.273.234-.4.547-.4.938zm24.775 2.04c0 1.8-.452 3.184-1.357 4.18s-2.158 1.494-3.76 1.494c-1.44 0-2.59-.403-3.457-1.21-.86-.807-1.38-1.97-1.562-3.486h-1.963V102h-2.98V91.082h2.98v4.2h2.002c.188-1.394.725-2.475 1.61-3.243.892-.775 2.034-1.162 3.428-1.162 1.543 0 2.77.508 3.68 1.523.918 1 1.377 2.383 1.377 4.12zm-7.138 0c0 1.088.16 1.908.478 2.46.32.547.846.82 1.582.82.723 0 1.244-.273 1.563-.82.32-.553.478-1.373.478-2.46s-.163-1.898-.488-2.432c-.32-.54-.843-.8-1.572-.8-.723 0-1.244.27-1.563.8s-.478 1.35-.478 2.43zm18.632-5.44v2.236h-3.574V102h-2.978v-8.682h-3.584v-2.236h10.136zm6.475 11.113c-3.398 0-5.098-1.865-5.098-5.595 0-1.856.463-3.272 1.387-4.248.925-.984 2.25-1.475 3.975-1.475 1.263 0 2.395.247 3.398.742l-.88 2.305a13.992 13.992 0 0 0-1.308-.46 4.12 4.12 0 0 0-1.211-.185c-1.55 0-2.325 1.1-2.325 3.3 0 2.136.775 3.203 2.325 3.203a5.4 5.4 0 0 0 1.591-.224 5.863 5.863 0 0 0 1.465-.723v2.55c-.48.306-.97.517-1.465.635-.488.117-1.106.175-1.855.175zm7.52-.195h-3.222l2.94-4.316c-.703-.293-1.237-.717-1.6-1.27-.358-.553-.537-1.204-.537-1.953 0-1.055.394-1.882 1.18-2.48.795-.6 1.875-.9 3.242-.9h5.08V102h-2.98v-4.063h-1.64l-2.46 4.063zm.5-7.52c0 .456.18.814.537 1.075.358.254.826.38 1.406.38h1.66v-2.753h-2.04c-.488 0-.872.12-1.152.36a1.17 1.17 0 0 0-.41.938zm17.87-3.398v4.2h4.16v-4.2h2.978V102h-2.978v-4.502h-4.16V102h-2.98V91.082h2.98zM189.63 102l-.576-1.484h-.078c-.502.63-1.02 1.07-1.553 1.318-.527.24-1.218.36-2.07.36-1.05 0-1.875-.3-2.48-.898-.6-.6-.898-1.452-.898-2.56 0-1.16.403-2.01 1.21-2.558.813-.554 2.037-.86 3.67-.918l1.895-.06v-.478c0-1.107-.566-1.66-1.7-1.66-.873 0-1.898.263-3.076.8l-.987-2.01c1.257-.658 2.65-.987 4.18-.987 1.465 0 2.588.32 3.37.957s1.172 1.61 1.172 2.9V102h-2.08zm-.88-5.06l-1.152.04c-.866.026-1.51.182-1.934.468s-.635.723-.635 1.31c0 .84.482 1.26 1.446 1.26.7 0 1.24-.2 1.65-.596.417-.397.625-.925.625-1.582v-.9zm15.752-3.945c-.632 0-1.126.202-1.484.606-.358.397-.564.963-.616 1.7h4.18c-.013-.736-.205-1.302-.576-1.7-.37-.403-.873-.605-1.504-.605zm.42 9.2c-1.758 0-3.132-.485-4.12-1.455s-1.485-2.343-1.485-4.12c0-1.83.456-3.243 1.368-4.24.918-1.002 2.184-1.503 3.798-1.503 1.543 0 2.745.44 3.604 1.318s1.29 2.093 1.29 3.643v1.445h-7.04c.033.847.283 1.507.752 1.983s1.126.712 1.973.712c.657 0 1.28-.068 1.865-.205a9.33 9.33 0 0 0 1.836-.654v2.305a6.884 6.884 0 0 1-1.67.576c-.593.13-1.315.195-2.168.195zm14.414-11.113v2.236h-4.56V102h-2.978V91.082h7.54zm4.404 5.44c0 1.08.176 1.897.528 2.45.358.554.937.83 1.738.83.794 0 1.364-.273 1.71-.82.35-.553.527-1.373.527-2.46 0-1.08-.176-1.892-.527-2.432s-.928-.8-1.73-.8c-.794 0-1.367.27-1.718.8-.352.534-.528 1.344-.528 2.43zm7.55 0c0 1.777-.47 3.167-1.406 4.17s-2.243 1.504-3.916 1.504c-1.048 0-1.973-.228-2.774-.683a4.614 4.614 0 0 1-1.845-1.983c-.43-.86-.645-1.862-.645-3.007 0-1.784.466-3.17 1.397-4.16s2.24-1.485 3.925-1.485c1.05 0 1.973.228 2.774.684a4.565 4.565 0 0 1 1.846 1.962c.43.853.644 1.853.644 3zm6.992-1.065c0-2.506.476-4.407 1.426-5.703.957-1.302 2.448-2.126 4.473-2.47l4.404-.645.342 2.597-4.502.625c-.82.13-1.432.326-1.836.586s-.706.632-.908 1.114c-.196.48-.316 1.123-.362 1.923h.147a3.461 3.461 0 0 1 1.367-1.23 3.987 3.987 0 0 1 1.826-.43c1.348 0 2.396.414 3.145 1.24.748.82 1.123 2 1.123 3.536 0 1.77-.475 3.147-1.426 4.13-.944.977-2.25 1.465-3.916 1.465s-2.97-.595-3.906-1.787c-.93-1.198-1.397-2.848-1.397-4.95zm5.48 4.326c1.413 0 2.12-.973 2.12-2.92 0-1.894-.638-2.84-1.914-2.84-.352 0-.703.08-1.055.244a3.864 3.864 0 0 0-.957.644c-.286.26-.498.524-.635.79 0 1.322.212 2.334.635 3.037.423.697 1.026 1.045 1.807 1.045zM258.32 102l-.576-1.484h-.078c-.5.63-1.02 1.07-1.553 1.318-.527.24-1.217.36-2.07.36-1.048 0-1.875-.3-2.48-.898-.598-.6-.898-1.452-.898-2.56 0-1.16.404-2.01 1.21-2.558.814-.554 2.038-.86 3.672-.918l1.894-.06v-.478c0-1.107-.566-1.66-1.7-1.66-.872 0-1.898.263-3.076.8l-.986-2.01c1.256-.658 2.65-.987 4.18-.987 1.465 0 2.588.32 3.37.957s1.17 1.61 1.17 2.9V102h-2.08zm-.88-5.06l-1.152.04c-.866.026-1.5.182-1.934.468s-.634.723-.634 1.31c0 .84.48 1.26 1.445 1.26.7 0 1.24-.2 1.65-.596.417-.397.625-.925.625-1.582v-.9zm9.014-5.86v4.2h4.16v-4.2h2.98V102h-2.98v-4.502h-4.16V102h-2.978V91.082h2.978zm17.422 0h3.28l-4.326 5.234L287.54 102h-3.38l-4.463-5.537V102h-2.978V91.082h2.978v5.303l4.18-5.303z"/><path id="AP" d="M3.516 57.678c0-14.128 2.978-24.642 8.935-31.543 6-6.9 14.942-10.352 26.856-10.352 4.07 0 7.26.244 9.57.733v12.06a39.102 39.102 0 0 0-8.594-.976c-5.176 0-9.407.78-12.695 2.343-3.255 1.563-5.697 3.874-7.324 6.934s-2.588 7.406-2.88 13.037h.635c3.222-5.534 8.382-8.3 15.478-8.3 6.38 0 11.377 2 15 6.005s5.42 9.538 5.42 16.602c0 7.617-2.148 13.655-6.445 18.115-4.297 4.427-10.254 6.64-17.87 6.64-5.274 0-9.88-1.22-13.82-3.662-3.906-2.44-6.933-6.005-9.082-10.693-2.115-4.687-3.173-10.335-3.173-16.943zm25.78 19.238c3.224 0 5.697-1.074 7.423-3.223 1.725-2.18 2.588-5.273 2.588-9.277 0-3.483-.814-6.217-2.442-8.203-1.595-2.018-4.02-3.028-7.275-3.028-3.06 0-5.68.993-7.86 2.98-2.15 1.985-3.223 4.296-3.223 6.933 0 3.873 1.01 7.145 3.027 9.814 2.05 2.67 4.64 4.004 7.764 4.004z"/><path id="AQ" d="M27.243 16.816C27.243 7.416 22.697 0 14.007 0 5.28 0 0 7.417 0 16.742c0 11.052 6.233 16.632 15.18 16.632 4.363 0 7.663-1 10.157-2.386v-7.343c-2.494 1.248-5.354 2.02-8.984 2.02-3.556 0-6.7-1.25-7.113-5.582h17.93c0-.477.073-2.386.073-3.267zM9.13 13.328c0-4.15 2.53-5.875 4.84-5.875 2.237 0 4.62 1.726 4.62 5.875H9.13z" class="B"/><path id="AR" d="M15.73 0c-3.593 0-5.903 1.69-7.187 2.864L8.067.587H0v42.8l9.167-1.945.036-10.4c1.32.954 3.264 2.312 6.5 2.312 6.564 0 12.54-5.287 12.54-16.925C28.197 5.8 22.147 0 15.73 0zm-2.2 25.297c-2.163 0-3.447-.77-4.327-1.726L9.167 9.95c.953-1.065 2.273-1.8 4.363-1.8 3.337 0 5.647 3.746 5.647 8.556 0 4.92-2.274 8.59-5.647 8.59z" class="B"/><path id="AS" d="M0 9.436l9.203-1.983V0L0 1.946v7.5z" class="B"/><path id="AT" d="M9.203 0H0v32.126h9.203V0z"/><path id="AU" d="M8.507 3.096L7.92.38H0v32.126h9.167V10.733c2.163-2.827 5.83-2.313 6.966-1.91V.38C14.96-.06 10.67-.87 8.507 3.096z" class="B"/><path id="AV" d="M8.983 0L.037 1.9 0 31.317c0 5.434 4.07 9.436 9.497 9.436 3.006 0 5.206-.55 6.416-1.21V32.1c-1.173.477-6.966 2.166-6.966-3.268V15.788h6.966v-7.82H8.947L8.983 0z" class="B"/><path id="AW" d="M9.277 9.95c0-1.432 1.173-1.983 3.116-1.983 2.787 0 6.307.845 9.094 2.35V1.7C18.443.477 15.437 0 12.393 0 4.95 0 0 3.892 0 10.4c0 10.134 13.933 8.518 13.933 12.888 0 1.69-1.466 2.24-3.52 2.24-3.043 0-6.93-1.25-10-2.938v8.738c3.4 1.47 6.857 2.093 10 2.093 7.627 0 12.87-3.782 12.87-10.354-.036-10.94-14.006-8.995-14.006-13.107z" class="B"/></defs></svg>