<svg width="471" height="277" viewBox="0 0 471 277" version="1.1" xmlns="http://www.w3.org/2000/svg" xmlns:xlink="http://www.w3.org/1999/xlink">
<title>Group 13</title>
<desc>Created using Figma</desc>
<g id="Canvas" transform="translate(-551 2661)">
<g id="Group 13">
<g id="Group 11">
<g id="Path 3">
<use xlink:href="#path0_stroke" transform="translate(604.393 -2654.98)" fill="url(#paint0_linear)"/>
</g>
<g id="Oval 4">
<use xlink:href="#path1_fill" transform="translate(593 -2458.47)" fill="#968AC0"/>
</g>
<g id="Oval 4 Copy">
<use xlink:href="#path1_fill" transform="translate(684.605 -2467.73)" fill="#958BC0"/>
</g>
<g id="2">
<use xlink:href="#path2_fill" transform="translate(691.082 -2466.06)" fill="#FFFFFF"/>
</g>
<g id="Oval 4 Copy">
<use xlink:href="#path1_fill" transform="translate(788.448 -2508.01)" fill="#8C97C6"/>
</g>
<g id="3">
<use xlink:href="#path3_fill" transform="translate(794.926 -2505.3)" fill="#FFFFFF"/>
</g>
<g id="Oval 4 Copy">
<use xlink:href="#path1_fill" transform="translate(866.889 -2560.38)" fill="#7AAED1"/>
</g>
<g id="4">
<use xlink:href="#path4_fill" transform="translate(873.366 -2557.26)" fill="#FFFFFF"/>
</g>
<g id="Oval 4 Copy">
<use xlink:href="#path1_fill" transform="translate(951.091 -2660.43)" fill="#5AD3E1"/>
</g>
<g id="5">
<use xlink:href="#path5_fill" transform="translate(957.568 -2657.81)" fill="#FFFFFF"/>
</g>
<g id="1">
<use xlink:href="#path6_fill" transform="translate(599.477 -2456.84)" fill="#FFFFFF"/>
</g>
</g>
<g id="Group 12">
<g id="5">
<use xlink:href="#path7_fill" transform="translate(600.439 -2670)" fill="#7282C4"/>
</g>
<g id="&#208;&#168;&#208;&#176;&#208;&#179;&#208;&#190;&#208;&#178; &#208;&#184;&#208;&#189;&#209;&#130;&#208;&#181;&#208;&#187;&#208;&#187;&#208;&#181;&#208;&#186;&#209;&#131;&#209;&#130;&#208;&#176;&#208;&#187;&#209;&#140;&#208;&#189;">
<use xlink:href="#path8_fill" transform="translate(635.507 -2662.56)" fill="#555555"/>
</g>
</g>
<g id="Line">
<use xlink:href="#path9_stroke" transform="translate(603.439 -2415.9)" fill="#979797"/>
</g>
<g id="Triangle">
<use xlink:href="#path10_fill" transform="translate(959 -2418.66)" fill="#A8A7A8"/>
</g>
<g id="Line">
<use xlink:href="#path11_stroke" transform="translate(601.376 -2432.15)" fill="url(#paint15_linear)"/>
</g>
<g id="Line">
<use xlink:href="#path12_stroke" transform="translate(798.409 -2480.15)" fill="url(#paint16_linear)"/>
</g>
<g id="Line">
<use xlink:href="#path13_stroke" transform="translate(962 -2607)" fill="url(#paint17_linear)"/>
</g>
<g id="&#208;&#161;&#208;&#177;&#208;&#190;&#209;&#128; &#208;&#180;&#208;&#176;&#208;&#189;&#208;&#189;&#209;&#139;&#209;&#133;">
<use xlink:href="#path14_fill" transform="translate(658.886 -2400)" fill="#353535"/>
</g>
<g id="&#208;&#159;&#209;&#128;&#208;&#190;&#208;&#178;&#208;&#181;&#209;&#128;&#208;&#186;&#208;&#176;, &#208;&#190;&#208;&#191;&#208;&#187;&#208;&#176;&#209;&#130;&#208;&#176;">
<use xlink:href="#path15_fill" transform="translate(826 -2400)" fill="#353535"/>
</g>
<g id="10 &#208;&#188;&#208;&#184;&#208;&#189;.">
<use xlink:href="#path16_fill" transform="translate(973 -2424)" fill="#353535"/>
</g>
<g id="0 &#208;&#188;&#208;&#184;&#208;&#189;.">
<use xlink:href="#path17_fill" transform="translate(551 -2424)" fill="#353535"/>
</g>
</g>
</g>
<defs>
<linearGradient id="paint0_linear" x1="0" y1="0" x2="1" y2="0" gradientUnits="userSpaceOnUse" gradientTransform="matrix(0 203.808 -354.219 0 180.372 0)">
<stop offset="0" stop-color="#42D1DF"/>
<stop offset="1" stop-color="#8373B5"/>
</linearGradient>
<linearGradient id="paint15_linear" x1="0" y1="0" x2="1" y2="0" gradientUnits="userSpaceOnUse" gradientTransform="matrix(0 25 -3 0 1.5 0)">
<stop offset="0" stop-color="#C8C8C8" stop-opacity="0.01"/>
<stop offset="1" stop-color="#979797"/>
</linearGradient>
<linearGradient id="paint16_linear" x1="0" y1="0" x2="1" y2="0" gradientUnits="userSpaceOnUse" gradientTransform="matrix(0 73 -3 0 1.5 0)">
<stop offset="0" stop-color="#C8C8C8" stop-opacity="0.01"/>
<stop offset="1" stop-color="#979797"/>
</linearGradient>
<linearGradient id="paint17_linear" x1="0" y1="0" x2="1" y2="0" gradientUnits="userSpaceOnUse" gradientTransform="matrix(0 201 -3 0 1.5 0)">
<stop offset="0" stop-color="#C8C8C8" stop-opacity="0.01"/>
<stop offset="1" stop-color="#979797"/>
</linearGradient>
<path id="path0_stroke" d="M -0.020778 206.062C -0.849126 206.074 -1.51133 206.755 -1.49986 207.583C -1.48838 208.411 -0.80757 209.073 0.020778 209.062L -0.020778 206.062ZM 362.014 0.797069C 362.455 0.0952801 362.243 -0.830492 361.541 -1.2707C 360.839 -1.71091 359.913 -1.49886 359.473 -0.797069L 362.014 0.797069ZM 0 207.562C 0.020778 209.062 0.0223038 209.062 0.0247143 209.062C 0.0266994 209.062 0.0299963 209.062 0.0339621 209.062C 0.0414674 209.062 0.0533596 209.061 0.0683324 209.061C 0.0974228 209.061 0.14228 209.06 0.200149 209.059C 0.314168 209.056 0.487212 209.052 0.712719 209.046C 1.16025 209.034 1.83196 209.012 2.70663 208.975C 4.44886 208.901 7.03312 208.765 10.3538 208.521C 16.9802 208.032 26.6194 207.102 38.5593 205.35C 62.4073 201.848 95.6268 195.028 132.808 181.822C 207.098 155.423 297.696 103.251 362.014 0.797069L 359.473 -0.797069C 295.616 101.089 205.842 152.698 131.804 178.995C 94.8211 192.138 61.8876 198.894 38.1236 202.382C 26.2575 204.124 16.726 205.043 10.1332 205.529C 6.84424 205.771 4.30676 205.904 2.57965 205.977C 1.71965 206.014 1.06978 206.035 0.629417 206.047C 0.410973 206.053 0.248483 206.057 0.137955 206.059C 0.0835515 206.06 0.0438826 206.061 0.0165152 206.062C 0.00325899 206.062 -0.0060607 206.062 -0.0127101 206.062C -0.0158216 206.062 -0.0178377 206.062 -0.0193962 206.062C -0.0205294 206.062 -0.020778 206.062 0 207.562Z"/>
<path id="path1_fill" fill-rule="evenodd" d="M 10.641 21.3081C 16.5178 21.3081 21.2819 16.5381 21.2819 10.654C 21.2819 4.76997 16.5178 0 10.641 0C 4.76412 0 0 4.76997 0 10.654C 0 16.5381 4.76412 21.3081 10.641 21.3081Z"/>
<path id="path2_fill" d="M 7.49902 13L 0.676758 13L 0.676758 11.6465L 3.89648 8.21484C 4.33854 7.73177 4.66439 7.31022 4.87402 6.9502C 5.08822 6.59017 5.19531 6.24837 5.19531 5.9248C 5.19531 5.48275 5.08366 5.13639 4.86035 4.88574C 4.63704 4.63053 4.31803 4.50293 3.90332 4.50293C 3.45671 4.50293 3.10352 4.65788 2.84375 4.96777C 2.58854 5.27311 2.46094 5.67643 2.46094 6.17773L 0.478516 6.17773C 0.478516 5.57161 0.62207 5.0179 0.90918 4.5166C 1.20085 4.0153 1.611 3.62337 2.13965 3.34082C 2.66829 3.05371 3.26758 2.91016 3.9375 2.91016C 4.96289 2.91016 5.75814 3.15625 6.32324 3.64844C 6.8929 4.14062 7.17773 4.83561 7.17773 5.7334C 7.17773 6.22559 7.05013 6.72689 6.79492 7.2373C 6.53971 7.74772 6.10221 8.34245 5.48242 9.02148L 3.21973 11.4072L 7.49902 11.4072L 7.49902 13Z"/>
<path id="path3_fill" d="M 2.68652 7.14844L 3.73926 7.14844C 4.24056 7.14844 4.61198 7.02311 4.85352 6.77246C 5.09505 6.52181 5.21582 6.18913 5.21582 5.77441C 5.21582 5.37337 5.09505 5.0612 4.85352 4.83789C 4.61654 4.61458 4.28841 4.50293 3.86914 4.50293C 3.49089 4.50293 3.17415 4.60775 2.91895 4.81738C 2.66374 5.02246 2.53613 5.29134 2.53613 5.62402L 0.560547 5.62402C 0.560547 5.10449 0.699544 4.63965 0.977539 4.22949C 1.26009 3.81478 1.65202 3.49121 2.15332 3.25879C 2.65918 3.02637 3.21517 2.91016 3.82129 2.91016C 4.87402 2.91016 5.69889 3.16309 6.2959 3.66895C 6.8929 4.17025 7.19141 4.86296 7.19141 5.74707C 7.19141 6.2028 7.05241 6.62207 6.77441 7.00488C 6.49642 7.3877 6.13184 7.68164 5.68066 7.88672C 6.24121 8.08724 6.6582 8.38802 6.93164 8.78906C 7.20964 9.1901 7.34863 9.66406 7.34863 10.2109C 7.34863 11.0951 7.02506 11.8037 6.37793 12.3369C 5.73535 12.8701 4.88314 13.1367 3.82129 13.1367C 2.8278 13.1367 2.01432 12.8747 1.38086 12.3506C 0.751953 11.8265 0.4375 11.1338 0.4375 10.2725L 2.41309 10.2725C 2.41309 10.6462 2.55208 10.9515 2.83008 11.1885C 3.11263 11.4255 3.45898 11.5439 3.86914 11.5439C 4.33854 11.5439 4.7054 11.4209 4.96973 11.1748C 5.23861 10.9242 5.37305 10.5938 5.37305 10.1836C 5.37305 9.1901 4.82617 8.69336 3.73242 8.69336L 2.68652 8.69336L 2.68652 7.14844Z"/>
<path id="path4_fill" d="M 6.52148 9.25391L 7.64941 9.25391L 7.64941 10.8467L 6.52148 10.8467L 6.52148 13L 4.5459 13L 4.5459 10.8467L 0.464844 10.8467L 0.375977 9.60254L 4.52539 3.04688L 6.52148 3.04688L 6.52148 9.25391ZM 2.34473 9.25391L 4.5459 9.25391L 4.5459 5.74023L 4.41602 5.96582L 2.34473 9.25391Z"/>
<path id="path5_fill" d="M 0.970703 8.10547L 1.54492 3.04688L 7.12305 3.04688L 7.12305 4.69434L 3.16504 4.69434L 2.91895 6.83398C 3.38835 6.58333 3.88737 6.45801 4.41602 6.45801C 5.36393 6.45801 6.10677 6.75195 6.64453 7.33984C 7.18229 7.92773 7.45117 8.75033 7.45117 9.80762C 7.45117 10.4502 7.31445 11.0267 7.04102 11.5371C 6.77214 12.043 6.38477 12.4372 5.87891 12.7197C 5.37305 12.9977 4.77604 13.1367 4.08789 13.1367C 3.48633 13.1367 2.92806 13.016 2.41309 12.7744C 1.89811 12.5283 1.49023 12.1842 1.18945 11.7422C 0.893229 11.3001 0.736003 10.7965 0.717773 10.2314L 2.67285 10.2314C 2.71387 10.6462 2.85742 10.9697 3.10352 11.2021C 3.35417 11.43 3.68001 11.5439 4.08105 11.5439C 4.52767 11.5439 4.87174 11.3844 5.11328 11.0654C 5.35482 10.7419 5.47559 10.2861 5.47559 9.69824C 5.47559 9.13314 5.33659 8.7002 5.05859 8.39941C 4.7806 8.09863 4.38639 7.94824 3.87598 7.94824C 3.40658 7.94824 3.02604 8.07129 2.73438 8.31738L 2.54297 8.49512L 0.970703 8.10547Z"/>
<path id="path6_fill" d="M 5.47559 13L 3.5 13L 3.5 5.38477L 1.1416 6.11621L 1.1416 4.50977L 5.26367 3.0332L 5.47559 3.0332L 5.47559 13Z"/>
<path id="path7_fill" d="M 3.32812 28.2188L 5.29688 10.875L 24.4219 10.875L 24.4219 16.5234L 10.8516 16.5234L 10.0078 23.8594C 11.6172 23 13.3281 22.5703 15.1406 22.5703C 18.3906 22.5703 20.9375 23.5781 22.7812 25.5938C 24.625 27.6094 25.5469 30.4297 25.5469 34.0547C 25.5469 36.2578 25.0781 38.2344 24.1406 39.9844C 23.2188 41.7188 21.8906 43.0703 20.1562 44.0391C 18.4219 44.9922 16.375 45.4688 14.0156 45.4688C 11.9531 45.4688 10.0391 45.0547 8.27344 44.2266C 6.50781 43.3828 5.10938 42.2031 4.07812 40.6875C 3.0625 39.1719 2.52344 37.4453 2.46094 35.5078L 9.16406 35.5078C 9.30469 36.9297 9.79688 38.0391 10.6406 38.8359C 11.5 39.6172 12.6172 40.0078 13.9922 40.0078C 15.5234 40.0078 16.7031 39.4609 17.5312 38.3672C 18.3594 37.2578 18.7734 35.6953 18.7734 33.6797C 18.7734 31.7422 18.2969 30.2578 17.3438 29.2266C 16.3906 28.1953 15.0391 27.6797 13.2891 27.6797C 11.6797 27.6797 10.375 28.1016 9.375 28.9453L 8.71875 29.5547L 3.32812 28.2188Z"/>
<path id="path8_fill" d="M 3.56836 4.20312L 3.56836 15.2246L 7.4707 15.2246L 7.4707 4.20312L 9.68555 4.20312L 9.68555 15.2246L 13.5615 15.2246L 13.5615 4.20312L 15.7764 4.20312L 15.7764 17L 1.33594 17L 1.33594 4.20312L 3.56836 4.20312ZM 23.8975 17C 23.8037 16.8184 23.7217 16.5225 23.6514 16.1123C 22.9717 16.8213 22.1396 17.1758 21.1553 17.1758C 20.2002 17.1758 19.4209 16.9033 18.8174 16.3584C 18.2139 15.8135 17.9121 15.1396 17.9121 14.3369C 17.9121 13.3232 18.2871 12.5469 19.0371 12.0078C 19.793 11.4629 20.8711 11.1904 22.2715 11.1904L 23.5811 11.1904L 23.5811 10.5664C 23.5811 10.0742 23.4434 9.68164 23.168 9.38867C 22.8926 9.08984 22.4736 8.94043 21.9111 8.94043C 21.4248 8.94043 21.0264 9.06348 20.7158 9.30957C 20.4053 9.5498 20.25 9.85742 20.25 10.2324L 18.1143 10.2324C 18.1143 9.71094 18.2871 9.22461 18.6328 8.77344C 18.9785 8.31641 19.4473 7.95898 20.0391 7.70117C 20.6367 7.44336 21.3018 7.31445 22.0342 7.31445C 23.1475 7.31445 24.0352 7.5957 24.6973 8.1582C 25.3594 8.71484 25.6992 9.5 25.7168 10.5137L 25.7168 14.8027C 25.7168 15.6582 25.8369 16.3408 26.0771 16.8506L 26.0771 17L 23.8975 17ZM 21.5508 15.4619C 21.9727 15.4619 22.3682 15.3594 22.7373 15.1543C 23.1123 14.9492 23.3936 14.6738 23.5811 14.3281L 23.5811 12.5352L 22.4297 12.5352C 21.6387 12.5352 21.0439 12.6729 20.6455 12.9482C 20.2471 13.2236 20.0479 13.6133 20.0479 14.1172C 20.0479 14.5273 20.1826 14.8555 20.4521 15.1016C 20.7275 15.3418 21.0938 15.4619 21.5508 15.4619ZM 34.2861 9.21289L 30.1553 9.21289L 30.1553 17L 28.0283 17L 28.0283 7.49023L 34.2861 7.49023L 34.2861 9.21289ZM 34.9189 12.1572C 34.9189 11.2256 35.1035 10.3877 35.4727 9.64355C 35.8418 8.89355 36.3604 8.31934 37.0283 7.9209C 37.6963 7.5166 38.4639 7.31445 39.3311 7.31445C 40.6143 7.31445 41.6543 7.72754 42.4512 8.55371C 43.2539 9.37988 43.6875 10.4756 43.752 11.8408L 43.7607 12.3418C 43.7607 13.2793 43.5791 14.1172 43.2158 14.8555C 42.8584 15.5938 42.3428 16.165 41.6689 16.5693C 41.001 16.9736 40.2275 17.1758 39.3486 17.1758C 38.0068 17.1758 36.9316 16.7305 36.123 15.8398C 35.3203 14.9434 34.9189 13.751 34.9189 12.2627L 34.9189 12.1572ZM 37.0547 12.3418C 37.0547 13.3203 37.2568 14.0879 37.6611 14.6445C 38.0654 15.1953 38.6279 15.4707 39.3486 15.4707C 40.0693 15.4707 40.6289 15.1895 41.0273 14.627C 41.4316 14.0645 41.6338 13.2412 41.6338 12.1572C 41.6338 11.1963 41.4258 10.4346 41.0098 9.87207C 40.5996 9.30957 40.04 9.02832 39.3311 9.02832C 38.6338 9.02832 38.0801 9.30664 37.6699 9.86328C 37.2598 10.4141 37.0547 11.2402 37.0547 12.3418ZM 45.7295 17L 45.7295 7.49023L 49.5879 7.49023C 50.8887 7.49023 51.8789 7.71875 52.5586 8.17578C 53.2383 8.62695 53.5781 9.27734 53.5781 10.127C 53.5781 10.5664 53.4404 10.9619 53.165 11.3135C 52.8955 11.6592 52.4941 11.9258 51.9609 12.1133C 52.582 12.2422 53.0742 12.5029 53.4375 12.8955C 53.8008 13.2881 53.9824 13.751 53.9824 14.2842C 53.9824 15.1689 53.6543 15.8428 52.998 16.3057C 52.3477 16.7686 51.4102 17 50.1855 17L 45.7295 17ZM 47.8652 12.9482L 47.8652 15.3125L 50.2031 15.3125C 51.2988 15.3125 51.8467 14.9199 51.8467 14.1348C 51.8467 13.3438 51.29 12.9482 50.1768 12.9482L 47.8652 12.9482ZM 47.8652 11.4189L 49.623 11.4189C 50.8359 11.4189 51.4424 11.0615 51.4424 10.3467C 51.4424 9.59668 50.8682 9.20996 49.7197 9.18652L 47.8652 9.18652L 47.8652 11.4189ZM 66.252 7.49023L 68.3789 7.49023L 68.3789 17L 66.252 17L 66.252 10.6543L 62.5254 17L 60.3984 17L 60.3984 7.49023L 62.5254 7.49023L 62.5254 13.8359L 66.252 7.49023ZM 78.7061 17L 76.5703 17L 76.5703 13.1592L 72.8701 13.1592L 72.8701 17L 70.7344 17L 70.7344 7.49023L 72.8701 7.49023L 72.8701 11.4541L 76.5703 11.4541L 76.5703 7.49023L 78.7061 7.49023L 78.7061 17ZM 88.4707 9.18652L 85.3857 9.18652L 85.3857 17L 83.25 17L 83.25 9.18652L 80.2002 9.18652L 80.2002 7.49023L 88.4707 7.49023L 88.4707 9.18652ZM 93.5244 17.1758C 92.1709 17.1758 91.0723 16.751 90.2285 15.9014C 89.3906 15.0459 88.9717 13.9092 88.9717 12.4912L 88.9717 12.2275C 88.9717 11.2783 89.1533 10.4316 89.5166 9.6875C 89.8857 8.9375 90.4014 8.35449 91.0635 7.93848C 91.7256 7.52246 92.4639 7.31445 93.2783 7.31445C 94.5732 7.31445 95.5723 7.72754 96.2754 8.55371C 96.9844 9.37988 97.3389 10.5488 97.3389 12.0605L 97.3389 12.9219L 91.125 12.9219C 91.1895 13.707 91.4502 14.3281 91.9072 14.7852C 92.3701 15.2422 92.9502 15.4707 93.6475 15.4707C 94.626 15.4707 95.4229 15.0752 96.0381 14.2842L 97.1895 15.3828C 96.8086 15.9512 96.2988 16.3936 95.6602 16.71C 95.0273 17.0205 94.3154 17.1758 93.5244 17.1758ZM 93.2695 9.02832C 92.6836 9.02832 92.209 9.2334 91.8457 9.64355C 91.4883 10.0537 91.2598 10.625 91.1602 11.3574L 95.2295 11.3574L 95.2295 11.1992C 95.1826 10.4844 94.9922 9.94531 94.6582 9.58203C 94.3242 9.21289 93.8613 9.02832 93.2695 9.02832ZM 107.086 7.49023L 107.086 17L 104.95 17L 104.95 9.21289L 102.261 9.21289L 102.085 12.5264C 101.974 14.1201 101.666 15.2656 101.162 15.9629C 100.664 16.6543 99.8994 17 98.8682 17L 98.209 17L 98.2002 15.2246L 98.6396 15.1807C 99.1084 15.1162 99.4482 14.832 99.6592 14.3281C 99.876 13.8184 100.014 12.8926 100.072 11.5508L 100.248 7.49023L 107.086 7.49023ZM 117.439 7.49023L 117.439 17L 115.304 17L 115.304 9.21289L 112.614 9.21289L 112.438 12.5264C 112.327 14.1201 112.02 15.2656 111.516 15.9629C 111.018 16.6543 110.253 17 109.222 17L 108.562 17L 108.554 15.2246L 108.993 15.1807C 109.462 15.1162 109.802 14.832 110.013 14.3281C 110.229 13.8184 110.367 12.8926 110.426 11.5508L 110.602 7.49023L 117.439 7.49023ZM 123.899 17.1758C 122.546 17.1758 121.447 16.751 120.604 15.9014C 119.766 15.0459 119.347 13.9092 119.347 12.4912L 119.347 12.2275C 119.347 11.2783 119.528 10.4316 119.892 9.6875C 120.261 8.9375 120.776 8.35449 121.438 7.93848C 122.101 7.52246 122.839 7.31445 123.653 7.31445C 124.948 7.31445 125.947 7.72754 126.65 8.55371C 127.359 9.37988 127.714 10.5488 127.714 12.0605L 127.714 12.9219L 121.5 12.9219C 121.564 13.707 121.825 14.3281 122.282 14.7852C 122.745 15.2422 123.325 15.4707 124.022 15.4707C 125.001 15.4707 125.798 15.0752 126.413 14.2842L 127.564 15.3828C 127.184 15.9512 126.674 16.3936 126.035 16.71C 125.402 17.0205 124.69 17.1758 123.899 17.1758ZM 123.645 9.02832C 123.059 9.02832 122.584 9.2334 122.221 9.64355C 121.863 10.0537 121.635 10.625 121.535 11.3574L 125.604 11.3574L 125.604 11.1992C 125.558 10.4844 125.367 9.94531 125.033 9.58203C 124.699 9.21289 124.236 9.02832 123.645 9.02832ZM 132.759 13.2383L 131.678 13.2383L 131.678 17L 129.542 17L 129.542 7.49023L 131.678 7.49023L 131.678 11.2871L 132.618 11.2871L 135.246 7.49023L 137.883 7.49023L 134.446 12.043L 138.173 17L 135.396 17L 132.759 13.2383ZM 142.673 13.9414L 144.606 7.49023L 146.883 7.49023L 143.104 18.4414C 142.523 20.041 141.539 20.8408 140.15 20.8408C 139.84 20.8408 139.497 20.7881 139.122 20.6826L 139.122 19.0303L 139.526 19.0566C 140.065 19.0566 140.47 18.957 140.739 18.7578C 141.015 18.5645 141.231 18.2363 141.39 17.7734L 141.697 16.9561L 138.357 7.49023L 140.66 7.49023L 142.673 13.9414ZM 155.602 9.18652L 152.517 9.18652L 152.517 17L 150.381 17L 150.381 9.18652L 147.331 9.18652L 147.331 7.49023L 155.602 7.49023L 155.602 9.18652ZM 162.571 17C 162.478 16.8184 162.396 16.5225 162.325 16.1123C 161.646 16.8213 160.813 17.1758 159.829 17.1758C 158.874 17.1758 158.095 16.9033 157.491 16.3584C 156.888 15.8135 156.586 15.1396 156.586 14.3369C 156.586 13.3232 156.961 12.5469 157.711 12.0078C 158.467 11.4629 159.545 11.1904 160.945 11.1904L 162.255 11.1904L 162.255 10.5664C 162.255 10.0742 162.117 9.68164 161.842 9.38867C 161.566 9.08984 161.147 8.94043 160.585 8.94043C 160.099 8.94043 159.7 9.06348 159.39 9.30957C 159.079 9.5498 158.924 9.85742 158.924 10.2324L 156.788 10.2324C 156.788 9.71094 156.961 9.22461 157.307 8.77344C 157.652 8.31641 158.121 7.95898 158.713 7.70117C 159.311 7.44336 159.976 7.31445 160.708 7.31445C 161.821 7.31445 162.709 7.5957 163.371 8.1582C 164.033 8.71484 164.373 9.5 164.391 10.5137L 164.391 14.8027C 164.391 15.6582 164.511 16.3408 164.751 16.8506L 164.751 17L 162.571 17ZM 160.225 15.4619C 160.646 15.4619 161.042 15.3594 161.411 15.1543C 161.786 14.9492 162.067 14.6738 162.255 14.3281L 162.255 12.5352L 161.104 12.5352C 160.312 12.5352 159.718 12.6729 159.319 12.9482C 158.921 13.2236 158.722 13.6133 158.722 14.1172C 158.722 14.5273 158.856 14.8555 159.126 15.1016C 159.401 15.3418 159.768 15.4619 160.225 15.4619ZM 174.709 7.49023L 174.709 17L 172.573 17L 172.573 9.21289L 169.884 9.21289L 169.708 12.5264C 169.597 14.1201 169.289 15.2656 168.785 15.9629C 168.287 16.6543 167.522 17 166.491 17L 165.832 17L 165.823 15.2246L 166.263 15.1807C 166.731 15.1162 167.071 14.832 167.282 14.3281C 167.499 13.8184 167.637 12.8926 167.695 11.5508L 167.871 7.49023L 174.709 7.49023ZM 179.279 10.5137L 181.371 10.5137C 182.15 10.5137 182.83 10.6484 183.41 10.918C 183.99 11.1875 184.43 11.5654 184.729 12.0518C 185.033 12.5381 185.186 13.1035 185.186 13.748C 185.186 14.7266 184.84 15.5117 184.148 16.1035C 183.457 16.6953 182.537 16.9941 181.389 17L 177.144 17L 177.144 7.49023L 179.279 7.49023L 179.279 10.5137ZM 179.279 12.2275L 179.279 15.2949L 181.362 15.2949C 181.884 15.2949 182.294 15.166 182.593 14.9082C 182.897 14.6445 183.05 14.2725 183.05 13.792C 183.05 13.3115 182.9 12.9336 182.602 12.6582C 182.309 12.377 181.91 12.2334 181.406 12.2275L 179.279 12.2275ZM 194.95 17L 192.814 17L 192.814 13.1592L 189.114 13.1592L 189.114 17L 186.979 17L 186.979 7.49023L 189.114 7.49023L 189.114 11.4541L 192.814 11.4541L 192.814 7.49023L 194.95 7.49023L 194.95 17ZM 196.831 12.1572C 196.831 11.2256 197.016 10.3877 197.385 9.64355C 197.754 8.89355 198.272 8.31934 198.94 7.9209C 199.608 7.5166 200.376 7.31445 201.243 7.31445C 202.526 7.31445 203.566 7.72754 204.363 8.55371C 205.166 9.37988 205.6 10.4756 205.664 11.8408L 205.673 12.3418C 205.673 13.2793 205.491 14.1172 205.128 14.8555C 204.771 15.5938 204.255 16.165 203.581 16.5693C 202.913 16.9736 202.14 17.1758 201.261 17.1758C 199.919 17.1758 198.844 16.7305 198.035 15.8398C 197.232 14.9434 196.831 13.751 196.831 12.2627L 196.831 12.1572ZM 198.967 12.3418C 198.967 13.3203 199.169 14.0879 199.573 14.6445C 199.978 15.1953 200.54 15.4707 201.261 15.4707C 201.981 15.4707 202.541 15.1895 202.939 14.627C 203.344 14.0645 203.546 13.2412 203.546 12.1572C 203.546 11.1963 203.338 10.4346 202.922 9.87207C 202.512 9.30957 201.952 9.02832 201.243 9.02832C 200.546 9.02832 199.992 9.30664 199.582 9.86328C 199.172 10.4141 198.967 11.2402 198.967 12.3418ZM 213.812 9.21289L 209.681 9.21289L 209.681 17L 207.554 17L 207.554 7.49023L 213.812 7.49023L 213.812 9.21289ZM 214.444 12.1572C 214.444 11.2256 214.629 10.3877 214.998 9.64355C 215.367 8.89355 215.886 8.31934 216.554 7.9209C 217.222 7.5166 217.989 7.31445 218.856 7.31445C 220.14 7.31445 221.18 7.72754 221.977 8.55371C 222.779 9.37988 223.213 10.4756 223.277 11.8408L 223.286 12.3418C 223.286 13.2793 223.104 14.1172 222.741 14.8555C 222.384 15.5938 221.868 16.165 221.194 16.5693C 220.526 16.9736 219.753 17.1758 218.874 17.1758C 217.532 17.1758 216.457 16.7305 215.648 15.8398C 214.846 14.9434 214.444 13.751 214.444 12.2627L 214.444 12.1572ZM 216.58 12.3418C 216.58 13.3203 216.782 14.0879 217.187 14.6445C 217.591 15.1953 218.153 15.4707 218.874 15.4707C 219.595 15.4707 220.154 15.1895 220.553 14.627C 220.957 14.0645 221.159 13.2412 221.159 12.1572C 221.159 11.1963 220.951 10.4346 220.535 9.87207C 220.125 9.30957 219.565 9.02832 218.856 9.02832C 218.159 9.02832 217.605 9.30664 217.195 9.86328C 216.785 10.4141 216.58 11.2402 216.58 12.3418ZM 9.1582 38L 7.02246 38L 7.02246 30.2129L 3.31348 30.2129L 3.31348 38L 1.17773 38L 1.17773 28.4902L 9.1582 28.4902L 9.1582 38ZM 15.6182 38.1758C 14.2646 38.1758 13.166 37.751 12.3223 36.9014C 11.4844 36.0459 11.0654 34.9092 11.0654 33.4912L 11.0654 33.2275C 11.0654 32.2783 11.2471 31.4316 11.6104 30.6875C 11.9795 29.9375 12.4951 29.3545 13.1572 28.9385C 13.8193 28.5225 14.5576 28.3145 15.3721 28.3145C 16.667 28.3145 17.666 28.7275 18.3691 29.5537C 19.0781 30.3799 19.4326 31.5488 19.4326 33.0605L 19.4326 33.9219L 13.2188 33.9219C 13.2832 34.707 13.5439 35.3281 14.001 35.7852C 14.4639 36.2422 15.0439 36.4707 15.7412 36.4707C 16.7197 36.4707 17.5166 36.0752 18.1318 35.2842L 19.2832 36.3828C 18.9023 36.9512 18.3926 37.3936 17.7539 37.71C 17.1211 38.0205 16.4092 38.1758 15.6182 38.1758ZM 15.3633 30.0283C 14.7773 30.0283 14.3027 30.2334 13.9395 30.6436C 13.582 31.0537 13.3535 31.625 13.2539 32.3574L 17.3232 32.3574L 17.3232 32.1992C 17.2764 31.4844 17.0859 30.9453 16.752 30.582C 16.418 30.2129 15.9551 30.0283 15.3633 30.0283ZM 29.4258 33.3418C 29.4258 34.8125 29.0918 35.9873 28.4238 36.8662C 27.7559 37.7393 26.8594 38.1758 25.7344 38.1758C 24.6914 38.1758 23.8564 37.833 23.2295 37.1475L 23.2295 41.6562L 21.0938 41.6562L 21.0938 28.4902L 23.0625 28.4902L 23.1504 29.457C 23.7773 28.6953 24.6299 28.3145 25.708 28.3145C 26.8682 28.3145 27.7764 28.748 28.4326 29.6152C 29.0947 30.4766 29.4258 31.6748 29.4258 33.21L 29.4258 33.3418ZM 27.2988 33.1572C 27.2988 32.208 27.1084 31.4551 26.7275 30.8984C 26.3525 30.3418 25.8135 30.0635 25.1104 30.0635C 24.2373 30.0635 23.6104 30.4238 23.2295 31.1445L 23.2295 35.3633C 23.6162 36.1016 24.249 36.4707 25.1279 36.4707C 25.8076 36.4707 26.3379 36.1982 26.7188 35.6533C 27.1055 35.1025 27.2988 34.2705 27.2988 33.1572ZM 35.4287 38.1758C 34.0752 38.1758 32.9766 37.751 32.1328 36.9014C 31.2949 36.0459 30.876 34.9092 30.876 33.4912L 30.876 33.2275C 30.876 32.2783 31.0576 31.4316 31.4209 30.6875C 31.79 29.9375 32.3057 29.3545 32.9678 28.9385C 33.6299 28.5225 34.3682 28.3145 35.1826 28.3145C 36.4775 28.3145 37.4766 28.7275 38.1797 29.5537C 38.8887 30.3799 39.2432 31.5488 39.2432 33.0605L 39.2432 33.9219L 33.0293 33.9219C 33.0938 34.707 33.3545 35.3281 33.8115 35.7852C 34.2744 36.2422 34.8545 36.4707 35.5518 36.4707C 36.5303 36.4707 37.3271 36.0752 37.9424 35.2842L 39.0938 36.3828C 38.7129 36.9512 38.2031 37.3936 37.5645 37.71C 36.9316 38.0205 36.2197 38.1758 35.4287 38.1758ZM 35.1738 30.0283C 34.5879 30.0283 34.1133 30.2334 33.75 30.6436C 33.3926 31.0537 33.1641 31.625 33.0645 32.3574L 37.1338 32.3574L 37.1338 32.1992C 37.0869 31.4844 36.8965 30.9453 36.5625 30.582C 36.2285 30.2129 35.7656 30.0283 35.1738 30.0283ZM 48.1113 31.0918C 48.1113 31.5137 47.9824 31.9033 47.7246 32.2607C 47.4727 32.6123 47.1152 32.8936 46.6523 33.1045C 47.7422 33.4854 48.2871 34.2207 48.2871 35.3105C 48.2871 36.1836 47.9326 36.8809 47.2236 37.4023C 46.5146 37.918 45.5654 38.1758 44.376 38.1758C 43.6494 38.1758 42.9873 38.0557 42.3896 37.8154C 41.792 37.5693 41.3262 37.2236 40.9922 36.7783C 40.6582 36.3271 40.4912 35.7939 40.4912 35.1787L 42.6182 35.1787C 42.6182 35.5654 42.791 35.8906 43.1367 36.1543C 43.4824 36.4121 43.9189 36.541 44.4463 36.541C 44.9678 36.541 45.3809 36.4209 45.6855 36.1807C 45.9961 35.9346 46.1514 35.6152 46.1514 35.2227C 46.1514 34.7598 46.0166 34.4258 45.7471 34.2207C 45.4775 34.0156 45.0615 33.9131 44.499 33.9131L 42.9697 33.9131L 42.9697 32.375L 44.5518 32.375C 45.5068 32.3633 45.9844 31.9707 45.9844 31.1973C 45.9844 30.8105 45.8467 30.5088 45.5713 30.292C 45.2959 30.0752 44.918 29.9668 44.4375 29.9668C 43.9687 29.9668 43.5732 30.084 43.251 30.3184C 42.9287 30.5469 42.7676 30.8369 42.7676 31.1885L 40.6406 31.1885C 40.6406 30.3506 40.9922 29.665 41.6953 29.1318C 42.3984 28.5928 43.292 28.3232 44.376 28.3232C 45.5537 28.3232 46.4707 28.5635 47.127 29.0439C 47.7832 29.5244 48.1113 30.207 48.1113 31.0918ZM 50.1416 36.2949C 50.7334 35.6328 51.1289 35.0059 51.3281 34.4141C 51.5332 33.8164 51.6563 33.0547 51.6973 32.1289L 51.8203 28.4902L 58.4209 28.4902L 58.4209 36.2949L 59.7393 36.2949L 59.7393 40.8301L 57.6123 40.8301L 57.6123 38L 51.5127 38L 51.5127 40.8301L 49.3506 40.8301L 49.3594 36.2949L 50.1416 36.2949ZM 52.6465 36.2949L 56.2939 36.2949L 56.2939 30.3271L 53.8945 30.3271L 53.833 32.1465C 53.751 33.8926 53.3555 35.2754 52.6465 36.2949ZM 66.9463 38C 66.8525 37.8184 66.7705 37.5225 66.7002 37.1123C 66.0205 37.8213 65.1885 38.1758 64.2041 38.1758C 63.249 38.1758 62.4697 37.9033 61.8662 37.3584C 61.2627 36.8135 60.9609 36.1396 60.9609 35.3369C 60.9609 34.3232 61.3359 33.5469 62.0859 33.0078C 62.8418 32.4629 63.9199 32.1904 65.3203 32.1904L 66.6299 32.1904L 66.6299 31.5664C 66.6299 31.0742 66.4922 30.6816 66.2168 30.3887C 65.9414 30.0898 65.5225 29.9404 64.96 29.9404C 64.4736 29.9404 64.0752 30.0635 63.7646 30.3096C 63.4541 30.5498 63.2988 30.8574 63.2988 31.2324L 61.1631 31.2324C 61.1631 30.7109 61.3359 30.2246 61.6816 29.7734C 62.0273 29.3164 62.4961 28.959 63.0879 28.7012C 63.6855 28.4434 64.3506 28.3145 65.083 28.3145C 66.1963 28.3145 67.084 28.5957 67.7461 29.1582C 68.4082 29.7148 68.748 30.5 68.7656 31.5137L 68.7656 35.8027C 68.7656 36.6582 68.8857 37.3408 69.126 37.8506L 69.126 38L 66.9463 38ZM 64.5996 36.4619C 65.0215 36.4619 65.417 36.3594 65.7861 36.1543C 66.1611 35.9492 66.4424 35.6738 66.6299 35.3281L 66.6299 33.5352L 65.4785 33.5352C 64.6875 33.5352 64.0928 33.6729 63.6943 33.9482C 63.2959 34.2236 63.0967 34.6133 63.0967 35.1172C 63.0967 35.5273 63.2314 35.8555 63.501 36.1016C 63.7764 36.3418 64.1426 36.4619 64.5996 36.4619Z"/>
<path id="path9_stroke" d="M 0.0613079 1.0948L -0.438692 1.0948L -0.438692 2.0948L 0.0613079 2.0948L 0.0613079 1.0948ZM 359.063 2.0948L 359.563 2.0948L 359.563 1.0948L 359.063 1.0948L 359.063 2.0948ZM 0.0613079 2.0948L 359.063 2.0948L 359.063 1.0948L 0.0613079 1.0948L 0.0613079 2.0948Z"/>
<path id="path10_fill" fill-rule="evenodd" d="M 4.87443 3.88047L 0 8.21654L 0 0L 4.87443 3.88047Z"/>
<path id="path11_stroke" d="M 2.09401 0.642756L 2.09401 0.142756L 1.09401 0.142756L 1.09401 0.642756L 2.09401 0.642756ZM 1.09401 24.275L 1.09401 24.775L 2.09401 24.775L 2.09401 24.275L 1.09401 24.275ZM 1.09401 0.642756L 1.09401 24.275L 2.09401 24.275L 2.09401 0.642756L 1.09401 0.642756Z"/>
<path id="path12_stroke" d="M 2.09401 0.56337L 2.09401 0.0633695L 1.09401 0.0633695L 1.09401 0.56337L 2.09401 0.56337ZM 1.09401 72.275L 1.09401 72.775L 2.09401 72.775L 2.09401 72.275L 1.09401 72.275ZM 1.09401 0.56337L 1.09401 72.275L 2.09401 72.275L 2.09401 0.56337L 1.09401 0.56337Z"/>
<path id="path13_stroke" d="M 2.09401 0.582505L 2.09401 0.0825051L 1.09401 0.0825051L 1.09401 0.582505L 2.09401 0.582505ZM 1.09401 200.275L 1.09401 200.775L 2.09401 200.775L 2.09401 200.275L 1.09401 200.275ZM 1.09401 0.582505L 1.09401 200.275L 2.09401 200.275L 2.09401 0.582505L 1.09401 0.582505Z"/>
<path id="path14_fill" d="M 8.70215 9.68457C 8.62467 10.7555 8.22819 11.5986 7.5127 12.2139C 6.80176 12.8291 5.86296 13.1367 4.69629 13.1367C 3.42025 13.1367 2.41536 12.7083 1.68164 11.8516C 0.952474 10.9902 0.587891 9.8099 0.587891 8.31055L 0.587891 7.70215C 0.587891 6.74512 0.75651 5.90202 1.09375 5.17285C 1.43099 4.44369 1.91178 3.88542 2.53613 3.49805C 3.16504 3.10612 3.89421 2.91016 4.72363 2.91016C 5.87207 2.91016 6.7972 3.21777 7.49902 3.83301C 8.20085 4.44824 8.60645 5.31185 8.71582 6.42383L 6.66504 6.42383C 6.61491 5.78125 6.4349 5.31641 6.125 5.0293C 5.81966 4.73763 5.35254 4.5918 4.72363 4.5918C 4.04004 4.5918 3.52734 4.83789 3.18555 5.33008C 2.84831 5.81771 2.67513 6.5765 2.66602 7.60645L 2.66602 8.3584C 2.66602 9.43392 2.8278 10.2201 3.15137 10.7168C 3.47949 11.2135 3.99447 11.4619 4.69629 11.4619C 5.32975 11.4619 5.80143 11.3184 6.11133 11.0312C 6.42578 10.7396 6.60579 10.2907 6.65137 9.68457L 8.70215 9.68457ZM 13.5898 6.01367C 14.5378 6.01367 15.2943 6.32812 15.8594 6.95703C 16.4245 7.58594 16.707 8.44043 16.707 9.52051L 16.707 9.61621C 16.707 10.6826 16.3926 11.5371 15.7637 12.1797C 15.1348 12.8223 14.2894 13.1436 13.2275 13.1436C 12.1611 13.1436 11.3112 12.7972 10.6777 12.1045C 10.0488 11.4072 9.73438 10.4616 9.73438 9.26758L 9.73438 8.93945C 9.74349 7.27604 10.0238 5.97494 10.5752 5.03613C 11.1312 4.09277 11.9652 3.49805 13.0771 3.25195C 13.6605 3.12435 14.0365 2.99902 14.2051 2.87598C 14.3737 2.74837 14.458 2.57292 14.458 2.34961L 16.0576 2.34961C 16.0576 3.0651 15.8639 3.60286 15.4766 3.96289C 15.0938 4.32292 14.4102 4.60091 13.4258 4.79688C 12.8424 4.91536 12.3822 5.14551 12.0449 5.4873C 11.7077 5.8291 11.4798 6.3099 11.3613 6.92969C 11.9902 6.31901 12.7331 6.01367 13.5898 6.01367ZM 13.2139 7.61328C 12.7445 7.61328 12.3753 7.77051 12.1064 8.08496C 11.8421 8.39941 11.71 8.90983 11.71 9.61621C 11.71 10.2451 11.8398 10.7259 12.0996 11.0586C 12.3594 11.3867 12.7354 11.5508 13.2275 11.5508C 13.7061 11.5508 14.0752 11.389 14.335 11.0654C 14.5947 10.7419 14.7269 10.2656 14.7314 9.63672L 14.7314 9.47266C 14.7314 8.86654 14.597 8.40625 14.3281 8.0918C 14.0638 7.77279 13.6924 7.61328 13.2139 7.61328ZM 17.582 9.2334C 17.582 8.49967 17.7233 7.8457 18.0059 7.27148C 18.2884 6.69727 18.694 6.25293 19.2227 5.93848C 19.7559 5.62402 20.3734 5.4668 21.0752 5.4668C 22.0732 5.4668 22.8867 5.77214 23.5156 6.38281C 24.1491 6.99349 24.5023 7.82292 24.5752 8.87109L 24.5889 9.37695C 24.5889 10.5117 24.2721 11.4232 23.6387 12.1113C 23.0052 12.7949 22.1553 13.1367 21.0889 13.1367C 20.0225 13.1367 19.1702 12.7949 18.5322 12.1113C 17.8988 11.4277 17.582 10.498 17.582 9.32227L 17.582 9.2334ZM 19.5576 9.37695C 19.5576 10.0788 19.6898 10.6165 19.9541 10.9902C 20.2184 11.3594 20.5967 11.5439 21.0889 11.5439C 21.5674 11.5439 21.9411 11.3617 22.21 10.9971C 22.4788 10.6279 22.6133 10.04 22.6133 9.2334C 22.6133 8.54525 22.4788 8.01204 22.21 7.63379C 21.9411 7.25553 21.5628 7.06641 21.0752 7.06641C 20.5921 7.06641 20.2184 7.25553 19.9541 7.63379C 19.6898 8.00749 19.5576 8.58854 19.5576 9.37695ZM 32.4639 9.37012C 32.4639 10.5094 32.2041 11.4232 31.6846 12.1113C 31.1696 12.7949 30.4723 13.1367 29.5928 13.1367C 28.8454 13.1367 28.2415 12.877 27.7812 12.3574L 27.7812 15.8438L 25.8057 15.8438L 25.8057 5.60352L 27.6377 5.60352L 27.7061 6.32812C 28.1846 5.75391 28.8089 5.4668 29.5791 5.4668C 30.4906 5.4668 31.1992 5.80404 31.7051 6.47852C 32.2109 7.15299 32.4639 8.08268 32.4639 9.26758L 32.4639 9.37012ZM 30.4883 9.22656C 30.4883 8.53841 30.3652 8.00749 30.1191 7.63379C 29.8776 7.26009 29.5244 7.07324 29.0596 7.07324C 28.4398 7.07324 28.0137 7.31022 27.7812 7.78418L 27.7812 10.8125C 28.0228 11.3001 28.4535 11.5439 29.0732 11.5439C 30.0166 11.5439 30.4883 10.7715 30.4883 9.22656ZM 37.2832 11.4072C 37.7298 10.9333 38.0329 10.4639 38.1924 9.99902C 38.3519 9.53418 38.4408 8.87565 38.459 8.02344L 38.5137 5.60352L 43.9551 5.60352L 43.9551 11.4072L 45.0215 11.4072L 45.0215 15.2217L 43.0459 15.2217L 43.0459 13L 38.6641 13L 38.6641 15.2217L 36.6475 15.2217L 36.6475 11.4072L 37.2832 11.4072ZM 39.6143 11.4072L 41.9863 11.4072L 41.9863 7.2373L 40.4482 7.2373L 40.4346 8.12598C 40.3936 9.48405 40.1201 10.5778 39.6143 11.4072ZM 50.3125 13C 50.2214 12.8223 50.1553 12.6012 50.1143 12.3369C 49.6357 12.8701 49.0137 13.1367 48.248 13.1367C 47.5234 13.1367 46.9219 12.9271 46.4434 12.5078C 45.9694 12.0885 45.7324 11.5599 45.7324 10.9219C 45.7324 10.138 46.0218 9.53646 46.6006 9.11719C 47.1839 8.69792 48.0247 8.486 49.123 8.48145L 50.0322 8.48145L 50.0322 8.05762C 50.0322 7.71582 49.9434 7.44238 49.7656 7.2373C 49.5924 7.03223 49.3167 6.92969 48.9385 6.92969C 48.6058 6.92969 48.3438 7.00944 48.1523 7.16895C 47.9655 7.32845 47.8721 7.5472 47.8721 7.8252L 45.8965 7.8252C 45.8965 7.39681 46.0286 7.00033 46.293 6.63574C 46.5573 6.27116 46.931 5.98633 47.4141 5.78125C 47.8971 5.57161 48.4395 5.4668 49.041 5.4668C 49.9525 5.4668 50.6748 5.69694 51.208 6.15723C 51.7458 6.61296 52.0146 7.25553 52.0146 8.08496L 52.0146 11.291C 52.0192 11.9928 52.1172 12.5238 52.3086 12.8838L 52.3086 13L 50.3125 13ZM 48.6787 11.626C 48.9704 11.626 49.2393 11.5622 49.4854 11.4346C 49.7314 11.3024 49.9137 11.127 50.0322 10.9082L 50.0322 9.63672L 49.2939 9.63672C 48.305 9.63672 47.7786 9.97852 47.7148 10.6621L 47.708 10.7783C 47.708 11.0244 47.7946 11.2272 47.9678 11.3867C 48.141 11.5462 48.3779 11.626 48.6787 11.626ZM 59.9443 13L 57.9619 13L 57.9619 10.1562L 55.5078 10.1562L 55.5078 13L 53.5322 13L 53.5322 5.60352L 55.5078 5.60352L 55.5078 8.57031L 57.9619 8.57031L 57.9619 5.60352L 59.9443 5.60352L 59.9443 13ZM 67.8877 13L 65.9053 13L 65.9053 10.1562L 63.4512 10.1562L 63.4512 13L 61.4756 13L 61.4756 5.60352L 63.4512 5.60352L 63.4512 8.57031L 65.9053 8.57031L 65.9053 5.60352L 67.8877 5.60352L 67.8877 13ZM 71.5312 7.77051L 72.9463 7.77051C 73.5843 7.77051 74.1449 7.8776 74.6279 8.0918C 75.111 8.30599 75.4801 8.61361 75.7354 9.01465C 75.9951 9.41113 76.125 9.8737 76.125 10.4023C 76.125 11.1816 75.8356 11.8105 75.2568 12.2891C 74.6826 12.763 73.8988 13 72.9053 13L 69.5488 13L 69.5488 5.60352L 71.5312 5.60352L 71.5312 7.77051ZM 79.2695 13L 77.2939 13L 77.2939 5.60352L 79.2695 5.60352L 79.2695 13ZM 71.5312 9.35645L 71.5312 11.4209L 72.9326 11.4209C 73.3245 11.4209 73.6253 11.3298 73.835 11.1475C 74.0446 10.9652 74.1494 10.7168 74.1494 10.4023C 74.1494 10.0833 74.0469 9.8304 73.8418 9.64355C 73.6367 9.45215 73.3337 9.35645 72.9326 9.35645L 71.5312 9.35645ZM 83.8291 7.81152L 85.0732 5.60352L 87.1855 5.60352L 85.0801 9.22656L 87.2744 13L 85.1553 13L 83.8359 10.6758L 82.5234 13L 80.3975 13L 82.5918 9.22656L 80.4932 5.60352L 82.6123 5.60352L 83.8291 7.81152Z"/>
<path id="path15_fill" d="M 8.99609 13L 6.93848 13L 6.93848 4.70801L 2.95312 4.70801L 2.95312 13L 0.902344 13L 0.902344 3.04688L 8.99609 3.04688L 8.99609 13ZM 17.3291 9.37012C 17.3291 10.5094 17.0693 11.4232 16.5498 12.1113C 16.0348 12.7949 15.3376 13.1367 14.458 13.1367C 13.7106 13.1367 13.1068 12.877 12.6465 12.3574L 12.6465 15.8438L 10.6709 15.8438L 10.6709 5.60352L 12.5029 5.60352L 12.5713 6.32812C 13.0498 5.75391 13.6742 5.4668 14.4443 5.4668C 15.3558 5.4668 16.0645 5.80404 16.5703 6.47852C 17.0762 7.15299 17.3291 8.08268 17.3291 9.26758L 17.3291 9.37012ZM 15.3535 9.22656C 15.3535 8.53841 15.2305 8.00749 14.9844 7.63379C 14.7428 7.26009 14.3896 7.07324 13.9248 7.07324C 13.305 7.07324 12.8789 7.31022 12.6465 7.78418L 12.6465 10.8125C 12.888 11.3001 13.3187 11.5439 13.9385 11.5439C 14.8818 11.5439 15.3535 10.7715 15.3535 9.22656ZM 18.252 9.2334C 18.252 8.49967 18.3932 7.8457 18.6758 7.27148C 18.9583 6.69727 19.3639 6.25293 19.8926 5.93848C 20.4258 5.62402 21.0433 5.4668 21.7451 5.4668C 22.7432 5.4668 23.5566 5.77214 24.1855 6.38281C 24.819 6.99349 25.1722 7.82292 25.2451 8.87109L 25.2588 9.37695C 25.2588 10.5117 24.9421 11.4232 24.3086 12.1113C 23.6751 12.7949 22.8252 13.1367 21.7588 13.1367C 20.6924 13.1367 19.8402 12.7949 19.2021 12.1113C 18.5687 11.4277 18.252 10.498 18.252 9.32227L 18.252 9.2334ZM 20.2275 9.37695C 20.2275 10.0788 20.3597 10.6165 20.624 10.9902C 20.8883 11.3594 21.2666 11.5439 21.7588 11.5439C 22.2373 11.5439 22.611 11.3617 22.8799 10.9971C 23.1488 10.6279 23.2832 10.04 23.2832 9.2334C 23.2832 8.54525 23.1488 8.01204 22.8799 7.63379C 22.611 7.25553 22.2327 7.06641 21.7451 7.06641C 21.262 7.06641 20.8883 7.25553 20.624 7.63379C 20.3597 8.00749 20.2275 8.58854 20.2275 9.37695ZM 26.6055 13L 26.6055 5.60352L 29.6953 5.60352C 30.7025 5.60352 31.4749 5.78125 32.0127 6.13672C 32.5505 6.49219 32.8193 7.0026 32.8193 7.66797C 32.8193 8.00977 32.7054 8.31738 32.4775 8.59082C 32.2542 8.8597 31.9261 9.06706 31.4932 9.21289C 32.0218 9.31315 32.4365 9.51139 32.7373 9.80762C 33.0426 10.0993 33.1953 10.4593 33.1953 10.8877C 33.1953 11.5758 32.9355 12.0999 32.416 12.46C 31.901 12.82 31.1514 13 30.167 13L 26.6055 13ZM 28.5811 9.93066L 28.5811 11.4209L 30.1738 11.4209C 30.8711 11.4209 31.2197 11.1771 31.2197 10.6895C 31.2197 10.1927 30.887 9.93978 30.2217 9.93066L 28.5811 9.93066ZM 28.5811 8.60449L 29.8047 8.60449C 30.4974 8.59538 30.8438 8.37207 30.8438 7.93457C 30.8438 7.66569 30.748 7.47428 30.5566 7.36035C 30.3698 7.24642 30.0827 7.18945 29.6953 7.18945L 28.5811 7.18945L 28.5811 8.60449ZM 37.8096 13.1367C 36.7249 13.1367 35.8408 12.804 35.1572 12.1387C 34.4782 11.4733 34.1387 10.5869 34.1387 9.47949L 34.1387 9.28809C 34.1387 8.54525 34.2822 7.88216 34.5693 7.29883C 34.8564 6.71094 35.262 6.25977 35.7861 5.94531C 36.3148 5.6263 36.9163 5.4668 37.5908 5.4668C 38.6025 5.4668 39.3978 5.78581 39.9766 6.42383C 40.5599 7.06185 40.8516 7.96647 40.8516 9.1377L 40.8516 9.94434L 36.1416 9.94434C 36.2054 10.4274 36.3968 10.8148 36.7158 11.1064C 37.0394 11.3981 37.4473 11.5439 37.9395 11.5439C 38.7005 11.5439 39.2952 11.2682 39.7236 10.7168L 40.6943 11.8037C 40.3981 12.223 39.9971 12.5511 39.4912 12.7881C 38.9854 13.0205 38.4248 13.1367 37.8096 13.1367ZM 37.584 7.06641C 37.1921 7.06641 36.873 7.19857 36.627 7.46289C 36.3854 7.72721 36.2305 8.10547 36.1621 8.59766L 38.9102 8.59766L 38.9102 8.44043C 38.901 8.00293 38.7826 7.66569 38.5547 7.42871C 38.3268 7.18717 38.0033 7.06641 37.584 7.06641ZM 48.6377 9.37012C 48.6377 10.5094 48.3779 11.4232 47.8584 12.1113C 47.3434 12.7949 46.6462 13.1367 45.7666 13.1367C 45.0192 13.1367 44.4154 12.877 43.9551 12.3574L 43.9551 15.8438L 41.9795 15.8438L 41.9795 5.60352L 43.8115 5.60352L 43.8799 6.32812C 44.3584 5.75391 44.9827 5.4668 45.7529 5.4668C 46.6644 5.4668 47.373 5.80404 47.8789 6.47852C 48.3848 7.15299 48.6377 8.08268 48.6377 9.26758L 48.6377 9.37012ZM 46.6621 9.22656C 46.6621 8.53841 46.5391 8.00749 46.293 7.63379C 46.0514 7.26009 45.6982 7.07324 45.2334 7.07324C 44.6136 7.07324 44.1875 7.31022 43.9551 7.78418L 43.9551 10.8125C 44.1966 11.3001 44.6273 11.5439 45.2471 11.5439C 46.1904 11.5439 46.6621 10.7715 46.6621 9.22656ZM 52.7666 10.2725L 51.9736 10.2725L 51.9736 13L 49.998 13L 49.998 5.60352L 51.9736 5.60352L 51.9736 8.38574L 52.6777 8.38574L 54.291 5.60352L 56.7861 5.60352L 54.3662 9.12402L 57.0117 13L 54.3799 13L 52.7666 10.2725ZM 62.043 13C 61.9518 12.8223 61.8857 12.6012 61.8447 12.3369C 61.3662 12.8701 60.7441 13.1367 59.9785 13.1367C 59.2539 13.1367 58.6523 12.9271 58.1738 12.5078C 57.6999 12.0885 57.4629 11.5599 57.4629 10.9219C 57.4629 10.138 57.7523 9.53646 58.3311 9.11719C 58.9144 8.69792 59.7552 8.486 60.8535 8.48145L 61.7627 8.48145L 61.7627 8.05762C 61.7627 7.71582 61.6738 7.44238 61.4961 7.2373C 61.3229 7.03223 61.0472 6.92969 60.6689 6.92969C 60.3363 6.92969 60.0742 7.00944 59.8828 7.16895C 59.696 7.32845 59.6025 7.5472 59.6025 7.8252L 57.627 7.8252C 57.627 7.39681 57.7591 7.00033 58.0234 6.63574C 58.2878 6.27116 58.6615 5.98633 59.1445 5.78125C 59.6276 5.57161 60.1699 5.4668 60.7715 5.4668C 61.6829 5.4668 62.4053 5.69694 62.9385 6.15723C 63.4762 6.61296 63.7451 7.25553 63.7451 8.08496L 63.7451 11.291C 63.7497 11.9928 63.8477 12.5238 64.0391 12.8838L 64.0391 13L 62.043 13ZM 60.4092 11.626C 60.7008 11.626 60.9697 11.5622 61.2158 11.4346C 61.4619 11.3024 61.6442 11.127 61.7627 10.9082L 61.7627 9.63672L 61.0244 9.63672C 60.0355 9.63672 59.5091 9.97852 59.4453 10.6621L 59.4385 10.7783C 59.4385 11.0244 59.5251 11.2272 59.6982 11.3867C 59.8714 11.5462 60.1084 11.626 60.4092 11.626ZM 65.7754 15.4951L 64.7432 14.9551L 64.9893 14.5107C 65.2946 13.9548 65.4518 13.401 65.4609 12.8496L 65.4609 11.3184L 67.1289 11.3184L 67.1221 12.6855C 67.1175 13.1914 66.9899 13.7018 66.7393 14.2168C 66.4886 14.7318 66.1673 15.1579 65.7754 15.4951ZM 71.8594 9.2334C 71.8594 8.49967 72.0007 7.8457 72.2832 7.27148C 72.5658 6.69727 72.9714 6.25293 73.5 5.93848C 74.0332 5.62402 74.6507 5.4668 75.3525 5.4668C 76.3506 5.4668 77.1641 5.77214 77.793 6.38281C 78.4264 6.99349 78.7796 7.82292 78.8525 8.87109L 78.8662 9.37695C 78.8662 10.5117 78.5495 11.4232 77.916 12.1113C 77.2826 12.7949 76.4326 13.1367 75.3662 13.1367C 74.2998 13.1367 73.4476 12.7949 72.8096 12.1113C 72.1761 11.4277 71.8594 10.498 71.8594 9.32227L 71.8594 9.2334ZM 73.835 9.37695C 73.835 10.0788 73.9671 10.6165 74.2314 10.9902C 74.4958 11.3594 74.874 11.5439 75.3662 11.5439C 75.8447 11.5439 76.2184 11.3617 76.4873 10.9971C 76.7562 10.6279 76.8906 10.04 76.8906 9.2334C 76.8906 8.54525 76.7562 8.01204 76.4873 7.63379C 76.2184 7.25553 75.8402 7.06641 75.3525 7.06641C 74.8695 7.06641 74.4958 7.25553 74.2314 7.63379C 73.9671 8.00749 73.835 8.58854 73.835 9.37695ZM 86.5156 13L 84.5332 13L 84.5332 7.20312L 82.0586 7.20312L 82.0586 13L 80.083 13L 80.083 5.60352L 86.5156 5.60352L 86.5156 13ZM 94.459 5.60352L 94.459 13L 92.4834 13L 92.4834 7.20312L 90.7402 7.20312L 90.6172 9.48633C 90.5397 10.7031 90.3005 11.5895 89.8994 12.1455C 89.4984 12.7015 88.9014 12.9863 88.1084 13L 87.4385 13L 87.418 11.3936L 87.6641 11.373C 88.0195 11.3457 88.2793 11.1361 88.4434 10.7441C 88.6074 10.3522 88.71 9.68457 88.751 8.74121L 88.8877 5.60352L 94.459 5.60352ZM 100.27 13C 100.178 12.8223 100.112 12.6012 100.071 12.3369C 99.5928 12.8701 98.9707 13.1367 98.2051 13.1367C 97.4805 13.1367 96.8789 12.9271 96.4004 12.5078C 95.9264 12.0885 95.6895 11.5599 95.6895 10.9219C 95.6895 10.138 95.9788 9.53646 96.5576 9.11719C 97.141 8.69792 97.9818 8.486 99.0801 8.48145L 99.9893 8.48145L 99.9893 8.05762C 99.9893 7.71582 99.9004 7.44238 99.7227 7.2373C 99.5495 7.03223 99.2738 6.92969 98.8955 6.92969C 98.5628 6.92969 98.3008 7.00944 98.1094 7.16895C 97.9225 7.32845 97.8291 7.5472 97.8291 7.8252L 95.8535 7.8252C 95.8535 7.39681 95.9857 7.00033 96.25 6.63574C 96.5143 6.27116 96.888 5.98633 97.3711 5.78125C 97.8542 5.57161 98.3965 5.4668 98.998 5.4668C 99.9095 5.4668 100.632 5.69694 101.165 6.15723C 101.703 6.61296 101.972 7.25553 101.972 8.08496L 101.972 11.291C 101.976 11.9928 102.074 12.5238 102.266 12.8838L 102.266 13L 100.27 13ZM 98.6357 11.626C 98.9274 11.626 99.1963 11.5622 99.4424 11.4346C 99.6885 11.3024 99.8708 11.127 99.9893 10.9082L 99.9893 9.63672L 99.251 9.63672C 98.262 9.63672 97.7357 9.97852 97.6719 10.6621L 97.665 10.7783C 97.665 11.0244 97.7516 11.2272 97.9248 11.3867C 98.098 11.5462 98.335 11.626 98.6357 11.626ZM 109.519 7.18945L 107.146 7.18945L 107.146 13L 105.164 13L 105.164 7.18945L 102.833 7.18945L 102.833 5.60352L 109.519 5.60352L 109.519 7.18945ZM 114.693 13C 114.602 12.8223 114.536 12.6012 114.495 12.3369C 114.017 12.8701 113.395 13.1367 112.629 13.1367C 111.904 13.1367 111.303 12.9271 110.824 12.5078C 110.35 12.0885 110.113 11.5599 110.113 10.9219C 110.113 10.138 110.403 9.53646 110.981 9.11719C 111.565 8.69792 112.406 8.486 113.504 8.48145L 114.413 8.48145L 114.413 8.05762C 114.413 7.71582 114.324 7.44238 114.146 7.2373C 113.973 7.03223 113.698 6.92969 113.319 6.92969C 112.987 6.92969 112.725 7.00944 112.533 7.16895C 112.346 7.32845 112.253 7.5472 112.253 7.8252L 110.277 7.8252C 110.277 7.39681 110.41 7.00033 110.674 6.63574C 110.938 6.27116 111.312 5.98633 111.795 5.78125C 112.278 5.57161 112.82 5.4668 113.422 5.4668C 114.333 5.4668 115.056 5.69694 115.589 6.15723C 116.127 6.61296 116.396 7.25553 116.396 8.08496L 116.396 11.291C 116.4 11.9928 116.498 12.5238 116.689 12.8838L 116.689 13L 114.693 13ZM 113.06 11.626C 113.351 11.626 113.62 11.5622 113.866 11.4346C 114.112 11.3024 114.295 11.127 114.413 10.9082L 114.413 9.63672L 113.675 9.63672C 112.686 9.63672 112.16 9.97852 112.096 10.6621L 112.089 10.7783C 112.089 11.0244 112.175 11.2272 112.349 11.3867C 112.522 11.5462 112.759 11.626 113.06 11.626Z"/>
<path id="path16_fill" d="M 4.9834 13L 3.71191 13L 3.71191 4.57129L 1.16211 5.50781L 1.16211 4.35938L 4.78516 2.99902L 4.9834 2.99902L 4.9834 13ZM 14.9297 8.75488C 14.9297 10.236 14.6768 11.3366 14.1709 12.0566C 13.665 12.7767 12.8743 13.1367 11.7988 13.1367C 10.737 13.1367 9.95085 12.7858 9.44043 12.084C 8.93001 11.3776 8.66569 10.3249 8.64746 8.92578L 8.64746 7.2373C 8.64746 5.77441 8.90039 4.6875 9.40625 3.97656C 9.91211 3.26562 10.7051 2.91016 11.7852 2.91016C 12.8561 2.91016 13.6445 3.25423 14.1504 3.94238C 14.6562 4.62598 14.916 5.68327 14.9297 7.11426L 14.9297 8.75488ZM 13.665 7.02539C 13.665 5.95443 13.5146 5.17513 13.2139 4.6875C 12.9131 4.19531 12.4368 3.94922 11.7852 3.94922C 11.138 3.94922 10.6663 4.19303 10.3701 4.68066C 10.0739 5.16829 9.92122 5.91797 9.91211 6.92969L 9.91211 8.95312C 9.91211 10.0286 10.0671 10.8239 10.377 11.3389C 10.6914 11.8493 11.1654 12.1045 11.7988 12.1045C 12.4232 12.1045 12.8857 11.863 13.1865 11.3799C 13.4919 10.8968 13.6514 10.1357 13.665 9.09668L 13.665 7.02539ZM 24.4111 11.3252L 26.9268 5.60352L 28.5059 5.60352L 28.5059 13L 27.2412 13L 27.2412 7.62012L 24.8486 13L 23.9736 13L 21.5332 7.50391L 21.5332 13L 20.2686 13L 20.2686 5.60352L 21.9092 5.60352L 24.4111 11.3252ZM 35.3281 5.60352L 36.5928 5.60352L 36.5928 13L 35.3281 13L 35.3281 7.60645L 31.917 13L 30.6523 13L 30.6523 5.60352L 31.917 5.60352L 31.917 11.0039L 35.3281 5.60352ZM 44.666 13L 43.4014 13L 43.4014 9.8418L 40.0039 9.8418L 40.0039 13L 38.7324 13L 38.7324 5.60352L 40.0039 5.60352L 40.0039 8.80957L 43.4014 8.80957L 43.4014 5.60352L 44.666 5.60352L 44.666 13ZM 46.7305 12.3369C 46.7305 12.1182 46.7943 11.9359 46.9219 11.79C 47.054 11.6442 47.25 11.5713 47.5098 11.5713C 47.7695 11.5713 47.9655 11.6442 48.0977 11.79C 48.2344 11.9359 48.3027 12.1182 48.3027 12.3369C 48.3027 12.5465 48.2344 12.722 48.0977 12.8633C 47.9655 13.0046 47.7695 13.0752 47.5098 13.0752C 47.25 13.0752 47.054 13.0046 46.9219 12.8633C 46.7943 12.722 46.7305 12.5465 46.7305 12.3369Z"/>
<path id="path17_fill" d="M 7.06836 8.75488C 7.06836 10.236 6.81543 11.3366 6.30957 12.0566C 5.80371 12.7767 5.01302 13.1367 3.9375 13.1367C 2.87565 13.1367 2.08952 12.7858 1.5791 12.084C 1.06868 11.3776 0.804362 10.3249 0.786133 8.92578L 0.786133 7.2373C 0.786133 5.77441 1.03906 4.6875 1.54492 3.97656C 2.05078 3.26562 2.84375 2.91016 3.92383 2.91016C 4.99479 2.91016 5.7832 3.25423 6.28906 3.94238C 6.79492 4.62598 7.05469 5.68327 7.06836 7.11426L 7.06836 8.75488ZM 5.80371 7.02539C 5.80371 5.95443 5.65332 5.17513 5.35254 4.6875C 5.05176 4.19531 4.57552 3.94922 3.92383 3.94922C 3.27669 3.94922 2.80501 4.19303 2.50879 4.68066C 2.21257 5.16829 2.0599 5.91797 2.05078 6.92969L 2.05078 8.95312C 2.05078 10.0286 2.20573 10.8239 2.51562 11.3389C 2.83008 11.8493 3.30404 12.1045 3.9375 12.1045C 4.56185 12.1045 5.02441 11.863 5.3252 11.3799C 5.63053 10.8968 5.79004 10.1357 5.80371 9.09668L 5.80371 7.02539ZM 16.5498 11.3252L 19.0654 5.60352L 20.6445 5.60352L 20.6445 13L 19.3799 13L 19.3799 7.62012L 16.9873 13L 16.1123 13L 13.6719 7.50391L 13.6719 13L 12.4072 13L 12.4072 5.60352L 14.0479 5.60352L 16.5498 11.3252ZM 27.4668 5.60352L 28.7314 5.60352L 28.7314 13L 27.4668 13L 27.4668 7.60645L 24.0557 13L 22.791 13L 22.791 5.60352L 24.0557 5.60352L 24.0557 11.0039L 27.4668 5.60352ZM 36.8047 13L 35.54 13L 35.54 9.8418L 32.1426 9.8418L 32.1426 13L 30.8711 13L 30.8711 5.60352L 32.1426 5.60352L 32.1426 8.80957L 35.54 8.80957L 35.54 5.60352L 36.8047 5.60352L 36.8047 13ZM 38.8691 12.3369C 38.8691 12.1182 38.9329 11.9359 39.0605 11.79C 39.1927 11.6442 39.3887 11.5713 39.6484 11.5713C 39.9082 11.5713 40.1042 11.6442 40.2363 11.79C 40.373 11.9359 40.4414 12.1182 40.4414 12.3369C 40.4414 12.5465 40.373 12.722 40.2363 12.8633C 40.1042 13.0046 39.9082 13.0752 39.6484 13.0752C 39.3887 13.0752 39.1927 13.0046 39.0605 12.8633C 38.9329 12.722 38.8691 12.5465 38.8691 12.3369Z"/>
</defs>
</svg>
