<svg xmlns="http://www.w3.org/2000/svg" xmlns:xlink="http://www.w3.org/1999/xlink" width="471" height="277"><g transform="translate(-551 2661)"><use xlink:href="#E" fill="url(#A)" x="604.393" y="-2654.98"/><use xlink:href="#F" fill="#968AC0" x="593" y="-2458.47"/><use xlink:href="#F" fill="#958BC0" x="684.605" y="-2467.73"/><use xlink:href="#G" fill="#fff" x="691.082" y="-2466.06"/><use xlink:href="#F" fill="#8C97C6" x="788.448" y="-2508.01"/><use xlink:href="#H" fill="#fff" x="794.926" y="-2505.3"/><use xlink:href="#F" fill="#7AAED1" x="866.889" y="-2560.38"/><use xlink:href="#I" fill="#fff" x="873.366" y="-2557.26"/><use xlink:href="#F" fill="#5AD3E1" x="951.091" y="-2660.43"/><g fill="#fff"><use xlink:href="#J" x="957.568" y="-2657.81"/><use xlink:href="#K" x="599.477" y="-2456.84"/></g><use xlink:href="#L" fill="#7282C4" x="600.439" y="-2670"/><use xlink:href="#M" fill="#555" x="635.507" y="-2662.56"/><use xlink:href="#N" fill="#979797" x="603.439" y="-2415.9"/><use xlink:href="#O" fill="#A8A7A8" x="959" y="-2418.66"/><use xlink:href="#P" fill="url(#B)" x="601.376" y="-2432.15"/><use xlink:href="#Q" fill="url(#C)" x="798.409" y="-2480.15"/><use xlink:href="#R" fill="url(#D)" x="962" y="-2607"/><g fill="#353535"><use xlink:href="#S" x="658.886" y="-2400"/><use xlink:href="#T" x="826" y="-2400"/><use xlink:href="#U" x="973" y="-2424"/><use xlink:href="#V" x="551" y="-2424"/></g></g><defs><linearGradient id="A" x1="180.372" y1="0" x2="180.372" y2="203.808" gradientUnits="userSpaceOnUse"><stop offset="0" stop-color="#42D1DF"/><stop offset="1" stop-color="#8373B5"/></linearGradient><linearGradient id="B" x1="1.5" y1="0" x2="1.5" y2="25" gradientUnits="userSpaceOnUse"><stop offset="0" stop-color="#C8C8C8" stop-opacity=".01"/><stop offset="1" stop-color="#979797"/></linearGradient><linearGradient id="C" x1="1.5" y1="0" x2="1.5" y2="73" gradientUnits="userSpaceOnUse"><stop offset="0" stop-color="#C8C8C8" stop-opacity=".01"/><stop offset="1" stop-color="#979797"/></linearGradient><linearGradient id="D" x1="1.5" y1="0" x2="1.5" y2="201" gradientUnits="userSpaceOnUse"><stop offset="0" stop-color="#C8C8C8" stop-opacity=".01"/><stop offset="1" stop-color="#979797"/></linearGradient><path id="E" d="M-.02 206.062a1.5 1.5 0 0 0-1.479 1.521 1.5 1.5 0 0 0 1.521 1.479l-.042-3zM362.014.797a1.5 1.5 0 0 0-.473-2.068 1.5 1.5 0 0 0-2.068.474l2.54 1.594zM0 207.562l.025 1.5.044-.001H.2l.513-.013 1.994-.07 7.647-.454c6.626-.49 16.266-1.42 28.206-3.17 23.848-3.502 57.068-10.322 94.25-23.528 74.3-26.4 164.888-78.57 229.206-181.025l-2.54-1.594c-63.857 101.886-153.63 153.495-227.67 179.792-36.983 13.143-69.916 19.9-93.68 23.387-11.866 1.742-21.398 2.66-28 3.147l-7.554.448-1.95.07-.613.015h-.03c-.008 0-.008 0 .013 1.5z"/><path id="F" d="M10.64 21.308a10.65 10.65 0 0 0 10.641-10.654A10.65 10.65 0 0 0 10.641 0 10.65 10.65 0 0 0 0 10.654a10.65 10.65 0 0 0 10.641 10.654z" fill-rule="evenodd"/><path id="G" d="M7.5 13H.677v-1.354l3.22-3.432c.442-.483.768-.905.978-1.265s.32-.702.32-1.025c0-.442-.112-.788-.335-1.04s-.542-.383-.957-.383c-.447 0-.8.155-1.06.465s-.383.71-.383 1.2H.48c0-.606.144-1.16.43-1.66a3.06 3.06 0 0 1 1.23-1.176c.53-.287 1.128-.43 1.798-.43 1.025 0 1.82.246 2.386.738s.854 1.187.854 2.085c0 .492-.128.993-.383 1.504S6.102 8.342 5.482 9.02L3.22 11.407H7.5V13z"/><path id="H" d="M2.687 7.148H3.74c.5 0 .873-.125 1.114-.376s.362-.583.362-.998c0-.4-.12-.713-.362-.937s-.565-.335-.984-.335c-.378 0-.695.105-.95.314s-.383.474-.383.807H.56c0-.52.14-.984.417-1.395s.674-.738 1.176-.97S3.215 2.9 3.82 2.9c1.053 0 1.878.253 2.475.76s.896 1.194.896 2.078c0 .456-.14.875-.417 1.258a2.71 2.71 0 0 1-1.094.882c.56.2.978.5 1.25.902s.417.875.417 1.422c0 .884-.324 1.593-.97 2.126s-1.495.8-2.557.8c-.993 0-1.807-.262-2.44-.786s-.943-1.217-.943-2.078h1.976c0 .374.14.68.417.916s.63.355 1.04.355c.47 0 .836-.123 1.1-.37s.403-.58.403-.99c0-.994-.547-1.5-1.64-1.5H2.687V7.148z"/><path id="I" d="M6.52 9.254H7.65v1.593H6.52V13H4.546v-2.153H.465l-.09-1.244 4.15-6.556H6.52v6.207zm-4.177 0h2.2V5.74l-.13.226-2.07 3.288z"/><path id="J" d="M.97 8.105l.574-5.06h5.578v1.647H3.165l-.246 2.14a3.13 3.13 0 0 1 1.497-.376c.948 0 1.69.294 2.23.882s.807 1.4.807 2.468c0 .643-.137 1.22-.4 1.73s-.656.9-1.162 1.183-1.103.417-1.79.417c-.602 0-1.16-.12-1.675-.362a3.02 3.02 0 0 1-1.224-1.032 2.82 2.82 0 0 1-.472-1.511h1.955c.04.415.185.738.43.97s.576.342.978.342c.447 0 .79-.16 1.032-.48s.362-.78.362-1.367c0-.565-.14-.998-.417-1.3s-.672-.45-1.183-.45c-.47 0-.85.123-1.142.37l-.19.178-1.572-.4z"/><path id="K" d="M5.476 13H3.5V5.385l-2.358.73V4.5l4.122-1.477h.212V13z"/><path id="L" d="M3.328 28.22l1.97-17.344h19.125v5.648h-13.57l-.844 7.336c1.61-.86 3.32-1.29 5.133-1.29 3.25 0 5.797 1.008 7.64 3.024s2.766 4.836 2.766 8.46c0 2.203-.47 4.18-1.406 5.93-.922 1.734-2.25 3.086-3.984 4.055-1.734.953-3.78 1.43-6.14 1.43-2.062 0-3.976-.414-5.742-1.242-1.766-.844-3.164-2.023-4.195-3.54-1.016-1.516-1.555-3.242-1.617-5.18h6.703c.14 1.422.633 2.53 1.477 3.328.86.78 1.977 1.172 3.352 1.172 1.53 0 2.71-.547 3.54-1.64.828-1.11 1.242-2.672 1.242-4.687 0-1.937-.476-3.422-1.43-4.453S15.04 27.68 13.29 27.68c-1.61 0-2.914.422-3.914 1.266l-.656.61-5.39-1.336z"/><path id="M" d="M3.568 4.203v11.02H7.47V4.203h2.215v11.02h3.876V4.203h2.215V17H1.336V4.203h2.232zM23.898 17c-.094-.182-.176-.477-.246-.888a3.32 3.32 0 0 1-2.496 1.063c-.955 0-1.734-.272-2.338-.817s-.905-1.22-.905-2.02c0-1.014.375-1.8 1.125-2.33.756-.545 1.834-.817 3.234-.817h1.3v-.624c0-.492-.138-.885-.413-1.178-.275-.3-.694-.448-1.257-.448-.486 0-.885.123-1.195.37-.31.24-.466.548-.466.923h-2.136c0-.52.173-1.008.518-1.46.346-.457.814-.814 1.406-1.072.598-.258 1.263-.387 1.995-.387 1.113 0 2 .28 2.663.844.662.557 1.002 1.342 1.02 2.355v4.29c0 .856.12 1.538.36 2.048V17h-2.18zm-2.347-1.538c.422 0 .817-.102 1.187-.308a2.05 2.05 0 0 0 .844-.826v-1.793h-1.15c-.79 0-1.386.138-1.784.413s-.598.665-.598 1.17c0 .4.135.738.404.984.275.24.642.36 1.1.36zm12.735-6.25h-4.13V17h-2.127V7.5h6.258v1.723zm.633 2.944c0-.932.185-1.77.554-2.514.37-.75.888-1.324 1.556-1.723.668-.404 1.436-.606 2.303-.606 1.283 0 2.323.413 3.12 1.24.803.826 1.236 1.922 1.3 3.287l.01.5c0 .938-.182 1.775-.545 2.514-.357.738-.873 1.3-1.547 1.714-.668.404-1.44.607-2.32.607-1.342 0-2.417-.445-3.226-1.336-.803-.896-1.204-2.09-1.204-3.577v-.106zm2.136.185c0 .98.202 1.746.606 2.303.404.55.967.826 1.688.826s1.28-.28 1.68-.844c.404-.562.607-1.386.607-2.47 0-.96-.208-1.723-.624-2.285-.4-.562-.97-.844-1.68-.844-.697 0-1.25.278-1.66.835-.4.55-.615 1.377-.615 2.48zM45.73 17V7.5h3.858c1.3 0 2.29.23 2.97.686.68.45 1.02 1.102 1.02 1.95 0 .44-.138.835-.413 1.186-.27.346-.67.612-1.204.8.62.13 1.113.4 1.477.782s.545.855.545 1.39c0 .885-.328 1.56-.984 2.022-.65.463-1.588.694-2.812.694H45.73zm2.136-4.052v2.364h2.338c1.096 0 1.644-.393 1.644-1.178 0-.79-.557-1.187-1.67-1.187h-2.312zm0-1.53h1.758c1.213 0 1.82-.357 1.82-1.072 0-.75-.574-1.137-1.723-1.16h-1.855v2.232zM66.252 7.5h2.127V17h-2.127v-6.346L62.525 17h-2.127V7.5h2.127v6.346L66.252 7.5zM78.706 17H76.57v-3.84h-3.7V17h-2.136V7.5h2.136v3.964h3.7V7.5h2.136V17zm9.765-7.813h-3.085V17H83.25V9.187H80.2V7.5h8.27v1.696zm5.054 7.99c-1.353 0-2.452-.425-3.296-1.274-.838-.856-1.257-1.992-1.257-3.4v-.264c0-.95.182-1.796.545-2.54.37-.75.885-1.333 1.547-1.75s1.4-.624 2.215-.624c1.295 0 2.294.413 2.997 1.24.71.826 1.063 1.995 1.063 3.507v.86h-6.214c.064.785.325 1.406.782 1.863.463.457 1.043.686 1.74.686.98 0 1.775-.396 2.39-1.187l1.15 1.1a3.87 3.87 0 0 1-1.529 1.327c-.633.3-1.345.466-2.136.466zm-.255-8.147c-.586 0-1.06.205-1.424.615-.357.4-.586.98-.685 1.714h4.07V11.2c-.047-.715-.237-1.254-.57-1.617-.334-.37-.797-.554-1.39-.554zM107.086 7.5V17h-2.136V9.213h-2.69l-.176 3.314c-.11 1.594-.42 2.74-.923 3.436-.498.69-1.263 1.037-2.294 1.037h-.66l-.01-1.775.44-.044c.47-.065.81-.35 1.02-.853.217-.5.355-1.435.413-2.777l.176-4.06h6.838zm10.353 0V17h-2.135V9.213h-2.7l-.176 3.314c-.11 1.594-.418 2.74-.922 3.436-.498.69-1.263 1.037-2.294 1.037h-.66l-.008-1.775.44-.044c.47-.065.81-.35 1.02-.853.216-.5.354-1.435.413-2.777l.176-4.06h6.837zm6.46 9.686c-1.353 0-2.452-.425-3.295-1.274-.838-.856-1.257-1.992-1.257-3.4v-.264c0-.95.18-1.796.545-2.54.37-.75.884-1.333 1.546-1.75a4.08 4.08 0 0 1 2.215-.624c1.295 0 2.294.413 2.997 1.24.71.826 1.064 1.995 1.064 3.507v.86H121.5c.064.785.325 1.406.782 1.863.463.457 1.043.686 1.74.686.98 0 1.776-.396 2.39-1.187l1.15 1.1c-.38.568-.9 1.01-1.53 1.327-.633.3-1.345.466-2.136.466zm-.254-8.147c-.586 0-1.06.205-1.424.615s-.586.98-.686 1.714h4.07V11.2c-.046-.715-.237-1.254-.57-1.617-.334-.37-.797-.554-1.388-.554zm9.114 4.2h-1.08V17h-2.136V7.5h2.136v3.797h.94l2.628-3.797h2.637l-3.437 4.553L138.173 17h-2.777l-2.637-3.762zm9.914.703l1.933-6.45h2.277l-3.78 10.95c-.58 1.6-1.565 2.4-2.954 2.4-.3 0-.653-.053-1.028-.158V19.03l.404.026c.54 0 .944-.1 1.213-.3.276-.193.492-.52.65-.984l.307-.817-3.34-9.466h2.303l2.013 6.45zm12.93-4.755h-3.085V17h-2.136V9.187h-3.05V7.5h8.27v1.696zM162.57 17c-.093-.182-.175-.477-.246-.888a3.32 3.32 0 0 1-2.496 1.063c-.955 0-1.734-.272-2.338-.817s-.905-1.22-.905-2.02c0-1.014.375-1.8 1.125-2.33.756-.545 1.834-.817 3.234-.817h1.3v-.624c0-.492-.138-.885-.413-1.178-.276-.3-.695-.448-1.257-.448-.486 0-.885.123-1.195.37-.31.24-.466.548-.466.923h-2.136c0-.52.173-1.008.52-1.46.345-.457.814-.814 1.406-1.072.598-.258 1.263-.387 1.995-.387 1.113 0 2 .28 2.663.844.662.557 1.002 1.342 1.02 2.355v4.29c0 .856.12 1.538.36 2.048V17h-2.18zm-2.346-1.538c.42 0 .817-.102 1.186-.308.375-.205.656-.48.844-.826v-1.793h-1.15c-.792 0-1.386.138-1.785.413s-.597.665-.597 1.17c0 .4.134.738.404.984.275.24.642.36 1.1.36zM174.71 7.5V17h-2.136V9.213h-2.69l-.176 3.314c-.11 1.594-.42 2.74-.923 3.436-.498.69-1.263 1.037-2.294 1.037h-.66l-.01-1.775.44-.044c.468-.065.808-.35 1.02-.853.217-.5.355-1.435.413-2.777l.176-4.06h6.838zm4.57 3.023h2.092c.78 0 1.46.135 2.04.404s1.02.647 1.32 1.134.457 1.052.457 1.696c0 .98-.346 1.764-1.038 2.356s-1.61.89-2.76.896h-4.245V7.5h2.135v3.023zm0 1.714v3.067h2.083c.522 0 .932-.13 1.23-.387.304-.264.457-.636.457-1.116s-.15-.858-.448-1.134c-.293-.28-.692-.425-1.196-.43h-2.127zM194.95 17h-2.136v-3.84h-3.7V17h-2.135V7.5h2.135v3.964h3.7V7.5h2.136V17zm1.88-4.843c0-.932.185-1.77.554-2.514.37-.75.887-1.324 1.555-1.723.668-.404 1.436-.606 2.303-.606 1.283 0 2.323.413 3.12 1.24.803.826 1.237 1.922 1.3 3.287l.01.5c0 .938-.182 1.775-.545 2.514-.357.738-.873 1.3-1.547 1.714-.668.404-1.44.607-2.32.607-1.342 0-2.417-.445-3.226-1.336-.803-.896-1.204-2.09-1.204-3.577v-.106zm2.136.185c0 .98.202 1.746.606 2.303.405.55.967.826 1.688.826s1.28-.28 1.678-.844c.405-.562.607-1.386.607-2.47 0-.96-.208-1.723-.624-2.285-.4-.562-.97-.844-1.68-.844-.697 0-1.25.278-1.66.835-.4.55-.615 1.377-.615 2.48zm14.845-3.13h-4.13V17h-2.127V7.5h6.258v1.723zm.632 2.944c0-.932.185-1.77.554-2.514.37-.75.888-1.324 1.556-1.723.668-.404 1.435-.606 2.302-.606 1.284 0 2.324.413 3.12 1.24s1.236 1.922 1.3 3.287l.01.5c0 .938-.182 1.775-.545 2.514-.357.738-.873 1.3-1.547 1.714-.668.404-1.44.607-2.32.607-1.342 0-2.417-.445-3.226-1.336-.802-.896-1.204-2.09-1.204-3.577v-.106zm2.136.185c0 .98.202 1.746.607 2.303.404.55.966.826 1.687.826s1.28-.28 1.68-.844.606-1.386.606-2.47c0-.96-.208-1.723-.624-2.285-.4-.562-.97-.844-1.68-.844-.697 0-1.25.278-1.66.835-.4.55-.615 1.377-.615 2.48zM9.158 38H7.022v-7.787h-3.71V38H1.178v-9.5h7.98V38zm6.46.176c-1.354 0-2.452-.425-3.296-1.274-.838-.855-1.257-1.992-1.257-3.4v-.264c0-.95.182-1.796.545-2.54.37-.75.885-1.333 1.547-1.75s1.4-.624 2.215-.624c1.295 0 2.294.413 2.997 1.24.71.826 1.064 1.995 1.064 3.507v.86H13.22c.064.785.325 1.406.782 1.863.463.457 1.043.685 1.74.685.98 0 1.775-.395 2.39-1.187l1.15 1.1a3.87 3.87 0 0 1-1.529 1.327c-.633.3-1.345.466-2.136.466zm-.255-8.148c-.586 0-1.06.205-1.424.615-.357.4-.586.98-.686 1.714h4.07V32.2c-.047-.715-.237-1.254-.57-1.617-.334-.37-.797-.554-1.39-.554zm14.062 3.313c0 1.47-.334 2.645-1.002 3.524-.668.873-1.564 1.3-2.69 1.3-1.043 0-1.878-.343-2.505-1.028v4.51h-2.136V28.5h1.97l.088.967c.627-.762 1.48-1.143 2.558-1.143 1.16 0 2.068.434 2.725 1.3.662.86.993 2.06.993 3.595v.132zm-2.127-.185c0-.95-.2-1.702-.57-2.26-.375-.557-.914-.835-1.617-.835-.873 0-1.5.36-1.88 1.08v4.22c.387.738 1.02 1.107 1.898 1.107a1.83 1.83 0 0 0 1.591-.817c.387-.55.58-1.383.58-2.496zm8.13 5.02c-1.353 0-2.452-.425-3.296-1.274-.838-.855-1.257-1.992-1.257-3.4v-.264c0-.95.182-1.796.545-2.54.37-.75.885-1.333 1.547-1.75s1.4-.624 2.215-.624c1.295 0 2.294.413 2.997 1.24.71.826 1.064 1.995 1.064 3.507v.86H33.03c.065.785.325 1.406.782 1.863.463.457 1.043.685 1.74.685.978 0 1.775-.395 2.39-1.187l1.15 1.1a3.87 3.87 0 0 1-1.529 1.327c-.633.3-1.345.466-2.136.466zm-.255-8.148c-.586 0-1.06.205-1.424.615-.357.4-.586.98-.685 1.714h4.07V32.2c-.047-.715-.237-1.254-.57-1.617-.334-.37-.797-.554-1.39-.554zm12.938 1.063c0 .422-.13.812-.387 1.17-.252.352-.61.633-1.072.844 1.1.38 1.635 1.116 1.635 2.206 0 .873-.355 1.57-1.064 2.092-.71.516-1.658.774-2.848.774-.727 0-1.39-.12-1.986-.36-.598-.246-1.063-.592-1.397-1.037-.334-.45-.5-.984-.5-1.6h2.127c0 .387.173.712.518.976.346.258.782.387 1.3.387.52 0 .935-.12 1.24-.36.31-.246.466-.566.466-.958 0-.463-.135-.797-.404-1.002s-.686-.308-1.248-.308h-1.53v-1.538h1.582c.955-.012 1.433-.404 1.433-1.178 0-.387-.138-.688-.413-.905s-.653-.325-1.134-.325c-.47 0-.864.117-1.187.352-.322.23-.483.518-.483.87H40.64c0-.838.352-1.524 1.055-2.057.703-.54 1.597-.81 2.68-.81 1.178 0 2.095.24 2.75.72s.984 1.163.984 2.048zm2.03 5.203c.592-.662.987-1.29 1.187-1.88.205-.598.328-1.36.37-2.285l.123-3.64h6.6v7.805h1.318v4.535h-2.127V38h-6.1v2.83H49.35l.01-4.535h.782zm2.505 0h3.647v-5.968h-2.4l-.062 1.82c-.082 1.746-.477 3.13-1.186 4.148zM66.946 38c-.094-.182-.176-.477-.246-.888a3.32 3.32 0 0 1-2.496 1.064c-.955 0-1.734-.273-2.338-.817s-.905-1.22-.905-2.022c0-1.014.375-1.8 1.125-2.33.756-.545 1.834-.817 3.234-.817h1.3v-.624c0-.492-.138-.885-.413-1.178-.275-.3-.694-.448-1.257-.448-.486 0-.885.123-1.195.37-.31.24-.466.548-.466.923h-2.136c0-.52.173-1.008.52-1.46.346-.457.814-.814 1.406-1.072.598-.258 1.263-.387 1.995-.387 1.113 0 2 .28 2.663.844.662.557 1.002 1.342 1.02 2.355v4.29c0 .855.12 1.538.36 2.048V38h-2.18zM64.6 36.462c.422 0 .817-.102 1.187-.308a2.05 2.05 0 0 0 .844-.826v-1.793h-1.15c-.79 0-1.386.138-1.784.413s-.598.665-.598 1.17c0 .4.135.738.404.984.275.24.642.36 1.1.36z"/><path id="N" d="M.06 1.095h-.5v1h.5v-1zm359.002 1h.5v-1h-.5v1zM.06 2.095h359.002v-1H.06v1z"/><path id="O" d="M4.874 3.88L0 8.217V0l4.874 3.88z" fill-rule="evenodd"/><path id="P" d="M2.094.643v-.5h-1v.5h1zm-1 23.632v.5h1v-.5h-1zm0-23.632v23.632h1V.643h-1z"/><path id="Q" d="M2.094.563v-.5h-1v.5h1zm-1 71.712v.5h1v-.5h-1zm0-71.712v71.712h1V.563h-1z"/><path id="R" d="M2.094.583v-.5h-1v.5h1zm-1 199.692v.5h1v-.5h-1zm0-199.692v199.692h1V.583h-1z"/><path id="S" d="M8.702 9.685c-.077 1.07-.474 1.914-1.19 2.53s-1.65.923-2.816.923c-1.276 0-2.28-.428-3.015-1.285S.588 9.8.588 8.31v-.608c0-.957.17-1.8.506-2.53s.818-1.287 1.442-1.675S3.894 2.9 4.724 2.9c1.148 0 2.074.308 2.775.923s1.107 1.48 1.217 2.59h-2.05c-.05-.643-.23-1.107-.54-1.395s-.772-.437-1.4-.437c-.684 0-1.196.246-1.538.738s-.5 1.246-.52 2.276v.752c0 1.076.162 1.862.485 2.358s.843.745 1.545.745c.633 0 1.105-.143 1.415-.43s.494-.74.54-1.347h2.05zm4.888-3.67c.948 0 1.704.314 2.27.943s.848 1.483.848 2.563v.096c0 1.066-.314 1.92-.943 2.563s-1.474.964-2.536.964-1.916-.346-2.55-1.04-.943-1.643-.943-2.837V8.94c.01-1.663.29-2.965.84-3.903s1.4-1.538 2.502-1.784c.583-.128.96-.253 1.128-.376s.253-.303.253-.526h1.6c0 .715-.194 1.253-.58 1.613s-1.066.638-2.05.834c-.583.118-1.044.35-1.38.7s-.565.823-.684 1.442a3.09 3.09 0 0 1 2.229-.916zm-.376 1.6c-.47 0-.84.157-1.107.472s-.396.825-.396 1.53c0 .63.13 1.1.4 1.442s.636.492 1.128.492c.48 0 .848-.162 1.108-.485s.392-.8.396-1.43v-.164c0-.606-.134-1.066-.403-1.38s-.636-.48-1.114-.48zm4.368 1.62c0-.734.14-1.388.424-1.962s.688-1.02 1.217-1.333 1.15-.472 1.852-.472c.998 0 1.812.305 2.44.916s.987 1.44 1.06 2.488l.014.506c0 1.135-.317 2.046-.95 2.734s-1.483 1.025-2.55 1.025-1.92-.342-2.557-1.025-.95-1.613-.95-2.79v-.09zm1.976.144c0 .702.132 1.24.396 1.613s.643.554 1.135.554c.48 0 .852-.182 1.12-.547s.403-.957.403-1.764c0-.688-.134-1.22-.403-1.6a1.31 1.31 0 0 0-1.135-.567c-.483 0-.857.19-1.12.567s-.396.955-.396 1.743zm12.906-.007c0 1.14-.26 2.053-.78 2.74s-1.212 1.025-2.092 1.025c-.747 0-1.35-.26-1.812-.78v3.486h-1.975V5.604h1.832l.068.725a2.32 2.32 0 0 1 1.873-.861c.912 0 1.62.337 2.126 1.012s.76 1.604.76 2.79v.103zm-1.976-.144c0-.688-.123-1.22-.37-1.593a1.18 1.18 0 0 0-1.059-.561c-.62 0-1.046.237-1.278.71v3.028c.242.488.672.73 1.292.73.943 0 1.415-.772 1.415-2.317zm6.795 2.18c.447-.474.75-.943.91-1.408s.248-1.123.267-1.976l.055-2.42h5.44v5.804h1.066v3.815h-1.976V13h-4.382v2.222h-2.017v-3.815h.636zm2.33 0h2.372v-4.17h-1.538l-.014.89c-.04 1.358-.315 2.452-.82 3.28zM50.313 13c-.09-.178-.157-.4-.198-.663-.48.533-1.1.8-1.866.8-.725 0-1.326-.2-1.805-.63s-.71-.948-.71-1.586c0-.784.29-1.385.868-1.805s1.424-.63 2.522-.636h.91v-.424c0-.342-.09-.615-.267-.82s-.45-.308-.827-.308c-.333 0-.595.08-.786.24s-.28.378-.28.656h-1.976c0-.428.132-.825.396-1.19s.638-.65 1.12-.854 1.025-.314 1.627-.314c.912 0 1.634.23 2.167.7s.807 1.098.807 1.928v3.206c.005.702.103 1.233.294 1.593V13h-1.996zm-1.634-1.374c.292 0 .56-.064.807-.19a1.3 1.3 0 0 0 .547-.526v-1.27h-.738c-.99 0-1.515.342-1.58 1.025l-.007.116a.79.79 0 0 0 .26.608c.173.16.4.24.71.24zM59.944 13h-1.982v-2.844h-2.454V13h-1.976V5.604h1.976V8.57h2.454V5.604h1.982V13zm7.943 0h-1.982v-2.844H63.45V13h-1.976V5.604h1.976V8.57h2.454V5.604h1.982V13zm3.644-5.23h1.415c.638 0 1.2.107 1.682.32s.852.522 1.108.923.4.86.4 1.388c0 .78-.29 1.408-.868 1.887S73.9 13 72.905 13H69.55V5.604h1.982V7.77zM79.27 13h-1.976V5.604h1.976V13zM71.53 9.356v2.064h1.4c.392 0 .693-.09.902-.273s.314-.43.314-.745-.103-.572-.308-.76-.508-.287-.91-.287h-1.4zM83.83 7.812l1.244-2.208h2.112L85.08 9.227 87.274 13h-2.12l-1.32-2.324L82.523 13h-2.126l2.194-3.773-2.1-3.623h2.12l1.217 2.208z"/><path id="T" d="M8.996 13H6.938V4.708H2.953V13H.902V3.047h8.094V13zm8.333-3.63c0 1.14-.26 2.053-.78 2.74s-1.212 1.025-2.092 1.025c-.747 0-1.35-.26-1.812-.78v3.486H10.67V5.604h1.832l.068.725a2.32 2.32 0 0 1 1.873-.861c.912 0 1.62.337 2.126 1.012s.76 1.604.76 2.79v.103zm-1.976-.144c0-.688-.123-1.22-.37-1.593s-.595-.56-1.06-.56c-.62 0-1.046.237-1.278.71v3.028c.242.488.672.73 1.292.73.943 0 1.415-.772 1.415-2.317zm2.898.007c0-.734.14-1.388.424-1.962s.688-1.02 1.217-1.333 1.15-.472 1.852-.472c.998 0 1.81.305 2.44.916s.987 1.44 1.06 2.488l.014.506c0 1.135-.317 2.046-.95 2.734s-1.483 1.025-2.55 1.025-1.92-.342-2.557-1.025-.95-1.613-.95-2.79v-.09zm1.976.144c0 .702.132 1.24.396 1.613s.643.554 1.135.554c.48 0 .852-.182 1.12-.547s.403-.957.403-1.764c0-.688-.134-1.22-.403-1.6a1.31 1.31 0 0 0-1.135-.567c-.483 0-.857.19-1.12.567s-.396.955-.396 1.743zM26.606 13V5.604h3.1c1.007 0 1.78.178 2.317.533s.807.866.807 1.53c0 .342-.114.65-.342.923s-.55.476-.984.622c.53.1.943.3 1.244.595s.458.652.458 1.08c0 .688-.26 1.212-.78 1.572s-1.265.54-2.25.54h-3.562zm1.976-3.07v1.5h1.593c.697 0 1.046-.244 1.046-.73 0-.497-.333-.75-.998-.76h-1.64zm0-1.326h1.224c.693-.01 1.04-.232 1.04-.67 0-.27-.096-.46-.287-.574s-.474-.17-.86-.17H28.58v1.415zm9.23 4.532c-1.085 0-1.97-.333-2.652-.998s-1.02-1.552-1.02-2.66v-.19c0-.743.144-1.406.43-1.99s.693-1.04 1.217-1.354 1.13-.48 1.805-.48c1.012 0 1.807.32 2.386.957s.875 1.543.875 2.714v.807h-4.7c.064.483.255.87.574 1.162s.73.438 1.224.438c.76 0 1.356-.276 1.784-.827l.97 1.087a2.99 2.99 0 0 1-1.203.984 3.98 3.98 0 0 1-1.682.349zm-.226-6.07c-.392 0-.71.132-.957.396s-.397.643-.465 1.135H38.9V8.44c-.01-.437-.128-.775-.356-1.012s-.55-.362-.97-.362zM48.638 9.37c0 1.14-.26 2.053-.78 2.74s-1.212 1.025-2.092 1.025c-.747 0-1.35-.26-1.81-.78v3.486H41.98V5.604h1.832l.068.725a2.32 2.32 0 0 1 1.873-.861c.912 0 1.62.337 2.126 1.012s.76 1.604.76 2.79v.103zm-1.976-.144c0-.688-.123-1.22-.37-1.593s-.595-.56-1.06-.56c-.62 0-1.046.237-1.278.71v3.028c.24.488.672.73 1.292.73.943 0 1.415-.772 1.415-2.317zm6.104 1.046h-.793V13h-1.976V5.604h1.976v2.782h.704l1.613-2.782h2.495l-2.42 3.52L57.012 13H54.38l-1.613-2.727zM62.043 13c-.09-.178-.157-.4-.198-.663-.48.533-1.1.8-1.866.8-.725 0-1.326-.2-1.805-.63s-.71-.948-.71-1.586c0-.784.29-1.385.868-1.805s1.424-.63 2.522-.636h.91v-.424c0-.342-.09-.615-.267-.82s-.45-.308-.827-.308c-.333 0-.595.08-.786.24s-.28.378-.28.656h-1.975c0-.428.132-.825.396-1.19s.638-.65 1.12-.854 1.025-.314 1.627-.314c.91 0 1.634.23 2.167.7s.807 1.098.807 1.928v3.206c.005.702.103 1.233.294 1.593V13h-1.996zm-1.634-1.374c.292 0 .56-.064.807-.19a1.3 1.3 0 0 0 .547-.526v-1.27h-.738c-.99 0-1.515.342-1.58 1.025l-.007.116a.79.79 0 0 0 .26.608c.173.16.4.24.71.24zm5.366 3.87l-1.032-.54.246-.444c.305-.556.463-1.1.472-1.66v-1.53h1.668l-.007 1.367c-.005.506-.132 1.016-.383 1.53s-.572.94-.964 1.278zm6.084-6.262c0-.734.14-1.388.424-1.962A3.11 3.11 0 0 1 73.5 5.938c.533-.314 1.15-.472 1.853-.472.998 0 1.812.305 2.44.916s.987 1.44 1.06 2.488l.014.506c0 1.135-.317 2.046-.95 2.734s-1.483 1.025-2.55 1.025-1.92-.342-2.557-1.025-.95-1.613-.95-2.79v-.09zm1.976.144c0 .702.132 1.24.396 1.613s.643.554 1.135.554c.478 0 .852-.182 1.12-.547s.403-.957.403-1.764c0-.688-.134-1.22-.403-1.6a1.31 1.31 0 0 0-1.135-.567c-.483 0-.857.19-1.12.567s-.396.955-.396 1.743zM86.516 13h-1.982V7.203H82.06V13h-1.976V5.604h6.433V13zm7.943-7.396V13h-1.976V7.203H90.74l-.123 2.283c-.078 1.217-.317 2.103-.718 2.66s-.998.84-1.79.854h-.67l-.02-1.606.246-.02c.355-.027.615-.237.78-.63s.267-1.06.308-2.003l.137-3.138h5.57zM100.27 13c-.092-.178-.158-.4-.2-.663-.478.533-1.1.8-1.866.8-.725 0-1.326-.2-1.805-.63s-.71-.948-.71-1.586c0-.784.29-1.385.868-1.805s1.424-.63 2.523-.636h.91v-.424c0-.342-.09-.615-.267-.82s-.45-.308-.827-.308c-.333 0-.595.08-.786.24s-.28.378-.28.656h-1.976c0-.428.132-.825.397-1.19s.638-.65 1.12-.854 1.025-.314 1.627-.314c.91 0 1.634.23 2.167.7s.807 1.098.807 1.928v3.206c.004.702.102 1.233.294 1.593V13h-1.996zm-1.634-1.374c.292 0 .56-.064.807-.19a1.3 1.3 0 0 0 .547-.526v-1.27h-.738c-.99 0-1.515.342-1.58 1.025l-.007.116a.79.79 0 0 0 .26.608c.173.16.4.24.71.24zM109.52 7.19h-2.373V13h-1.982V7.19h-2.33V5.604h6.686V7.19zm5.174 5.81c-.09-.178-.157-.4-.198-.663-.478.533-1.1.8-1.866.8-.725 0-1.326-.2-1.805-.63s-.71-.948-.71-1.586c0-.784.3-1.385.868-1.805.584-.42 1.425-.63 2.523-.636h.91v-.424c0-.342-.09-.615-.267-.82s-.448-.308-.827-.308c-.332 0-.594.08-.786.24s-.28.378-.28.656h-1.976c0-.428.133-.825.397-1.19s.638-.65 1.12-.854 1.025-.314 1.627-.314c.91 0 1.634.23 2.167.7s.807 1.098.807 1.928v3.206c.004.702.102 1.233.293 1.593V13h-1.996zm-1.633-1.374c.29 0 .56-.064.806-.19s.43-.308.547-.526v-1.27h-.738c-.99 0-1.515.342-1.58 1.025l-.007.116c0 .246.086.45.26.608s.4.24.71.24z"/><path id="U" d="M4.983 13h-1.27V4.57l-2.55.937V4.36L4.785 3h.198v10zm9.946-4.245c0 1.48-.253 2.582-.76 3.302s-1.297 1.08-2.372 1.08c-1.062 0-1.848-.35-2.358-1.053s-.775-1.76-.793-3.158V7.237c0-1.463.253-2.55.76-3.26s1.3-1.066 2.38-1.066c1.07 0 1.86.344 2.365 1.032s.766 1.74.78 3.172v1.64zm-1.265-1.73c0-1.07-.15-1.85-.45-2.338s-.777-.738-1.43-.738-1.12.244-1.415.73-.45 1.237-.458 2.25v2.023c0 1.075.155 1.87.465 2.386s.788.766 1.422.766c.624 0 1.087-.242 1.388-.725s.465-1.244.478-2.283v-2.07zm10.746 4.3l2.516-5.722h1.58V13H27.24V7.62L24.85 13h-.875l-2.44-5.496V13H20.27V5.604h1.64l2.502 5.722zm10.917-5.722h1.265V13h-1.265V7.606L31.917 13h-1.265V5.604h1.265v5.4l3.41-5.4zM44.666 13H43.4V9.842h-3.398V13h-1.272V5.604h1.272V8.8H43.4V5.604h1.265V13zm2.065-.663a.8.8 0 0 1 .191-.547c.132-.146.328-.22.588-.22s.456.073.588.22.205.328.205.547c0 .2-.068.385-.205.526s-.328.212-.588.212-.456-.07-.588-.212-.19-.317-.19-.526z"/><path id="V" d="M7.068 8.755c0 1.48-.253 2.582-.76 3.302s-1.297 1.08-2.372 1.08c-1.062 0-1.848-.35-2.358-1.053s-.775-1.76-.793-3.158V7.237c0-1.463.253-2.55.76-3.26S2.844 2.9 3.924 2.9c1.07 0 1.86.344 2.365 1.032s.766 1.74.78 3.172v1.64zm-1.265-1.73c0-1.07-.15-1.85-.45-2.338s-.777-.738-1.43-.738-1.12.244-1.415.73-.45 1.237-.458 2.25v2.023c0 1.075.155 1.87.465 2.386s.788.766 1.422.766c.624 0 1.087-.242 1.388-.725s.465-1.244.48-2.283v-2.07zm10.746 4.3l2.516-5.722h1.58V13H19.38V7.62L16.987 13h-.875l-2.44-5.496V13h-1.265V5.604h1.64l2.502 5.722zm10.917-5.722h1.265V13h-1.265V7.606L24.056 13H22.79V5.604h1.265v5.4l3.41-5.4zM36.805 13H35.54V9.842h-3.397V13H30.87V5.604h1.272V8.8h3.397V5.604h1.265V13zm2.064-.663a.8.8 0 0 1 .191-.547c.132-.146.328-.22.588-.22s.456.073.588.22.205.328.205.547c0 .2-.068.385-.205.526s-.328.212-.588.212-.456-.07-.588-.212-.19-.317-.19-.526z"/></defs></svg>