<svg width="158" height="158" viewBox="0 0 158 158" version="1.1" xmlns="http://www.w3.org/2000/svg" xmlns:xlink="http://www.w3.org/1999/xlink">
<title>Group 31</title>
<desc>Created using Figma</desc>
<g id="Canvas" transform="translate(-259 2673)">
<g id="Group 31">
<g id="Rectangle 11">
<g id="Mask" filter="url(#filter0_d)">
<use xlink:href="#path0_fill" transform="translate(263 -2671)" fill="#FFFFFF"/>
<mask id="mask0_outline_ins">
<use xlink:href="#path0_fill" fill="white" transform="translate(263 -2671)"/>
</mask>
<g mask="url(#mask0_outline_ins)">
<use xlink:href="#path1_stroke_2x" transform="translate(263 -2671)" fill="#FFFFFF"/>
</g>
</g>
<g id="Object">
<mask id="mask1_outline" mask-type="alpha">
<g id="Mask">
<use xlink:href="#path0_fill" transform="translate(263 -2671)" fill="#FFFFFF"/>
<mask id="mask2_outline_ins">
<use xlink:href="#path0_fill" fill="white" transform="translate(263 -2671)"/>
</mask>
<g mask="url(#mask2_outline_ins)">
<use xlink:href="#path1_stroke_2x" transform="translate(263 -2671)" fill="#FFFFFF"/>
</g>
</g>
</mask>
<g id="Rectangle 11" mask="url(#mask1_outline)">
<use xlink:href="#path2_fill" transform="translate(338 -2680.68)" fill="url(#paint4_linear)"/>
</g>
</g>
<g id="Mask">
<mask id="mask3_outline_ins">
<use xlink:href="#path0_fill" fill="white" transform="translate(263 -2671)"/>
</mask>
<g mask="url(#mask3_outline_ins)">
<use xlink:href="#path3_stroke_2x" transform="translate(263 -2671)" fill="#FFFFFF"/>
</g>
</g>
<mask id="mask4_outline" mask-type="alpha">
<g id="Mask">
<use xlink:href="#path0_fill" transform="translate(263 -2671)" fill="#FFFFFF"/>
<mask id="mask5_outline_ins">
<use xlink:href="#path0_fill" fill="white" transform="translate(263 -2671)"/>
</mask>
<g mask="url(#mask5_outline_ins)">
<use xlink:href="#path3_stroke_2x" transform="translate(263 -2671)" fill="#FFFFFF"/>
</g>
</g>
</mask>
</g>
<g id="Oval 8">
<mask id="mask6_outline_out">
<rect id="mask6_outline_inv" fill="white" x="-2" y="-2" width="130" height="130" transform="translate(275 -2659)"/>
<use xlink:href="#path4_fill" fill="black" transform="translate(275 -2659)"/>
</mask>
<g mask="url(#mask6_outline_out)">
<use xlink:href="#path5_stroke_2x" transform="translate(275 -2659)" fill="#FFFFFF"/>
</g>
</g>
<g id="Oval 8" filter="url(#filter1_d)">
<use xlink:href="#path4_fill" transform="translate(275 -2659)" fill="#FFFFFF"/>
</g>
<g id="02&#226;&#128;&#153;3&#226;&#128;&#153;&#226;&#128;&#153;">
<use xlink:href="#path6_fill" transform="translate(291 -2626)" fill="#353535"/>
</g>
<g id="&#208;&#156;&#208;&#184;&#208;&#189;&#209;&#131;&#209;&#130;">
<use xlink:href="#path7_fill" transform="translate(312 -2582)" fill="#353535"/>
</g>
</g>
</g>
<defs>
<filter id="filter0_d" filterUnits="userSpaceOnUse" x="259" y="-2673" width="158" height="158" color-interpolation-filters="sRGB">
<feFlood flood-opacity="0" result="BackgroundImageFix"/>
<feColorMatrix in="SourceAlpha" type="matrix" values="0 0 0 0 0 0 0 0 0 0 0 0 0 0 0 0 0 0 255 0"/>
<feOffset dx="0" dy="2"/>
<feGaussianBlur stdDeviation="2"/>
<feColorMatrix type="matrix" values="0 0 0 0 0 0 0 0 0 0 0 0 0 0 0 0 0 0 0.269107 0"/>
<feBlend mode="normal" in2="BackgroundImageFix" result="effect1_dropShadow"/>
<feBlend mode="normal" in="SourceGraphic" in2="effect1_dropShadow" result="shape"/>
</filter>
<filter id="filter1_d" filterUnits="userSpaceOnUse" x="271" y="-2661" width="134" height="134" color-interpolation-filters="sRGB">
<feFlood flood-opacity="0" result="BackgroundImageFix"/>
<feColorMatrix in="SourceAlpha" type="matrix" values="0 0 0 0 0 0 0 0 0 0 0 0 0 0 0 0 0 0 255 0"/>
<feOffset dx="0" dy="2"/>
<feGaussianBlur stdDeviation="2"/>
<feColorMatrix type="matrix" values="0 0 0 0 0 0 0 0 0 0 0 0 0 0 0 0 0 0 0.115914 0"/>
<feBlend mode="normal" in2="BackgroundImageFix" result="effect1_dropShadow"/>
<feBlend mode="normal" in="SourceGraphic" in2="effect1_dropShadow" result="shape"/>
</filter>
<linearGradient id="paint4_linear" x1="0" y1="0" x2="1" y2="0" gradientUnits="userSpaceOnUse" gradientTransform="matrix(0 92.68 -53.1259 0 26.563 0)">
<stop offset="0" stop-color="#968AC0"/>
<stop offset="1" stop-color="#F3B2B3"/>
</linearGradient>
<path id="path0_fill" fill-rule="evenodd" d="M 75 150C 116.421 150 150 116.421 150 75C 150 33.5786 116.421 0 75 0C 33.5786 0 0 33.5786 0 75C 0 116.421 33.5786 150 75 150Z"/>
<path id="path1_stroke_2x" d="M 75 153C 118.078 153 153 118.078 153 75L 147 75C 147 114.765 114.765 147 75 147L 75 153ZM 153 75C 153 31.9218 118.078 -3 75 -3L 75 3C 114.765 3 147 35.2355 147 75L 153 75ZM 75 -3C 31.9218 -3 -3 31.9218 -3 75L 3 75C 3 35.2355 35.2355 3 75 3L 75 -3ZM -3 75C -3 118.078 31.9218 153 75 153L 75 147C 35.2355 147 3 114.765 3 75L -3 75Z"/>
<path id="path2_fill" fill-rule="evenodd" d="M 0 0L 53.1259 16.7753L 0 92.68L 0 0Z"/>
<path id="path3_stroke_2x" d="M 75 152C 117.526 152 152 117.526 152 75L 148 75C 148 115.317 115.317 148 75 148L 75 152ZM 152 75C 152 32.4741 117.526 -2 75 -2L 75 2C 115.317 2 148 34.6832 148 75L 152 75ZM 75 -2C 32.4741 -2 -2 32.4741 -2 75L 2 75C 2 34.6832 34.6832 2 75 2L 75 -2ZM -2 75C -2 117.526 32.4741 152 75 152L 75 148C 34.6832 148 2 115.317 2 75L -2 75Z"/>
<path id="path4_fill" fill-rule="evenodd" d="M 63 126C 97.7939 126 126 97.7939 126 63C 126 28.2061 97.7939 0 63 0C 28.2061 0 0 28.2061 0 63C 0 97.7939 28.2061 126 63 126Z"/>
<path id="path5_stroke_2x" d="M 63 128C 98.8985 128 128 98.8985 128 63L 124 63C 124 96.6894 96.6894 124 63 124L 63 128ZM 128 63C 128 27.1015 98.8985 -2 63 -2L 63 2C 96.6894 2 124 29.3106 124 63L 128 63ZM 63 -2C 27.1015 -2 -2 27.1015 -2 63L 2 63C 2 29.3106 29.3106 2 63 2L 63 -2ZM -2 63C -2 98.8985 27.1015 128 63 128L 63 124C 29.3106 124 2 96.6894 2 63L -2 63Z"/>
<path id="path6_fill" d="M 21.311 27.2554C 21.311 31.5666 20.5202 34.842 18.9385 37.0815C 17.3568 39.3071 15.0262 40.4199 11.9468 40.4199C 8.92334 40.4199 6.60677 39.3281 4.99707 37.1445C 3.38737 34.9469 2.56152 31.7555 2.51953 27.5703L 2.51953 22.0903C 2.51953 17.7931 3.31738 14.5387 4.91309 12.3271C 6.50879 10.1156 8.83936 9.00977 11.9048 9.00977C 14.9282 9.00977 17.2378 10.0806 18.8335 12.2222C 20.4292 14.3498 21.255 17.4922 21.311 21.6494L 21.311 27.2554ZM 18.7915 21.7754C 18.7915 18.276 18.2176 15.6305 17.0698 13.8389C 15.936 12.0472 14.2144 11.1514 11.9048 11.1514C 9.63721 11.1514 7.92952 12.0262 6.78174 13.7759C 5.63395 15.5256 5.04606 18.1081 5.01807 21.5234L 5.01807 27.5283C 5.01807 31.0137 5.60596 33.6802 6.78174 35.5278C 7.97152 37.3755 9.6932 38.2993 11.9468 38.2993C 14.1864 38.2993 15.88 37.3965 17.0278 35.5908C 18.1896 33.7852 18.7775 31.1396 18.7915 27.6543L 18.7915 21.7754ZM 45.8765 40L 26.728 40L 26.728 38.0684L 37.2051 26.1846C 38.9408 24.1829 40.1445 22.5312 40.8164 21.2295C 41.4883 19.9277 41.8242 18.661 41.8242 17.4292C 41.8242 15.4976 41.2573 13.9718 40.1235 12.8521C 38.9897 11.7183 37.429 11.1514 35.4414 11.1514C 33.3838 11.1514 31.7181 11.8092 30.4443 13.125C 29.1846 14.4408 28.5547 16.1484 28.5547 18.248L 26.0562 18.248C 26.0562 16.5264 26.4411 14.9587 27.2109 13.5449C 27.9948 12.1312 29.1006 11.0254 30.5283 10.2275C 31.9701 9.41569 33.6077 9.00977 35.4414 9.00977C 38.2409 9.00977 40.4245 9.74463 41.9922 11.2144C 43.5739 12.6841 44.3647 14.6857 44.3647 17.2192C 44.3647 18.647 43.9168 20.2077 43.021 21.9014C 42.1392 23.5951 40.5785 25.7087 38.3389 28.2422L 29.8145 37.8794L 45.8765 37.8794L 45.8765 40ZM 50.4956 16.9253L 49.0049 15.8335C 50.2646 14.1398 50.9155 12.3621 50.9575 10.5005L 50.9575 7.75L 53.4351 7.75L 53.4351 9.87061C 53.4351 12.7961 52.4552 15.1476 50.4956 16.9253ZM 63.8071 23.3501L 66.4106 23.3501C 67.8524 23.3501 69.1121 23.0981 70.1899 22.5942C 71.2677 22.0763 72.0866 21.3765 72.6465 20.4946C 73.2204 19.5988 73.5073 18.57 73.5073 17.4082C 73.5073 15.4486 72.9544 13.9159 71.8486 12.8101C 70.7428 11.7043 69.1541 11.1514 67.0825 11.1514C 65.1229 11.1514 63.5132 11.7323 62.2534 12.894C 61.0076 14.0418 60.3848 15.5605 60.3848 17.4502L 57.8652 17.4502C 57.8652 15.8685 58.2642 14.4268 59.062 13.125C 59.8599 11.8092 60.9657 10.7944 62.3794 10.0806C 63.7931 9.3667 65.3608 9.00977 67.0825 9.00977C 69.854 9.00977 72.0376 9.76562 73.6333 11.2773C 75.229 12.7891 76.0269 14.8607 76.0269 17.4922C 76.0269 18.9619 75.5579 20.3197 74.6201 21.5654C 73.6963 22.7972 72.4225 23.721 70.7988 24.3369C 72.7025 24.8688 74.1442 25.7856 75.124 27.0874C 76.1038 28.3752 76.5938 29.9149 76.5938 31.7065C 76.5938 34.3241 75.7399 36.4307 74.0322 38.0264C 72.3245 39.6221 70.043 40.4199 67.1875 40.4199C 65.3678 40.4199 63.6951 40.056 62.1694 39.3281C 60.6577 38.6003 59.4819 37.5854 58.6421 36.2837C 57.8162 34.9679 57.4033 33.4422 57.4033 31.7065L 59.9229 31.7065C 59.9229 33.6522 60.6017 35.2409 61.9595 36.4727C 63.3172 37.6904 65.0599 38.2993 67.1875 38.2993C 69.3571 38.2993 71.0438 37.7464 72.2476 36.6406C 73.4653 35.5208 74.0742 33.9041 74.0742 31.7905C 74.0742 29.7469 73.4163 28.1862 72.1006 27.1084C 70.7988 26.0306 68.8742 25.4917 66.3267 25.4917L 63.8071 25.4917L 63.8071 23.3501ZM 81.9897 16.9253L 80.499 15.8335C 81.7588 14.1398 82.4097 12.3621 82.4517 10.5005L 82.4517 7.75L 84.9292 7.75L 84.9292 9.87061C 84.9292 12.7961 83.9494 15.1476 81.9897 16.9253ZM 87.3647 16.9253L 85.874 15.8335C 87.1338 14.1398 87.7847 12.3621 87.8267 10.5005L 87.8267 7.75L 90.3042 7.75L 90.3042 9.87061C 90.3042 12.7961 89.3244 15.1476 87.3647 16.9253Z"/>
<path id="path7_fill" d="M 4.58789 4.20312L 7.875 13.4844L 11.1445 4.20312L 14.6074 4.20312L 14.6074 17L 11.9619 17L 11.9619 13.502L 12.2256 7.46387L 8.77148 17L 6.96094 17L 3.51562 7.47266L 3.7793 13.502L 3.7793 17L 1.14258 17L 1.14258 4.20312L 4.58789 4.20312ZM 22.4736 7.49023L 25.0137 7.49023L 25.0137 17L 22.4736 17L 22.4736 11.1289L 19.292 17L 16.7432 17L 16.7432 7.49023L 19.292 7.49023L 19.292 13.3525L 22.4736 7.49023ZM 35.2002 17L 32.6514 17L 32.6514 13.3438L 29.4961 13.3438L 29.4961 17L 26.9561 17L 26.9561 7.49023L 29.4961 7.49023L 29.4961 11.3047L 32.6514 11.3047L 32.6514 7.49023L 35.2002 7.49023L 35.2002 17ZM 40.7197 13.4053L 42.4775 7.49023L 45.2021 7.49023L 41.3789 18.4766L 41.168 18.9775C 40.5996 20.2197 39.6621 20.8408 38.3555 20.8408C 37.9863 20.8408 37.6113 20.7852 37.2305 20.6738L 37.2305 18.749L 37.6172 18.7578C 38.0977 18.7578 38.4551 18.6846 38.6895 18.5381C 38.9297 18.3916 39.1172 18.1484 39.252 17.8086L 39.5508 17.0264L 36.2197 7.49023L 38.9531 7.49023L 40.7197 13.4053ZM 54.0967 9.5293L 51.0469 9.5293L 51.0469 17L 48.498 17L 48.498 9.5293L 45.501 9.5293L 45.501 7.49023L 54.0967 7.49023L 54.0967 9.5293Z"/>
</defs>
</svg>
