<svg xmlns="http://www.w3.org/2000/svg" xmlns:xlink="http://www.w3.org/1999/xlink" width="32" height="32"><g fill="#F1A7B3" transform="translate(-619 2298)"><use xlink:href="#A" x="626.496" y="-2290.83"/><use xlink:href="#B" x="619" y="-2297.97"/><use xlink:href="#C" x="633.976" y="-2283.02"/></g><defs><path id="A" d="M15.042 3.777l-.94-1.025-5.018 4.602a1.58 1.58 0 0 0-.581-.11c-.17 0-.332.027-.485.076L1.004 0 0 .963 7.014 8.28a1.58 1.58 0 0 0-.097.548c0 .876.7 1.587 1.587 1.587S10.1 9.705 10.1 8.83c0-.157-.023-.308-.065-.45l5.018-4.6z"/><path id="B" d="M16 0a15.91 15.91 0 0 1 11.313 4.677A15.85 15.85 0 0 1 32 15.97a15.85 15.85 0 0 1-4.687 11.293A15.91 15.91 0 0 1 16 31.94a15.91 15.91 0 0 1-11.313-4.677A15.85 15.85 0 0 1 0 15.97 15.85 15.85 0 0 1 4.687 4.677 15.91 15.91 0 0 1 16 0zm.695 26.242v4.29c7.503-.352 13.542-6.38 13.896-13.866h-4.32v-1.39h4.32C30.237 7.787 24.198 1.76 16.695 1.408v4.29h-1.39v-4.29c-7.502.353-13.54 6.38-13.896 13.866h4.32v1.39h-4.32c.354 7.487 6.393 13.513 13.896 13.866v-4.29h1.39z" fill-rule="evenodd"/><path id="C" d="M7.105 6.713L2.043 1.114l.005-.09C2.048.458 1.6 0 1.024 0S0 .458 0 1.024.45 2.04 1.01 2.047l5.062 5.598 1.032-.933z"/></defs></svg>