<svg xmlns="http://www.w3.org/2000/svg" xmlns:xlink="http://www.w3.org/1999/xlink" width="34" height="34"><g fill="#ED93A3" transform="translate(7 4085)"><use xlink:href="#A" x="11.332" y="-4062.05"/><use xlink:href="#B" x="-3.6" y="-4081.32"/><use xlink:href="#C" x="20.767" y="-4080.18"/><use xlink:href="#C" x="18.5" y="-4080.18"/><use xlink:href="#C" x="21.9" y="-4078.48"/><use xlink:href="#C" x="19.633" y="-4078.48"/><use xlink:href="#C" x="16.233" y="-4080.18"/><use xlink:href="#C" x="17.367" y="-4078.48"/><use xlink:href="#C" x="13.967" y="-4080.18"/><use xlink:href="#C" x="15.1" y="-4078.48"/><use xlink:href="#C" x="11.7" y="-4080.18"/><use xlink:href="#C" x="12.833" y="-4078.48"/><use xlink:href="#D" x="-7" y="-4084.72"/><use xlink:href="#E" x="-3.6" y="-4070.55"/><use xlink:href="#C" x="20.767" y="-4069.42"/><use xlink:href="#C" x="18.5" y="-4069.42"/><use xlink:href="#C" x="21.9" y="-4067.72"/><use xlink:href="#C" x="19.633" y="-4067.72"/><use xlink:href="#C" x="16.233" y="-4069.42"/><use xlink:href="#C" x="17.367" y="-4067.72"/><use xlink:href="#C" x="13.967" y="-4069.42"/><use xlink:href="#C" x="15.1" y="-4067.72"/><use xlink:href="#C" x="11.7" y="-4069.42"/><use xlink:href="#C" x="12.833" y="-4067.72"/><use xlink:href="#E" x="-3.6" y="-4059.78"/></g><defs><path id="A" d="M8.81 0c2.324 0 4.264 1.827 4.507 4.155 1.337.457 2.267 1.745 2.268 3.218 0 1.87-1.487 3.394-3.314 3.394H9.827c-.036 0-.07-.002-.107-.004l-.097.004H3.518C1.578 10.767 0 9.15 0 7.163c0-1.28.685-2.477 1.766-3.118.388-1.267 1.556-2.16 2.87-2.16.168 0 .335.014.5.043C5.985.73 7.356 0 8.81 0zm.993 9.632l2.466.002c1.203 0 2.18-1.014 2.18-2.26 0-1.086-.75-2.02-1.783-2.22l-.453-.088-.006-.46c-.024-1.913-1.55-3.47-3.4-3.47-1.21 0-2.302.645-2.923 1.725l-.23.403-.44-.148c-.188-.063-.382-.095-.578-.095-.873 0-1.642.64-1.83 1.525l-.058.27-.247.12c-.832.41-1.37 1.286-1.37 2.23 0 1.362 1.07 2.47 2.385 2.47l6.19-.005.096.003z" fill-rule="evenodd"/><path id="B" d="M0 2.55C0 1.144 1.144 0 2.55 0S5.1 1.144 5.1 2.55 3.956 5.1 2.55 5.1 0 3.956 0 2.55zm1.133 0A1.42 1.42 0 0 0 2.55 3.967 1.42 1.42 0 0 0 3.967 2.55 1.42 1.42 0 0 0 2.55 1.133 1.42 1.42 0 0 0 1.133 2.55z" fill-rule="evenodd"/><path id="C" d="M.567 1.133c.313 0 .567-.254.567-.567S.88 0 .567 0 0 .254 0 .567s.254.567.567.567z"/><path id="D" d="M34 2.61V9.29c0 .832-.398 1.566-1.008 2.044.61.478 1.007 1.212 1.007 2.045v8.156h-1.133v-8.155a1.48 1.48 0 0 0-1.478-1.478H2.61a1.48 1.48 0 0 0-1.478 1.478v6.677a1.48 1.48 0 0 0 1.478 1.478h18.922v1.133H2.61a1.48 1.48 0 0 0-1.478 1.478v6.677A1.48 1.48 0 0 0 2.611 32.3h13.256v1.133H2.61c-1.44 0-2.61-1.17-2.61-2.61v-6.677c0-.832.398-1.566 1.007-2.044C.398 21.622 0 20.888 0 20.055v-6.677c0-.832.398-1.566 1.007-2.045C.398 10.855 0 10.12 0 9.29V2.61C0 1.17 1.17 0 2.61 0H31.39C32.83 0 34 1.17 34 2.61zM1.133 9.29a1.48 1.48 0 0 0 1.478 1.478H31.39a1.48 1.48 0 0 0 1.478-1.478V2.61a1.48 1.48 0 0 0-1.479-1.478H2.61a1.48 1.48 0 0 0-1.478 1.478V9.29z" fill-rule="evenodd"/><path id="E" d="M2.55 5.1C1.144 5.1 0 3.956 0 2.55S1.144 0 2.55 0 5.1 1.144 5.1 2.55 3.956 5.1 2.55 5.1zm0-1.134A1.42 1.42 0 0 0 3.967 2.55 1.42 1.42 0 0 0 2.55 1.133 1.42 1.42 0 0 0 1.133 2.55 1.42 1.42 0 0 0 2.55 3.967z" fill-rule="evenodd"/></defs></svg>