<svg xmlns="http://www.w3.org/2000/svg" xmlns:xlink="http://www.w3.org/1999/xlink" width="39" height="39"><g fill="#ED93A3" transform="translate(6 4372)"><use xlink:href="#A" x="-5.67" y="-4355.75"/><use xlink:href="#B" x="19.788" y="-4372"/><use xlink:href="#C" x="26.846" y="-4336.58"/><use xlink:href="#D" x="13.101" y="-4352.04"/><use xlink:href="#E" x="12.602" y="-4357.68"/><use xlink:href="#F" x="3.792" y="-4334.3"/><use xlink:href="#G" x="16.606" y="-4346"/><use xlink:href="#H" x="16.42" y="-4357.7"/><use xlink:href="#I" x="24.406" y="-4346"/><use xlink:href="#J" x="24.778" y="-4351.85"/><use xlink:href="#K" x="20.506" y="-4346"/><use xlink:href="#L" x="20.32" y="-4357.7"/><use xlink:href="#I" x="16.978" y="-4351.85"/><use xlink:href="#J" x="20.878" y="-4351.85"/><use xlink:href="#M" x="31.252" y="-4349.39"/><use xlink:href="#F" x="19.392" y="-4334.3"/><use xlink:href="#F" x="15.492" y="-4334.3"/><use xlink:href="#J" x="21.992" y="-4340.15"/><use xlink:href="#J" x="18.092" y="-4340.15"/><use xlink:href="#N" x="23.291" y="-4334.3"/><use xlink:href="#O" x="25.844" y="-4339.85"/><use xlink:href="#P" x="28.306" y="-4346.23"/><use xlink:href="#Q" x="11.22" y="-4355.14"/><use xlink:href="#F" x="7.692" y="-4334.3"/><use xlink:href="#R" x="14.504" y="-4341.2"/><use xlink:href="#S" x="28.678" y="-4351.84"/><use xlink:href="#F" x="11.592" y="-4334.3"/><use xlink:href="#T" x="13.872" y="-4344.81"/><use xlink:href="#U" x="22.271" y="-4369.4"/><use xlink:href="#V" x="-1.78" y="-4351.85"/></g><defs><path id="A" d="M7.79 0c2.1 0 4.067.918 5.543 2.585 2.998 3.387 2.998 8.897-.001 12.285L7.79 21.13l-5.543-6.26c-2.998-3.387-2.998-8.897 0-12.285C3.724.918 5.692 0 7.79 0zm.001 19.17l4.57-5.162c2.577-2.912 2.577-7.65-.001-10.56C11.135 2.062 9.51 1.3 7.79 1.3s-3.344.762-4.57 2.147c-2.578 2.91-2.578 7.65 0 10.56l4.57 5.162z" fill-rule="evenodd"/><path id="B" d="M10.1 11.194L5.898 15.93l-4.202-4.736c-2.26-2.548-2.26-6.692 0-9.24C2.814.693 4.306 0 5.897 0S8.98.693 10.1 1.953c2.26 2.548 2.26 6.692 0 9.24zM5.897 1.3c-1.215 0-2.36.538-3.23 1.517C.83 4.888.83 8.26 2.668 10.33l3.23 3.64 3.23-3.64c1.838-2.07 1.838-5.442 0-7.514C8.26 1.838 7.113 1.3 5.897 1.3z" fill-rule="evenodd"/><path id="C" d="M1.347.016A.65.65 0 0 0 .57.507c-.075.332-.22.636-.43.905a.65.65 0 0 0 .109.913.65.65 0 0 0 .401.139.65.65 0 0 0 .512-.248A3.58 3.58 0 0 0 1.838.793.65.65 0 0 0 1.347.016z"/><path id="D" d="M1.696.192C1.414.19 1.14.14.882.042.55-.084.17.083.043.418a.65.65 0 0 0 .376.839 3.59 3.59 0 0 0 1.276.235h.232a.65.65 0 0 0 .65-.65.65.65 0 0 0-.65-.65h-.23z"/><path id="E" d="M.65 1.72a.65.65 0 0 0 .343-.098c.288-.18.606-.29.945-.327a.65.65 0 0 0 .575-.718.65.65 0 0 0-.718-.575C1.263.063.76.236.306.52a.65.65 0 0 0 .345 1.202z"/><path id="F" d="M1.95 0H.65A.65.65 0 0 0 0 .65a.65.65 0 0 0 .65.65h1.3A.65.65 0 0 0 2.6.65.65.65 0 0 0 1.95 0z"/><path id="G" d="M.8 0L.623.004A.65.65 0 0 0 .001.68a.65.65 0 0 0 .649.623H.677L1.95 1.3A.65.65 0 0 0 2.6.65.65.65 0 0 0 1.95 0H.8z"/><path id="H" d="M.65 1.3h1.3A.65.65 0 0 0 2.6.65.65.65 0 0 0 1.95 0H.65A.65.65 0 0 0 0 .65a.65.65 0 0 0 .65.65z"/><path id="I" d="M.65 0A.65.65 0 0 0 0 .65a.65.65 0 0 0 .65.65h1.3A.65.65 0 0 0 2.6.65.65.65 0 0 0 1.95 0H.65z"/><path id="J" d="M2.6.65A.65.65 0 0 0 1.95 0H.65A.65.65 0 0 0 0 .65a.65.65 0 0 0 .65.65h1.3A.65.65 0 0 0 2.6.65z"/><path id="K" d="M.65 1.3h1.3A.65.65 0 0 0 2.6.65.65.65 0 0 0 1.95 0H.65A.65.65 0 0 0 0 .65a.65.65 0 0 0 .65.65z"/><path id="L" d="M1.95 1.3A.65.65 0 0 0 2.6.65.65.65 0 0 0 1.95 0H.65A.65.65 0 0 0 0 .65a.65.65 0 0 0 .65.65h1.3z"/><path id="M" d="M1.375.548A.65.65 0 0 0 .63.009.65.65 0 0 0 .091.754a2.14 2.14 0 0 1 .027.359c0 .218-.03.434-.092.642a.65.65 0 0 0 .441.807.66.66 0 0 0 .183.026.65.65 0 0 0 .624-.467 3.58 3.58 0 0 0 .144-1.003c.001-.187-.013-.38-.044-.57z"/><path id="N" d="M1.905 0H.65A.65.65 0 0 0 0 .65a.65.65 0 0 0 .65.65H1.93l.02-.65v.65a.63.63 0 0 0 .627-.65A.67.67 0 0 0 1.905 0z"/><path id="O" d="M1.65 2.113c.14 0 .283-.046.4-.14a.65.65 0 0 0 .109-.913C1.834.646 1.412.303.94.068a.65.65 0 0 0-.872.293.65.65 0 0 0 .293.872 2.28 2.28 0 0 1 .778.633.65.65 0 0 0 .512.248z"/><path id="P" d="M1.67.05C1.4.168 1.095.227.8.227H.65a.65.65 0 0 0-.65.65.65.65 0 0 0 .65.65H.8a3.55 3.55 0 0 0 1.381-.278.65.65 0 0 0 .348-.851.65.65 0 0 0-.85-.348z"/><path id="Q" d="M.998 2.55a.65.65 0 0 0 .415-.821 2.27 2.27 0 0 1-.113-.707A2.55 2.55 0 0 1 1.318.73.65.65 0 0 0 .755.004C.387-.037.073.213.03.568.01.715.001.864 0 1.02a3.58 3.58 0 0 0 .177 1.117.65.65 0 0 0 .618.447.63.63 0 0 0 .203-.032z"/><path id="R" d="M1.675 2.08A.65.65 0 0 0 1.946.84a2.3 2.3 0 0 1-.798-.608.65.65 0 0 0-.916-.079.65.65 0 0 0-.079.916 3.6 3.6 0 0 0 1.253.954c.088.04.18.06.27.06z"/><path id="S" d="M2.207.47C1.743.202 1.236.044.7.002a.65.65 0 0 0-.699.597.65.65 0 0 0 .597.699 2.24 2.24 0 0 1 .956.298c.103.06.215.088.326.088A.65.65 0 0 0 2.207.471z"/><path id="T" d="M1.29 1.953a2.26 2.26 0 0 1 .402-.918.65.65 0 0 0-.138-.909.65.65 0 0 0-.909.138 3.56 3.56 0 0 0-.632 1.444.65.65 0 0 0 .516.761.66.66 0 0 0 .123.012c.306-.001.578-.218.638-.528z"/><path id="U" d="M7.15 3.575A3.58 3.58 0 0 1 3.575 7.15 3.58 3.58 0 0 1 0 3.575 3.58 3.58 0 0 1 3.575 0 3.58 3.58 0 0 1 7.15 3.575zm-1.3 0A2.28 2.28 0 0 0 3.575 1.3 2.28 2.28 0 0 0 1.3 3.575 2.28 2.28 0 0 0 3.575 5.85 2.28 2.28 0 0 0 5.85 3.575z" fill-rule="evenodd"/><path id="V" d="M0 3.9C0 1.75 1.75 0 3.9 0s3.9 1.75 3.9 3.9-1.75 3.9-3.9 3.9S0 6.05 0 3.9zm1.3 0c0 1.434 1.166 2.6 2.6 2.6s2.6-1.166 2.6-2.6-1.166-2.6-2.6-2.6-2.6 1.166-2.6 2.6z" fill-rule="evenodd"/></defs></svg>