<svg xmlns="http://www.w3.org/2000/svg" xmlns:xlink="http://www.w3.org/1999/xlink" width="45" height="29"><g fill="#ED93A3" transform="translate(7 4472)"><use xlink:href="#A" x="-.672" y="-4450.07"/><use xlink:href="#A" x="27.453" y="-4450.07"/><use xlink:href="#B" x="-7" y="-4472"/><use xlink:href="#C" x="9.875" y="-4448.66"/><use xlink:href="#D" x="18.313" y="-4455.73"/></g><defs><path id="A" d="M3.516 1.415c-.388 0-.703.317-.703.707s-.315.707-.703.707-.703-.317-.703-.707.315-.707.703-.707.703-.317.703-.707S2.498 0 2.11 0A2.12 2.12 0 0 0 0 2.122a2.12 2.12 0 0 0 2.109 2.122 2.12 2.12 0 0 0 2.109-2.122c0-.39-.315-.707-.703-.707z"/><path id="B" d="M45 14.147c0-.197-.08-.375-.2-.504a3.51 3.51 0 0 0-1.733-1.952.69.69 0 0 0-.068-.03l-2.324-.877-1.422-5.434c-.45-1.507-1.803-2.52-3.367-2.52h-4.94V1.415c0-.78-.63-1.415-1.406-1.415H1.406C.63 0 0 .635 0 1.415V21.22c0 .78.63 1.415 1.406 1.415H3.72a4.92 4.92 0 0 0-.155.707h-2.863c-.388 0-.703.317-.703.707s.315.707.703.707h2.864C3.91 27.152 5.962 29 8.438 29s4.53-1.848 4.87-4.244h1.457a2.12 2.12 0 0 0 2.109 2.122h4.22a2.12 2.12 0 0 0 2.109-2.122h8.49c.342 2.396 2.396 4.244 4.87 4.244s4.53-1.848 4.87-4.244h2.864c.388 0 .703-.316.703-.707s-.315-.707-.703-.707h-2.864a4.92 4.92 0 0 0-.155-.707h2.315C44.37 22.634 45 22 45 21.22v-6.366a3.6 3.6 0 0 0-.034-.491.71.71 0 0 0 .034-.216zm-1.406 4.244h-.703v-.707h.703v.707zM30.938 13.44h12.12a2.12 2.12 0 0 0-.599-.468l-2.508-.947h-9.013v1.415zm4.94-9.195c.935 0 1.744.603 2.017 1.5l1.273 4.864h-8.228V4.244h4.94zM1.406 21.22H4.22c.058 0 .114.008.168.02.89-1.293 2.373-2.143 4.05-2.143s3.162.85 4.05 2.143a.71.71 0 0 1 .168-.021h16.875V1.415H1.406v14.854h21.797c.388 0 .703.317.703.707s-.315.707-.703.707H1.406v3.537zm7.03 6.366c-1.94 0-3.516-1.586-3.516-3.537s1.577-3.537 3.516-3.537 3.516 1.586 3.516 3.537-1.577 3.537-3.516 3.537zm4.716-4.95c.068.23.12.465.155.707h1.457a2.12 2.12 0 0 1 .121-.707h-1.733zm8.643 2.122c0 .4-.316.707-.703.707h-4.22c-.388 0-.703-.317-.703-.707v-1.415c0-.4.315-.707.703-.707h4.22c.388 0 .703.317.703.707v1.415zm8.438-2.122h-7.152c.078.22.12.46.12.707h8.49c.034-.242.087-.478.155-.707h-1.612zm6.328 4.95c-1.938 0-3.516-1.586-3.516-3.537s1.577-3.537 3.516-3.537 3.516 1.586 3.516 3.537-1.577 3.537-3.516 3.537zm4.05-6.345c.054-.014.1-.02.168-.02h2.813v-1.415h-.703c-.775 0-1.406-.635-1.406-1.415v-.707c0-.78.63-1.415 1.406-1.415h.703v-1.415H30.938v6.366h1.406c.058 0 .114.008.168.02.89-1.293 2.373-2.143 4.05-2.143s3.162.85 4.05 2.143z" fill-rule="evenodd"/><path id="C" d="M.703 0a.71.71 0 0 0-.497.207C.075.34 0 .522 0 .707s.075.37.206.5.312.207.497.207.367-.075.497-.207.206-.315.206-.5-.075-.37-.206-.5A.71.71 0 0 0 .703 0z"/><path id="D" d="M.703 1.415H2.11c.388 0 .703-.317.703-.707S2.497 0 2.11 0H.703C.315 0 0 .317 0 .707s.315.707.703.707z"/></defs></svg>