<svg xmlns="http://www.w3.org/2000/svg" xmlns:xlink="http://www.w3.org/1999/xlink" width="36" height="36"><g fill="#ED93A3" transform="translate(6 4177)"><use xlink:href="#A" x="-6" y="-4177"/><use xlink:href="#B" x="5.296" y="-4155.56"/><use xlink:href="#C" x="7.417" y="-4149.96"/><use xlink:href="#D" x="11.747" y="-4152.18"/><use xlink:href="#E" x="18.16" y="-4165.7"/><use xlink:href="#F" x="15.774" y="-4173.18"/><use xlink:href="#G" x="1.001" y="-4152.04"/></g><defs><path id="A" d="M23.645.954l11.4 11.4c1.274 1.274 1.274 3.347 0 4.622L17.52 34.5H25.5a.75.75 0 1 1 0 1.5l-10.832-.001-.003.001-.003-.001H10.5a.75.75 0 0 1-.75-.75.75.75 0 0 1 .75-.749h1.308L.954 23.645C.34 23.03 0 22.21 0 21.334s.34-1.695.954-2.31L19.023.954C19.64.34 20.46 0 21.334 0s1.695.34 2.31.954zm-7.73 33.03l18.07-18.07a1.77 1.77 0 0 0 0-2.501l-6.282-6.28L10.35 24.486a.75.75 0 0 1-1.061 0 .75.75 0 0 1 0-1.061L26.642 6.072l-4.057-4.057c-.332-.332-.776-.515-1.25-.515s-.918.183-1.25.515l-18.07 18.07c-.332.332-.515.776-.515 1.25s.183.918.515 1.25l.876.876L20.243 6.107a.75.75 0 0 1 1.061 1.061L3.95 24.52l9.463 9.463c.33.33.774.514 1.247.515h.006c.473-.001.916-.184 1.248-.515z" fill-rule="evenodd"/><path id="B" d="M7.182.22a.75.75 0 0 0-1.061 0L.22 6.12a.75.75 0 0 0 0 1.061.75.75 0 0 0 .53.22.75.75 0 0 0 .53-.22L7.182 1.28a.75.75 0 0 0 0-1.061z"/><path id="C" d="M2.64.22L.22 2.64a.75.75 0 0 0 0 1.061.75.75 0 0 0 .53.22.75.75 0 0 0 .53-.22L3.7 1.28a.75.75 0 0 0 0-1.061.75.75 0 0 0-1.061 0z"/><path id="D" d="M.538.22L.22.538a.75.75 0 0 0 0 1.061.75.75 0 0 0 .53.22c.192 0 .384-.073.53-.22l.318-.318a.75.75 0 0 0 0-1.061.75.75 0 0 0-1.061 0z"/><path id="E" d="M3.932 0a.75.75 0 0 1 .53.22l2.12 2.12a.75.75 0 0 1 0 1.061L3.402 6.584a.75.75 0 0 1-.53.219c-.192 0-.384-.073-.53-.22L.22 4.462a.75.75 0 0 1 0-1.061L3.402.22a.75.75 0 0 1 .53-.22zM1.81 3.932l1.06 1.06 2.12-2.12-1.06-1.06-2.12 2.12z" fill-rule="evenodd"/><path id="F" d="M.75 1.818c.192 0 .384-.073.53-.22L1.6 1.28a.75.75 0 0 0 0-1.061.75.75 0 0 0-1.061 0L.22.538a.75.75 0 0 0 0 1.061c.146.146.338.22.53.22z"/><path id="G" d="M.538.22L.22.538a.75.75 0 0 0 0 1.061.75.75 0 0 0 .53.22.75.75 0 0 0 .53-.22l.318-.318a.75.75 0 0 0 0-1.061.75.75 0 0 0-1.061 0z"/></defs></svg>