<svg xmlns="http://www.w3.org/2000/svg" xmlns:xlink="http://www.w3.org/1999/xlink" width="31" height="37"><g fill="#ED93A3" transform="translate(3 4275)"><use xlink:href="#A" x="7.221" y="-4268.3"/><use xlink:href="#B" x="11.238" y="-4263.52"/><use xlink:href="#C" x="11.238" y="-4259.45"/><use xlink:href="#D" x="-2.996" y="-4275"/><use xlink:href="#E" x="5.546" y="-4244.03"/></g><defs><path id="A" d="M4.995 19.186a.83.83 0 0 1-.296-.06.73.73 0 0 1-.455-.686v-3.444H3.13c-1.728 0-3.13-1.394-3.13-3.112V3.112C0 1.394 1.402 0 3.13 0h14.462c1.728 0 3.13 1.394 3.13 3.112v8.772c0 1.718-1.402 3.112-3.13 3.112h-7.9l-4.184 3.978c-.144.144-.333.21-.523.21zM1.5 11.884c0 .897.728 1.62 1.63 1.62v.008h1.865c.417 0 .75.332.75.746V16.7l3.13-2.984c.136-.135.318-.21.515-.21h8.193c.902 0 1.63-.723 1.63-1.62V3.112c0-.896-.728-1.62-1.63-1.62H3.13c-.902 0-1.63.724-1.63 1.62v8.772z" fill-rule="evenodd"/><path id="B" d="M.75 1.492h10.786c.417 0 .75-.332.75-.746S11.953 0 11.536 0H.75C.333 0 0 .332 0 .746a.75.75 0 0 0 .75.746z"/><path id="C" d="M12.286.746c0-.414-.334-.746-.75-.746H.75C.333 0 0 .332 0 .746s.333.746.75.746h10.786c.417 0 .75-.332.75-.746z"/><path id="D" d="M23.087 34.204v-9.977c0-.415-.334-.746-.75-.746s-.75.33-.75.746v9.985a1.25 1.25 0 0 1-1.251 1.243H2.75a1.25 1.25 0 0 1-1.251-1.243v-31.476c0-.686.56-1.236 1.25-1.236h17.584c.7 0 1.25.558 1.25 1.236v1.56c0 .414.333.746.75.746s.75-.332.75-.746v-1.56A2.75 2.75 0 0 0 20.336 0H2.75A2.75 2.75 0 0 0 0 2.735v31.476a2.75 2.75 0 0 0 2.751 2.736h17.584c1.524-.008 2.75-1.236 2.75-2.743z"/><path id="E" d="M5.26 0H.75C.333 0 0 .332 0 .746s.333.746.75.746h4.5c.417 0 .75-.332.75-.746S5.677 0 5.26 0z"/></defs></svg>